<svg enable-background="new 0 0 48 48" height="48" viewBox="0 0 48 48" width="48" xmlns="http://www.w3.org/2000/svg"><g fill="#1a237e"><path d="m33.6 12h-19.2c-1.3 0-2.4 1.1-2.4 2.4s1.1 2.4 2.4 2.4h19.2c1.3 0 2.4-1 2.4-2.3v-.1c.1-1.3-.9-2.3-2.2-2.4z"/><path d="m33.6 21.6h-19.2c-1.3 0-2.4 1.1-2.4 2.4s1.1 2.4 2.4 2.4h19.2c1.3 0 2.4-1 2.4-2.3v-.1c.1-1.3-.9-2.3-2.2-2.4z"/><path d="m33.6 31.2h-19.2c-1.3 0-2.4 1.1-2.4 2.4s1.1 2.4 2.4 2.4h19.2c1.3 0 2.4-1 2.4-2.3v-.1c.1-1.3-.9-2.3-2.2-2.4z"/></g></svg>