<svg height="48" viewBox="0 0 48 48" width="48" xmlns="http://www.w3.org/2000/svg"><g fill="#4eb600"><path d="m32.5 31.1-2.7-2.5c.8-1.8 1.2-3.7 1.2-5.6v-.7h-3.5v.7c0 1.1-.1 2.2-.4 3.2l-3.3-3.2c.2-.1.5-.3.7-.5.4-.3.8-.7 1.2-1.2.3-.4.6-.8.8-1.3s.3-1 .3-1.5c0-.7-.1-1.3-.4-1.9s-.7-1.1-1.1-1.5c-.5-.4-1.1-.8-1.7-1-.7-.2-1.4-.4-2.1-.4s-1.4.1-2.1.4c-.6.2-1.2.6-1.7 1s-.9.9-1.1 1.5c-.3.6-.4 1.2-.4 1.9 0 1.1.6 2.4 2 3.8-2 1.2-3.2 3.3-3.2 5.6 0 .9.2 1.7.5 2.5s.8 1.4 1.5 2c.6.6 1.4 1 2.2 1.3s1.7.5 2.6.5c2.3 0 4.4-.9 5.9-2.6l2.2 2.1.5.5.5-.5 1.6-1.5.5-.5zm-10.4-.3c-.5 0-1-.1-1.4-.2s-.7-.3-1.1-.6c-.3-.2-.5-.6-.7-.9-.3-.6-.3-1.4-.1-2 .1-.3.3-.6.5-.9s.5-.6.8-.9c.2-.1.3-.3.5-.4l4.6 4.4c-.7.9-1.9 1.4-3.1 1.5zm-.7-13.6c.4 0 .9.1 1.3.4.3.3.4.6.4 1 0 1-.6 1.9-1.6 2.2-.3-.2-.5-.5-.7-.7s-.4-.4-.6-.7c-.1-.1-.2-.3-.2-.4 0-.2-.1-.3-.1-.5.1-.9.5-1.3 1.5-1.3z"/><path d="m33.8 10c2.3 0 4.2 1.9 4.2 4.2v23.8h-23.8c-2.3 0-4.2-1.9-4.2-4.2v-23.8zm-27.8-4v28.5c0 4.1 3.4 7.5 7.5 7.5h28.5v-28.5c0-4.1-3.4-7.5-7.5-7.5z"/></g></svg>