<svg height="352" viewBox="0 0 480 352" width="480" xmlns="http://www.w3.org/2000/svg"><g fill="#cc1c1c"><path d="m137.5 203.7h-5.9l6.8-35h5.9z"/><path d="m182.7 168.7-6.8 35h-5l-9.8-23.9-4.7 23.9h-5.7l6.8-35h4.9l9.8 24.2 4.7-24.2z"/><path d="m220.7 168.7-6.8 35h-5l-9.8-23.9-4.7 23.9h-5.7l6.8-35h4.9l9.8 24.2 4.7-24.2z"/><path d="m238.2 204.1c-7.8 0-12.1-5.3-10-15.7l.9-4.5c2.1-11 7.9-15.7 16.2-15.7 7.9 0 12.1 5.3 10 15.7l-.9 4.5c-2.1 11-7.6 15.7-16.2 15.7zm-4.1-15.7c-1.5 7.6.5 10.6 5.2 10.6s7.8-3 9.3-10.6l.9-4.5c1.5-7.6-.5-10.6-5.2-10.6s-7.8 3-9.3 10.6z"/><path d="m271.6 168.7 3.7 25.6 13.7-25.6h6.7l-19.2 35h-5.5l-5.6-35z"/><path d="m292.4 203.7 19-35h5.6l5.4 35h-6l-1-7.3h-12.6l-3.8 7.3zm12.8-12.4h9.3l-1.9-14.2z"/><path d="m359 168.7-1 5.1h-10l-5.8 29.9h-5.9l5.8-29.9h-10.1l1-5.1z"/><path d="m372.8 204.1c-7.8 0-12.1-5.3-10-15.7l.9-4.5c2.1-11 7.9-15.7 16.2-15.7 7.9 0 12.1 5.3 10 15.7l-.9 4.5c-2.1 11-7.6 15.7-16.2 15.7zm-4.1-15.7c-1.5 7.6.5 10.6 5.2 10.6s7.8-3 9.3-10.6l.9-4.5c1.5-7.6-.5-10.6-5.2-10.6s-7.8 3-9.3 10.6z"/><path d="m417 203.7-4-14.2h-7l-2.7 14.2h-5.9l6.8-35h11.9c6.7 0 11.1 3.3 11.1 9 0 5.4-2.9 9.2-8.4 11l4.5 15.1h-6.3zm-4.3-19.3c6 0 8.6-1.8 8.6-6.4 0-3-2.2-4.2-6.5-4.2h-5.6l-2 10.6z"/></g><path d="m53.3 124.6c.9-11.3 7.9-16.7 21.7-16.7 7.4 0 13.1 1.7 16.9 5.1 3.6 3.1 4.9 7.1 4.9 14.3v22.5c0 5.3.2 6 1.8 8.4h-14.7a36.35 36.35 0 0 1 -1.1-3.9c-4.8 4-8.2 5.2-14 5.2-10.9 0-18.1-6.1-18.1-15.3s5.8-14 19.5-16.2l7.8-1.3c3.2-.5 4.4-1.3 4.4-3.3 0-2.7-2.8-4.5-7.5-4.5-5.3 0-8.1 1.8-8.7 5.8h-12.9zm29.5 10.3a27.07 27.07 0 0 1 -5.3 1.5l-5.2 1.1c-5.2 1.2-7.4 2.9-7.4 5.9 0 3.2 2.7 5.2 7.3 5.2a11.3 11.3 0 0 0 10.6-6.2z" fill="#5a5a5a"/><path d="m123.7 109.2-.4 8.7c2.8-7.9 6.5-10.1 16.9-10v13.6a25.55 25.55 0 0 0 -3.7-.2c-5 0-9 2.2-10.7 5.9-1.4 3.2-1.9 7.8-1.9 17.2v13.8h-14.4v-49z" fill="#5a5a5a"/><path d="m146.9 124.6c.9-11.3 7.9-16.7 21.7-16.7 7.4 0 13.1 1.7 16.9 5.1 3.6 3.1 4.9 7.1 4.9 14.3v22.5c0 5.3.2 6 1.8 8.4h-14.7a36.35 36.35 0 0 1 -1.1-3.9c-4.8 4-8.2 5.2-14 5.2-10.9 0-18.1-6.1-18.1-15.3s5.8-14 19.5-16.2l7.8-1.3c3.2-.5 4.4-1.3 4.4-3.3 0-2.7-2.8-4.5-7.5-4.5-5.3 0-8.1 1.8-8.7 5.8h-12.9zm29.5 10.3a27.07 27.07 0 0 1 -5.3 1.5l-5.2 1.1c-5.2 1.2-7.4 2.9-7.4 5.9 0 3.2 2.7 5.2 7.3 5.2a11.3 11.3 0 0 0 10.6-6.2z" fill="#5a5a5a"/><path d="m230.4 123.9c-.6-3.7-3.6-5.6-8.3-5.6-4.2 0-6.9 1.6-6.9 4.1 0 1.8 1.4 2.7 6 3.8l9 1.9c6 1.2 9 2.5 11.2 4.8a13.77 13.77 0 0 1 3.7 9.8c0 10.3-8.4 16.8-22 16.8s-22-6.4-22.8-17.2h13.5c.8 4.7 3.9 6.8 9.6 6.8 4.6 0 7.5-1.8 7.5-4.8 0-2.3-1.6-3.6-5.5-4.5l-8.9-2c-10.8-2.3-14.9-6.3-14.9-14.1 0-9.8 7.8-15.8 20.9-15.8 12.6 0 20.2 5.7 21.5 16z" fill="#5a5a5a"/><path d="m121.2 172.2h-73.2l.7-3.5h73.2z" fill="#cc1c1c"/><path d="m431.3 158.2h-172.5l.7-3.5h172.5z" fill="#cc1c1c"/></svg>