<svg xmlns="http://www.w3.org/2000/svg" width="1901" height="2284" viewBox="0 0 1901 2284">
  <g id="Group_90" data-name="Group 90" transform="translate(-482 4339)">
    <g id="Rectangle_50" data-name="Rectangle 50" transform="translate(1375 -3722)" fill="#fbf9f9" stroke="#04f" stroke-width="1" stroke-dasharray="10 5">
      <rect width="954" height="595" stroke="none"/>
      <rect x="0.5" y="0.5" width="953" height="594" fill="none"/>
    </g>
    <text id="Start" transform="translate(1058 -4289)" fill="#707070" font-size="32" font-family="SegoeUI, Segoe UI"><tspan x="-32.531" y="0">Start</tspan></text>
    <text id="new_CUILayout" data-name="new CUILayout" transform="translate(1058 -4193)" fill="#707070" font-size="32" font-family="SegoeUI, Segoe UI"><tspan x="-105.789" y="0">new CUILayout</tspan></text>
    <text id="cuiLayout.init_" data-name="cuiLayout.init()" transform="translate(1058 -4097)" fill="#707070" font-size="32" font-family="SegoeUI, Segoe UI"><tspan x="-102.938" y="0">cuiLayout.init()</tspan></text>
    <text id="get_CUIWindowSection" data-name="get CUIWindowSection" transform="translate(1058 -3905)" fill="#707070" font-size="32" font-family="SegoeUI, Segoe UI"><tspan x="-162.969" y="0">get CUIWindowSection</tspan></text>
    <text id="Server_stub" data-name="Server/stub" transform="translate(1493 -3858)" fill="#707070" font-size="32" font-family="SegoeUI, Segoe UI"><tspan x="-80.93" y="0">Server/stub</tspan></text>
    <text id="normalize_data" data-name="normalize data" transform="translate(1058 -3809)" fill="#707070" font-size="32" font-family="SegoeUI, Segoe UI"><tspan x="-104.773" y="0">normalize data</tspan></text>
    <text id="for_each_controlDefinition" data-name="for each controlDefinition" transform="translate(1058 -3713)" fill="#707070" font-size="32" font-family="SegoeUI, Segoe UI"><tspan x="-180.844" y="0">for each controlDefinition</tspan></text>
    <text id="get_control_metadata" data-name="get control metadata" transform="translate(1058 -3617)" fill="#707070" font-size="32" font-family="SegoeUI, Segoe UI"><tspan x="-148.867" y="0">get control metadata</tspan></text>
    <text id="create_control" data-name="create control" transform="translate(1058 -3522)" fill="#707070" font-size="32" font-family="SegoeUI, Segoe UI"><tspan x="-97.688" y="0">create control</tspan></text>
    <text id="save_control" data-name="save control" transform="translate(1058 -3426)" fill="#707070" font-size="32" font-family="SegoeUI, Segoe UI"><tspan x="-85.398" y="0">save control</tspan></text>
    <text id="repeat_recursively" data-name="repeat recursively" transform="translate(1058 -3330)" fill="#707070" font-size="32" font-family="SegoeUI, Segoe UI"><tspan x="-123.898" y="0">repeat recursively</tspan></text>
    <text id="load_deferred_locations_data" data-name="load
deferred
locations data" transform="translate(617 -2281)" fill="#707070" font-size="32" font-family="SegoeUI, Segoe UI"><tspan x="-30.813" y="0">load</tspan><tspan x="-60.078" y="43">deferred</tspan><tspan x="-98.805" y="86">locations data</tspan></text>
    <text id="get_control_metadata-2" data-name="get control metadata" transform="translate(1058 -3139)" fill="#707070" font-size="32" font-family="SegoeUI, Segoe UI"><tspan x="-148.867" y="0">get control metadata</tspan></text>
    <text id="is_metadata.eventHandler_provided_" data-name="is metadata.eventHandler provided?" transform="translate(1058 -3007)" fill="#707070" font-size="32" font-family="SegoeUI, Segoe UI"><tspan x="-254.656" y="0">is metadata.eventHandler provided?</tspan></text>
    <text id="await_all_initializations" data-name="await all initializations" transform="translate(1058 -2383.191)" fill="#707070" font-size="32" font-family="SegoeUI, Segoe UI"><tspan x="-153.68" y="0">await all initializations</tspan></text>
    <text id="fire_events_that_happened_during_layout_initialization" data-name="fire events that
happened during
layout initialization" transform="translate(1058 -2285.975)" fill="#707070" font-size="32" font-family="SegoeUI, Segoe UI"><tspan x="-105.281" y="0">fire events that</tspan><tspan x="-121.992" y="43">happened during</tspan><tspan x="-133.086" y="86">layout initialization</tspan></text>
    <text id="create_listener_for_this_control_in_CUIObserver" data-name="create listener for this control
in CUIObserver" transform="translate(1640 -2953.942)" fill="#707070" font-size="32" font-family="SegoeUI, Segoe UI"><tspan x="-207.234" y="0">create listener for this control</tspan><tspan x="-106.25" y="43">in CUIObserver</tspan></text>
    <text id="call_initControl_function_providing_data_about_control_its_children_and_layout_options" data-name="call initControl function
providing data about control,
its children and layout options" transform="translate(1640 -2716.745)" fill="#707070" font-size="32" font-family="SegoeUI, Segoe UI"><tspan x="-165.078" y="0">call initControl function</tspan><tspan x="-206.852" y="43">providing data about control,</tspan><tspan x="-213.742" y="86">its children and layout options</tspan></text>
    <text id="for_each_control" data-name="for each control" transform="translate(1058 -3234)" fill="#707070" font-size="32" font-family="SegoeUI, Segoe UI"><tspan x="-111.719" y="0">for each control</tspan></text>
    <text id="is_metadata.initControl_provided_" data-name="is metadata.initControl provided?" transform="translate(1058 -2779.604)" fill="#707070" font-size="32" font-family="SegoeUI, Segoe UI"><tspan x="-234.797" y="0">is metadata.initControl provided?</tspan></text>
    <g id="Rectangle_34" data-name="Rectangle 34" transform="translate(871 -4234)" fill="none" stroke="#707070" stroke-width="1">
      <rect width="374" height="56" stroke="none"/>
      <rect x="0.5" y="0.5" width="373" height="55" fill="none"/>
    </g>
    <g id="Rectangle_34-2" data-name="Rectangle 34" transform="translate(871 -4138)" fill="none" stroke="#707070" stroke-width="1">
      <rect width="374" height="56" stroke="none"/>
      <rect x="0.5" y="0.5" width="373" height="55" fill="none"/>
    </g>
    <g id="Rectangle_34-3" data-name="Rectangle 34" transform="translate(871 -3946)" fill="none" stroke="#707070" stroke-width="1">
      <rect width="374" height="56" stroke="none"/>
      <rect x="0.5" y="0.5" width="373" height="55" fill="none"/>
    </g>
    <g id="Rectangle_34-4" data-name="Rectangle 34" transform="translate(871 -3850)" fill="none" stroke="#707070" stroke-width="1">
      <rect width="374" height="56" stroke="none"/>
      <rect x="0.5" y="0.5" width="373" height="55" fill="none"/>
    </g>
    <g id="Path_1" data-name="Path 1" transform="translate(871 -3754)" fill="none">
      <path d="M9,7l6-7H360l6,6,8,11V56H0V17Z" stroke="none"/>
      <path d="M 15.45993041992188 1 L 9.759246826171875 7.650798797607422 L 9.75140380859375 7.659950256347656 L 9.7432861328125 7.668949127197266 L 1 17.38372802734375 L 1 55 L 373 55 L 373 17.32518005371094 L 365.2373962402344 6.651584625244141 L 359.5858154296875 1 L 15.45993041992188 1 M 15 0 L 360 0 L 366 6 L 374 17 L 374 56 L 0 56 L 0 17 L 9 7 L 15 0 Z" stroke="none" fill="#707070"/>
    </g>
    <g id="Rectangle_34-5" data-name="Rectangle 34" transform="translate(871 -3658)" fill="none" stroke="#707070" stroke-width="1">
      <rect width="374" height="56" stroke="none"/>
      <rect x="0.5" y="0.5" width="373" height="55" fill="none"/>
    </g>
    <g id="Rectangle_34-6" data-name="Rectangle 34" transform="translate(871 -3562)" fill="none" stroke="#707070" stroke-width="1">
      <rect width="374" height="56" stroke="none"/>
      <rect x="0.5" y="0.5" width="373" height="55" fill="none"/>
    </g>
    <g id="Rectangle_34-7" data-name="Rectangle 34" transform="translate(871 -3466)" fill="none" stroke="#707070" stroke-width="1">
      <rect width="374" height="56" stroke="none"/>
      <rect x="0.5" y="0.5" width="373" height="55" fill="none"/>
    </g>
    <g id="Rectangle_34-8" data-name="Rectangle 34" transform="translate(871 -3178)" fill="none" stroke="#707070" stroke-width="1">
      <rect width="374" height="56" stroke="none"/>
      <rect x="0.5" y="0.5" width="373" height="55" fill="none"/>
    </g>
    <g id="Rectangle_34-9" data-name="Rectangle 34" transform="translate(871 -2421.431)" fill="none" stroke="#707070" stroke-width="1">
      <rect width="374" height="56" stroke="none"/>
      <rect x="0.5" y="0.5" width="373" height="55" fill="none"/>
    </g>
    <g id="Rectangle_35" data-name="Rectangle 35" transform="translate(1387 -3946)" fill="none" stroke="#707070" stroke-width="1">
      <rect width="216" height="152" stroke="none"/>
      <rect x="0.5" y="0.5" width="215" height="151" fill="none"/>
    </g>
    <g id="Path_2" data-name="Path 2" transform="translate(871 -3370)" fill="none">
      <path d="M9,49l6,7H360l6-6,8-11V0H0V39Z" stroke="none"/>
      <path d="M 359.5857849121094 55 L 365.2373962402344 49.34841537475586 L 373 38.67481994628906 L 373 1 L 1 1 L 1 38.61627197265625 L 9.743300437927246 48.33105087280273 L 9.751399993896484 48.34004974365234 L 9.759249687194824 48.34920120239258 L 15.45993614196777 55 L 359.5857849121094 55 M 360 56 L 15 56 L 9 49 L 0 39 L 0 0 L 374 0 L 374 39 L 366 50 L 360 56 Z" stroke="none" fill="#707070"/>
    </g>
    <g id="Rectangle_36" data-name="Rectangle 36" transform="translate(509 -2321)" fill="none" stroke="#707070" stroke-width="1">
      <rect width="216" height="146" stroke="none"/>
      <rect x="0.5" y="0.5" width="215" height="145" fill="none"/>
    </g>
    <g id="Polygon_1" data-name="Polygon 1" transform="translate(1392 -3082) rotate(90)" fill="none">
      <path d="M64.5,0,129,333.5,64.5,667,0,333.5Z" stroke="none"/>
      <path d="M 64.5 5.26654052734375 L 1.018562316894531 333.5 L 64.5 661.7334594726563 L 127.9814376831055 333.5 L 64.5 5.26654052734375 M 64.5 0 L 129 333.5 L 64.5 667 L 0 333.5 L 64.5 0 Z" stroke="none" fill="#707070"/>
    </g>
    <g id="Polygon_2" data-name="Polygon 2" transform="translate(1392 -2854.86) rotate(90)" fill="none">
      <path d="M64.5,0,129,333.5,64.5,667,0,333.5Z" stroke="none"/>
      <path d="M 64.5 5.26654052734375 L 1.018562316894531 333.5 L 64.5 661.7334594726563 L 127.9814376831055 333.5 L 64.5 5.26654052734375 M 64.5 0 L 129 333.5 L 64.5 667 L 0 333.5 L 64.5 0 Z" stroke="none" fill="#707070"/>
    </g>
    <g id="Ellipse_1" data-name="Ellipse 1" transform="translate(992 -4339)" fill="none" stroke="#707070" stroke-width="1">
      <ellipse cx="66" cy="37" rx="66" ry="37" stroke="none"/>
      <ellipse cx="66" cy="37" rx="65.5" ry="36.5" fill="none"/>
    </g>
    <g id="Rectangle_37" data-name="Rectangle 37" transform="translate(1392 -2999)" fill="none" stroke="#707070" stroke-width="1">
      <rect width="496" height="110" stroke="none"/>
      <rect x="0.5" y="0.5" width="495" height="109" fill="none"/>
    </g>
    <g id="Rectangle_38" data-name="Rectangle 38" transform="translate(1392 -2766.423)" fill="none" stroke="#707070" stroke-width="1">
      <rect width="496" height="166" stroke="none"/>
      <rect x="0.5" y="0.5" width="495" height="165" fill="none"/>
    </g>
    <g id="Rectangle_39" data-name="Rectangle 39" transform="translate(871 -2320.975)" fill="none" stroke="#707070" stroke-width="1">
      <rect width="374" height="146" stroke="none"/>
      <rect x="0.5" y="0.5" width="373" height="145" fill="none"/>
    </g>
    <line id="Line_42" data-name="Line 42" y2="31" transform="translate(1058.5 -4265.5)" fill="none" stroke="#707070" stroke-width="1"/>
    <line id="Line_43" data-name="Line 43" y2="40" transform="translate(1058.5 -4178.5)" fill="none" stroke="#707070" stroke-width="1"/>
    <line id="Line_44" data-name="Line 44" y2="40" transform="translate(1058.5 -4082.5)" fill="none" stroke="#707070" stroke-width="1"/>
    <line id="Line_46" data-name="Line 46" y2="40" transform="translate(1058.5 -3794.5)" fill="none" stroke="#707070" stroke-width="1"/>
    <line id="Line_47" data-name="Line 47" y2="40" transform="translate(1058.5 -3698.5)" fill="none" stroke="#707070" stroke-width="1"/>
    <line id="Line_48" data-name="Line 48" y2="40" transform="translate(1058.5 -3602.5)" fill="none" stroke="#707070" stroke-width="1"/>
    <line id="Line_49" data-name="Line 49" y2="40" transform="translate(1058.5 -3506.5)" fill="none" stroke="#707070" stroke-width="1"/>
    <line id="Line_50" data-name="Line 50" y2="40" transform="translate(1058.5 -3410.5)" fill="none" stroke="#707070" stroke-width="1"/>
    <line id="Line_51" data-name="Line 51" y2="41" transform="translate(1058.5 -3314.5)" fill="none" stroke="#707070" stroke-width="1"/>
    <line id="Line_52" data-name="Line 52" y2="40" transform="translate(1058.5 -3218.5)" fill="none" stroke="#707070" stroke-width="1"/>
    <line id="Line_53" data-name="Line 53" y2="40" transform="translate(1058.5 -3122.5)" fill="none" stroke="#707070" stroke-width="1"/>
    <line id="Line_54" data-name="Line 54" y2="45" transform="translate(1058.5 -2365.5)" fill="none" stroke="#707070" stroke-width="1"/>
    <text id="End" transform="translate(1058 -2079)" fill="#707070" font-size="32" font-family="SegoeUI, Segoe UI"><tspan x="-26.57" y="0">End</tspan></text>
    <g id="Ellipse_2" data-name="Ellipse 2" transform="translate(992 -2129)" fill="none" stroke="#707070" stroke-width="1">
      <ellipse cx="66" cy="37" rx="66" ry="37" stroke="none"/>
      <ellipse cx="66" cy="37" rx="65.5" ry="36.5" fill="none"/>
    </g>
    <line id="Line_55" data-name="Line 55" y1="46" transform="translate(1058.5 -2175.5)" fill="none" stroke="#707070" stroke-width="1"/>
    <line id="Line_56" data-name="Line 56" x2="142" transform="translate(1245.5 -3918.5)" fill="none" stroke="#707070" stroke-width="1"/>
    <line id="Line_57" data-name="Line 57" x2="142" transform="translate(1245.5 -3821.5)" fill="none" stroke="#707070" stroke-width="1"/>
    <line id="Line_58" data-name="Line 58" x1="118" transform="translate(753.5 -3343.5)" fill="none" stroke="#707070" stroke-width="1"/>
    <line id="Line_59" data-name="Line 59" x1="118" y1="1" transform="translate(753.5 -3726.5)" fill="none" stroke="#707070" stroke-width="1"/>
    <line id="Line_60" data-name="Line 60" y1="382" transform="translate(753.5 -3725.5)" fill="none" stroke="#707070" stroke-width="1"/>
    <line id="Line_61" data-name="Line 61" y1="19" transform="translate(1640.5 -3017.5)" fill="none" stroke="#707070" stroke-width="1"/>
    <line id="Line_62" data-name="Line 62" x2="254" transform="translate(1386.5 -3017.5)" fill="none" stroke="#707070" stroke-width="1"/>
    <line id="Line_63" data-name="Line 63" y1="24" transform="translate(1640.5 -2790.5)" fill="none" stroke="#707070" stroke-width="1"/>
    <line id="Line_64" data-name="Line 64" x2="251" transform="translate(1389.5 -2790.5)" fill="none" stroke="#707070" stroke-width="1"/>
    <line id="Line_65" data-name="Line 65" y2="17" transform="translate(1640.5 -2600.5)" fill="none" stroke="#707070" stroke-width="1"/>
    <line id="Line_67" data-name="Line 67" x1="582" transform="translate(1058.5 -2583.5)" fill="none" stroke="#707070" stroke-width="1"/>
    <line id="Line_68" data-name="Line 68" y1="19" transform="translate(1058.5 -2873.5)" fill="none" stroke="#707070" stroke-width="1"/>
    <line id="Line_69" data-name="Line 69" y2="15" transform="translate(1640.5 -2888.5)" fill="none" stroke="#707070" stroke-width="1"/>
    <line id="Line_70" data-name="Line 70" x2="582" transform="translate(1058.5 -2873.5)" fill="none" stroke="#707070" stroke-width="1"/>
    <line id="Line_71" data-name="Line 71" x1="87" transform="translate(638.5 -3017.5)" fill="none" stroke="#707070" stroke-width="1"/>
    <line id="Line_72" data-name="Line 72" x1="420" transform="translate(638.5 -2873.5)" fill="none" stroke="#707070" stroke-width="1"/>
    <line id="Line_73" data-name="Line 73" y2="144" transform="translate(638.5 -3017.5)" fill="none" stroke="#707070" stroke-width="1"/>
    <line id="Line_74" data-name="Line 74" x1="87" transform="translate(638.5 -2790.5)" fill="none" stroke="#707070" stroke-width="1"/>
    <line id="Line_75" data-name="Line 75" x1="420" transform="translate(638.5 -2583.5)" fill="none" stroke="#707070" stroke-width="1"/>
    <line id="Line_76" data-name="Line 76" y2="207" transform="translate(638.5 -2790.5)" fill="none" stroke="#707070" stroke-width="1"/>
    <line id="Line_78" data-name="Line 78" y1="133" transform="translate(617.5 -2453.5)" fill="none" stroke="#707070" stroke-width="1"/>
    <line id="Line_20" data-name="Line 20" x2="8" y2="12" transform="translate(1050.5 -4245.5)" fill="none" stroke="#707070" stroke-width="1"/>
    <line id="Line_21" data-name="Line 21" x1="7" y2="12" transform="translate(1058.5 -4245.5)" fill="none" stroke="#707070" stroke-width="1"/>
    <line id="Line_20-2" data-name="Line 20" x2="8" y2="12" transform="translate(1050.5 -4149.5)" fill="none" stroke="#707070" stroke-width="1"/>
    <line id="Line_21-2" data-name="Line 21" x1="7" y2="12" transform="translate(1058.5 -4149.5)" fill="none" stroke="#707070" stroke-width="1"/>
    <line id="Line_20-3" data-name="Line 20" x2="8" y2="12" transform="translate(1050.5 -4053.5)" fill="none" stroke="#707070" stroke-width="1"/>
    <line id="Line_21-3" data-name="Line 21" x1="7" y2="12" transform="translate(1058.5 -4053.5)" fill="none" stroke="#707070" stroke-width="1"/>
    <line id="Line_20-4" data-name="Line 20" x2="8" y2="12" transform="translate(1050.5 -3765.5)" fill="none" stroke="#707070" stroke-width="1"/>
    <line id="Line_21-4" data-name="Line 21" x1="7" y2="12" transform="translate(1058.5 -3765.5)" fill="none" stroke="#707070" stroke-width="1"/>
    <line id="Line_20-5" data-name="Line 20" x2="8" y2="12" transform="translate(1256.5 -3829.5) rotate(90)" fill="none" stroke="#707070" stroke-width="1"/>
    <line id="Line_21-5" data-name="Line 21" x1="7" y2="12" transform="translate(1256.5 -3821.5) rotate(90)" fill="none" stroke="#707070" stroke-width="1"/>
    <line id="Line_20-6" data-name="Line 20" y1="12" x2="8" transform="translate(1387.5 -3926.5) rotate(90)" fill="none" stroke="#707070" stroke-width="1"/>
    <line id="Line_21-6" data-name="Line 21" x1="7" y1="12" transform="translate(1387.5 -3918.5) rotate(90)" fill="none" stroke="#707070" stroke-width="1"/>
    <line id="Line_20-7" data-name="Line 20" x2="8" y2="12" transform="translate(1050.5 -3669.5)" fill="none" stroke="#707070" stroke-width="1"/>
    <line id="Line_21-7" data-name="Line 21" x1="7" y2="12" transform="translate(1058.5 -3669.5)" fill="none" stroke="#707070" stroke-width="1"/>
    <line id="Line_79" data-name="Line 79" x2="8" y2="12" transform="translate(1050.5 -3573.5)" fill="none" stroke="#707070" stroke-width="1"/>
    <line id="Line_80" data-name="Line 80" x1="7" y2="12" transform="translate(1058.5 -3573.5)" fill="none" stroke="#707070" stroke-width="1"/>
    <line id="Line_81" data-name="Line 81" x2="8" y2="12" transform="translate(1050.5 -3477.5)" fill="none" stroke="#707070" stroke-width="1"/>
    <line id="Line_82" data-name="Line 82" x1="7" y2="12" transform="translate(1058.5 -3477.5)" fill="none" stroke="#707070" stroke-width="1"/>
    <line id="Line_83" data-name="Line 83" x2="8" y2="12" transform="translate(1050.5 -3381.5)" fill="none" stroke="#707070" stroke-width="1"/>
    <line id="Line_84" data-name="Line 84" x1="7" y2="12" transform="translate(1058.5 -3381.5)" fill="none" stroke="#707070" stroke-width="1"/>
    <line id="Line_85" data-name="Line 85" x2="8" y2="12" transform="translate(1050.5 -3285.5)" fill="none" stroke="#707070" stroke-width="1"/>
    <line id="Line_86" data-name="Line 86" x1="7" y2="12" transform="translate(1058.5 -3285.5)" fill="none" stroke="#707070" stroke-width="1"/>
    <line id="Line_88" data-name="Line 88" x1="7" y2="12" transform="translate(1058.5 -3285.5)" fill="none" stroke="#707070" stroke-width="1"/>
    <line id="Line_87" data-name="Line 87" x2="8" y2="12" transform="translate(1050.5 -3285.5)" fill="none" stroke="#707070" stroke-width="1"/>
    <line id="Line_20-8" data-name="Line 20" y1="12" x2="8" transform="translate(871.5 -3733.5) rotate(90)" fill="none" stroke="#707070" stroke-width="1"/>
    <line id="Line_21-8" data-name="Line 21" x1="7" y1="12" transform="translate(871.5 -3725.5) rotate(90)" fill="none" stroke="#707070" stroke-width="1"/>
    <line id="Line_88-2" data-name="Line 88" x1="7" y2="12" transform="translate(1058.5 -3189.5)" fill="none" stroke="#707070" stroke-width="1"/>
    <line id="Line_87-2" data-name="Line 87" x2="8" y2="12" transform="translate(1050.5 -3189.5)" fill="none" stroke="#707070" stroke-width="1"/>
    <line id="Line_88-3" data-name="Line 88" x1="7" y2="12" transform="translate(1058.5 -3093.5)" fill="none" stroke="#707070" stroke-width="1"/>
    <line id="Line_87-3" data-name="Line 87" x2="8" y2="12" transform="translate(1050.5 -3093.5)" fill="none" stroke="#707070" stroke-width="1"/>
    <line id="Line_88-4" data-name="Line 88" x1="7" y2="12" transform="translate(1640.5 -3010.5)" fill="none" stroke="#707070" stroke-width="1"/>
    <line id="Line_87-4" data-name="Line 87" x2="8" y2="12" transform="translate(1632.5 -3010.5)" fill="none" stroke="#707070" stroke-width="1"/>
    <line id="Line_88-5" data-name="Line 88" x1="7" y2="12" transform="translate(1640.5 -2777.5)" fill="none" stroke="#707070" stroke-width="1"/>
    <line id="Line_87-5" data-name="Line 87" x2="8" y2="12" transform="translate(1632.5 -2777.5)" fill="none" stroke="#707070" stroke-width="1"/>
    <line id="Line_88-6" data-name="Line 88" x1="7" y2="12" transform="translate(1058.5 -2866.5)" fill="none" stroke="#707070" stroke-width="1"/>
    <line id="Line_87-6" data-name="Line 87" x2="8" y2="12" transform="translate(1050.5 -2866.5)" fill="none" stroke="#707070" stroke-width="1"/>
    <line id="Line_88-7" data-name="Line 88" x1="7" y2="12" transform="translate(1058.5 -2332.5)" fill="none" stroke="#707070" stroke-width="1"/>
    <line id="Line_87-7" data-name="Line 87" x2="8" y2="12" transform="translate(1050.5 -2332.5)" fill="none" stroke="#707070" stroke-width="1"/>
    <line id="Line_88-8" data-name="Line 88" x1="7" y2="12" transform="translate(1058.5 -2140.5)" fill="none" stroke="#707070" stroke-width="1"/>
    <line id="Line_87-8" data-name="Line 87" x2="8" y2="12" transform="translate(1050.5 -2140.5)" fill="none" stroke="#707070" stroke-width="1"/>
    <line id="Line_88-9" data-name="Line 88" x1="7" y2="12" transform="translate(617.5 -2332.5)" fill="none" stroke="#707070" stroke-width="1"/>
    <line id="Line_87-9" data-name="Line 87" x2="8" y2="12" transform="translate(609.5 -2332.5)" fill="none" stroke="#707070" stroke-width="1"/>
    <text id="yes" transform="translate(1416 -3037)" fill="#707070" font-size="24" font-family="SegoeUI-SemiboldItalic, Segoe UI" font-weight="600" font-style="italic"><tspan x="-17.174" y="0">yes</tspan></text>
    <text id="yes-2" data-name="yes" transform="translate(1416 -2803)" fill="#707070" font-size="24" font-family="SegoeUI-SemiboldItalic, Segoe UI" font-weight="600" font-style="italic"><tspan x="-17.174" y="0">yes</tspan></text>
    <text id="no" transform="translate(708 -3037)" fill="#707070" font-size="24" font-family="SegoeUI-SemiboldItalic, Segoe UI" font-weight="600" font-style="italic"><tspan x="-13.623" y="0">no</tspan></text>
    <text id="no-2" data-name="no" transform="translate(708 -2803)" fill="#707070" font-size="24" font-family="SegoeUI-SemiboldItalic, Segoe UI" font-weight="600" font-style="italic"><tspan x="-13.623" y="0">no</tspan></text>
    <text id="dom_location_options" data-name="dom, location, options" transform="translate(1180 -4246)" fill="#067226" font-size="22" font-family="SegoeUI-SemiboldItalic, Segoe UI" font-weight="600" font-style="italic"><tspan x="-109.876" y="0">dom, location, options</tspan></text>
    <text id="CUILayout_instance" data-name="CUILayout instance" transform="translate(1068 -4151)" fill="#067226" font-size="22" font-family="SegoeUI-SemiboldItalic, Segoe UI" font-weight="600" font-style="italic"><tspan x="0" y="0">CUILayout instance</tspan></text>
    <text id="location_options" data-name="location,
options" transform="translate(1276 -3959)" fill="#067226" font-size="22" font-family="SegoeUI-SemiboldItalic, Segoe UI" font-weight="600" font-style="italic"><tspan x="0" y="0">location,</tspan><tspan x="0" y="30">options</tspan></text>
    <text id="CUIControls" transform="translate(1260 -3837)" fill="#067226" font-size="22" font-family="SegoeUI-SemiboldItalic, Segoe UI" font-weight="600" font-style="italic"><tspan x="0" y="0">CUIControls</tspan></text>
    <text id="controls_definition" data-name="controls&apos; definition" transform="translate(1077 -3767)" fill="#067226" font-size="22" font-family="SegoeUI-SemiboldItalic, Segoe UI" font-weight="600" font-style="italic"><tspan x="0" y="0">controls&apos; definition</tspan></text>
    <text id="control_definition" data-name="control definition" transform="translate(1077 -3671)" fill="#067226" font-size="22" font-family="SegoeUI-SemiboldItalic, Segoe UI" font-weight="600" font-style="italic"><tspan x="0" y="0">control definition</tspan></text>
    <text id="_constructor_" data-name="{constructor, …}" transform="translate(1077 -3575)" fill="#067226" font-size="22" font-family="SegoeUI-SemiboldItalic, Segoe UI" font-weight="600" font-style="italic"><tspan x="0" y="0">{constructor, …}</tspan></text>
    <text id="control" transform="translate(1077 -3480)" fill="#067226" font-size="22" font-family="SegoeUI-SemiboldItalic, Segoe UI" font-weight="600" font-style="italic"><tspan x="0" y="0">control</tspan></text>
    <text id="all_controls_are_created" data-name="all controls are created" transform="translate(1077 -3288)" fill="#067226" font-size="22" font-family="SegoeUI-SemiboldItalic, Segoe UI" font-weight="600" font-style="italic"><tspan x="0" y="0">all controls are created</tspan></text>
    <text id="control-2" data-name="control" transform="translate(1077 -3192)" fill="#067226" font-size="22" font-family="SegoeUI-SemiboldItalic, Segoe UI" font-weight="600" font-style="italic"><tspan x="0" y="0">control</tspan></text>
    <text id="_eventHandler_initControl_" data-name="{eventHandler, initControl, …}" transform="translate(1077 -3097)" fill="#067226" font-size="22" font-family="SegoeUI-SemiboldItalic, Segoe UI" font-weight="600" font-style="italic"><tspan x="0" y="0">{eventHandler, initControl, …}</tspan></text>
    <text id="collect_initialization_Promises" data-name="collect initialization Promises" transform="translate(1059 -2503)" fill="#707070" font-size="32" font-family="SegoeUI, Segoe UI"><tspan x="-203.055" y="0">collect initialization Promises</tspan></text>
    <g id="Path_3" data-name="Path 3" transform="translate(844.237 -2543)" fill="none">
      <path d="M10.336,49l6.891,7H413.448l6.891-6,9.188-11V0H0V39Z" stroke="none"/>
      <path d="M 413.0735168457031 55 L 419.6220397949219 49.29805755615234 L 428.5263366699219 38.63730621337891 L 428.5263366699219 1 L 1.000016927719116 1 L 1.000016927719116 38.57603454589844 L 11.03151702880859 48.28127670288086 L 11.0402946472168 48.28977966308594 L 11.04885005950928 48.29844284057617 L 17.64589309692383 55 L 413.0735168457031 55 M 413.4478454589844 56 L 17.22701644897461 56 L 10.33618354797363 49 L 1.69270824699197e-05 39 L 1.69270824699197e-05 0 L 429.5263366699219 0 L 429.5263366699219 39 L 420.3386840820313 50 L 413.4478454589844 56 Z" stroke="none" fill="#707070"/>
    </g>
    <line id="Line_89" data-name="Line 89" y2="40" transform="translate(1058.5 -2583.5)" fill="none" stroke="#707070" stroke-width="1"/>
    <line id="Line_88-10" data-name="Line 88" x1="7" y2="12" transform="translate(1058.5 -2554.5)" fill="none" stroke="#707070" stroke-width="1"/>
    <line id="Line_87-10" data-name="Line 87" x2="8" y2="12" transform="translate(1050.5 -2554.5)" fill="none" stroke="#707070" stroke-width="1"/>
    <line id="Line_90" data-name="Line 90" y2="67" transform="translate(1058.5 -2487.5)" fill="none" stroke="#707070" stroke-width="1"/>
    <line id="Line_88-11" data-name="Line 88" x1="7" y2="12" transform="translate(1058.5 -2432.5)" fill="none" stroke="#707070" stroke-width="1"/>
    <line id="Line_87-11" data-name="Line 87" x2="8" y2="12" transform="translate(1050.5 -2432.5)" fill="none" stroke="#707070" stroke-width="1"/>
    <line id="Line_91" data-name="Line 91" x1="441" transform="translate(617.5 -2453.5)" fill="none" stroke="#707070" stroke-width="1"/>
    <text id="do_not_await_for_finishing" data-name="do not await for finishing" transform="translate(618 -2463)" fill="#067226" font-size="22" font-family="SegoeUI-SemiboldItalic, Segoe UI" font-weight="600" font-style="italic"><tspan x="0" y="0">do not await for finishing</tspan></text>
    <g id="Path_4" data-name="Path 4" transform="translate(871 -3274)" fill="none">
      <path d="M9,7l6-7H360l6,6,8,11V56H0V17Z" stroke="none"/>
      <path d="M 15.45993041992188 1 L 9.759246826171875 7.650798797607422 L 9.75140380859375 7.659950256347656 L 9.7432861328125 7.668949127197266 L 1 17.38372802734375 L 1 55 L 373 55 L 373 17.32518005371094 L 365.2373962402344 6.651584625244141 L 359.5858154296875 1 L 15.45993041992188 1 M 15 0 L 360 0 L 366 6 L 374 17 L 374 56 L 0 56 L 0 17 L 9 7 L 15 0 Z" stroke="none" fill="#707070"/>
    </g>
    <line id="Line_92" data-name="Line 92" x1="267" transform="translate(577.5 -2516.5)" fill="none" stroke="#707070" stroke-width="1"/>
    <line id="Line_93" data-name="Line 93" x1="294" transform="translate(577.5 -3245.5)" fill="none" stroke="#707070" stroke-width="1"/>
    <line id="Line_94" data-name="Line 94" y1="729" transform="translate(577.5 -3245.5)" fill="none" stroke="#707070" stroke-width="1"/>
    <line id="Line_20-9" data-name="Line 20" y1="12" x2="8" transform="translate(871.5 -3253.5) rotate(90)" fill="none" stroke="#707070" stroke-width="1"/>
    <line id="Line_21-9" data-name="Line 21" x1="7" y1="12" transform="translate(871.5 -3245.5) rotate(90)" fill="none" stroke="#707070" stroke-width="1"/>
    <text id="initialization_Promise" data-name="initialization Promise" transform="translate(1660 -2576)" fill="#067226" font-size="22" font-family="SegoeUI-SemiboldItalic, Segoe UI" font-weight="600" font-style="italic"><tspan x="0" y="0">initialization Promise</tspan></text>
    <text id="location_options-2" data-name="location,
options" transform="translate(2052 -3567)" fill="#067226" font-size="22" font-family="SegoeUI-SemiboldItalic, Segoe UI" font-weight="600" font-style="italic"><tspan x="0" y="0">location,</tspan><tspan x="0" y="18">options</tspan></text>
    <g id="Group_64" data-name="Group 64" transform="translate(2042.5 -2818.5) rotate(90)">
      <line id="Line_20-10" data-name="Line 20" x2="8" y2="12" transform="translate(-637 -10)" fill="none" stroke="#707070" stroke-width="1"/>
      <line id="Line_21-10" data-name="Line 21" x1="7" y2="12" transform="translate(-629 -10)" fill="none" stroke="#707070" stroke-width="1"/>
    </g>
    <text id="initControl_..._" data-name="initControl(...)" transform="translate(1854 -3671)" fill="#707070" font-size="32" font-family="SegoeUI, Segoe UI"><tspan x="-94.859" y="0">initControl(...)</tspan></text>
    <text id="destroy_previous_control" data-name="destroy previous control" transform="translate(1854 -3601)" fill="#707070" font-size="32" font-family="SegoeUI, Segoe UI"><tspan x="-171.594" y="0">destroy previous control</tspan></text>
    <text id="detach_old_listeners" data-name="detach old
listeners" transform="translate(1481 -3505)" fill="#707070" font-size="32" font-family="SegoeUI, Segoe UI"><tspan x="-74.852" y="0">detach old</tspan><tspan x="-58.102" y="43">listeners</tspan></text>
    <text id="request_control_data" data-name="request control data" transform="translate(1854 -3528)" fill="#707070" font-size="32" font-family="SegoeUI, Segoe UI"><tspan x="-142.93" y="0">request control data</tspan></text>
    <text id="Server_stub-2" data-name="Server/
stub" transform="translate(2227 -3513)" fill="#707070" font-size="32" font-family="SegoeUI, Segoe UI"><tspan x="-50.258" y="0">Server/</tspan><tspan x="-30.672" y="43">stub</tspan></text>
    <text id="prepare_control_data_normalize_init_etc_" data-name="prepare control data
(normalize, init, etc)" transform="translate(1852 -3455.187)" fill="#707070" font-size="32" font-family="SegoeUI, Segoe UI"><tspan x="-144.758" y="0">prepare control data</tspan><tspan x="-138.031" y="43">(normalize, init, etc)</tspan></text>
    <text id="setup_connection_to_the_env._events_public_API_destroyFn_etc_" data-name="setup connection to the env.
(events, public API, destroyFn, etc)" transform="translate(1854 -3343.632)" fill="#707070" font-size="32" font-family="SegoeUI, Segoe UI"><tspan x="-201.125" y="0">setup connection to the env.</tspan><tspan x="-240.531" y="43">(events, public API, destroyFn, etc)</tspan></text>
    <text id="pass_the_data_to_control" data-name="pass the data to control" transform="translate(1854 -3232.145)" fill="#707070" font-size="32" font-family="SegoeUI, Segoe UI"><tspan x="-167.477" y="0">pass the data to control</tspan></text>
    <text id="control_is_ready" data-name="control is ready" transform="translate(1852 -3161.208)" fill="#707070" font-size="32" font-family="SegoeUI, Segoe UI"><tspan x="-108.719" y="0">control is ready</tspan></text>
    <g id="Rectangle_40" data-name="Rectangle 40" transform="translate(1598 -3379)" fill="none" stroke="#707070" stroke-width="1">
      <rect width="512" height="93" stroke="none"/>
      <rect x="0.5" y="0.5" width="511" height="92" fill="none"/>
    </g>
    <g id="Rectangle_41" data-name="Rectangle 41" transform="translate(1667 -3711)" fill="none" stroke="#707070" stroke-width="1">
      <rect width="374" height="54" stroke="none"/>
      <rect x="0.5" y="0.5" width="373" height="53" fill="none"/>
    </g>
    <g id="Rectangle_42" data-name="Rectangle 42" transform="translate(1667 -3638)" fill="none" stroke="#707070" stroke-width="1">
      <rect width="374" height="54" stroke="none"/>
      <rect x="0.5" y="0.5" width="373" height="53" fill="none"/>
    </g>
    <g id="Rectangle_43" data-name="Rectangle 43" transform="translate(1667 -3492)" fill="none" stroke="#707070" stroke-width="1">
      <rect width="374" height="94" stroke="none"/>
      <rect x="0.5" y="0.5" width="373" height="93" fill="none"/>
    </g>
    <g id="Rectangle_44" data-name="Rectangle 44" transform="translate(1667 -3267)" fill="none" stroke="#707070" stroke-width="1">
      <rect width="374" height="54" stroke="none"/>
      <rect x="0.5" y="0.5" width="373" height="53" fill="none"/>
    </g>
    <g id="Rectangle_45" data-name="Rectangle 45" transform="translate(1667 -3194)" fill="none" stroke="#707070" stroke-width="1">
      <rect width="374" height="54" stroke="none"/>
      <rect x="0.5" y="0.5" width="373" height="53" fill="none"/>
    </g>
    <g id="Rectangle_46" data-name="Rectangle 46" transform="translate(1667 -3565)" fill="none" stroke="#707070" stroke-width="1">
      <rect width="374" height="54" stroke="none"/>
      <rect x="0.5" y="0.5" width="373" height="53" fill="none"/>
    </g>
    <line id="Line_96" data-name="Line 96" x2="100" transform="translate(2041.5 -3447.5)" fill="none" stroke="#707070" stroke-width="1"/>
    <line id="Line_97" data-name="Line 97" x2="100" transform="translate(2041.5 -3537.5)" fill="none" stroke="#707070" stroke-width="1"/>
    <g id="Rectangle_48" data-name="Rectangle 48" transform="translate(2141 -3565)" fill="none" stroke="#707070" stroke-width="1">
      <rect width="171" height="140" stroke="none"/>
      <rect x="0.5" y="0.5" width="170" height="139" fill="none"/>
    </g>
    <g id="Rectangle_49" data-name="Rectangle 49" transform="translate(1396 -3565)" fill="none" stroke="#707070" stroke-width="1">
      <rect width="171" height="140" stroke="none"/>
      <rect x="0.5" y="0.5" width="170" height="139" fill="none"/>
    </g>
    <g id="Group_65" data-name="Group 65" transform="translate(2141.5 -3545.5) rotate(90)">
      <line id="Line_20-11" data-name="Line 20" y1="12" x2="8" fill="none" stroke="#707070" stroke-width="1"/>
      <line id="Line_21-11" data-name="Line 21" x1="7" y1="12" transform="translate(8)" fill="none" stroke="#707070" stroke-width="1"/>
    </g>
    <g id="Group_66" data-name="Group 66" transform="translate(2483 -3567)">
      <line id="Line_20-12" data-name="Line 20" x2="8" y2="12" transform="translate(-636.5 -9.5)" fill="none" stroke="#707070" stroke-width="1"/>
      <line id="Line_21-12" data-name="Line 21" x1="7" y2="12" transform="translate(-628.5 -9.5)" fill="none" stroke="#707070" stroke-width="1"/>
    </g>
    <line id="Line_99" data-name="Line 99" y1="19" transform="translate(1854.5 -3584.5)" fill="none" stroke="#707070" stroke-width="1"/>
    <g id="Group_68" data-name="Group 68" transform="translate(2483 -3640)">
      <line id="Line_20-13" data-name="Line 20" x2="8" y2="12" transform="translate(-636.5 -9.5)" fill="none" stroke="#707070" stroke-width="1"/>
      <line id="Line_21-13" data-name="Line 21" x1="7" y2="12" transform="translate(-628.5 -9.5)" fill="none" stroke="#707070" stroke-width="1"/>
    </g>
    <line id="Line_100" data-name="Line 100" y1="19" transform="translate(1854.5 -3657.5)" fill="none" stroke="#707070" stroke-width="1"/>
    <g id="Group_69" data-name="Group 69" transform="translate(2483 -3381)">
      <line id="Line_20-14" data-name="Line 20" x2="8" y2="12" transform="translate(-636.5 -9.5)" fill="none" stroke="#707070" stroke-width="1"/>
      <line id="Line_21-14" data-name="Line 21" x1="7" y2="12" transform="translate(-628.5 -9.5)" fill="none" stroke="#707070" stroke-width="1"/>
    </g>
    <line id="Line_101" data-name="Line 101" y1="19" transform="translate(1854.5 -3398.5)" fill="none" stroke="#707070" stroke-width="1"/>
    <g id="Group_70" data-name="Group 70" transform="translate(2483 -3269)">
      <line id="Line_20-15" data-name="Line 20" x2="8" y2="12" transform="translate(-636.5 -9.5)" fill="none" stroke="#707070" stroke-width="1"/>
      <line id="Line_21-15" data-name="Line 21" x1="7" y2="12" transform="translate(-628.5 -9.5)" fill="none" stroke="#707070" stroke-width="1"/>
    </g>
    <line id="Line_102" data-name="Line 102" y1="19" transform="translate(1854.5 -3286.5)" fill="none" stroke="#707070" stroke-width="1"/>
    <g id="Group_71" data-name="Group 71" transform="translate(2483 -3196)">
      <line id="Line_20-16" data-name="Line 20" x2="8" y2="12" transform="translate(-636.5 -9.5)" fill="none" stroke="#707070" stroke-width="1"/>
      <line id="Line_21-16" data-name="Line 21" x1="7" y2="12" transform="translate(-628.5 -9.5)" fill="none" stroke="#707070" stroke-width="1"/>
    </g>
    <line id="Line_103" data-name="Line 103" y1="19" transform="translate(1854.5 -3213.5)" fill="none" stroke="#707070" stroke-width="1"/>
    <line id="Line_104" data-name="Line 104" x1="186" transform="translate(1481.5 -3610.5)" fill="none" stroke="#707070" stroke-width="1"/>
    <line id="Line_105" data-name="Line 105" y1="46" transform="translate(1481.5 -3610.5)" fill="none" stroke="#707070" stroke-width="1"/>
    <g id="Group_72" data-name="Group 72" transform="translate(2110 -3567)">
      <line id="Line_20-17" data-name="Line 20" x2="8" y2="12" transform="translate(-636.5 -9.5)" fill="none" stroke="#707070" stroke-width="1"/>
      <line id="Line_21-17" data-name="Line 21" x1="7" y2="12" transform="translate(-628.5 -9.5)" fill="none" stroke="#707070" stroke-width="1"/>
    </g>
    <text id="Command_Bar_Items" data-name="Command
Bar
Items" transform="translate(2089 -3492)" fill="#067226" font-size="21" font-family="SegoeUI-SemiboldItalic, Segoe UI" font-weight="600" font-style="italic"><tspan x="-49.091" y="0">Command</tspan><tspan x="-16.329" y="18">Bar</tspan><tspan x="-25.676" y="36">Items</tspan></text>
    <line id="Line_106" data-name="Line 106" y1="61" transform="translate(1855.5 -3782.5)" fill="none" stroke="#04f" stroke-width="1"/>
    <line id="Line_107" data-name="Line 107" x1="528" transform="translate(1854.5 -3782.5)" fill="none" stroke="#04f" stroke-width="1"/>
    <line id="Line_108" data-name="Line 108" x2="494" transform="translate(1888.5 -2637.5)" fill="none" stroke="#04f" stroke-width="1"/>
    <line id="Line_109" data-name="Line 109" y2="1145" transform="translate(2382.5 -3782.5)" fill="none" stroke="#04f" stroke-width="1"/>
    <line id="Line_110" data-name="Line 110" y2="59" transform="translate(1861.5 -3126.5)" fill="none" stroke="#04f" stroke-width="1"/>
    <line id="Line_111" data-name="Line 111" x1="272" transform="translate(1861.5 -3067.5)" fill="none" stroke="#04f" stroke-width="1"/>
    <line id="Line_112" data-name="Line 112" x2="245" transform="translate(1888.5 -2730.5)" fill="none" stroke="#04f" stroke-width="1"/>
    <line id="Line_113" data-name="Line 113" y2="337" transform="translate(2133.5 -3067.5)" fill="none" stroke="#04f" stroke-width="1"/>
    <g id="Group_73" data-name="Group 73" transform="translate(2484 -3725)">
      <line id="Line_20-18" data-name="Line 20" x2="8" y2="12" transform="translate(-636.5 -9.5)" fill="none" stroke="#04f" stroke-width="1"/>
      <line id="Line_21-18" data-name="Line 21" x1="7" y2="12" transform="translate(-628.5 -9.5)" fill="none" stroke="#04f" stroke-width="1"/>
    </g>
    <g id="Group_74" data-name="Group 74" transform="translate(1889.5 -2102.5) rotate(90)">
      <line id="Line_20-19" data-name="Line 20" x2="8" y2="12" transform="translate(-636 -10)" fill="none" stroke="#04f" stroke-width="1"/>
      <line id="Line_21-19" data-name="Line 21" x1="7" y2="12" transform="translate(-628 -10)" fill="none" stroke="#04f" stroke-width="1"/>
    </g>
    <text id="logic_of_cuiControls:_cuiContextMenu_cuiToolbar_cuiToc_..." data-name="logic of cuiControls: 
cuiContextMenu,
cuiToolbar, cuiToc,..." transform="translate(1382 -3694)" fill="#04f" font-size="24" font-family="SegoeUI-Semibold, Segoe UI" font-weight="600"><tspan x="0" y="0">logic of cuiControls: </tspan><tspan x="0" y="32">cuiContextMenu,</tspan><tspan x="0" y="64">cuiToolbar, cuiToc,...</tspan></text>
    <g id="Block_number" data-name="Block number" transform="translate(-7 29)">
      <text id="_1" data-name="1" transform="translate(869 -4144)" fill="#6a0202" font-size="21" font-family="SegoeUI, Segoe UI"><tspan x="-5.66" y="0">1</tspan></text>
      <text id="_0" data-name="0" transform="translate(869 -4244)" fill="#6a0202" font-size="21" font-family="SegoeUI, Segoe UI"><tspan x="-5.66" y="0">0</tspan></text>
      <text id="_2" data-name="2" transform="translate(869 -4048)" fill="#6a0202" font-size="21" font-family="SegoeUI, Segoe UI"><tspan x="-5.66" y="0">2</tspan></text>
      <text id="_3" data-name="3" transform="translate(869 -3956)" fill="#6a0202" font-size="21" font-family="SegoeUI, Segoe UI"><tspan x="-5.66" y="0">3</tspan></text>
      <text id="_4" data-name="4" transform="translate(869 -3860)" fill="#6a0202" font-size="21" font-family="SegoeUI, Segoe UI"><tspan x="-5.66" y="0">4</tspan></text>
      <text id="_5" data-name="5" transform="translate(869 -3771)" fill="#6a0202" font-size="21" font-family="SegoeUI, Segoe UI"><tspan x="-5.66" y="0">5</tspan></text>
      <text id="_6" data-name="6" transform="translate(869 -3664)" fill="#6a0202" font-size="21" font-family="SegoeUI, Segoe UI"><tspan x="-5.66" y="0">6</tspan></text>
      <text id="_7" data-name="7" transform="translate(869 -3568)" fill="#6a0202" font-size="21" font-family="SegoeUI, Segoe UI"><tspan x="-5.66" y="0">7</tspan></text>
      <text id="_8" data-name="8" transform="translate(869 -3472)" fill="#6a0202" font-size="21" font-family="SegoeUI, Segoe UI"><tspan x="-5.66" y="0">8</tspan></text>
      <text id="_9" data-name="9" transform="translate(869 -3381)" fill="#6a0202" font-size="21" font-family="SegoeUI, Segoe UI"><tspan x="-5.66" y="0">9</tspan></text>
      <text id="_10" data-name="10" transform="translate(874 -3294)" fill="#6a0202" font-size="21" font-family="SegoeUI, Segoe UI"><tspan x="-22.641" y="0">10</tspan></text>
      <text id="_11" data-name="11" transform="translate(874 -3184)" fill="#6a0202" font-size="21" font-family="SegoeUI, Segoe UI"><tspan x="-22.641" y="0">11</tspan></text>
      <text id="_12" data-name="12" transform="translate(874 -3084)" fill="#6a0202" font-size="21" font-family="SegoeUI, Segoe UI"><tspan x="-22.641" y="0">12</tspan></text>
      <text id="_13" data-name="13" transform="translate(1394 -3005)" fill="#6a0202" font-size="21" font-family="SegoeUI, Segoe UI"><tspan x="-22.641" y="0">13</tspan></text>
      <text id="_15" data-name="15" transform="translate(1394 -2772)" fill="#6a0202" font-size="21" font-family="SegoeUI, Segoe UI"><tspan x="-22.641" y="0">15</tspan></text>
      <text id="_14" data-name="14" transform="translate(874 -2854)" fill="#6a0202" font-size="21" font-family="SegoeUI, Segoe UI"><tspan x="-22.641" y="0">14</tspan></text>
      <text id="_16" data-name="16" transform="translate(845 -2554)" fill="#6a0202" font-size="21" font-family="SegoeUI, Segoe UI"><tspan x="-22.641" y="0">16</tspan></text>
      <text id="_17" data-name="17" transform="translate(874 -2430)" fill="#6a0202" font-size="21" font-family="SegoeUI, Segoe UI"><tspan x="-22.641" y="0">17</tspan></text>
      <text id="_18" data-name="18" transform="translate(874 -2327)" fill="#6a0202" font-size="21" font-family="SegoeUI, Segoe UI"><tspan x="-22.641" y="0">18</tspan></text>
      <text id="_19" data-name="19" transform="translate(512 -2327)" fill="#6a0202" font-size="21" font-family="SegoeUI, Segoe UI"><tspan x="-22.641" y="0">19</tspan></text>
      <text id="_13-1" data-name="13-1" transform="translate(1668 -3721)" fill="#6a0202" font-size="21" font-family="SegoeUI, Segoe UI"><tspan x="-42.359" y="0">13-1</tspan></text>
      <text id="_13-2" data-name="13-2" transform="translate(1668 -3649)" fill="#6a0202" font-size="21" font-family="SegoeUI, Segoe UI"><tspan x="-42.359" y="0">13-2</tspan></text>
      <text id="_13-3" data-name="13-3" transform="translate(1445 -3605)" fill="#6a0202" font-size="21" font-family="SegoeUI, Segoe UI"><tspan x="-42.359" y="0">13-3</tspan></text>
      <text id="_13-4" data-name="13-4" transform="translate(1668 -3572)" fill="#6a0202" font-size="21" font-family="SegoeUI, Segoe UI"><tspan x="-42.359" y="0">13-4</tspan></text>
      <text id="_13-5" data-name="13-5" transform="translate(1668 -3499)" fill="#6a0202" font-size="21" font-family="SegoeUI, Segoe UI"><tspan x="-42.359" y="0">13-5</tspan></text>
      <text id="_13-6" data-name="13-6" transform="translate(1595 -3385)" fill="#6a0202" font-size="21" font-family="SegoeUI, Segoe UI"><tspan x="-42.359" y="0">13-6</tspan></text>
      <text id="_13-7" data-name="13-7" transform="translate(1668 -3272)" fill="#6a0202" font-size="21" font-family="SegoeUI, Segoe UI"><tspan x="-42.359" y="0">13-7</tspan></text>
      <text id="_13-8" data-name="13-8" transform="translate(1668 -3200)" fill="#6a0202" font-size="21" font-family="SegoeUI, Segoe UI"><tspan x="-42.359" y="0">13-8</tspan></text>
    </g>
    <text id="initialize_state_and_props" data-name="initialize state and props" transform="translate(1058 -4001)" fill="#707070" font-size="32" font-family="SegoeUI, Segoe UI"><tspan x="-172.039" y="0">initialize state and props</tspan></text>
    <g id="Rectangle_51" data-name="Rectangle 51" transform="translate(871 -4042)" fill="none" stroke="#707070" stroke-width="1">
      <rect width="374" height="56" stroke="none"/>
      <rect x="0.5" y="0.5" width="373" height="55" fill="none"/>
    </g>
    <line id="Line_117" data-name="Line 117" y2="40" transform="translate(1058.5 -3986.5)" fill="none" stroke="#707070" stroke-width="1"/>
    <line id="Line_118" data-name="Line 118" x2="8" y2="12" transform="translate(1050.5 -3957.5)" fill="none" stroke="#707070" stroke-width="1"/>
    <line id="Line_119" data-name="Line 119" x1="7" y2="12" transform="translate(1058.5 -3957.5)" fill="none" stroke="#707070" stroke-width="1"/>
  </g>
</svg>
