<svg xmlns="http://www.w3.org/2000/svg" width="1136" height="1287" viewBox="0 0 1136 1287">
  <g id="Group_89" data-name="Group 89" transform="translate(-2711 4384)">
    <g id="Group_88" data-name="Group 88">
      <g id="Rectangle_52" data-name="Rectangle 52" transform="translate(2802 -3753)" fill="#fbf9f9" stroke="#04f" stroke-width="1" stroke-dasharray="10 5">
        <rect width="954" height="620" stroke="none"/>
        <rect x="0.5" y="0.5" width="953" height="619" fill="none"/>
      </g>
      <text id="location_options" data-name="location,
options" transform="translate(3479 -3573)" fill="#067226" font-size="22" font-family="SegoeUI-SemiboldItalic, Segoe UI" font-weight="600" font-style="italic"><tspan x="0" y="0">location,</tspan><tspan x="0" y="18">options</tspan></text>
      <g id="Group_75" data-name="Group 75" transform="translate(3469.5 -2824.5) rotate(90)">
        <line id="Line_20" data-name="Line 20" x2="8" y2="12" transform="translate(-637 -10)" fill="none" stroke="#707070" stroke-width="1"/>
        <line id="Line_21" data-name="Line 21" x1="7" y2="12" transform="translate(-629 -10)" fill="none" stroke="#707070" stroke-width="1"/>
      </g>
      <text id="initControl_..._" data-name="initControl(...)" transform="translate(3281 -3677)" fill="#707070" font-size="32" font-family="SegoeUI, Segoe UI"><tspan x="-94.859" y="0">initControl(...)</tspan></text>
      <text id="destroy_previous_control" data-name="destroy previous control" transform="translate(3281 -3607)" fill="#707070" font-size="32" font-family="SegoeUI, Segoe UI"><tspan x="-171.594" y="0">destroy previous control</tspan></text>
      <text id="detach_old_listeners" data-name="detach old
listeners" transform="translate(2908 -3511)" fill="#707070" font-size="32" font-family="SegoeUI, Segoe UI"><tspan x="-74.852" y="0">detach old</tspan><tspan x="-58.102" y="43">listeners</tspan></text>
      <text id="request_control_data" data-name="request control data" transform="translate(3281 -3534)" fill="#707070" font-size="32" font-family="SegoeUI, Segoe UI"><tspan x="-142.93" y="0">request control data</tspan></text>
      <text id="Server_stub" data-name="Server/
stub" transform="translate(3654 -3519)" fill="#707070" font-size="32" font-family="SegoeUI, Segoe UI"><tspan x="-50.258" y="0">Server/</tspan><tspan x="-30.672" y="43">stub</tspan></text>
      <text id="prepare_control_data_normalize_init_etc_" data-name="prepare control data
(normalize, init, etc)" transform="translate(3279 -3461.187)" fill="#707070" font-size="32" font-family="SegoeUI, Segoe UI"><tspan x="-144.758" y="0">prepare control data</tspan><tspan x="-138.031" y="43">(normalize, init, etc)</tspan></text>
      <text id="setup_connection_to_the_env._events_public_API_destroyFn_etc_" data-name="setup connection to the env.
(events, public API, destroyFn, etc)" transform="translate(3281 -3349.632)" fill="#707070" font-size="32" font-family="SegoeUI, Segoe UI"><tspan x="-201.125" y="0">setup connection to the env.</tspan><tspan x="-240.531" y="43">(events, public API, destroyFn, etc)</tspan></text>
      <text id="pass_the_data_to_control" data-name="pass the data to control" transform="translate(3281 -3238.145)" fill="#707070" font-size="32" font-family="SegoeUI, Segoe UI"><tspan x="-167.477" y="0">pass the data to control</tspan></text>
      <text id="control_is_ready" data-name="control is ready" transform="translate(3279 -3167.208)" fill="#707070" font-size="32" font-family="SegoeUI, Segoe UI"><tspan x="-108.719" y="0">control is ready</tspan></text>
      <g id="Rectangle_53" data-name="Rectangle 53" transform="translate(3025 -3385)" fill="none" stroke="#707070" stroke-width="1">
        <rect width="512" height="93" stroke="none"/>
        <rect x="0.5" y="0.5" width="511" height="92" fill="none"/>
      </g>
      <g id="Rectangle_54" data-name="Rectangle 54" transform="translate(3094 -3717)" fill="none" stroke="#707070" stroke-width="1">
        <rect width="374" height="54" stroke="none"/>
        <rect x="0.5" y="0.5" width="373" height="53" fill="none"/>
      </g>
      <g id="Rectangle_55" data-name="Rectangle 55" transform="translate(3094 -3644)" fill="none" stroke="#707070" stroke-width="1">
        <rect width="374" height="54" stroke="none"/>
        <rect x="0.5" y="0.5" width="373" height="53" fill="none"/>
      </g>
      <g id="Rectangle_56" data-name="Rectangle 56" transform="translate(3094 -3498)" fill="none" stroke="#707070" stroke-width="1">
        <rect width="374" height="94" stroke="none"/>
        <rect x="0.5" y="0.5" width="373" height="93" fill="none"/>
      </g>
      <g id="Rectangle_57" data-name="Rectangle 57" transform="translate(3094 -3273)" fill="none" stroke="#707070" stroke-width="1">
        <rect width="374" height="54" stroke="none"/>
        <rect x="0.5" y="0.5" width="373" height="53" fill="none"/>
      </g>
      <g id="Rectangle_58" data-name="Rectangle 58" transform="translate(3094 -3200)" fill="none" stroke="#707070" stroke-width="1">
        <rect width="374" height="54" stroke="none"/>
        <rect x="0.5" y="0.5" width="373" height="53" fill="none"/>
      </g>
      <g id="Rectangle_59" data-name="Rectangle 59" transform="translate(3094 -3571)" fill="none" stroke="#707070" stroke-width="1">
        <rect width="374" height="54" stroke="none"/>
        <rect x="0.5" y="0.5" width="373" height="53" fill="none"/>
      </g>
      <line id="Line_120" data-name="Line 120" x2="100" transform="translate(3468.5 -3453.5)" fill="none" stroke="#707070" stroke-width="1"/>
      <line id="Line_121" data-name="Line 121" x2="100" transform="translate(3468.5 -3543.5)" fill="none" stroke="#707070" stroke-width="1"/>
      <g id="Rectangle_60" data-name="Rectangle 60" transform="translate(3568 -3571)" fill="none" stroke="#707070" stroke-width="1">
        <rect width="171" height="140" stroke="none"/>
        <rect x="0.5" y="0.5" width="170" height="139" fill="none"/>
      </g>
      <g id="Rectangle_61" data-name="Rectangle 61" transform="translate(2823 -3571)" fill="none" stroke="#707070" stroke-width="1">
        <rect width="171" height="140" stroke="none"/>
        <rect x="0.5" y="0.5" width="170" height="139" fill="none"/>
      </g>
      <g id="Group_76" data-name="Group 76" transform="translate(3568.5 -3551.5) rotate(90)">
        <line id="Line_20-2" data-name="Line 20" y1="12" x2="8" fill="none" stroke="#707070" stroke-width="1"/>
        <line id="Line_21-2" data-name="Line 21" x1="7" y1="12" transform="translate(8)" fill="none" stroke="#707070" stroke-width="1"/>
      </g>
      <g id="Group_77" data-name="Group 77" transform="translate(3910 -3573)">
        <line id="Line_20-3" data-name="Line 20" x2="8" y2="12" transform="translate(-636.5 -9.5)" fill="none" stroke="#707070" stroke-width="1"/>
        <line id="Line_21-3" data-name="Line 21" x1="7" y2="12" transform="translate(-628.5 -9.5)" fill="none" stroke="#707070" stroke-width="1"/>
      </g>
      <line id="Line_122" data-name="Line 122" y1="19" transform="translate(3281.5 -3590.5)" fill="none" stroke="#707070" stroke-width="1"/>
      <g id="Group_78" data-name="Group 78" transform="translate(3977 -3719)">
        <line id="Line_20-4" data-name="Line 20" x2="8" y2="12" transform="translate(-636.5 -9.5)" fill="none" stroke="#707070" stroke-width="1"/>
        <line id="Line_21-4" data-name="Line 21" x1="7" y2="12" transform="translate(-628.5 -9.5)" fill="none" stroke="#707070" stroke-width="1"/>
      </g>
      <g id="Group_87" data-name="Group 87" transform="translate(3910 -3719)">
        <line id="Line_20-5" data-name="Line 20" x2="8" y2="12" transform="translate(-636.5 -9.5)" fill="none" stroke="#707070" stroke-width="1"/>
        <line id="Line_21-5" data-name="Line 21" x1="7" y2="12" transform="translate(-628.5 -9.5)" fill="none" stroke="#707070" stroke-width="1"/>
      </g>
      <line id="Line_123" data-name="Line 123" y1="19" transform="translate(3281.5 -3663.5)" fill="none" stroke="#707070" stroke-width="1"/>
      <g id="Group_79" data-name="Group 79" transform="translate(3910 -3387)">
        <line id="Line_20-6" data-name="Line 20" x2="8" y2="12" transform="translate(-636.5 -9.5)" fill="none" stroke="#707070" stroke-width="1"/>
        <line id="Line_21-6" data-name="Line 21" x1="7" y2="12" transform="translate(-628.5 -9.5)" fill="none" stroke="#707070" stroke-width="1"/>
      </g>
      <line id="Line_124" data-name="Line 124" y1="19" transform="translate(3281.5 -3404.5)" fill="none" stroke="#707070" stroke-width="1"/>
      <g id="Group_80" data-name="Group 80" transform="translate(3910 -3275)">
        <line id="Line_20-7" data-name="Line 20" x2="8" y2="12" transform="translate(-636.5 -9.5)" fill="none" stroke="#707070" stroke-width="1"/>
        <line id="Line_21-7" data-name="Line 21" x1="7" y2="12" transform="translate(-628.5 -9.5)" fill="none" stroke="#707070" stroke-width="1"/>
      </g>
      <line id="Line_125" data-name="Line 125" y1="19" transform="translate(3281.5 -3292.5)" fill="none" stroke="#707070" stroke-width="1"/>
      <g id="Group_81" data-name="Group 81" transform="translate(3910 -3202)">
        <line id="Line_20-8" data-name="Line 20" x2="8" y2="12" transform="translate(-636.5 -9.5)" fill="none" stroke="#707070" stroke-width="1"/>
        <line id="Line_21-8" data-name="Line 21" x1="7" y2="12" transform="translate(-628.5 -9.5)" fill="none" stroke="#707070" stroke-width="1"/>
      </g>
      <line id="Line_126" data-name="Line 126" y1="19" transform="translate(3281.5 -3219.5)" fill="none" stroke="#707070" stroke-width="1"/>
      <line id="Line_127" data-name="Line 127" x1="186" transform="translate(2908.5 -3616.5)" fill="none" stroke="#707070" stroke-width="1"/>
      <line id="Line_128" data-name="Line 128" y1="46" transform="translate(2908.5 -3616.5)" fill="none" stroke="#707070" stroke-width="1"/>
      <g id="Group_82" data-name="Group 82" transform="translate(3537 -3573)">
        <line id="Line_20-9" data-name="Line 20" x2="8" y2="12" transform="translate(-636.5 -9.5)" fill="none" stroke="#707070" stroke-width="1"/>
        <line id="Line_21-9" data-name="Line 21" x1="7" y2="12" transform="translate(-628.5 -9.5)" fill="none" stroke="#707070" stroke-width="1"/>
      </g>
      <text id="Command_Bar_Items" data-name="Command
Bar
Items" transform="translate(3516 -3498)" fill="#067226" font-size="21" font-family="SegoeUI-SemiboldItalic, Segoe UI" font-weight="600" font-style="italic"><tspan x="-49.091" y="0">Command</tspan><tspan x="-16.329" y="18">Bar</tspan><tspan x="-25.676" y="36">Items</tspan></text>
      <text id="logic_of_cuiControls:_cuiContextMenu_cuiToolbar_cuiToc_..." data-name="logic of cuiControls: 
cuiContextMenu,
cuiToolbar, cuiToc,..." transform="translate(2809 -3724)" fill="#04f" font-size="24" font-family="SegoeUI-Semibold, Segoe UI" font-weight="600"><tspan x="0" y="0">logic of cuiControls: </tspan><tspan font-family="SegoeUI-SemiboldItalic, Segoe UI" font-style="italic"><tspan x="0" y="32">cuiContextMenu,</tspan><tspan x="0" y="64">cuiToolbar, cuiToc</tspan><tspan y="64" font-family="SegoeUI-Semibold, Segoe UI" font-style="normal">,...</tspan></tspan></text>
      <g id="Rectangle_62" data-name="Rectangle 62" transform="translate(2802 -4305)" fill="#fbf9f9" stroke="#04f" stroke-width="1" stroke-dasharray="10 5">
        <rect width="954" height="384" stroke="none"/>
        <rect x="0.5" y="0.5" width="953" height="383" fill="none"/>
      </g>
      <text id="create_control" data-name="create control" transform="translate(3276 -4248)" fill="#707070" font-size="32" font-family="SegoeUI, Segoe UI"><tspan x="-97.688" y="0">create control</tspan></text>
      <g id="Rectangle_63" data-name="Rectangle 63" transform="translate(3089 -4288)" fill="none" stroke="#707070" stroke-width="1">
        <rect width="374" height="54" stroke="none"/>
        <rect x="0.5" y="0.5" width="373" height="53" fill="none"/>
      </g>
      <g id="Group_83" data-name="Group 83" transform="translate(3905 -4217)">
        <line id="Line_20-10" data-name="Line 20" x2="8" y2="12" transform="translate(-636.5 -9.5)" fill="none" stroke="#707070" stroke-width="1"/>
        <line id="Line_21-10" data-name="Line 21" x1="7" y2="12" transform="translate(-628.5 -9.5)" fill="none" stroke="#707070" stroke-width="1"/>
      </g>
      <line id="Line_129" data-name="Line 129" y1="19" transform="translate(3276.5 -4234.5)" fill="none" stroke="#707070" stroke-width="1"/>
      <text id="is_custom_constructor_provided_" data-name="is custom constructor
provided?" transform="translate(3276 -4161)" fill="#707070" font-size="32" font-family="SegoeUI, Segoe UI"><tspan x="-151.641" y="0">is custom constructor</tspan><tspan x="-70.266" y="32">provided?</tspan></text>
      <g id="Polygon_3" data-name="Polygon 3" transform="translate(3001 -4215)" fill="none">
        <path d="M275.5,0,551,56.5,275.5,113,0,56.5Z" stroke="none"/>
        <path d="M 275.5 1.020851135253906 L 4.977783203125 56.50000381469727 L 275.5 111.9791564941406 L 546.022216796875 56.50000381469727 L 275.5 1.020851135253906 M 275.5 7.62939453125e-06 L 551 56.50000381469727 L 275.5 113 L 0 56.50000381469727 L 275.5 7.62939453125e-06 Z" stroke="none" fill="#707070"/>
      </g>
      <text id="run_custom_constructor" data-name="run custom
constructor" transform="translate(3603 -4067)" fill="#707070" font-size="32" font-family="SegoeUI, Segoe UI"><tspan x="-79.867" y="0">run custom</tspan><tspan x="-80.398" y="43">constructor</tspan></text>
      <text id="create_populate_DOM_node" data-name="create &amp; populate
DOM node" transform="translate(2949 -4067)" fill="#707070" font-size="32" font-family="SegoeUI, Segoe UI"><tspan x="-127.867" y="0">create &amp; populate</tspan><tspan x="-78.25" y="43">DOM node</tspan></text>
      <g id="Rectangle_65" data-name="Rectangle 65" transform="translate(3463 -4102)" fill="none" stroke="#707070" stroke-width="1">
        <rect width="279" height="96" stroke="none"/>
        <rect x="0.5" y="0.5" width="278" height="95" fill="none"/>
      </g>
      <g id="Rectangle_66" data-name="Rectangle 66" transform="translate(2810 -4102)" fill="none" stroke="#707070" stroke-width="1">
        <rect width="279" height="96" stroke="none"/>
        <rect x="0.5" y="0.5" width="278" height="95" fill="none"/>
      </g>
      <text id="webComponent_name" data-name="webComponent
name" transform="translate(2887 -4194)" fill="#067226" font-size="22" font-family="SegoeUI-SemiboldItalic, Segoe UI" font-weight="600" font-style="italic"><tspan x="-77.435" y="0">webComponent</tspan><tspan x="-27.887" y="24">name</tspan></text>
      <line id="Line_130" data-name="Line 130" y1="57" transform="translate(2949.5 -4158.5)" fill="none" stroke="#707070" stroke-width="1"/>
      <line id="Line_131" data-name="Line 131" x1="53" transform="translate(2949.5 -4158.5)" fill="none" stroke="#707070" stroke-width="1"/>
      <line id="Line_132" data-name="Line 132" y1="57" transform="translate(3602.5 -4158.5)" fill="none" stroke="#707070" stroke-width="1"/>
      <line id="Line_133" data-name="Line 133" x2="56" transform="translate(3546.5 -4158.5)" fill="none" stroke="#707070" stroke-width="1"/>
      <line id="Line_134" data-name="Line 134" y1="57" transform="translate(2886.5 -4158.5)" fill="none" stroke="#707070" stroke-width="1"/>
      <g id="Group_84" data-name="Group 84" transform="translate(4231 -4104)">
        <line id="Line_20-11" data-name="Line 20" x2="8" y2="12" transform="translate(-636.5 -9.5)" fill="none" stroke="#707070" stroke-width="1"/>
        <line id="Line_21-11" data-name="Line 21" x1="7" y2="12" transform="translate(-628.5 -9.5)" fill="none" stroke="#707070" stroke-width="1"/>
      </g>
      <g id="Group_85" data-name="Group 85" transform="translate(3578 -4104)">
        <line id="Line_20-12" data-name="Line 20" x2="8" y2="12" transform="translate(-636.5 -9.5)" fill="none" stroke="#707070" stroke-width="1"/>
        <line id="Line_21-12" data-name="Line 21" x1="7" y2="12" transform="translate(-628.5 -9.5)" fill="none" stroke="#707070" stroke-width="1"/>
      </g>
      <g id="Group_86" data-name="Group 86" transform="translate(3515 -4104)">
        <line id="Line_20-13" data-name="Line 20" x2="8" y2="12" transform="translate(-636.5 -9.5)" fill="none" stroke="#707070" stroke-width="1"/>
        <line id="Line_21-13" data-name="Line 21" x1="7" y2="12" transform="translate(-628.5 -9.5)" fill="none" stroke="#707070" stroke-width="1"/>
      </g>
      <line id="Line_135" data-name="Line 135" y2="27" transform="translate(2949.5 -4005.5)" fill="none" stroke="#707070" stroke-width="1"/>
      <line id="Line_136" data-name="Line 136" y2="27" transform="translate(3602.5 -4005.5)" fill="none" stroke="#707070" stroke-width="1"/>
      <line id="Line_137" data-name="Line 137" x2="653" transform="translate(2949.5 -3978.5)" fill="none" stroke="#707070" stroke-width="1"/>
      <line id="Line_138" data-name="Line 138" y1="73" transform="translate(3348.5 -3789.5)" fill="none" stroke="#707070" stroke-width="1"/>
      <line id="Line_139" data-name="Line 139" x2="168" transform="translate(3348.5 -3789.5)" fill="none" stroke="#707070" stroke-width="1"/>
      <line id="Line_140" data-name="Line 140" y2="34" transform="translate(3516.5 -3823.5)" fill="none" stroke="#707070" stroke-width="1"/>
      <text id="control_s_children_metadata_layout_options" data-name="control&apos;s children,
metadata,
layout options" transform="translate(3516 -3878)" fill="#067226" font-size="22" font-family="SegoeUI-SemiboldItalic, Segoe UI" font-weight="600" font-style="italic"><tspan x="-87.78" y="0">control&apos;s children,</tspan><tspan x="-50.596" y="24">metadata,</tspan><tspan x="-70.791" y="48">layout options</tspan></text>
      <text id="yes" transform="translate(3572 -4172)" fill="#707070" font-size="24" font-family="SegoeUI-SemiboldItalic, Segoe UI" font-weight="600" font-style="italic"><tspan x="-17.174" y="0">yes</tspan></text>
      <text id="no" transform="translate(2986 -4169)" fill="#707070" font-size="24" font-family="SegoeUI-SemiboldItalic, Segoe UI" font-weight="600" font-style="italic"><tspan x="-13.623" y="0">no</tspan></text>
      <line id="Line_142" data-name="Line 142" y1="120" transform="translate(3281.5 -3836.5)" fill="none" stroke="#707070" stroke-width="1"/>
      <line id="Line_143" data-name="Line 143" y1="110" transform="translate(3281.5 -3978.5)" fill="none" stroke="#707070" stroke-width="1"/>
      <path id="Path_5" data-name="Path 5" d="M3148.767-3859.688c11.88,0,7.768-10.375,24.219,0s17.479,0,23.306,0" transform="translate(108.536 -9.087)" fill="none" stroke="#707070" stroke-width="1"/>
      <path id="Path_6" data-name="Path 6" d="M3148.767-3859.688c11.88,0,7.768-10.375,24.219,0s17.479,0,23.306,0" transform="translate(108.536 22.913)" fill="none" stroke="#707070" stroke-width="1"/>
      <text id="Instantiation" transform="translate(2804 -4321)" fill="#707070" font-size="32" font-family="SegoeUI-Semibold, Segoe UI" font-weight="600"><tspan x="0" y="0">Instantiation</tspan></text>
      <text id="Initialization" transform="translate(2804 -3771)" fill="#707070" font-size="32" font-family="SegoeUI-Semibold, Segoe UI" font-weight="600"><tspan x="0" y="0">Initialization</tspan></text>
    </g>
    <path id="Path_7" data-name="Path 7" d="M0,0H1136V1287H0Z" transform="translate(2711 -4384)" fill="none"/>
  </g>
</svg>
