<svg xmlns="http://www.w3.org/2000/svg" width="780" height="381.411" viewBox="0 0 780 381.411">
  <g id="Group_21" data-name="Group 21" transform="translate(729 406.411)">
    <g id="Rectangle_1" data-name="Rectangle 1" transform="translate(-141 -289)" fill="#fff" stroke="#707070" stroke-width="1">
      <rect width="192" height="219" stroke="none"/>
      <rect x="0.5" y="0.5" width="191" height="218" fill="none"/>
    </g>
    <text id="Data_Settings" data-name="Data + Settings" transform="translate(-660 -171)" fill="#707070" font-size="20" font-family="SegoeUI, Segoe UI"><tspan x="-68.428" y="0">Data + Settings</tspan></text>
    <g id="Ellipse_6" data-name="Ellipse 6" transform="translate(-508 -222)" fill="#fff" stroke="#707070" stroke-width="1">
      <ellipse cx="45.5" cy="44" rx="45.5" ry="44" stroke="none"/>
      <ellipse cx="45.5" cy="44" rx="45" ry="43.5" fill="none"/>
    </g>
    <text id="_.render_" data-name=".render()" transform="translate(-462 -173)" fill="#707070" font-size="20" font-family="SegoeUI, Segoe UI"><tspan x="-37.163" y="0">.render()</tspan></text>
    <g id="Ellipse_7" data-name="Ellipse 7" transform="translate(-390 -330.411)" fill="#fff" stroke="#707070" stroke-width="1">
      <ellipse cx="33.954" cy="32.835" rx="33.954" ry="32.835" stroke="none"/>
      <ellipse cx="33.954" cy="32.835" rx="33.454" ry="32.335" fill="none"/>
    </g>
    <text id="render_head" data-name="render
head" transform="translate(-356 -302)" fill="#707070" font-size="14" font-family="SegoeUI, Segoe UI"><tspan x="-20.272" y="0">render</tspan><tspan x="-15.306" y="19">head</tspan></text>
    <g id="Ellipse_8" data-name="Ellipse 8" transform="translate(-390 -249.04)" fill="#fff" stroke="#707070" stroke-width="1">
      <ellipse cx="33.954" cy="32.835" rx="33.954" ry="32.835" stroke="none"/>
      <ellipse cx="33.954" cy="32.835" rx="33.454" ry="32.335" fill="none"/>
    </g>
    <text id="render_body" data-name="render
body" transform="translate(-356 -220)" fill="#707070" font-size="14" font-family="SegoeUI, Segoe UI"><tspan x="-20.272" y="0">render</tspan><tspan x="-15.726" y="19">body</tspan></text>
    <g id="Ellipse_9" data-name="Ellipse 9" transform="translate(-390 -167.67)" fill="#fff" stroke="#707070" stroke-width="1">
      <ellipse cx="33.954" cy="32.835" rx="33.954" ry="32.835" stroke="none"/>
      <ellipse cx="33.954" cy="32.835" rx="33.454" ry="32.335" fill="none"/>
    </g>
    <text id="render_active_cell" data-name="render
active
cell" transform="translate(-356 -148)" fill="#707070" font-size="14" font-family="SegoeUI, Segoe UI"><tspan x="-20.272" y="0">render</tspan><tspan x="-17.876" y="19">active</tspan><tspan x="-10.285" y="38">cell</tspan></text>
    <g id="Ellipse_10" data-name="Ellipse 10" transform="translate(-390 -90.67)" fill="#fff" stroke="#707070" stroke-width="1">
      <ellipse cx="33.954" cy="32.835" rx="33.954" ry="32.835" stroke="none"/>
      <ellipse cx="33.954" cy="32.835" rx="33.454" ry="32.335" fill="none"/>
    </g>
    <text id="set_scroll_frozen_columns_etc" data-name="set scroll,
frozen
columns, etc" transform="translate(-356 -71)" fill="#707070" font-size="10" font-family="SegoeUI, Segoe UI"><tspan x="-20.405" y="0">set scroll,</tspan><tspan x="-13.938" y="14">frozen</tspan><tspan x="-27.61" y="28">columns, etc</tspan></text>
    <g id="Ellipse_11" data-name="Ellipse 11" transform="translate(-288 -406.411)" fill="#fff" stroke="#707070" stroke-width="1">
      <ellipse cx="33.954" cy="32.835" rx="33.954" ry="32.835" stroke="none"/>
      <ellipse cx="33.954" cy="32.835" rx="33.454" ry="32.335" fill="none"/>
    </g>
    <text id="render_head_cells" data-name="render
head
cells" transform="translate(-254 -385)" fill="#707070" font-size="12" font-family="SegoeUI, Segoe UI"><tspan x="-17.376" y="0">render</tspan><tspan x="-13.119" y="16">head</tspan><tspan x="-11.361" y="32">cells</tspan></text>
    <g id="Ellipse_12" data-name="Ellipse 12" transform="translate(-288 -330.411)" fill="#fff" stroke="#707070" stroke-width="1">
      <ellipse cx="33.954" cy="32.835" rx="33.954" ry="32.835" stroke="none"/>
      <ellipse cx="33.954" cy="32.835" rx="33.454" ry="32.335" fill="none"/>
    </g>
    <text id="render_search_row" data-name="render
search
row" transform="translate(-254 -309)" fill="#707070" font-size="12" font-family="SegoeUI, Segoe UI"><tspan x="-17.376" y="0">render</tspan><tspan x="-16.989" y="16">search</tspan><tspan x="-9.938" y="32">row</tspan></text>
    <g id="Ellipse_13" data-name="Ellipse 13" transform="translate(-288 -248.411)" fill="#fff" stroke="#707070" stroke-width="1">
      <ellipse cx="33.954" cy="32.835" rx="33.954" ry="32.835" stroke="none"/>
      <ellipse cx="33.954" cy="32.835" rx="33.454" ry="32.335" fill="none"/>
    </g>
    <text id="render_rows" data-name="render
rows" transform="translate(-254 -219)" fill="#707070" font-size="12" font-family="SegoeUI, Segoe UI"><tspan x="-17.376" y="0">render</tspan><tspan x="-12.483" y="16">rows</tspan></text>
    <text id="getCellType" transform="translate(-95 -216)" fill="#707070" font-size="12" font-family="SegoeUI, Segoe UI" text-decoration="underline"><tspan x="-30.844" y="0">getCellType</tspan></text>
    <text id="getEditorType" transform="translate(6 -216)" fill="#707070" font-size="12" font-family="SegoeUI, Segoe UI" text-decoration="underline"><tspan x="-36.741" y="0">getEditorType</tspan></text>
    <text id="getCellMetadata" transform="translate(-42 -175)" fill="#707070" font-size="12" font-family="SegoeUI, Segoe UI" text-decoration="underline"><tspan x="-43.746" y="0">getCellMetadata</tspan></text>
    <text id="formatter_type_or_editor_type_" data-name="formatter[type] or editor[type]" transform="translate(-42 -134)" fill="#707070" font-size="12" font-family="SegoeUI, Segoe UI" text-decoration="underline"><tspan x="-80.083" y="0">formatter[type] or editor[type]</tspan></text>
    <text id="DOM_real_or_virtual_" data-name="DOM (real or virtual)" transform="translate(-42 -93)" fill="#707070" font-size="12" font-family="SegoeUI, Segoe UI" text-decoration="underline"><tspan x="-54.349" y="0">DOM (real or virtual)</tspan></text>
    <text id="is_cell_in_edit_mode_now_" data-name="is cell in edit mode now?" transform="translate(-42 -257)" fill="#707070" font-size="12" font-family="SegoeUI, Segoe UI" text-decoration="underline"><tspan x="-65.329" y="0">is cell in edit mode now?</tspan></text>
    <g id="Group_5" data-name="Group 5" transform="translate(-40 109)">
      <line id="Line_4" data-name="Line 4" y2="18.758" transform="translate(-48.026 -359.5)" fill="none" stroke="#707070" stroke-width="1"/>
      <line id="Line_5" data-name="Line 5" x2="3.474" y2="7.642" transform="translate(-51.5 -348.384)" fill="none" stroke="#707070" stroke-width="1"/>
      <line id="Line_6" data-name="Line 6" x1="3.474" y2="7.642" transform="translate(-48.026 -348.384)" fill="none" stroke="#707070" stroke-width="1"/>
    </g>
    <g id="Group_6" data-name="Group 6" transform="translate(38 109)">
      <line id="Line_4-2" data-name="Line 4" y2="18.758" transform="translate(-48.026 -359.5)" fill="none" stroke="#707070" stroke-width="1"/>
      <line id="Line_5-2" data-name="Line 5" x2="3.474" y2="7.642" transform="translate(-51.5 -348.384)" fill="none" stroke="#707070" stroke-width="1"/>
      <line id="Line_6-2" data-name="Line 6" x1="3.474" y2="7.642" transform="translate(-48.026 -348.384)" fill="none" stroke="#707070" stroke-width="1"/>
    </g>
    <g id="Group_7" data-name="Group 7" transform="matrix(0.848, 0.53, -0.53, 0.848, -167.833, 124.248)">
      <line id="Line_4-3" data-name="Line 4" y2="18.758" transform="translate(-48.026 -359.5)" fill="none" stroke="#707070" stroke-width="1"/>
      <line id="Line_5-3" data-name="Line 5" x2="3.474" y2="7.642" transform="translate(-51.5 -348.384)" fill="none" stroke="#707070" stroke-width="1"/>
      <line id="Line_6-3" data-name="Line 6" x1="3.474" y2="7.642" transform="translate(-48.026 -348.384)" fill="none" stroke="#707070" stroke-width="1"/>
    </g>
    <g id="Group_8" data-name="Group 8" transform="translate(166.574 65.287) rotate(-34)">
      <line id="Line_4-4" data-name="Line 4" y2="18.758" transform="translate(-48.026 -359.5)" fill="none" stroke="#707070" stroke-width="1"/>
      <line id="Line_5-4" data-name="Line 5" x2="3.474" y2="7.642" transform="translate(-51.5 -348.384)" fill="none" stroke="#707070" stroke-width="1"/>
      <line id="Line_6-4" data-name="Line 6" x1="3.474" y2="7.642" transform="translate(-48.026 -348.384)" fill="none" stroke="#707070" stroke-width="1"/>
    </g>
    <g id="Group_9" data-name="Group 9" transform="translate(3 192)">
      <line id="Line_4-5" data-name="Line 4" y2="18.758" transform="translate(-48.026 -359.5)" fill="none" stroke="#707070" stroke-width="1"/>
      <line id="Line_5-5" data-name="Line 5" x2="3.474" y2="7.642" transform="translate(-51.5 -348.384)" fill="none" stroke="#707070" stroke-width="1"/>
      <line id="Line_6-5" data-name="Line 6" x1="3.474" y2="7.642" transform="translate(-48.026 -348.384)" fill="none" stroke="#707070" stroke-width="1"/>
    </g>
    <g id="Group_10" data-name="Group 10" transform="translate(3 235)">
      <line id="Line_4-6" data-name="Line 4" y2="18.758" transform="translate(-48.026 -359.5)" fill="none" stroke="#707070" stroke-width="1"/>
      <line id="Line_5-6" data-name="Line 5" x2="3.474" y2="7.642" transform="translate(-51.5 -348.384)" fill="none" stroke="#707070" stroke-width="1"/>
      <line id="Line_6-6" data-name="Line 6" x1="3.474" y2="7.642" transform="translate(-48.026 -348.384)" fill="none" stroke="#707070" stroke-width="1"/>
    </g>
    <text id="no" transform="translate(-103 -238)" fill="#707070" font-size="9" font-family="SegoeUI-Italic, Segoe UI" font-style="italic"><tspan x="-4.937" y="0">no</tspan></text>
    <text id="yes" transform="translate(5 -238)" fill="#707070" font-size="9" font-family="SegoeUI-Italic, Segoe UI" font-style="italic"><tspan x="-6.146" y="0">yes</tspan></text>
    <text id="type" transform="translate(-6 -196)" fill="#707070" font-size="9" font-family="SegoeUI-Italic, Segoe UI" font-style="italic"><tspan x="-8.262" y="0">type</tspan></text>
    <text id="type-2" data-name="type" transform="translate(-86 -196)" fill="#707070" font-size="9" font-family="SegoeUI-Italic, Segoe UI" font-style="italic"><tspan x="-8.262" y="0">type</tspan></text>
    <text id="cellMetadata" transform="translate(-10 -156)" fill="#707070" font-size="9" font-family="SegoeUI-Italic, Segoe UI" font-style="italic"><tspan x="-25.018" y="0">cellMetadata</tspan></text>
    <text id="Rendering_of_the_cell" data-name="Rendering of the cell" transform="translate(-45 -298)" fill="#707070" font-size="12" font-family="SegoeUI, Segoe UI"><tspan x="-54.791" y="0">Rendering of the cell</tspan></text>
    <line id="Line_4-7" data-name="Line 4" y2="56.758" transform="translate(-45.026 -373.5)" fill="none" stroke="#707070" stroke-width="1"/>
    <line id="Line_5-7" data-name="Line 5" x2="3.474" y2="7.642" transform="translate(-48.5 -324.384)" fill="none" stroke="#707070" stroke-width="1"/>
    <line id="Line_6-7" data-name="Line 6" x1="3.474" y2="7.642" transform="translate(-45.026 -324.384)" fill="none" stroke="#707070" stroke-width="1"/>
    <line id="Line_7" data-name="Line 7" x1="120" transform="translate(-165.5 -373.5)" fill="none" stroke="#707070" stroke-width="1"/>
    <line id="Line_12" data-name="Line 12" y2="239" transform="translate(-165.5 -373.5)" fill="none" stroke="#707070" stroke-width="1"/>
    <g id="Group_11" data-name="Group 11" transform="translate(46.095 -343.147) rotate(-90)">
      <line id="Line_4-8" data-name="Line 4" y2="18.758" transform="translate(-48.026 -359.5)" fill="none" stroke="#707070" stroke-width="1"/>
      <line id="Line_5-8" data-name="Line 5" x2="3.474" y2="7.642" transform="translate(-51.5 -348.384)" fill="none" stroke="#707070" stroke-width="1"/>
      <line id="Line_6-8" data-name="Line 6" x1="3.474" y2="7.642" transform="translate(-48.026 -348.384)" fill="none" stroke="#707070" stroke-width="1"/>
    </g>
    <g id="Group_12" data-name="Group 12" transform="translate(46.095 -263.147) rotate(-90)">
      <line id="Line_4-9" data-name="Line 4" y2="18.758" transform="translate(-48.026 -359.5)" fill="none" stroke="#707070" stroke-width="1"/>
      <line id="Line_5-9" data-name="Line 5" x2="3.474" y2="7.642" transform="translate(-51.5 -348.384)" fill="none" stroke="#707070" stroke-width="1"/>
      <line id="Line_6-9" data-name="Line 6" x1="3.474" y2="7.642" transform="translate(-48.026 -348.384)" fill="none" stroke="#707070" stroke-width="1"/>
    </g>
    <g id="Group_13" data-name="Group 13" transform="translate(1 6)">
      <line id="Line_4-10" data-name="Line 4" y1="23.001" x2="33.157" transform="translate(-322.5 -353.501)" fill="none" stroke="#707070" stroke-width="1"/>
      <line id="Line_5-10" data-name="Line 5" x2="3.474" y2="7.642" transform="matrix(-0.574, -0.819, 0.819, -0.574, -293.611, -346.271)" fill="none" stroke="#707070" stroke-width="1"/>
      <line id="Line_6-10" data-name="Line 6" x1="3.474" y2="7.642" transform="matrix(-0.574, -0.819, 0.819, -0.574, -295.603, -349.117)" fill="none" stroke="#707070" stroke-width="1"/>
    </g>
    <line id="Line_4-11" data-name="Line 4" y2="47.37" transform="translate(-213.017 -373.121) rotate(-90)" fill="none" stroke="#707070" stroke-width="1"/>
    <line id="Line_5-11" data-name="Line 5" x2="3.474" y2="7.642" transform="translate(-173.289 -369.647) rotate(-90)" fill="none" stroke="#707070" stroke-width="1"/>
    <line id="Line_6-11" data-name="Line 6" x1="3.474" y2="7.642" transform="translate(-173.289 -373.121) rotate(-90)" fill="none" stroke="#707070" stroke-width="1"/>
    <line id="Line_4-12" data-name="Line 4" y2="47.37" transform="translate(-213.017 -297.121) rotate(-90)" fill="none" stroke="#707070" stroke-width="1"/>
    <line id="Line_5-12" data-name="Line 5" x2="3.474" y2="7.642" transform="translate(-173.289 -293.647) rotate(-90)" fill="none" stroke="#707070" stroke-width="1"/>
    <line id="Line_6-12" data-name="Line 6" x1="3.474" y2="7.642" transform="translate(-173.289 -297.121) rotate(-90)" fill="none" stroke="#707070" stroke-width="1"/>
    <line id="Line_4-13" data-name="Line 4" y2="47.37" transform="translate(-213.017 -215.121) rotate(-90)" fill="none" stroke="#707070" stroke-width="1"/>
    <line id="Line_5-13" data-name="Line 5" x2="3.474" y2="7.642" transform="translate(-173.289 -211.647) rotate(-90)" fill="none" stroke="#707070" stroke-width="1"/>
    <line id="Line_6-13" data-name="Line 6" x1="3.474" y2="7.642" transform="translate(-173.289 -215.121) rotate(-90)" fill="none" stroke="#707070" stroke-width="1"/>
    <line id="Line_4-14" data-name="Line 4" x2="150.853" transform="translate(-316.5 -135.121)" fill="none" stroke="#707070" stroke-width="1"/>
    <line id="Line_5-14" data-name="Line 5" x2="3.474" y2="7.642" transform="translate(-173.289 -131.647) rotate(-90)" fill="none" stroke="#707070" stroke-width="1"/>
    <line id="Line_6-14" data-name="Line 6" x1="3.474" y2="7.642" transform="translate(-173.289 -135.121) rotate(-90)" fill="none" stroke="#707070" stroke-width="1"/>
    <g id="Group_14" data-name="Group 14" transform="translate(-97.391 -377.808) rotate(-112)">
      <line id="Line_4-15" data-name="Line 4" y2="18.758" transform="translate(-48.026 -359.5)" fill="none" stroke="#707070" stroke-width="1"/>
      <line id="Line_5-15" data-name="Line 5" x2="3.474" y2="7.642" transform="translate(-51.5 -348.384)" fill="none" stroke="#707070" stroke-width="1"/>
      <line id="Line_6-15" data-name="Line 6" x1="3.474" y2="7.642" transform="translate(-48.026 -348.384)" fill="none" stroke="#707070" stroke-width="1"/>
    </g>
    <g id="Group_15" data-name="Group 15" transform="matrix(0.545, -0.839, 0.839, 0.545, -84.233, 0.29)">
      <line id="Line_4-16" data-name="Line 4" y2="18.758" transform="translate(-48.026 -359.5)" fill="none" stroke="#707070" stroke-width="1"/>
      <line id="Line_5-16" data-name="Line 5" x2="3.474" y2="7.642" transform="translate(-51.5 -348.384)" fill="none" stroke="#707070" stroke-width="1"/>
      <line id="Line_6-16" data-name="Line 6" x1="3.474" y2="7.642" transform="translate(-48.026 -348.384)" fill="none" stroke="#707070" stroke-width="1"/>
    </g>
    <g id="Group_16" data-name="Group 16">
      <line id="Line_4-17" data-name="Line 4" y1="49.897" x2="54.444" transform="translate(-442.5 -271.397)" fill="none" stroke="#707070" stroke-width="1"/>
      <line id="Line_5-17" data-name="Line 5" x2="3.474" y2="7.642" transform="matrix(-0.669, -0.743, 0.743, -0.669, -391.411, -263.702)" fill="none" stroke="#707070" stroke-width="1"/>
      <line id="Line_6-17" data-name="Line 6" x1="3.474" y2="7.642" transform="matrix(-0.669, -0.743, 0.743, -0.669, -393.735, -266.283)" fill="none" stroke="#707070" stroke-width="1"/>
    </g>
    <g id="Group_17" data-name="Group 17">
      <line id="Line_4-18" data-name="Line 4" y1="49.897" x2="54.444" transform="translate(-442.5 -271.397)" fill="none" stroke="#707070" stroke-width="1"/>
      <line id="Line_5-18" data-name="Line 5" x2="3.474" y2="7.642" transform="matrix(-0.669, -0.743, 0.743, -0.669, -391.411, -263.702)" fill="none" stroke="#707070" stroke-width="1"/>
      <line id="Line_6-18" data-name="Line 6" x1="3.474" y2="7.642" transform="matrix(-0.669, -0.743, 0.743, -0.669, -393.735, -266.283)" fill="none" stroke="#707070" stroke-width="1"/>
    </g>
    <g id="Group_18" data-name="Group 18" transform="matrix(0.017, 1, -1, 0.017, -657.59, 314.637)">
      <line id="Line_4-19" data-name="Line 4" y1="49.897" x2="54.444" transform="translate(-442.5 -271.397)" fill="none" stroke="#707070" stroke-width="1"/>
      <line id="Line_5-19" data-name="Line 5" x2="3.474" y2="7.642" transform="matrix(-0.669, -0.743, 0.743, -0.669, -391.411, -263.702)" fill="none" stroke="#707070" stroke-width="1"/>
      <line id="Line_6-19" data-name="Line 6" x1="3.474" y2="7.642" transform="matrix(-0.669, -0.743, 0.743, -0.669, -393.735, -266.283)" fill="none" stroke="#707070" stroke-width="1"/>
    </g>
    <g id="Group_19" data-name="Group 19" transform="matrix(0.017, 1, -1, 0.017, -657.59, 314.637)">
      <line id="Line_4-20" data-name="Line 4" y1="49.897" x2="54.444" transform="translate(-442.5 -271.397)" fill="none" stroke="#707070" stroke-width="1"/>
      <line id="Line_5-20" data-name="Line 5" x2="3.474" y2="7.642" transform="matrix(-0.669, -0.743, 0.743, -0.669, -391.411, -263.702)" fill="none" stroke="#707070" stroke-width="1"/>
      <line id="Line_6-20" data-name="Line 6" x1="3.474" y2="7.642" transform="matrix(-0.669, -0.743, 0.743, -0.669, -393.735, -266.283)" fill="none" stroke="#707070" stroke-width="1"/>
    </g>
    <g id="Group_20" data-name="Group 20" transform="translate(-405.138 284.465) rotate(42)">
      <line id="Line_4-21" data-name="Line 4" y1="49.897" x2="54.444" transform="translate(-442.5 -271.397)" fill="none" stroke="#707070" stroke-width="1"/>
      <line id="Line_5-21" data-name="Line 5" x2="3.474" y2="7.642" transform="matrix(-0.669, -0.743, 0.743, -0.669, -391.411, -263.702)" fill="none" stroke="#707070" stroke-width="1"/>
      <line id="Line_6-21" data-name="Line 6" x1="3.474" y2="7.642" transform="matrix(-0.669, -0.743, 0.743, -0.669, -393.735, -266.283)" fill="none" stroke="#707070" stroke-width="1"/>
    </g>
  </g>
</svg>
