<svg xmlns="http://www.w3.org/2000/svg" width="600" height="530" viewBox="0 0 600 530">
  <g id="Group_4" data-name="Group 4" transform="translate(-361 -107)">
    <g id="Ellipse_1" data-name="Ellipse 1" transform="translate(361 107)" fill="#fff" stroke="#707070" stroke-width="1">
      <circle cx="120" cy="120" r="120" stroke="none"/>
      <circle cx="120" cy="120" r="119.5" fill="none"/>
    </g>
    <text id="Data" transform="translate(481 236)" fill="#707070" font-size="20" font-family="SegoeUI, Segoe UI"><tspan x="-20.576" y="0">Data</tspan></text>
    <g id="Ellipse_2" data-name="Ellipse 2" transform="translate(535 397)" fill="#fff" stroke="#707070" stroke-width="1">
      <circle cx="120" cy="120" r="120" stroke="none"/>
      <circle cx="120" cy="120" r="119.5" fill="none"/>
    </g>
    <text id="View" transform="translate(655 526)" fill="#707070" font-size="20" font-family="SegoeUI, Segoe UI"><tspan x="-21.089" y="0">View</tspan></text>
    <g id="Ellipse_3" data-name="Ellipse 3" transform="translate(721 107)" fill="#fff" stroke="#707070" stroke-width="1">
      <circle cx="120" cy="120" r="120" stroke="none"/>
      <circle cx="120" cy="120" r="119.5" fill="none"/>
    </g>
    <text id="Actions" transform="translate(841 236)" fill="#707070" font-size="20" font-family="SegoeUI, Segoe UI"><tspan x="-32.642" y="0">Actions</tspan></text>
    <g id="Group_1" data-name="Group 1" transform="matrix(0.602, -0.799, 0.799, 0.602, -216.973, 891.19)">
      <line id="Line_1" data-name="Line 1" x2="89" transform="translate(953.5 467.5)" fill="none" stroke="#707070" stroke-width="1"/>
      <line id="Line_2" data-name="Line 2" y1="13" x2="16" transform="translate(1026.5 467.5)" fill="none" stroke="#707070" stroke-width="1"/>
      <line id="Line_3" data-name="Line 3" x2="16" y2="13" transform="translate(1026.5 454.5)" fill="none" stroke="#707070" stroke-width="1"/>
    </g>
    <g id="Group_2" data-name="Group 2" transform="matrix(0.588, 0.809, -0.809, 0.588, 354.606, -709.689)">
      <line id="Line_1-2" data-name="Line 1" x2="89" transform="translate(953.5 467.5)" fill="none" stroke="#707070" stroke-width="1"/>
      <line id="Line_2-2" data-name="Line 2" y1="13" x2="16" transform="translate(1026.5 467.5)" fill="none" stroke="#707070" stroke-width="1"/>
      <line id="Line_3-2" data-name="Line 3" x2="16" y2="13" transform="translate(1026.5 454.5)" fill="none" stroke="#707070" stroke-width="1"/>
    </g>
    <g id="Group_3" data-name="Group 3" transform="translate(1662 695) rotate(-180)">
      <line id="Line_1-3" data-name="Line 1" x2="89" transform="translate(953.5 467.5)" fill="none" stroke="#707070" stroke-width="1"/>
      <line id="Line_2-3" data-name="Line 2" y1="13" x2="16" transform="translate(1026.5 467.5)" fill="none" stroke="#707070" stroke-width="1"/>
      <line id="Line_3-3" data-name="Line 3" x2="16" y2="13" transform="translate(1026.5 454.5)" fill="none" stroke="#707070" stroke-width="1"/>
    </g>
    <text id="rendering_on_data_change" data-name="rendering on
data change" transform="translate(489 384)" fill="#707070" font-size="20" font-family="SegoeUI, Segoe UI"><tspan x="-57.188" y="0">rendering on</tspan><tspan x="-54.336" y="27">data change</tspan></text>
    <text id="event_handling_and_settings_API" data-name="event handling and
settings API" transform="translate(852 387)" fill="#707070" font-size="20" font-family="SegoeUI, Segoe UI"><tspan x="-85.098" y="0">event handling and</tspan><tspan x="-51.914" y="27">settings API</tspan></text>
    <text id="data_manipulations" data-name="data
manipulations" transform="translate(664 161)" fill="#707070" font-size="20" font-family="SegoeUI, Segoe UI"><tspan x="-19.453" y="0">data</tspan><tspan x="-62.402" y="27">manipulations</tspan></text>
  </g>
</svg>
