<svg height="48" viewBox="0 0 48 48" width="48" xmlns="http://www.w3.org/2000/svg"><path d="m22 16a4.41 4.41 0 0 0 -4-2.1 7.24 7.24 0 0 0 -6.2 3.6 11.83 11.83 0 0 0 -2 6.5 6.35 6.35 0 0 0 1.7 4.6 5.37 5.37 0 0 0 4.2 1.7 5.83 5.83 0 0 0 4.1-1.7c.1.2.2.5.3.7v-3.3a2 2 0 0 1 2-2h2.3l2-9.7h-4zm-1.4 7.6a8.4 8.4 0 0 1 -1.4 2.7 9 9 0 0 1 -1.1 1 2.93 2.93 0 0 1 -1.6.4 2.32 2.32 0 0 1 -1.9-.9 4.56 4.56 0 0 1 -.8-2.9 10.51 10.51 0 0 1 .6-3.3 5.9 5.9 0 0 1 1.7-2.9 3.25 3.25 0 0 1 2.4-1 2.52 2.52 0 0 1 2 .9 4 4 0 0 1 .8 2.6c-.2 1.1-.4 2.2-.7 3.4z" fill="#555"/><path d="m28 34h-5a17.92 17.92 0 0 1 -3.4.3 17.41 17.41 0 0 1 -6.7-1.2 9.27 9.27 0 0 1 -4.6-3.9 10.9 10.9 0 0 1 -1.6-5.9 14.64 14.64 0 0 1 1.5-6.4 10.88 10.88 0 0 1 4.3-4.7 13.69 13.69 0 0 1 7-1.7c3.2 0 5.8.8 7.6 2.5a7.78 7.78 0 0 1 2.1 3.1 1.88 1.88 0 0 1 .8-.2h2a11.18 11.18 0 0 0 -1.1-2.5 10.66 10.66 0 0 0 -4.6-4.3 15.1 15.1 0 0 0 -6.8-1.5 16 16 0 0 0 -8 1.9 12.94 12.94 0 0 0 -5.5 5.6 16.94 16.94 0 0 0 -2 8 14.79 14.79 0 0 0 1.8 7.2 11.43 11.43 0 0 0 5.4 5 20.76 20.76 0 0 0 8.7 1.7 18.59 18.59 0 0 0 8.1-1.7z" fill="#555"/><path d="m44 26h-8v-8h-6v8h-8v6h8v8h6v-8h8z" fill="#388e3c"/></svg>