<svg height="48" viewBox="0 0 48 48" width="48" xmlns="http://www.w3.org/2000/svg"><path d="m44 26h-8v-8h-6v8h-8v6h8v8h6v-8h8z" fill="#388e3c"/><g fill="#303f9f"><path d="m20 26a2 2 0 0 1 2-2h4.1a10.21 10.21 0 0 0 1.9-6 11 11 0 0 0 -.8-4 4 4 0 0 0 -3.2 4 5.81 5.81 0 0 1 -5.6 6h-4.7a5.83 5.83 0 0 1 -5.7-6 5.81 5.81 0 0 1 5.6-6h3.9a12.59 12.59 0 0 1 3.2-3.7 8.52 8.52 0 0 0 -2.3-.3h-4.8a9.82 9.82 0 0 0 -9.6 10 9.82 9.82 0 0 0 9.6 10h4.8c.5 0 1.1-.1 1.6-.1z"/><path d="m22 18a5.81 5.81 0 0 1 5.6-6h4.7a5.81 5.81 0 0 1 5.6 6v6h2.1a10.21 10.21 0 0 0 1.9-6 9.82 9.82 0 0 0 -9.6-10h-4.8a9.8 9.8 0 0 0 -9.5 10 11 11 0 0 0 .8 4 4 4 0 0 0 3.2-4z"/></g></svg>