<svg height="48" viewBox="0 0 48 48" width="48" xmlns="http://www.w3.org/2000/svg"><path d="m46 22v24h-24v-24z" fill="none"/><path d="m27.3 11.3c0-4-3.3-7.3-7.3-7.3-4.1 0-7.3 3.3-7.3 7.3s3.3 7.3 7.3 7.3c4 .1 7.3-3.2 7.3-7.3z" fill="#4057bf"/><path d="m26 26 .6.3c.9.5 2 .5 2.9.2 1-.3 1.8-1 2.2-1.9.6-1.3 2.2-1.8 3.4-1.1.5.2.9.6 1.1 1.1.5.9 1.3 1.6 2.2 1.9 1 .3 2 .2 2.9-.2l.7-.3v5.1c0 5.5-3.1 10.5-8 12.9-4.9-2.5-8-7.5-8-12.9z" fill="#172b82"/><path d="m24 31.1v-5.1c0-.7.4-1.3 1-1.7s1.3-.4 1.9-.1l.6.3c.3.1.5.2.8.2.2 0 .4 0 .6-.1.4-.1.8-.5 1-.9-1.2-3-2.7-5.3-3.6-4.7l-6.3 3.7-5.7-3.3c-2.6-2.2-7.4 11-6.1 15.9s11.8 4.7 11.8 4.7c2.1 0 4.1-.3 6.2-.8-1.5-2.5-2.2-5.3-2.2-8.1z" fill="#4057bf"/></svg>