<svg height="48" viewBox="0 0 48 48" width="48" xmlns="http://www.w3.org/2000/svg"><g fill="#fff"><path d="m36 4h-24a4 4 0 0 0 -4 4v32a4 4 0 0 0 4 4h24a4 4 0 0 0 4-4v-32a4 4 0 0 0 -4-4zm2 36a2 2 0 0 1 -2 2h-24a2 2 0 0 1 -2-2v-32a2 2 0 0 1 2-2h24a2 2 0 0 1 2 2z"/><path d="m14 10h20v2h-20z"/><path d="m14 36h20v2h-20z"/><path d="m32 18v12h-16v-12zm0-2h-16a2 2 0 0 0 -2 2v12a2 2 0 0 0 2 2h16a2 2 0 0 0 2-2v-12a2 2 0 0 0 -2-2z"/><circle cx="28" cy="22" r="2"/><path d="m28.2 28c-1-2.4-3-4-5.2-4s-4.2 1.6-5.2 4z"/></g></svg>