<svg height="48" viewBox="0 0 48 48" width="48" xmlns="http://www.w3.org/2000/svg"><path d="m14.5 16.1h-5l-1 3h-2.3l4.8-12.8h2l4.8 12.8h-2.3zm-4.4-1.8h3.7l-1.8-5.3z" fill="#1976d2"/><path d="m8.3 41.1v-12.8h4.4a5.39 5.39 0 0 1 3.3.9 2.91 2.91 0 0 1 1.1 2.6 3 3 0 0 1 -.5 1.6 3.14 3.14 0 0 1 -1.4 1.1 2.61 2.61 0 0 1 1.6 1.1 3.08 3.08 0 0 1 .6 1.9 3.49 3.49 0 0 1 -1.2 2.8 5.4 5.4 0 0 1 -3.3 1h-4.6zm2.2-7.4h2.2a2.54 2.54 0 0 0 1.6-.5 1.61 1.61 0 0 0 .6-1.3 2 2 0 0 0 -.5-1.4 2.5 2.5 0 0 0 -1.7-.4h-2.2zm0 1.6v4h2.5a2.54 2.54 0 0 0 1.6-.5 1.68 1.68 0 0 0 .6-1.4 1.8 1.8 0 0 0 -2-2h-2.7z" fill="#1976d2"/><g fill="#555"><path d="m20 10h22v2h-22z"/><path d="m20 14h22v2h-22z"/><path d="m20 30h22v2h-22z"/><path d="m20 34h22v2h-22z"/></g></svg>