<svg height="48" viewBox="0 0 48 48" width="48" xmlns="http://www.w3.org/2000/svg"><path d="m39.2 18.2-.8-2.9 4.8-1.3.8 2.9zm-2.9.8-5.4 1.5-.8-2.9 5.4-1.5zm-14.6 1 5.5-1.5.8 2.9-5.5 1.5z" fill="#555"/><path d="m21 25.5-2-7.1 10.9-3-2.2-5.2h-20.6l9.2 27.5 20.3-6.9-3.7-8.6z" fill="#ffcc80"/><path d="m32.1 14.8-3-6.8h-25.1l10.9 32.6 24.7-8.4-4.6-10.5-2.1.6 3.7 8.6-20.3 6.9-9.2-27.6h20.6l2.2 5.2z" fill="#f57c00"/><path d="m30.6 22.9-1.6.4a4.47 4.47 0 0 1 -2.4 4.3l-1.3-3.3-1.7.5 1.3 3.3c-2.7.2-5.7-1.7-7.2-4.7l2.5-.4-.6-2.1-2.6.4c-.6-3 .7-5.3 3-5.9l1 2.5 1.6-.4-.9-2.2a8.15 8.15 0 0 1 3.6 1.5l1.7-.4a9.63 9.63 0 0 0 -5.9-2.8l-1.3-3.2h-1.8l1.3 3.2c-3.4.6-5.4 3.9-4.4 8.1l-3.9.4.7 2.3 3.9-.7c2.1 4.3 6.4 7 10.1 6.5l1.5 3.9 1.7-.6-1.5-3.8c2.5-1.1 3.6-3.8 3.2-6.8z" fill="#777"/></svg>