<svg height="48" viewBox="0 0 48 48" width="48" xmlns="http://www.w3.org/2000/svg"><path d="m10 4h30v40h-30z" fill="#d32f2f"/><g fill="#555"><path d="m7.5 6h6v3h-6z"/><path d="m7.5 12.8h6v3h-6z"/><path d="m7.5 19.5h6v3h-6z"/><path d="m7.5 25.5h6v3h-6z"/><path d="m7.5 32.3h6v3h-6z"/><path d="m7.5 39h6v3h-6z"/></g><g fill="#fff"><path d="m27.8 17.3-6.8 4.1 7.5 12.8 6.8-4.1z"/><path d="m24.8 12.4-6.8 4.1 2.3 3.8 6.8-4.1z"/><path d="m16.5 13.9a1.87 1.87 0 0 0 .8 1.5l6.8-4.1a2.31 2.31 0 0 0 -1.1-1.5z"/><path d="m36 31.1-6.8 4.1 6.8 3z"/></g></svg>