<svg height="48" viewBox="0 0 48 48" width="48" xmlns="http://www.w3.org/2000/svg"><path d="m32.9 20a12.9 12.9 0 0 0 -9.1 22l18.2-18.2a12.88 12.88 0 0 0 -9.1-3.8zm-8.7 12.9a8.54 8.54 0 0 1 8.47-8.6h.13a9.86 9.86 0 0 1 2.4.3l-10.7 10.7a9.86 9.86 0 0 1 -.3-2.4z" fill="#777"/><g fill="#42a5f5"><path d="m10 10h26v4h-26z"/><path d="m10 16h4v6h-4z"/><path d="m16 16v6h6.85a14.91 14.91 0 0 1 10.05-4 14.32 14.32 0 0 1 3.1.31v-2.31z"/><path d="m10 24v4h8.87a15.42 15.42 0 0 1 2.13-4z"/><path d="m6 6v26h12a15.1 15.1 0 0 1 .3-2h-10.3v-22h30v10.89a14.41 14.41 0 0 1 2 .91v-13.8z"/></g><path d="m18.8 28h-8.8v-4h11a10.7 10.7 0 0 1 1.4-1.6 1.51 1.51 0 0 0 .4-.4h-6.8v-6h20v2.3a7.62 7.62 0 0 1 2 .6v-10.9h-30v22h10.3a14.62 14.62 0 0 1 .5-2zm-8.8-18h26v4h-26zm0 6h4v6h-4z" fill="#fff"/></svg>