<svg height="48" viewBox="0 0 48 48" width="48" xmlns="http://www.w3.org/2000/svg"><path d="m28.5 8.2-18.2 18.1a9.15 9.15 0 0 0 -.6 12.5 9 9 0 0 0 12.64.83q.24-.21.46-.43l17-17a1 1 0 0 0 0-1.37 1 1 0 0 0 -1.37 0l-16.83 16.77a7.29 7.29 0 0 1 -10 .4 7 7 0 0 1 -.29-9.9l.09-.1 18.4-18.3a5.31 5.31 0 0 1 6.9-.5 5.06 5.06 0 0 1 .65 7.13l-.25.27-18.4 18.3a3.09 3.09 0 0 1 -4.2.2 3.05 3.05 0 0 1 -.19-4.31l.09-.09 17-17a1 1 0 0 0 0-1.37 1 1 0 0 0 -1.37 0l-16.93 16.87a5.31 5.31 0 0 0 -.5 6.9 5.06 5.06 0 0 0 7.13.65l.27-.25 18.2-18.2a7.29 7.29 0 0 0 .4-10 7 7 0 0 0 -9.95-.3z" fill="#555"/></svg>