<svg height="48" viewBox="0 0 48 48" width="48" xmlns="http://www.w3.org/2000/svg"><path d="m12 8v13.44a2 2 0 0 0 .59 1.41l15.09 15.09a2 2 0 0 0 2.83 0l13.43-13.44a2 2 0 0 0 0-2.83l-15.09-15.08a2 2 0 0 0 -1.41-.59h-13.44a2 2 0 0 0 -2 2z" fill="#1976d2"/><path d="m14 8h13.44l15.08 15.09-13.43 13.43-15.09-15.08z" fill="#fff"/><g fill="#777"><path d="m18.29 16.79h11v2h-11z" transform="matrix(.70710678 -.70710678 .70710678 .70710678 -5.61 22.03)"/><path d="m21.11 19.61h11v2h-11z" transform="matrix(.70710678 -.70710678 .70710678 .70710678 -6.78 24.85)"/><path d="m24.53 23.86h7v2h-7z" transform="matrix(.70710678 -.70710678 .70710678 .70710678 -9.37 27.1)"/></g><path d="m26.26 39.35-1.26-1.26v1.91h-19v-21.34l4-4v-2.83l-5.41 5.41a2 2 0 0 0 -.59 1.42v21.34a2 2 0 0 0 2 2h19a2 2 0 0 0 2-2v-.08a3.74 3.74 0 0 1 -.74-.57z" fill="#1976d2"/><path d="m11.17 24.26a4 4 0 0 1 -1.17-2.82v-6.77l-4 4v21.33h19v-1.91z" fill="#fff"/><path d="m12.91 26h-2.91v2h4.91z" fill="#777"/><path d="m16.91 30h-6.91v2h7v-1.91z" fill="#777"/><circle cx="18" cy="12" fill="#1976d2" r="2"/></svg>