<svg id="Layer_1" data-name="Layer 1" xmlns="http://www.w3.org/2000/svg" width="48" height="48" viewBox="0 0 48 48"><defs><style>.cls-1{fill:#1976d2;}</style></defs><title>AuthenticationClasses</title><path class="cls-1" d="M42.3,11.3,35.6,7.5A2.78,2.78,0,0,0,34,7a3.36,3.36,0,0,0-1.7.4l-6.7,3.8a3.46,3.46,0,0,0-1.7,2.9v7.2L4.2,33.9l2.7,4.2L8.6,37l2.3,3.6,4.2-2.7-2.3-3.6,1.9-1.2,2.2,3.5,4.2-2.7-2.2-3.5,8-5.1,5.4,3.1a3.83,3.83,0,0,0,3.4,0l6.7-3.8a3.46,3.46,0,0,0,1.7-2.9V14A3.51,3.51,0,0,0,42.3,11.3ZM37.12,20H37a3,3,0,1,1,3-3A3,3,0,0,1,37.12,20Z"/></svg>