<svg height="48" viewBox="0 0 48 48" width="48" xmlns="http://www.w3.org/2000/svg"><path d="m10.1 44v-40h13.7c4.5 0 8 .9 10.3 2.7s3.5 4.5 3.5 8.1a8.36 8.36 0 0 1 -1.5 4.9 9.24 9.24 0 0 1 -4.3 3.4 8.88 8.88 0 0 1 5 3.3 9.53 9.53 0 0 1 1.8 5.8c0 3.8-1.2 6.6-3.6 8.7s-5.9 3-10.3 3h-14.6zm6.9-23.2h6.8a7.75 7.75 0 0 0 5.1-1.5 5.17 5.17 0 0 0 1.8-4.2 5.22 5.22 0 0 0 -1.7-4.3c-1.1-.9-2.9-1.3-5.3-1.3h-6.7zm0 5.2v12.5h7.7a7.26 7.26 0 0 0 5.1-1.6 5.8 5.8 0 0 0 1.8-4.5c0-4.2-2.1-6.3-6.4-6.4z" fill="#555"/></svg>