<svg height="48" viewBox="0 0 48 48" width="48" xmlns="http://www.w3.org/2000/svg"><path d="m8 8h32a4 4 0 0 1 4 4v24a4 4 0 0 1 -4 4h-32a4 4 0 0 1 -4-4v-24a4 4 0 0 1 4-4z" fill="#182bfb"/><g fill="#fff"><path d="m19 33.7a6.83 6.83 0 0 1 -.4-1.3 5.06 5.06 0 0 1 -3.7 1.6 4.87 4.87 0 0 1 -3.4-1.2 3.8 3.8 0 0 1 -1.3-3 4 4 0 0 1 1.7-3.4 8 8 0 0 1 4.7-1.2h1.9v-.9a2.35 2.35 0 0 0 -.6-1.7 2.44 2.44 0 0 0 -1.8-.6 2.86 2.86 0 0 0 -1.7.5 1.62 1.62 0 0 0 -.7 1.4h-3.1a3.23 3.23 0 0 1 .8-2.1 4.91 4.91 0 0 1 2.1-1.6 6.84 6.84 0 0 1 2.9-.6 6.05 6.05 0 0 1 3.9 1.2 4.26 4.26 0 0 1 1.5 3.5v6.3a8.13 8.13 0 0 0 .5 3v.2h-3.3zm-3.4-2.2a3.37 3.37 0 0 0 1.7-.5 2.78 2.78 0 0 0 1.2-1.2v-2.6h-1.7a4.54 4.54 0 0 0 -2.6.6 2 2 0 0 0 -.9 1.7 1.68 1.68 0 0 0 .6 1.4 2.52 2.52 0 0 0 1.7.6z"/><path d="m37.2 26.9a8.9 8.9 0 0 1 -1.4 5.2 4.71 4.71 0 0 1 -4 1.9 4.52 4.52 0 0 1 -3.8-1.8l-.2 1.5h-2.8v-19.7h3.1v7.2a4.37 4.37 0 0 1 3.6-1.6 4.71 4.71 0 0 1 4 1.9 8.36 8.36 0 0 1 1.5 5.3zm-3.2-.2a6.32 6.32 0 0 0 -.8-3.4 2.48 2.48 0 0 0 -2.3-1.1 3 3 0 0 0 -2.9 1.8v5.7a3 3 0 0 0 2.9 1.8 2.85 2.85 0 0 0 2.3-1.1 5.71 5.71 0 0 0 .8-3.3z"/></g></svg>