<svg height="48" viewBox="0 0 48 48" width="48" xmlns="http://www.w3.org/2000/svg"><path d="m32 14h4.2l-6.2-6.2v4.2a2 2 0 0 0 2 2z" fill="#fff"/><path d="m32 16a4 4 0 0 1 -4-4v-6h-16a2 2 0 0 0 -2 2v32a2 2 0 0 0 2 2h24a2 2 0 0 0 2-2v-24z" fill="#fff"/><path d="m29 4h-17a4 4 0 0 0 -4 4v32a4 4 0 0 0 4 4h24a4 4 0 0 0 4-4v-25zm7.2 10h-4.2a2 2 0 0 1 -2-2v-4.2zm1.8 26a2 2 0 0 1 -2 2h-24a2 2 0 0 1 -2-2v-32a2 2 0 0 1 2-2h16v6a4 4 0 0 0 4 4h6z" fill="#555"/><path d="m34 34.4-10 3.8v-13l10-3.1z" fill="#ffa726"/><path d="m24 38.3-10-3.8v-12.4l10 3.1z" fill="#ffcc80"/><path d="m24 19-10 3.1 10 3.1 10-3.1z" fill="#f57c00"/></svg>