<svg height="48" viewBox="0 0 48 48" width="48" xmlns="http://www.w3.org/2000/svg"><g fill="#999"><path d="m29.5 24-1.4-1.8-1.1-1.6h6.2a13.45 13.45 0 0 0 -.5 3.5 12.42 12.42 0 0 0 .4 3.3h-6.1l1.2-1.6z"/><path d="m35.7 27.6a11.49 11.49 0 0 1 -.7-3.6 10.48 10.48 0 0 1 .7-3.6c0-.1.1-.1.1-.2a9.7 9.7 0 0 1 6.2-5.3v18a9.14 9.14 0 0 1 -6.3-5.3z"/><path d="m34.9 17-6.4-11 11.7 6.7a11.81 11.81 0 0 0 -5.3 4.3z"/><path d="m40.2 35.3-11.7 6.7 6.3-11a12.64 12.64 0 0 0 5.4 4.3z"/></g><path d="m16 11 10 13-10 13-10-13z" fill="#f57c00"/></svg>