<svg height="48" viewBox="0 0 48 48" width="48" xmlns="http://www.w3.org/2000/svg"><circle cx="22.5" cy="22.5" fill="#1976d2" r="4.5"/><g fill="#bdbdbd"><circle cx="36" cy="10.5" r="4.5"/><path d="m10.5 15c.3 0 .6-.1.9-.1a11.5 11.5 0 0 1 2.1-2.3c0-.2.1-.3.1-.5a3 3 0 0 0 -2.89-3h-.11a3 3 0 0 0 -3 2.9s0 .07 0 .11a2.78 2.78 0 0 0 2.66 2.89z"/><path d="m9.5 26.1a14.87 14.87 0 0 1 -.5-3.6 14.87 14.87 0 0 1 .5-3.6 3.71 3.71 0 0 0 0 7.2z"/><path d="m11.3 30.1a2 2 0 0 0 -.8-.1 4.5 4.5 0 1 0 4.5 4.5 2 2 0 0 0 -.1-.8 15.38 15.38 0 0 1 -3.6-3.6z"/><path d="m22.5 36a12.74 12.74 0 0 1 -5.2-1.1v.3a5.3 5.3 0 0 0 10.6 0v-.3a14.47 14.47 0 0 1 -5.4 1.1z"/><path d="m36 30a6.44 6.44 0 0 0 -2.8.7 14.79 14.79 0 0 1 -2.5 2.5 6.44 6.44 0 0 0 -.7 2.8 6 6 0 1 0 6-6z"/><path d="m36 27.8a5.33 5.33 0 0 0 5.3-5.3 5.27 5.27 0 0 0 -5.24-5.3h-.06a3.08 3.08 0 0 0 -1 .1 12.55 12.55 0 0 1 1 5.1 14 14 0 0 1 -1 5.1 1.69 1.69 0 0 0 1 .3z"/><path d="m25.7 9.4a3.65 3.65 0 0 0 -6.4 0 11.24 11.24 0 0 1 3.2-.4 16.47 16.47 0 0 1 3.2.4z"/></g><path d="m22.5 15a7.5 7.5 0 1 1 -7.5 7.5 7.5 7.5 0 0 1 7.5-7.5m0-4a11.44 11.44 0 1 0 .12 0z" fill="#ffa726"/></svg>