<svg height="48" viewBox="0 0 48 48" width="48" xmlns="http://www.w3.org/2000/svg"><circle cx="28" cy="11" fill="#1976d2" r="5"/><circle cx="37" cy="24" fill="#bdbdbd" r="5"/><circle cx="19" cy="24" fill="#1976d2" r="5"/><circle cx="11" cy="37" fill="#bdbdbd" r="5"/><g fill="#1976d2"><circle cx="27" cy="37" r="5"/><path d="m15.6 16.5h15.8v2h-15.8z" transform="matrix(.56913602 -.82224339 .82224339 .56913602 -4.27 26.86)"/><path d="m22.02 23.09h2v15.1h-2z" transform="matrix(.84730736 -.53110285 .53110285 .84730736 -12.76 16.91)"/></g><path d="m14.5 29.4-4.4 7.1 1.7 1 4.4-7.1a5.85 5.85 0 0 1 -1.7-1z" fill="#bdbdbd"/><path d="m32.8 16.1a5.72 5.72 0 0 1 -1.6 1.1l5.1 7.3 1.6-1.1z" fill="#bdbdbd"/></svg>