<svg height="48" viewBox="0 0 48 48" width="48" xmlns="http://www.w3.org/2000/svg"><path d="m24 18a5.81 5.81 0 0 1 -5.6 6h-4.7a5.83 5.83 0 0 1 -5.7-6 5.81 5.81 0 0 1 5.6-6h3.9a12.59 12.59 0 0 1 3.2-3.7 8.52 8.52 0 0 0 -2.3-.3h-4.8a9.82 9.82 0 0 0 -9.6 10 9.82 9.82 0 0 0 9.6 10h4.8a9.82 9.82 0 0 0 9.6-10 11 11 0 0 0 -.8-4 4 4 0 0 0 -3.2 4z" fill="#303f9f"/><path d="m34.88 21.91 1.91-1.91 4.21 4.24-1.91 1.91z" fill="#ef5350"/><path d="m26.1 39.1-.9.9h-4.2v-4.2l.9-.9z" fill="#424242"/><path d="m23.33 27.51h14.3v6h-14.3z" fill="#f57c00" transform="matrix(.70710678 -.70710678 .70710678 .70710678 -12.65 30.49)"/><path d="m22 18a5.81 5.81 0 0 1 5.6-6h4.7a5.81 5.81 0 0 1 5.6 6v.4l3.3 3.3a11.06 11.06 0 0 0 .7-3.7 9.82 9.82 0 0 0 -9.6-10h-4.8a9.8 9.8 0 0 0 -9.5 10 11 11 0 0 0 .8 4 4 4 0 0 0 3.2-4z" fill="#303f9f"/></svg>