<svg height="48" viewBox="0 0 48 48" width="48" xmlns="http://www.w3.org/2000/svg"><path d="m26 16h4.2l-6.2-6.2v4.2a2 2 0 0 0 2 2z" fill="#fff"/><path d="m36 32v-4l7 7-7 7v-4h-14v-6z" fill="#555"/><path d="m34 40h-24a2 2 0 0 1 -2-2v-28a2 2 0 0 1 2-2h12v6a4 4 0 0 0 4 4h6v12h2v-13l-11-11h-13a4 4 0 0 0 -4 4v28a4 4 0 0 0 4 4h24zm-10-30.2 6.2 6.2h-4.2a2 2 0 0 1 -2-2z" fill="#555"/><path d="m20 38v-6a2 2 0 0 1 2-2h10v-12h-6a4 4 0 0 1 -4-4v-6h-12a2 2 0 0 0 -2 2v28a2 2 0 0 0 2 2h12a2 2 0 0 1 -2-2z" fill="#fff"/></svg>