<svg height="48" viewBox="0 0 48 48" width="48" xmlns="http://www.w3.org/2000/svg"><path d="m4 16h8v24h-8z" fill="#0097a7"/><path d="m14 18h30v6h-30z" fill="#ccc"/><path d="m16 26h28v2h-28z" fill="#777a9c"/><path d="m16 16h28v2h-28z" fill="#777a9c"/><path d="m14 28h30v12h-30z" fill="#ccc"/><path d="m14 16h2v2h-2z" fill="#4b4b68"/><path d="m14 26h2v2h-2z" fill="#4b4b68"/><path d="m6 18h4v4h-4z" fill="#fff"/><path d="m6 24h4v4h-4z" fill="#26c6da"/><path d="m4 8h16v6h-16z" fill="#182bfb"/><g fill="#777a9c"><path d="m30 8h6v6h-6z"/><path d="m22 8h6v6h-6z"/><path d="m38 8h6v6h-6z"/></g><path d="m6 30h4v4h-4z" fill="#26c6da"/><path d="m6 10h2v2h-2z" fill="#fff"/><path d="m10 10h8v2h-8z" fill="#fff"/><path d="m24 10h2v2h-2z" fill="#afb3c5"/><path d="m32 10h2v2h-2z" fill="#afb3c5"/><path d="m40 10h2v2h-2z" fill="#afb3c5"/></svg>