<svg height="48" viewBox="0 0 48 48" width="48" xmlns="http://www.w3.org/2000/svg"><path d="m31 6h-7a4 4 0 0 0 -4 4v18a4 4 0 0 0 4 4h12a4 4 0 0 0 4-4v-13zm5.2 8h-2.2a2 2 0 0 1 -2-2v-2.2zm1.8 14a2 2 0 0 1 -2 2h-12a2 2 0 0 1 -2-2v-18a2 2 0 0 1 2-2h6v4a4 4 0 0 0 4 4h4z" fill="#d32f2f"/><path d="m34 14h2.2l-4.2-4.2v2.2a2 2 0 0 0 2 2z" fill="#fff"/><path d="m34 16a4 4 0 0 1 -4-4v-4h-6a2 2 0 0 0 -2 2v18a2 2 0 0 0 2 2h12a2 2 0 0 0 2-2v-12z" fill="#fff"/><path d="m21.6 16h-13.2a4.44 4.44 0 0 0 -4.4 4.4v15.2a4.44 4.44 0 0 0 4.4 4.4h13.2a4.44 4.44 0 0 0 4.4-4.4v-15.2a4.44 4.44 0 0 0 -4.4-4.4z" fill="#555"/><path d="m20 14h-10a4 4 0 0 0 -4 4v16a4 4 0 0 0 4 4h10a4 4 0 0 0 4-4v-16a4 4 0 0 0 -4-4z" fill="#fff"/><path d="m27 6h-7a4 4 0 0 0 -4 4v18a4 4 0 0 0 4 4h12a4 4 0 0 0 4-4v-13zm5.2 8h-2.2a2 2 0 0 1 -2-2v-2.2zm1.8 14a2 2 0 0 1 -2 2h-12a2 2 0 0 1 -2-2v-18a2 2 0 0 1 2-2h6v4a4 4 0 0 0 4 4h4z" fill="#303f9f"/><path d="m30 14h2.2l-4.2-4.2v2.2a2 2 0 0 0 2 2z" fill="#fff"/><path d="m30 16a4 4 0 0 1 -4-4v-4h-6a2 2 0 0 0 -2 2v18a2 2 0 0 0 2 2h12a2 2 0 0 0 2-2v-12z" fill="#fff"/><path d="m23 6h-7a4 4 0 0 0 -4 4v18a4 4 0 0 0 4 4h12a4 4 0 0 0 4-4v-13zm5.2 8h-2.2a2 2 0 0 1 -2-2v-2.2zm1.8 14a2 2 0 0 1 -2 2h-12a2 2 0 0 1 -2-2v-18a2 2 0 0 1 2-2h6v4a4 4 0 0 0 4 4h4z" fill="#f57c00"/><path d="m26 14h2.2l-4.2-4.2v2.2a2 2 0 0 0 2 2z" fill="#fff"/><path d="m26 16a4 4 0 0 1 -4-4v-4h-6a2 2 0 0 0 -2 2v18a2 2 0 0 0 2 2h12a2 2 0 0 0 2-2v-12z" fill="#fff"/><path d="m18 12h-10a4 4 0 0 0 -4 4v16a4 4 0 0 0 4 4h10a4 4 0 0 0 4-4v-16a4 4 0 0 0 -4-4z" fill="#555"/><path d="m8 16v12l4-4 4 4v-12a2 2 0 0 1 2-2h-8a2 2 0 0 0 -2 2z" fill="#fff"/></svg>