<svg height="48" viewBox="0 0 48 48" width="48" xmlns="http://www.w3.org/2000/svg"><path d="m40 8h-32a4 4 0 0 0 -4 4v24a4 4 0 0 0 4 4h32a4 4 0 0 0 4-4v-24a4 4 0 0 0 -4-4z" fill="#555"/><g fill="#fff"><path d="m20 20h22v8h-22z"/><path d="m42 12v6h-22v-8h20a2 2 0 0 1 2 2z"/><path d="m18 10v8h-12v-6a2 2 0 0 1 2-2z"/><path d="m6 20h12v18h-10a2 2 0 0 1 -2-2z"/><path d="m40 38h-20v-8h22v6a2 2 0 0 1 -2 2z"/></g><path d="m22 12h18v4h-18z" fill="#ffcc80"/><path d="m22 22h18v4h-18z" fill="#ffcc80"/><path d="m22 32h18v4h-18z" fill="#ffcc80"/></svg>