<svg height="48" viewBox="0 0 48 48" width="48" xmlns="http://www.w3.org/2000/svg"><path d="m31 14a17.85 17.85 0 0 0 -2.3.2 13.9 13.9 0 0 1 -9 19.3 13 13 0 1 0 11.3-19.5z" fill="#ffcc80"/><path d="m16 27a14.89 14.89 0 0 1 9.7-14 12 12 0 1 0 -9.7 19h.9a14.26 14.26 0 0 1 -.9-5z" fill="#80cbc4"/><path d="m18 27a11.79 11.79 0 0 0 .9 4.6 12 12 0 0 0 9.1-11.6 13.28 13.28 0 0 0 -1.2-5.3 13.08 13.08 0 0 0 -8.8 12.3z" fill="#f57c00"/><g fill="#fff"><path d="m14 24h-2v-7.3l-2 .7v-1.9l3.8-1.5h.2z"/><path d="m38 33h-7v-1.8l3.1-3.3q.6-.75.9-1.2a1.93 1.93 0 0 0 .3-1 1.49 1.49 0 0 0 -.3-1 1.27 1.27 0 0 0 -.9-.4 1.16 1.16 0 0 0 -1 .4 2.14 2.14 0 0 0 -.4 1.2h-1.9a2.93 2.93 0 0 1 .4-1.6 2.55 2.55 0 0 1 1.2-1.1 3.29 3.29 0 0 1 1.7-.4 3.33 3.33 0 0 1 2.3.7 2.63 2.63 0 0 1 .8 2 2.3 2.3 0 0 1 -.4 1.4 5.91 5.91 0 0 1 -1.3 1.7l-2.1 2.4h4.6z"/></g></svg>