<svg height="48" viewBox="0 0 48 48" width="48" xmlns="http://www.w3.org/2000/svg"><path d="m37.71 23.21a4.3 4.3 0 0 1 2.14.57 14.85 14.85 0 0 1 1.43 1.22h.72v-11h-11v-.77a15.74 15.74 0 0 0 1.21-1.54 5 5 0 0 0 .46-3.39 4.27 4.27 0 0 0 -8.46 1.08 4.9 4.9 0 0 0 .8 2.7c.19.27 1 1.15 1 1.15v.77h-12.01v12h-.71a13.68 13.68 0 0 0 -1.43-1.21 4.29 4.29 0 1 0 .35 7.2c.26-.19 1.08-1 1.08-1h.71v11.01h12v-.77s-.8-.88-1-1.16a5 5 0 0 1 -.73-3.6 4.87 4.87 0 0 1 3.27-3.62 4.39 4.39 0 0 1 5.22 4.52 4.94 4.94 0 0 1 -.57 2.31 15 15 0 0 1 -1.19 1.55v.77h11v-12h-.71s-.82.8-1.07 1a4.31 4.31 0 0 1 -3.59.67 4.75 4.75 0 0 1 -3.07-3.1 4.29 4.29 0 0 1 4.15-5.36z" fill="#ffa726"/></svg>