<svg height="48" viewBox="0 0 48 48" width="48" xmlns="http://www.w3.org/2000/svg"><path d="m36 44h-24a4 4 0 0 1 -4-4v-32a4 4 0 0 1 4-4h24a4 4 0 0 1 4 4v32a4 4 0 0 1 -4 4z" fill="#555"/><path d="m36 42h-24a2 2 0 0 1 -2-2v-32a2 2 0 0 1 2-2h24a2 2 0 0 1 2 2v32a2 2 0 0 1 -2 2z" fill="#fff"/><path d="m18 27a10.12 10.12 0 0 1 5.8-9.1 6.72 6.72 0 0 0 -4.8-1.9 7 7 0 0 0 -.6 14 15.44 15.44 0 0 1 -.4-3z" fill="#80cbc4"/><path d="m28 19a2.77 2.77 0 0 0 -.9.1 8.6 8.6 0 0 1 .9 3.9 8.94 8.94 0 0 1 -6.5 8.6 8.14 8.14 0 0 0 6.5 3.4 8 8 0 0 0 0-16z" fill="#ffcc80"/><path d="m20 27a8.68 8.68 0 0 0 .5 2.8 7.06 7.06 0 0 0 5.5-6.8 6.4 6.4 0 0 0 -.9-3.4 7.84 7.84 0 0 0 -5.1 7.4z" fill="#f57c00"/></svg>