<svg height="48" viewBox="0 0 48 48" width="48" xmlns="http://www.w3.org/2000/svg"><path d="m28 40.4a4.33 4.33 0 0 1 -1.9-.4 5 5 0 0 1 -3.1-4.6v-22.7a3 3 0 0 0 -1.9-2.8 2.9 2.9 0 0 0 -3.3.7l-8.2 8.2-1.4-1.4 8.2-8.2a5 5 0 0 1 8.6 3.4v22.7a3 3 0 0 0 1.9 2.8 2.9 2.9 0 0 0 3.3-.7l8.2-8.2 1.4 1.4-8.2 8.2a5.19 5.19 0 0 1 -3.6 1.6z" fill="#26c6da"/><path d="m39.5 25a4.5 4.5 0 1 1 -4.5 4.5 4.5 4.5 0 0 1 4.5-4.5zm-31-11a4.5 4.5 0 1 1 -4.5 4.5 4.5 4.5 0 0 1 4.5-4.5z" fill="#424242"/><path d="m16 16h16v14h-16z" fill="#424242"/><path d="m18 20h12v8h-12z" fill="#fff"/></svg>