<svg height="48" viewBox="0 0 48 48" width="48" xmlns="http://www.w3.org/2000/svg"><path d="m40 8h-32a4 4 0 0 0 -4 4v24a4 4 0 0 0 4 4h32a4 4 0 0 0 4-4v-24a4 4 0 0 0 -4-4z" fill="#ffcc80"/><path d="m12 12h28l-4 24h-28z" fill="#fff"/><g fill="#555"><path d="m27.1 25.7c.2-1-.4-1.8-1.7-2.3l-.9-.3a7.69 7.69 0 0 1 -3.4-2 3.44 3.44 0 0 1 -.9-2.7 4.29 4.29 0 0 1 .9-2.3 6.33 6.33 0 0 1 2.2-1.6 6.71 6.71 0 0 1 2.9-.5 5.58 5.58 0 0 1 2.6.6 4 4 0 0 1 1.7 1.7 4.84 4.84 0 0 1 .6 2.5h-2.6a2.85 2.85 0 0 0 -.5-1.9 2.57 2.57 0 0 0 -1.9-.7 3.65 3.65 0 0 0 -2.1.6 2.34 2.34 0 0 0 -1 1.6q-.15 1.35 1.8 2.1l.8.3a7.68 7.68 0 0 1 3.4 2.1 4 4 0 0 1 .9 2.8 4.7 4.7 0 0 1 -.9 2.3 4.12 4.12 0 0 1 -2.1 1.5 7.16 7.16 0 0 1 -3 .5 6.44 6.44 0 0 1 -2.8-.6 4.52 4.52 0 0 1 -1.9-1.7 5.07 5.07 0 0 1 -.6-2.5h2.7a2.16 2.16 0 0 0 .7 2 2.83 2.83 0 0 0 2.1.7 4.79 4.79 0 0 0 2.2-.5 3.4 3.4 0 0 0 .8-1.7z"/><path d="m18.1 34v-2h12.9v2z"/></g></svg>