<svg height="48" viewBox="0 0 48 48" width="48" xmlns="http://www.w3.org/2000/svg"><path d="m28 20h4.2l-6.2-6.2v4.2a2 2 0 0 0 2 2z" fill="#fff"/><path d="m8 10a2 2 0 0 1 2-2h16v-2h-16a4 4 0 0 0 -4 4v28h2z" fill="#555"/><path d="m28 22a4 4 0 0 1 -4-4v-6h-10a2 2 0 0 0 -2 2v24a2 2 0 0 0 2 2h8v-16a2 2 0 0 1 2-2z" fill="#fff"/><path d="m22 40h-8a2 2 0 0 1 -2-2v-24a2 2 0 0 1 2-2h10v6a4 4 0 0 0 4 4h8v-1l-11-11h-11a4 4 0 0 0 -4 4v24a4 4 0 0 0 4 4h8zm4-26.2 6.2 6.2h-4.2a2 2 0 0 1 -2-2z" fill="#f57c00"/><path d="m24 24h18v6h-18z" fill="#303f9f"/><g fill="#fff"><path d="m26 26h2v2h-2z"/><path d="m30 26h2v2h-2z"/><path d="m36 26h4v2h-4z"/></g><path d="m24 32h18v6h-18z" fill="#303f9f"/><path d="m26 34h2v2h-2z" fill="#fff"/><path d="m30 34h2v2h-2z" fill="#fff"/><path d="m36 34h4v2h-4z" fill="#fff"/><path d="m24 40h18v6h-18z" fill="#303f9f"/><path d="m26 42h2v2h-2z" fill="#fff"/><path d="m30 42h2v2h-2z" fill="#fff"/><path d="m36 42h4v2h-4z" fill="#fff"/><path d="m20 16v-10h-4v10h-3l5 5 5-5z" fill="#f57c00"/></svg>