<svg height="48" viewBox="0 0 48 48" width="48" xmlns="http://www.w3.org/2000/svg"><path d="m28 20h4.2l-6.2-6.2v4.2a2 2 0 0 0 2 2z" fill="#fff"/><path d="m8 10a2 2 0 0 1 2-2h16v-2h-16a4 4 0 0 0 -4 4v28h2z" fill="#555"/><path d="m34 24h2v5.9h-2z" fill="#ccc"/><path d="m34 38h2v6h-2z" fill="#999"/><path d="m45 33v2h-5.9v-2z" fill="#aaa"/><path d="m31 33v2h-6v-2z" fill="#424242"/><path d="m41.4 26.3 1.4 1.4-4.2 4.2-1.4-1.4z" fill="#bdbdbd"/><path d="m31.5 36.1 1.4 1.4-4.2 4.2-1.4-1.4z" fill="#777"/><path d="m42.7 40.4-1.4 1.4-4.2-4.2 1.4-1.4z" fill="#aaa"/><path d="m23 34a11.9 11.9 0 0 1 11-11.9v-.1h-6a4 4 0 0 1 -4-4v-6h-10a2 2 0 0 0 -2 2v24a2 2 0 0 0 2 2h10.6a12.22 12.22 0 0 1 -1.6-6z" fill="#fff"/><path d="m32.9 30.5-1.4 1.4-4.2-4.2 1.4-1.4z" fill="#333"/><g fill="#f57c00"><path d="m24.6 40h-10.6a2 2 0 0 1 -2-2v-24a2 2 0 0 1 2-2h10v6a4 4 0 0 0 4 4h8v-1l-11-11h-11a4 4 0 0 0 -4 4v24a4 4 0 0 0 4 4h12.1a9.51 9.51 0 0 1 -1.5-2zm1.4-26.2 6.2 6.2h-4.2a2 2 0 0 1 -2-2z"/><path d="m20 16v-10h-4v10h-3l5 5 5-5z"/></g></svg>