<svg height="48" viewBox="0 0 48 48" width="48" xmlns="http://www.w3.org/2000/svg"><path d="m28 20h4.2l-6.2-6.2v4.2a2 2 0 0 0 2 2z" fill="#fff"/><path d="m8 10a2 2 0 0 1 2-2h16v-2h-16a4 4 0 0 0 -4 4v28h2z" fill="#555"/><path d="m34 40v-18h-6a4 4 0 0 1 -4-4v-6h-10a2 2 0 0 0 -2 2v24a2 2 0 0 0 2 2z" fill="#fff"/><path d="m42 44-3 3-3-3-3 3-3-3-3 3-3-3v-18h18z" fill="#1976d2"/><path d="m24 40h-10a2 2 0 0 1 -2-2v-24a2 2 0 0 1 2-2h10v6a4 4 0 0 0 4 4h6v4h2v-5l-11-11h-11a4 4 0 0 0 -4 4v24a4 4 0 0 0 4 4h10zm2-26.2 6.2 6.2h-4.2a2 2 0 0 1 -2-2z" fill="#f57c00"/><path d="m40 43-1 1-3-3-3 3-3-3-3 3-1-1v-15h14z" fill="#d7e1fe"/><g fill="#1976d2"><path d="m28 30h6v2h-6z"/><path d="m28 34h10v2h-10z"/><path d="m28 38h10v2h-10z"/></g><path d="m20 16v-10h-4v10h-3l5 5 5-5z" fill="#f57c00"/></svg>