<svg height="48" viewBox="0 0 48 48" width="48" xmlns="http://www.w3.org/2000/svg"><path d="m28 20h4.2l-6.2-6.2v4.2a2 2 0 0 0 2 2z" fill="#fff"/><path d="m8 10a2 2 0 0 1 2-2h16v-2h-16a4 4 0 0 0 -4 4v28h2z" fill="#555"/><path d="m28 36a6 6 0 0 1 6-6 5.82 5.82 0 0 1 4.3 1.8l1.4-1.4a8 8 0 0 0 -11.3-.1 8.2 8.2 0 0 0 -2.4 5.7h-3l4 4 4-4z" fill="#303f9f"/><path d="m41 32-4 4h3a6 6 0 0 1 -6 6 5.82 5.82 0 0 1 -4.3-1.8l-1.4 1.4a8 8 0 0 0 11.3.1 8.2 8.2 0 0 0 2.4-5.7h3z" fill="#303f9f"/><path d="m26.3 41.9a1.16 1.16 0 0 1 -.7-.5l-1.4-1.4h-10.2a2 2 0 0 1 -2-2v-24a2 2 0 0 1 2-2h10v6a4 4 0 0 0 4 4h6v4a13.55 13.55 0 0 1 2 .2v-5.2l-11-11h-11a4 4 0 0 0 -4 4v24a4 4 0 0 0 4 4h12.4zm-.3-28.1 6.2 6.2h-4.2a2 2 0 0 1 -2-2z" fill="#f57c00"/><path d="m21.6 37.4a2 2 0 0 1 1.4-3.4h1.2a10.31 10.31 0 0 1 2.8-5.1 9.84 9.84 0 0 1 7-2.9v-4h-6a4 4 0 0 1 -4-4v-6h-10a2 2 0 0 0 -2 2v24a2 2 0 0 0 2 2h10.2z" fill="#fff"/><path d="m20 16v-10h-4v10h-3l5 5 5-5z" fill="#f57c00"/></svg>