<svg height="48" viewBox="0 0 48 48" width="48" xmlns="http://www.w3.org/2000/svg"><path d="m20 35 8 4.6c.6.4 1.3.5 2 .5s1.4-.2 2-.5l8-4.6c1.2-.7 2-2 2-3.5v-9.2c0-1.5-.8-2.8-2-3.5l-8-4.6c-.6-.4-1.3-.5-2-.5s-1.4.2-2 .5l-8 4.6c-1.2.7-2 2-2 3.5v9.2c0 1.5.8 2.8 2 3.5zm2-12.7 8-4.6 8 4.6v9.2l-8 4.6-8-4.6z" fill="#42a5f5"/><path d="m16 31.5v-2.4l-6-3.5v-9.2l8-4.6 5.1 2.9 3.9-2.3h.1l-7.1-4c-.6-.4-1.3-.5-2-.5s-1.4.2-2 .5l-8 4.6c-1.2.7-2 2-2 3.5v9.2c0 1.5.8 2.8 2 3.5l8 4.6c.2.1.4.2.5.3-.3-.9-.5-1.7-.5-2.6z" fill="#42a5f5"/><path d="m36 29h-4v4h-4v-4h-4v-4h4v-4h4v4h4z" fill="#455a64"/></svg>