<svg height="48" viewBox="0 0 48 48" width="48" xmlns="http://www.w3.org/2000/svg"><path d="m36 20h2.2l-4.2-4.2v2.2a2 2 0 0 0 2 2z" fill="#fff"/><path d="m36 22a4 4 0 0 1 -4-4v-4h-10a2 2 0 0 0 -2 2v22a2 2 0 0 0 2 2h16a2 2 0 0 0 2-2v-16z" fill="#fff"/><path d="m33 12h-11a4 4 0 0 0 -4 4v22a4 4 0 0 0 4 4h16a4 4 0 0 0 4-4v-17zm5.2 8h-2.2a2 2 0 0 1 -2-2v-2.2zm1.8 18a2 2 0 0 1 -2 2h-16a2 2 0 0 1 -2-2v-22a2 2 0 0 1 2-2h10v4a4 4 0 0 0 4 4h4z" fill="#555"/><path d="m16 34h-6a2 2 0 0 1 -2-2v-22a2 2 0 0 1 2-2h10v2.4a6.46 6.46 0 0 1 2-.4h3l-4-4h-11a4 4 0 0 0 -4 4v22a4 4 0 0 0 4 4h6z" fill="#555"/><path d="m16 16a6 6 0 0 1 4-5.6v-2.4h-10a2 2 0 0 0 -2 2v22a2 2 0 0 0 2 2h6z" fill="#fff"/><g fill="#555"><path d="m22 20h8v2h-8z"/><path d="m22 24h16v2h-16z"/><path d="m22 28h16v2h-16z"/><path d="m22 32h16v2h-16z"/><path d="m16.4 14h-6.4v2h6a4.48 4.48 0 0 1 .4-2z"/><path d="m10 18h6v2h-6z"/><path d="m10 22h6v2h-6z"/><path d="m10 26h6v2h-6z"/></g></svg>