<svg height="48" viewBox="0 0 48 48" width="48" xmlns="http://www.w3.org/2000/svg"><path d="m42.09 16.839-5.392-2.064-.297-5.766c-.044-.856-.755-1.489-1.565-1.489-.135 0-.272.018-.41.055l-5.576 1.498-3.63-4.49c-.313-.389-.767-.583-1.22-.583s-.907.194-1.221.583l-3.63 4.49-5.576-1.499c-.138-.037-.275-.055-.41-.055-.81 0-1.521.634-1.565 1.489l-.297 5.766-5.391 2.065c-.933.357-1.299 1.484-.754 2.322l3.149 4.839-3.149 4.839c-.545.838-.179 1.964.754 2.322l5.392 2.064.297 5.766c.044.856.755 1.489 1.565 1.489.135 0 .272-.018.41-.055l5.576-1.499.614-.165c-.49-.877-.888-1.81-1.182-2.788-1.192-1.485-2.582-5.593-2.582-6.973 0-7.7 7.3-12 15-12 2.484 0 6.756 1.659 7.842 2.811.875.497 1.693 1.085 2.44 1.751l1.562-2.401c.545-.838.179-1.964-.754-2.322z" fill="#303f9f"/><path d="m32 20c-6.6 0-12 5.4-12 12s5.4 12 12 12 12-5.4 12-12-5.4-12-12-12z" fill="#388e3c"/><path d="m18 32c0-7.7 6.3-14 14-14 2.483 0 4.816.662 6.843 1.808l.521-.8-5.562-2.13-.306-5.948-5.752 1.547-3.744-4.632-3.744 4.632-5.752-1.547-.306 5.948-5.562 2.13 3.248 4.992-3.248 4.992 5.562 2.13.306 5.948 4.082-1.098c-.376-1.261-.586-2.593-.586-3.972z" fill="#e8eaf6"/><path d="m40 34h-6v6h-4v-6h-6v-4h6v-6h4v6h6z" fill="#fff"/></svg>