<svg height="48" viewBox="0 0 48 48" width="48" xmlns="http://www.w3.org/2000/svg"><path d="m32 14h4.2l-6.2-6.2v4.2a2 2 0 0 0 2 2z" fill="#fff"/><path d="m32 16a4 4 0 0 1 -4-4v-6h-16a2 2 0 0 0 -2 2v32a2 2 0 0 0 2 2h24a2 2 0 0 0 2-2v-24z" fill="#fff"/><path d="m29 4h-17a4 4 0 0 0 -4 4v32a4 4 0 0 0 4 4h24a4 4 0 0 0 4-4v-25zm7.2 10h-4.2a2 2 0 0 1 -2-2v-4.2zm1.8 26a2 2 0 0 1 -2 2h-24a2 2 0 0 1 -2-2v-32a2 2 0 0 1 2-2h16v6a4 4 0 0 0 4 4h6z" fill="#555"/><path d="m8 20h32v14h-32z" fill="#388e3c"/><g fill="#fff"><path d="m19.6 28.3a3.37 3.37 0 0 1 -.9 2 3.23 3.23 0 0 1 -2.2.7 3 3 0 0 1 -2.4-1 4.1 4.1 0 0 1 -.9-2.8v-.5a4.21 4.21 0 0 1 .4-2 2.85 2.85 0 0 1 1.1-1.3 3.37 3.37 0 0 1 1.7-.5 3.23 3.23 0 0 1 2.2.7 3 3 0 0 1 1 2h-1.6a1.6 1.6 0 0 0 -.4-1.1 1.61 1.61 0 0 0 -1.1-.3 1.42 1.42 0 0 0 -1.2.6 3 3 0 0 0 -.4 1.8v.6a3.36 3.36 0 0 0 .4 1.9 1.42 1.42 0 0 0 1.2.6 1.61 1.61 0 0 0 1.1-.3 1.6 1.6 0 0 0 .4-1.1z"/><path d="m25.2 28.9a.91.91 0 0 0 -.3-.7 3.53 3.53 0 0 0 -1.2-.5c-.6-.2-1-.4-1.3-.5a2.47 2.47 0 0 1 -1.4-2 1.5 1.5 0 0 1 .4-1.1 2.72 2.72 0 0 1 1-.8 3.9 3.9 0 0 1 3 0 2.19 2.19 0 0 1 1 .9 2.84 2.84 0 0 1 .4 1.3h-1.6a1 1 0 0 0 -.3-.8 1.33 1.33 0 0 0 -1-.3 2 2 0 0 0 -.9.2.91.91 0 0 0 -.3.7.55.55 0 0 0 .4.6 5.82 5.82 0 0 0 1.1.5 5.29 5.29 0 0 1 2 1 2 2 0 0 1 .6 1.5 1.94 1.94 0 0 1 -.8 1.6 3.28 3.28 0 0 1 -2.1.6 4.15 4.15 0 0 1 -1.6-.3 2.4 2.4 0 0 1 -1.5-2.2h1.6a1.23 1.23 0 0 0 1.5 1.3 2 2 0 0 0 .9-.2 1.2 1.2 0 0 0 .4-.8z"/><path d="m31.2 29 1.8-5.9h1.8l-2.8 7.8h-1.7l-2.7-7.8h1.8z"/></g></svg>