<svg height="48" viewBox="0 0 48 48" width="48" xmlns="http://www.w3.org/2000/svg"><path d="m32.5 22c3.6 0 6.5-2.9 6.5-6.5s-2.9-6.5-6.5-6.5-6.5 2.9-6.5 6.5 2.9 6.5 6.5 6.5z" fill="#ff7043"/><path d="m38 22.6-5.5 3.1-6-3.3c-.8-.5-2.1 1.7-3.2 4.7l-7.3-1.1s-.3 1.4 1.1 3.6c1.1 1.7 3.5 2.2 4.6 2.3-.7 3-1.1 6-.6 7.7 1.4 4.4 11.4 4.4 11.4 4.4s10 0 11.3-4.4-3.4-19-5.8-17z" fill="#ff7043"/><path d="m24 16v-4h-2.8c-.1-.6-.4-1.1-.7-1.7l2-1.9-2.8-2.9-1.9 2c-.6-.3-1.1-.6-1.7-.7v-2.8h-4v2.8c-.6.2-1.1.4-1.7.7l-1.9-2-3 2.9 1.9 1.9c-.3.6-.6 1.1-.7 1.7h-2.7v4h2.8c.2.6.4 1.1.7 1.7l-2 1.9 2.9 2.9 1.9-2c.6.3 1.1.5 1.7.7v2.8h4v-2.8c.6-.1 1.1-.4 1.7-.7l1.9 2 2.9-2.9-2-1.9c.3-.6.5-1.1.7-1.7zm-10 2.5c-2.5 0-4.5-2-4.5-4.5s2-4.5 4.5-4.5 4.5 2 4.5 4.5-2 4.5-4.5 4.5z" fill="#7b1fa2"/></svg>