<svg height="48" viewBox="0 0 48 48" width="48" xmlns="http://www.w3.org/2000/svg"><g fill="#555"><path d="m28.4 22.7c.6.6 1 1.4 1.3 2.2l10.3-10.9v-10l-14.6 15.5z"/><path d="m29.8 31.9-.7-.8c-.7-.7-1.1-1.7-1.1-2.7v-1.6c0-1-.4-2-1.1-2.7l-18.9-20.1v8.4c0 1 .4 2 1.1 2.7l18.4 19.5c.5-1.1 1.3-2.1 2.3-2.7zm-5.8-3.9c-1.1 0-2-.9-2-2s.9-2 2-2 2 .9 2 2-.9 2-2 2z"/><path d="m20.5 34.7 2.1-2.2-2.6-2.8v.3l-1.8 1.9c1 .7 1.9 1.6 2.3 2.8z"/></g><path d="m15 30c-3.9 0-7 3.2-7 7s3.2 7 7 7 7-3.2 7-7c0-3.9-3.1-7-7-7zm0 11c-2.2 0-4-1.8-4-4s1.8-4 4-4 4 1.8 4 4-1.8 4-4 4z" fill="#ff7043"/><path d="m33 30c-3.9 0-7 3.2-7 7s3.2 7 7 7 7-3.2 7-7c0-3.9-3.1-7-7-7zm0 11c-2.2 0-4-1.8-4-4s1.8-4 4-4 4 1.8 4 4-1.8 4-4 4z" fill="#ff7043"/></svg>