<svg height="48" viewBox="0 0 48 48" width="48" xmlns="http://www.w3.org/2000/svg"><path d="m12 12h24v24h-24z" fill="#1976d2"/><path d="m34 14h-20v20h20z" fill="#d7e1fe"/><g fill="#d32f2f"><path d="m16 6h6v2h-6z"/><path d="m26 6h6v2h-6z"/><path d="m40 40h-4v2h6v-6h-2z"/><path d="m40 26h2v6h-2z"/><path d="m40 6h-4v2h4v4h2v-6z"/><path d="m40 16h2v6h-2z"/><path d="m8 36h-2v6h6v-2h-4z"/><path d="m6 26h2v6h-2z"/><path d="m6 6v6h2v-4h4v-2z"/><path d="m6 16h2v6h-2z"/><path d="m16 40h6v2h-6z"/><path d="m26 40h6v2h-6z"/></g></svg>