<svg height="48" viewBox="0 0 48 48" width="48" xmlns="http://www.w3.org/2000/svg"><g fill="#555"><path d="m24 16c-7 0-13-1.5-16-3.8v6.8c0 2.8 7.2 5 16 5s16-2.2 16-5v-6.8c-3 2.3-9 3.8-16 3.8z"/><path d="m24 26c-7 0-13-1.5-16-3.8v6.8c0 2.8 7.2 5 16 5s16-2.2 16-5v-6.8c-3 2.3-9 3.8-16 3.8z"/><path d="m24 36c-7 0-13-1.5-16-3.8v6.8c0 2.8 7.2 5 16 5s16-2.2 16-5v-6.8c-3 2.3-9 3.8-16 3.8z"/><ellipse cx="24" cy="9" rx="16" ry="5"/></g><path d="m33.7 19.9-8-12c-.4-.6-1-.9-1.7-.9s-1.3.3-1.7.9l-8 12c-.4.6-.4 1.4-.1 2.1s1 1.1 1.8 1.1h4v16c0 1.1.9 2 2 2h4c1.1 0 2-.9 2-2v-16.1h4c.7 0 1.4-.4 1.8-1.1.3-.6.3-1.4-.1-2z" fill="#fff"/><path d="m24 9-8 12h6v18h4v-18h6z" fill="#26c6da"/></svg>