<svg height="48" viewBox="0 0 48 48" width="48" xmlns="http://www.w3.org/2000/svg"><path d="m40 27.3-3.3-3.3-6.7 6.7-6.7-6.7-3.3 3.3 6.7 6.7-6.7 6.7 3.3 3.3 6.7-6.7 6.7 6.7 3.3-3.3-6.7-6.7z" fill="#d32f2f"/><g fill="#303f9f"><path d="m23.3 22a2 2 0 0 1 1.4.6l1.4 1.4a10.13 10.13 0 0 0 1.9-5.9 11 11 0 0 0 -.8-4 3.82 3.82 0 0 0 -3.2 3.9 6.4 6.4 0 0 1 -1.7 4.3 1.93 1.93 0 0 1 1-.3z"/><path d="m18.6 25.9 3-3a5.24 5.24 0 0 1 -3.3 1.1h-4.7a5.81 5.81 0 0 1 -5.6-6 5.81 5.81 0 0 1 5.6-6h3.9a12.59 12.59 0 0 1 3.2-3.7 8.52 8.52 0 0 0 -2.3-.3h-4.8a9.82 9.82 0 0 0 -9.6 10 9.82 9.82 0 0 0 9.6 10h4.5a2.09 2.09 0 0 1 .5-2.1z"/><path d="m34.2 23.7a5.66 5.66 0 0 1 -1.8.3h-3.9c-.3.5-.6.9-.9 1.4l2.5 2.5z"/><path d="m22 18a5.81 5.81 0 0 1 5.6-6h4.7a5.81 5.81 0 0 1 5.6 6 6.37 6.37 0 0 1 -1.5 4h.1a2 2 0 0 1 1.4.6l1.7 1.7a9.85 9.85 0 0 0 2.2-6.3 9.82 9.82 0 0 0 -9.6-10h-4.8c-5.1 0-9.4 4.5-9.4 10a11 11 0 0 0 .8 4 4 4 0 0 0 3.2-4z"/></g></svg>