<svg height="48" viewBox="0 0 48 48" width="48" xmlns="http://www.w3.org/2000/svg"><path d="m43 27-4-4-6 6-6-6-4 4 6 6-6 6 4 4 6-6 6 6 4-4-6-6z" fill="#d32f2f"/><path d="m21.6 25.6 4-4c.4-.4.9-.6 1.4-.6s1 .2 1.4.6l4.6 4.6 4.6-4.6c.4-.4.9-.6 1.4-.6.3 0 .7.1 1 .3v-9.3h-32v16h13.3c-.5-.8-.4-1.8.3-2.4z" fill="#ddd"/><path d="m22.9 29.8h-14.7c-1.1 0-2-.9-2-2v-15.6c0-1.1.9-2 2-2h31.5c1.1 0 2 .9 2 2v10.7l2.2 2.2v-13.1c0-2.2-1.8-4-4-4h-31.9c-2.2 0-4 1.8-4 4v16c0 2.2 1.8 4 4 4h17.2z" fill="#455a64"/></svg>