<svg height="48" viewBox="0 0 48 48" width="48" xmlns="http://www.w3.org/2000/svg"><path d="m29 4h-17c-2.2 0-4 1.8-4 4v32c0 2.2 1.8 4 4 4h24c2.2 0 4-1.8 4-4v-25zm7.2 10h-4.2c-1.1 0-2-.9-2-2v-4.2zm1.8 26c0 1.1-.9 2-2 2h-24c-1.1 0-2-.9-2-2v-32c0-1.1.9-2 2-2h16v6c0 2.2 1.8 4 4 4h6z" fill="#555"/><path d="m32 14h4.2l-6.2-6.2v4.2c0 1.1.9 2 2 2z" fill="#fff"/><path d="m32 16c-2.2 0-4-1.8-4-4v-6h-16c-1.1 0-2 .9-2 2v32c0 1.1.9 2 2 2h24c1.1 0 2-.9 2-2v-24z" fill="#fff"/><path d="m33 22.6-2.6-2.6-6.4 6.4-6.4-6.4-2.6 2.6 6.4 6.4-6.4 6.4 2.6 2.6 6.4-6.4 6.4 6.4 2.6-2.6-6.4-6.4z" fill="#d32f2f"/></svg>