<svg height="48" viewBox="0 0 48 48" width="48" xmlns="http://www.w3.org/2000/svg"><path d="m34 19c0-2.3-.9-4.5-2.5-6.2 3.1 1.2 5.7 3.5 7.2 6.5l1.5-1.5c-2.6-4.8-7.7-7.8-13.2-7.8h-11v2h9c3.9 0 7 3.1 7 7s-3.1 7-7 7h-11v2h11c4.9 0 9-4 9-9z" fill="#42a5f5"/><path d="m20 38.1.1-.1h-6.1v2h6z" fill="#42a5f5"/><g fill="#303f9f"><circle cx="13" cy="11" r="7"/><circle cx="13" cy="27" r="5"/><circle cx="13" cy="39" r="5"/></g><path d="m22 44v-5.1l1.3-1.3 5.1 5.1-1.3 1.3z" fill="#424242"/><path d="m38.4 22.5 2.5-2.5 5.1 5.1-2.5 2.5z" fill="#ef5350"/><path d="m24.5 36.4 12.7-12.7 5 5-12.6 12.7z" fill="#f57c00"/></svg>