<svg id="Layer_1" data-name="Layer 1" xmlns="http://www.w3.org/2000/svg" width="48" height="48" viewBox="0 0 48 48"><defs><style>.cls-1{fill:#fff}</style></defs><path class="cls-1" d="M13 18a7 7 0 0 0 6.92-6H25a7 7 0 0 1 0 14h-7.1a5 5 0 1 0 0 2H25a9 9 0 0 0 6.5-15.2 13.47 13.47 0 0 1 7.2 6.5l1.5-1.5A15 15 0 0 0 27 10h-7.08A7 7 0 1 0 13 18zM13 34a5 5 0 1 0 4.9 6H20v-1.9l.1-.1h-2.2a5 5 0 0 0-4.9-4zM22 38.9V44h5.1l1.3-1.3-5.1-5.1-1.3 1.3z"/><path class="cls-1" transform="rotate(-45 42.199 23.8)" d="M40.43 20.19h3.54v7.21h-3.54z"/><path class="cls-1" d="M24.5 36.4l5.1 5 12.6-12.7-5-5-12.7 12.7z"/></svg>