<svg height="48" viewBox="0 0 48 48" width="48" xmlns="http://www.w3.org/2000/svg"><circle cx="31.5" cy="31.5" fill="#1976d2" r="12.5"/><path d="m39.4 28.9-5.5-.8-.1-.2-2.3-4.8-2.4 5-5.5.8 4 3.8-.2 1.2-.8 4.3 4.9-2.6 4.9 2.6-1-5.5c0 .1 4-3.8 4-3.8z" fill="#fff"/><path d="m17 31.5c0-.6 0-1.2.1-1.7-1.3-1.6-2.1-3.6-2.1-5.8 0-5 4-9 9-9 2.2 0 4.2.8 5.8 2.1.6-.1 1.1-.1 1.7-.1 2.3 0 4.5.6 6.4 1.5-.3-.7-.5-1.3-.9-1.9l3.9-3.9-5.6-5.7-3.9 4c-1.1-.6-2.2-1.1-3.4-1.4v-5.6h-8v5.6c-1.2.3-2.3.8-3.4 1.4l-3.9-4-5.7 5.7 3.9 3.9c-.6 1.1-1.1 2.2-1.4 3.4h-5.5v8h5.6c.3 1.2.8 2.3 1.4 3.4l-4 3.9 5.7 5.7 3.9-3.9c.6.3 1.3.6 1.9.9-.9-2-1.5-4.2-1.5-6.5z" fill="#7b1fa2"/></svg>