<svg height="48" viewBox="0 0 48 48" width="48" xmlns="http://www.w3.org/2000/svg"><path d="m42 34h-36a2 2 0 0 1 -2-2v-22a2 2 0 0 1 2-2h36a2 2 0 0 1 2 2v22a2 2 0 0 1 -2 2z" fill="#1976d2"/><path d="m6 10h36v22h-36z" fill="#fff"/><g fill="#1976d2"><path d="m16 38h16v2h-16z"/><path d="m22 34h4v4h-4z"/><path d="m30 26h-18a2 2 0 0 1 -2-2v-10a2 2 0 0 1 2-2h18a2 2 0 0 1 2 2v10a2 2 0 0 1 -2 2z"/></g><path d="m12 14h18v10h-18z" fill="#fff"/><path d="m36 30h-12a2 2 0 0 1 -2-2v-6a2 2 0 0 1 2-2h12a2 2 0 0 1 2 2v6a2 2 0 0 1 -2 2z" fill="#1976d2"/><path d="m24 22h12v6h-12z" fill="#fff"/></svg>