<svg height="48" viewBox="0 0 48 48" width="48" xmlns="http://www.w3.org/2000/svg"><path d="m36 42h-24a2 2 0 0 1 -2-2v-32a2 2 0 0 1 2-2h24a2 2 0 0 1 2 2v32a2 2 0 0 1 -2 2z" fill="#fff"/><path d="m36 4h-24a4 4 0 0 0 -4 4v32a4 4 0 0 0 4 4h24a4 4 0 0 0 4-4v-32a4 4 0 0 0 -4-4zm2 36a2 2 0 0 1 -2 2h-24a2 2 0 0 1 -2-2v-32a2 2 0 0 1 2-2h24a2 2 0 0 1 2 2z" fill="#555"/><circle cx="16" cy="11" fill="#ffa726" r="2"/><circle cx="16" cy="17" fill="#ffa726" r="2"/><circle cx="22" cy="23" fill="#ffa726" r="2"/><circle cx="22" cy="29" fill="#ffa726" r="2"/><circle cx="28" cy="35" fill="#ffa726" r="2"/><g fill="#555"><path d="m20 10h14v2h-14z"/><path d="m20 16h14v2h-14z"/><path d="m26 22h8v2h-8z"/><path d="m26 28h8v2h-8z"/><path d="m32 34h2v2h-2z"/></g></svg>