<svg height="48" viewBox="0 0 48 48" width="48" xmlns="http://www.w3.org/2000/svg"><path d="m24 15c-5 0-9 4-9 9s4 9 9 9 9-4 9-9-4-9-9-9zm0 15c-3.3 0-6-2.7-6-6s2.7-6 6-6 6 2.7 6 6-2.7 6-6 6z" fill="#455a64"/><path d="m31.4 26.4h4.2v14.2h-4.2z" fill="#455a64" transform="matrix(.7071 -.7071 .7071 .7071 -13.8763 33.5)"/><path d="m26.2 34.8c-.7.1-1.5.2-2.2.2-6.1 0-11-4.9-11-11s4.9-11 11-11 11 4.9 11 11c0 .7-.1 1.5-.2 2.2l3.2 3.2c.2-.4.3-.9.4-1.3h5.6v-8h-5.6c-.3-1.2-.8-2.3-1.4-3.4l3.9-3.9-5.6-5.8-3.9 4c-1.1-.6-2.2-1.1-3.4-1.4v-5.6h-8v5.6c-1.2.3-2.3.8-3.4 1.4l-3.9-4-5.7 5.7 3.9 3.9c-.6 1.1-1.1 2.2-1.4 3.4h-5.5v8h5.6c.3 1.2.8 2.3 1.4 3.4l-4 3.9 5.7 5.7 3.9-3.9c1.1.6 2.2 1.1 3.4 1.4v5.5h8v-5.6c.5-.1.9-.3 1.3-.4z" fill="#7b1fa2"/></svg>