<svg height="48" viewBox="0 0 48 48" width="48" xmlns="http://www.w3.org/2000/svg"><path d="m40 27.3-3.3-3.3-6.7 6.7-6.7-6.7-3.3 3.3 6.7 6.7-6.7 6.7 3.3 3.3 6.7-6.7 6.7 6.7 3.3-3.3-6.7-6.7z" fill="#d32f2f"/><g fill="#1976d2"><path d="m28 11.5a7.5 7.5 0 1 0 -7.5 7.5 7.5 7.5 0 0 0 7.5-7.5z"/><path d="m24.7 22.6 5.3 5.3 1.4-1.4c-1.3-3.9-3.2-7.1-4.3-6.4l-3.3 2a1.38 1.38 0 0 1 .9.5z"/><path d="m18.6 39.3 5.3-5.3-5.3-5.3a1.93 1.93 0 0 1 -.07-2.7l.07-.07 2-2-6-3.5c-2.7-2.33-7.7 11.57-6.4 16.47 1 3.6 6.9 4.7 10.2 5a2 2 0 0 1 .2-2.6z"/></g></svg>