<svg height="48" viewBox="0 0 48 48" width="48" xmlns="http://www.w3.org/2000/svg"><path d="m19.6 42h-7.6a2 2 0 0 1 -2-2v-32a2 2 0 0 1 2-2h16v6a4 4 0 0 0 4 4h6v11.3a16.26 16.26 0 0 1 2 1.8v-14.1l-11-11h-17a4 4 0 0 0 -4 4v32a4 4 0 0 0 4 4h10.5a14.82 14.82 0 0 1 -2.9-2zm10.4-34.2 6.2 6.2h-4.2a2 2 0 0 1 -2-2z" fill="#555"/><path d="m14.5 35.7a2 2 0 0 1 .1-2c3.9-6.1 9.2-9.7 14.6-9.7a14 14 0 0 1 8.8 3.3v-11.3h-6a4 4 0 0 1 -4-4v-6h-16a2 2 0 0 0 -2 2v32a2 2 0 0 0 2 2h7.6a21.57 21.57 0 0 1 -5.1-6.3z" fill="#fff"/><path d="m32 14h4.2l-6.2-6.2v4.2a2 2 0 0 0 2 2z" fill="#fff"/><g fill="#555"><path d="m14 14h10v2h-10z"/><path d="m14 20h20v2h-20z"/><path d="m16.3 34.7c6.3-10 17.1-13.2 25.7 0-8.7 15.6-21.3 8.5-25.7 0z"/></g><path d="m36.2 34.9a7 7 0 1 1 -7-7 7 7 0 0 1 7 7z" fill="#fff"/><path d="m33.2 34.9a4 4 0 1 1 -4-4 4 4 0 0 1 4 4z" fill="#555"/><path d="m33.2 32.9a2 2 0 1 1 -2-2 2 2 0 0 1 2 2z" fill="#fff"/><path d="m22.2 26h-8.2v2h5.4a18.49 18.49 0 0 1 2.8-2z" fill="#555"/></svg>