<svg height="48" viewBox="0 0 48 48" width="48" xmlns="http://www.w3.org/2000/svg"><path d="m24 42c16.6-4.3 18-17.3 18-21.8v-12c-2.8 1.1-13.4-.7-18-2.2-4.6 1.5-15.2 3.3-18 2.3v12.7c0 4.4 1.4 16.7 18 21z" fill="#4a148c"/><g fill="#fff"><path d="m27 24h-6c-1.1 0-2-.9-2-2s.9-2 2-2h6c1.1 0 2 .9 2 2s-.9 2-2 2z"/><path d="m22 26h-2.8c-2.1.1-3.9-1.5-4.2-3.6-.2-2.2 1.4-4.2 3.7-4.4h3.3v-2c0-1.1-.9-2-2-2-5 0-9 3.6-9 8s4 8 9 8c1.1 0 2-.9 2-2z"/><path d="m28 14c-1.1 0-2 .9-2 2v2h2.8c2.1-.1 3.9 1.5 4.2 3.6.2 2.2-1.4 4.2-3.6 4.4h-.4-3v2c0 1.1.9 2 2 2 5 0 9-3.6 9-8s-4-8-9-8z"/></g></svg>