<svg height="48" viewBox="0 0 48 48" width="48" xmlns="http://www.w3.org/2000/svg"><path d="m22 44v-5.1l1.3-1.3 5.1 5.1-1.3 1.3z" fill="#424242"/><path d="m38.4 22.5 2.5-2.5 5.1 5.1-2.5 2.5z" fill="#ef5350"/><path d="m24.5 36.4 12.7-12.7 5 5-12.6 12.7z" fill="#f57c00"/><path d="m24 6c-4.6 1.5-15.2 3.3-18 2.3v12.7c0 4 1.2 14.6 14 19.7v-2.6l3.3-3.3 4.8-4.8h-.1c-1.1 0-2-.9-2-2v-2h3c2.2 0 4-1.9 4-4.1 0-.1 0-.2 0-.3-.3-2.1-2.1-3.7-4.2-3.6h-2.8v-2c0-1.1.9-2 2-2 4.6 0 8.5 3.1 8.9 7.1l.3-.3 2.6-2.6c.6-.6 1.6-.6 2.2 0v-10c-2.8 1.1-13.4-.7-18-2.2zm-2 22c0 1.1-.9 2-2 2-5 0-9-3.6-9-8s4-8 9-8c1.1 0 2 .9 2 2v2h-3c-2.2 0-4 1.9-4 4.1v.3c.3 2.1 2.1 3.7 4.2 3.6h2.8zm5-8c1.1 0 2 .9 2 2s-.9 2-2 2h-6c-1.1 0-2-.9-2-2s.9-2 2-2z" fill="#4a148c"/><g fill="#fff"><path d="m27 24h-6c-1.1 0-2-.9-2-2s.9-2 2-2h6c1.1 0 2 .9 2 2s-.9 2-2 2z"/><path d="m22 26h-2.8c-2.1.1-3.9-1.5-4.2-3.6-.2-2.2 1.4-4.2 3.7-4.4h3.3v-2c0-1.1-.9-2-2-2-5 0-9 3.6-9 8s4 8 9 8c1.1 0 2-.9 2-2z"/><path d="m28 30 8.9-8.9c-.5-4-4.3-7.1-8.9-7.1-1.1 0-2 .9-2 2v2h2.8c2.1-.1 3.9 1.5 4.2 3.6.2 2.2-1.4 4.2-3.6 4.4h-.4-3v2c0 1.1.9 2 2 2z"/></g></svg>