<svg height="48" viewBox="0 0 48 48" width="48" xmlns="http://www.w3.org/2000/svg"><g fill="#fff"><path d="m22 44v-5.1l1.3-1.3 5.1 5.1-1.3 1.3z"/><path d="m38.4 22.5 2.5-2.5 5.1 5.1-2.5 2.5z"/><path d="m24.5 36.4 12.7-12.7 5 5-12.6 12.7z"/><path d="m24 6c-4.6 1.5-15.2 3.3-18 2.3v12.7c0 4 1.2 14.6 14 19.7v-2.6l3.3-3.3 4.8-4.8h-.1a2 2 0 0 1 -2-2v-2h3a4.05 4.05 0 0 0 4-4.09q0-.16 0-.31a4.13 4.13 0 0 0 -4.2-3.6h-2.8v-2a2 2 0 0 1 2-2c4.6 0 8.5 3.1 8.9 7.1l.3-.3 2.6-2.6a1.57 1.57 0 0 1 2.2 0v-10c-2.8 1.1-13.4-.7-18-2.2zm-2 22a2 2 0 0 1 -2 2c-5 0-9-3.6-9-8s4-8 9-8a2 2 0 0 1 2 2v2h-3a4.05 4.05 0 0 0 -4 4.09q0 .16 0 .31a4.13 4.13 0 0 0 4.2 3.6h2.8zm5-8a2 2 0 0 1 0 4h-6a2 2 0 0 1 0-4z"/></g></svg>