<svg enable-background="new 0 0 48 48" height="48" viewBox="0 0 48 48" width="48" xmlns="http://www.w3.org/2000/svg"><path d="m43.3 37.7-17.9-10.4v-20.1c0-.8-.6-1.4-1.4-1.4s-1.4.6-1.4 1.4v20.1l-17.9 10.3c-.7.4-.9 1.3-.5 2s1.3.9 2 .5l17.8-10.3 17.9 10.3c.7.4 1.6.2 2-.5.3-.7.1-1.5-.6-1.9z" fill="#777"/><path d="m23.5 41.8-11-6.3c-.4-.2-.6-.6-.6-1v-12.7c0-.4.2-.8.6-1l11-6.4c.4-.2.8-.2 1.2 0l10.9 6.2c.4.2.6.6.6 1v12.7c0 .4-.2.8-.6 1l-10.9 6.4c-.4.3-.9.3-1.2.1z" fill="#f57c00"/><g fill="#fff"><path d="m33.3 33.5-7.9 4.5v-9l7.8-4.5v9z"/><path d="m14.8 33.5 7.8 4.5v-9l-7.8-4.5z"/><path d="m24 17.5-7.8 4.5 7.8 4.5 7.8-4.5z"/></g></svg>