<svg enable-background="new 0 0 48 48" height="48" viewBox="0 0 48 48" width="48" xmlns="http://www.w3.org/2000/svg"><path d="m43.3 37.7-7.2-4.1v-11.8c0-.5-.3-.9-.7-1.2l-10-5.8v-7.6c-.1-.8-.8-1.4-1.6-1.3-.7.1-1.3.6-1.3 1.3v7.8l-10 5.8c-.4.2-.7.7-.7 1.1v11.6l-7.2 4.1c-.7.4-.9 1.3-.5 2s1.3.9 2 .5l7.1-4.1 10.1 5.8c.4.2.9.2 1.3 0l9.9-5.8 7.2 4.2c.7.4 1.6.2 2-.5.5-.7.3-1.6-.4-2zm-20.7.3-7.8-4.5v-9l7.8 4.6zm1.4-11.5-7.8-4.5 7.8-4.5 1.4.8 6.4 3.7zm1.4 11.5v-9l7.8-4.5v7.4 1.6l-1.5.8z" fill="#fff"/></svg>