<svg height="48" viewBox="0 0 48 48" width="48" xmlns="http://www.w3.org/2000/svg"><path d="m20 24h20v20h-20z" fill="#1976d2"/><path d="m12 42a2 2 0 0 1 -2-2v-32a2 2 0 0 1 2-2h24a2 2 0 0 1 2 2v14h2v-14a4 4 0 0 0 -4-4h-24a4 4 0 0 0 -4 4v32a4 4 0 0 0 4 4h6v-2z" fill="#555"/><g fill="#fff"><path d="m18 24a2 2 0 0 1 2-2h18v-14a2 2 0 0 0 -2-2h-24a2 2 0 0 0 -2 2v32a2 2 0 0 0 2 2h6z"/><path d="m33 27.9a5 5 0 0 0 -3.1-1 4.47 4.47 0 0 0 -3.1 1 3.64 3.64 0 0 0 -1.2 2.8h2.8a1.7 1.7 0 0 1 .5-1.2 1.54 1.54 0 0 1 2.1-.1 1.7 1.7 0 0 1 .5 1.2 3.78 3.78 0 0 1 -.2 1 12.52 12.52 0 0 1 -1.1 1.2 4.72 4.72 0 0 0 -1.2 1.6 4.45 4.45 0 0 0 -.4 2h2.4v-.6a3 3 0 0 1 .8-1.6l.7-.7a5.89 5.89 0 0 0 1.2-1.6 4.24 4.24 0 0 0 .4-1.6 3.59 3.59 0 0 0 -1.1-2.4z"/><path d="m29.6 38.1a1.49 1.49 0 0 0 -1.1.4 1.63 1.63 0 0 0 -.5 1.1 1.29 1.29 0 0 0 .4 1 1.8 1.8 0 0 0 2.2 0 1.81 1.81 0 0 0 .4-1 1.63 1.63 0 0 0 -.5-1.1.8.8 0 0 0 -.9-.4z"/></g></svg>