<svg height="48" viewBox="0 0 48 48" width="48" xmlns="http://www.w3.org/2000/svg"><g fill="#fff"><path d="m12 42a2 2 0 0 1 -2-2v-32a2 2 0 0 1 2-2h24a2 2 0 0 1 2 2v14h2v-14a4 4 0 0 0 -4-4h-24a4 4 0 0 0 -4 4v32a4 4 0 0 0 4 4h6v-2z"/><path d="m20 24v20h20v-20zm10.6 16.5a1.8 1.8 0 0 1 -2.2 0 1.81 1.81 0 0 1 -.4-1 1.63 1.63 0 0 1 .5-1.1 1.49 1.49 0 0 1 1.1-.4.68.68 0 0 1 .8.4 1.63 1.63 0 0 1 .5 1.1 1.19 1.19 0 0 1 -.3 1zm3-8.7a5.89 5.89 0 0 1 -1.2 1.6l-.7.7a2.09 2.09 0 0 0 -.8 1.6v.6h-2.4a4.45 4.45 0 0 1 .4-2 5.89 5.89 0 0 1 1.2-1.6 12.52 12.52 0 0 0 1.1-1.2 1.65 1.65 0 0 0 .2-1 1.44 1.44 0 0 0 -.5-1.2 1.54 1.54 0 0 0 -2.1.1 1.7 1.7 0 0 0 -.5 1.2h-2.8a3.8 3.8 0 0 1 1.2-2.8 5 5 0 0 1 3.1-1 4.47 4.47 0 0 1 3.1 1 3.1 3.1 0 0 1 1 2.4 2.7 2.7 0 0 1 -.3 1.6z"/></g></svg>