<svg height="48" viewBox="0 0 48 48" width="48" xmlns="http://www.w3.org/2000/svg"><path d="m22 44v-5.1l1.3-1.3 5.1 5.1-1.3 1.3z" fill="#424242"/><path d="m38.4 22.5 2.5-2.5 5.1 5.1-2.5 2.5z" fill="#ef5350"/><path d="m24.5 36.4 12.7-12.7 5 5-12.6 12.7z" fill="#f57c00"/><path d="m39.486 18.586c.154-.154.33-.269.514-.362v-6.224h-32v16h22.072z" fill="#ddd"/><path d="m28.272 29.8h-20.072c-1.1 0-2-.9-2-2v-15.6c0-1.1.9-2 2-2h31.5c1.1 0 2 .9 2 2v5.971c.222.097.432.232.614.414l1.686 1.687v-8.272c0-2.2-1.8-4-4-4h-32c-2.2 0-4 1.8-4 4v16c0 2.2 1.8 4 4 4h18.072z" fill="#455a64"/></svg>