<svg height="48" viewBox="0 0 48 48" width="48" xmlns="http://www.w3.org/2000/svg"><g fill="#999"><path d="m19.8 25.8 1.2 1.6h-6.1a12.28 12.28 0 0 0 .4-3.3 13.39 13.39 0 0 0 -.5-3.5h6.2l-1.1 1.6-1.4 1.8z"/><path d="m6 32.9v-18a9.7 9.7 0 0 1 6.2 5.3c0 .1.1.1.1.2a10.57 10.57 0 0 1 .7 3.6 11.62 11.62 0 0 1 -.7 3.6 9.14 9.14 0 0 1 -6.3 5.3z"/><path d="m7.8 12.7 11.7-6.7-6.4 11a11.81 11.81 0 0 0 -5.3-4.3z"/><path d="m13.2 31 6.3 11-11.7-6.7a12.63 12.63 0 0 0 5.4-4.3z"/></g><path d="m42 24-10 13-10-13 10-13z" fill="#26a69a"/></svg>