<svg height="48" viewBox="0 0 48 48" width="48" xmlns="http://www.w3.org/2000/svg"><path d="m28.3 35-1 2.1c5.7.4 9.2 1.6 10.3 2.4-1.2.9-5.9 2.5-13.6 2.5s-12.4-1.6-13.6-2.5c1-.8 4.4-2 10-2.3l-1-2.1c-6.6.5-11.4 2.2-11.4 4.3 0 2.5 7.2 4.6 16 4.6s16-2.1 16-4.6c0-2.1-5-3.9-11.7-4.4z" fill="#424242"/><path d="m24 4a11 11 0 0 0 -9.5 16.6l9.3 20.4 9.5-20.3a11 11 0 0 0 -3.6-15.1 11.39 11.39 0 0 0 -5.7-1.6zm.9 13 .5.2 2.8 6.6a.73.73 0 0 1 -.34 1h-.06c-.1 0-.2.1-.3.1h-7a.79.79 0 0 1 -.8-.78s0 0 0 0a.37.37 0 0 1 .1-.3l2.8-6.6.5-.2a3.85 3.85 0 0 1 -2.9-4.6 4 4 0 0 1 4.7-2.9 3.85 3.85 0 0 1 2.9 4.6 3.89 3.89 0 0 1 -2.9 2.88z" fill="#303f9f"/></svg>