<svg height="48" viewBox="0 0 48 48" width="48" xmlns="http://www.w3.org/2000/svg"><g fill="#555"><path d="m22.34 11.08q-2.58-3.38-7.85-3.37t-7.9 3.46q-2.59 3.46-2.59 10.38v5.55q.06 6.72 2.7 10.15c1.76 2.28 4.37 3.43 7.83 3.43s6.15-1.17 7.88-3.51 2.59-5.83 2.59-10.44v-5.55q-.06-6.73-2.66-10.1zm-2.77 16.84q-.06 4.27-1.28 6.27a4.07 4.07 0 0 1 -3.75 2 4.14 4.14 0 0 1 -3.88-2.19 13.72 13.72 0 0 1 -1.24-6.59v-7.13a12.3 12.3 0 0 1 1.28-6.12 4.13 4.13 0 0 1 3.79-2 4.15 4.15 0 0 1 3.86 2.07q1.21 2.07 1.21 6.51v7.14z"/><path d="m44 40h-5v-25.35l-8 2.64v-4.71l12.33-4.58h.67z"/></g></svg>