<svg height="48" viewBox="0 0 48 48" width="48" xmlns="http://www.w3.org/2000/svg"><path d="m35.5 38.7c-.3 0-.6-.2-.7-.5-.2-.6-.6-1.2-1-1.8-.1-.2-.2-.4-.2-.6s.2-.4.4-.5c1.4-.7 2.6-1.7 3.5-2.9.2-.2.3-.5.5-.7.2-.3.7-.4 1-.2s.4.7.2 1-.4.5-.5.8c-.9 1.2-2 2.2-3.2 2.9.3.5.5.9.7 1.5.1.4-.1.8-.4 1-.1-.1-.2 0-.3 0z" fill="#555"/><path d="m10.8 13.3c-.2 0-.3 0-.4-.1-.3-.2-.4-.7-.2-1 4.9-6.5 13.5-8.9 21.1-5.8 1.3.6 2.6 1.3 3.8 2.1.3.2.4.7.2 1s-.7.4-1 .2c-1.1-.8-2.2-1.5-3.5-2-7-2.9-14.9-.7-19.3 5.3-.2.2-.4.3-.7.3z" fill="#555"/><path d="m23.7 24.3c-1 .6-1.7 1.7-1.7 2.9v7.7c0 1.1.6 2.2 1.7 2.8l6.7 3.8c1 .6 2.3.6 3.3 0l6.7-3.8c1-.6 1.7-1.7 1.7-2.9v-7.7c0-1.2-.6-2.3-1.7-2.9l-6.7-3.8c-1-.6-2.3-.6-3.3 0z" fill="#4eb600"/><g fill="#555"><path d="m29.6 10.7c.9.4 1.9 1 2.7 1.6 2.6 2 4.2 4.8 4.8 7.8l1.5.9c-.4-3.8-2.4-7.4-5.7-9.9-.9-.7-1.9-1.2-3-1.7-6.1-2.5-13.1-.6-17 4.7-3.5 4.6-5.2 10.5-4.9 16.5 0 .4.4.7.8.7s.7-.4.7-.8c-.1-5.7 1.5-11.2 4.7-15.5 3.5-4.7 9.8-6.5 15.4-4.3z"/><path d="m20 34.9v-3.5c-.2-1.6-.2-3.2 0-4.7 0-.6.2-1.2.4-1.7.4-1.4 1.1-2.8 2-4 .4-.5 1-.9 1.7-1s1.4.1 2 .5l1.4-.8c-.1-.1-.3-.3-.4-.4-.9-.7-2-1-3.1-.8-1.1.1-2 .7-2.7 1.6-2.8 3.7-3.6 8.8-2.3 13.6.1.7.1 1.4-.3 2-.3.6-.9 1-1.6 1.2-.6.2-1.2.1-1.7-.1-.7-.3-1.3-.9-1.5-1.7-1.9-6.3-.7-13.1 3-18.1 1.9-2.4 4.7-3.8 7.6-3.8 1.2 0 2.4.2 3.6.9.7.3 1.4.6 2 1.1 1 .8 1.9 1.8 2.5 2.8.7.1 1.4.3 2 .6-.7-1.8-1.9-3.5-3.6-4.8-.7-.5-1.5-1-2.3-1.3-4.7-1.9-10-.4-13 3.6-4 5.3-5.3 12.6-3.4 19.4.3 1.2 1.2 2.2 2.4 2.7.5.2 1.1.3 1.6.3.4 0 .8 0 1.2-.1 1.1-.2 2-.9 2.5-1.9.1-.1.1-.3.2-.4-.1-.3-.2-.8-.2-1.2z"/><path d="m28 42.7c-1.1-.5-2.2-1.2-3.2-2l-2.2-1.2c-.6-.4-1.1-.8-1.5-1.4-.8 1-1.9 1.8-3.2 2.2-.7.2-1.3.2-2 .2-.4-.1-.8.3-.8.7s.3.8.7.8c.9 0 1.7-.1 2.5-.3 1.4-.4 2.6-1.1 3.5-2.1.5.7 1.2 1.3 1.8 1.9 1.2 1.1 2.5 1.9 3.9 2.5.1.1.2.1.3.1.3 0 .6-.1.6-.4.2-.4 0-.8-.4-1z"/><path d="m26.8 17.1c.5.2.9.4 1.3.7s.7.6 1 1l.2-.1c.4-.2.8-.4 1.3-.5-.4-.6-1-1.2-1.6-1.7-.5-.4-1-.7-1.6-.9-3.2-1.3-6.9-.3-9 2.5-3.4 4.5-4.4 10.7-2.8 16.5.1.4.4.6.7.6h.2c.4-.1.6-.5.5-.9-1.4-5.4-.5-11.1 2.6-15.2 1.7-2.3 4.6-3.1 7.2-2z"/></g></svg>