<svg height="48" viewBox="0 0 48 48" width="48" xmlns="http://www.w3.org/2000/svg"><path d="m42 38h-23v-28h23z" fill="#1f6d42"/><path d="m21 12h19v24h-19z" fill="#fff"/><g fill="#1f6d42"><path d="m34 14h4v2h-4z"/><path d="m34 18h4v2h-4z"/><path d="m34 22h4v2h-4z"/><path d="m34 26h4v2h-4z"/><path d="m34 30h4v2h-4z"/><path d="m28 14h4v2h-4z"/><path d="m28 18h4v2h-4z"/><path d="m28 22h4v2h-4z"/><path d="m28 26h4v2h-4z"/><path d="m28 30h4v2h-4z"/><path d="m6 9.8 24-3.8v36l-24-3.7z"/></g><path d="m10.5 32 6.3-7.8-5.6-7.8h2.6l3 4.2a15.7 15.7 0 0 1 1.3 2c.4-.6.8-1.2 1.3-1.9l3.3-5.3h2.4l-5.7 8.7 6.2 8.6h-2.7l-4.1-5.8a10.54 10.54 0 0 1 -.7-1.1 11.84 11.84 0 0 1 -.8 1.2l-4.1 5z" fill="#fff"/></svg>