<svg height="48" viewBox="0 0 48 48" width="48" xmlns="http://www.w3.org/2000/svg"><path d="m42 38h-24v-28h24z" fill="#2a5da4"/><path d="m19 12h21v24h-21z" fill="#fff"/><g fill="#2a5da4"><path d="m29 14h9v2h-9z"/><path d="m29 18h9v2h-9z"/><path d="m29 22h9v2h-9z"/><path d="m29 26h9v2h-9z"/><path d="m29 30h9v2h-9z"/><path d="m6 9.8 23-3.8v36l-23-3z"/></g><path d="m12.4 31.2-3.46-13.57 1.81-.3 2 9c.15.9.45 1.81.6 2.71a12.26 12.26 0 0 1 .6-2.41l2.41-10.1 2.11-.3 1.81 8.14c.45 1.66.75 3.17 1.06 4.67a24.49 24.49 0 0 1 .6-2.86l2-10.86 1.66-.3-3.6 16.49-1.66-.15-2.67-10.56a9.93 9.93 0 0 0 -.45-1.51 8.68 8.68 0 0 0 -.3 1.51l-2.72 10.56-1.81-.15z" fill="#fff"/></svg>