<svg height="48" viewBox="0 0 48 48" width="48" xmlns="http://www.w3.org/2000/svg"><path d="m9.2 39 7.6-7.6c1 .4 2 .6 3.1.6 4.4 0 8-3.6 8-8 0-.6-.1-1.2-.2-1.7l-4.7 4.7-4.8-1.3-1.2-4.8 4.7-4.7c-.5-.1-1.1-.2-1.7-.2-4.4 0-8 3.6-8 8 0 1.1.2 2.2.6 3.1l-7.6 7.6c-1.2 1.2-1.2 3.1 0 4.2s3.1 1.3 4.2.1z" fill="#0097a7"/><g fill="#555"><path d="m33 13-3 3 6 6h-6.3c.1.5.2 1.2.2 2 0 .7-.1 1.4-.2 2h6.3l-6 6 3 3 11-11z"/><path d="m8.7 28.1c-.4-1.3-.7-2.7-.7-4.1 0-6.6 5.4-12 12-12 2.4 0 4.6.7 6.5 1.9l.7-.7 2.2-2.2c-2.6-1.9-5.8-3-9.3-3-8.9 0-16.1 7.2-16.1 16 0 2.6.6 5 1.7 7.2z"/><path d="m26.5 34.1c-1.9 1.2-4.1 1.9-6.5 1.9-1.5 0-2.9-.3-4.2-.8l-3 3c2.2 1.2 4.6 1.8 7.2 1.8 3.5 0 6.7-1.1 9.3-3l-2.1-2.2z"/></g></svg>