<svg height="48" viewBox="0 0 48 48" width="48" xmlns="http://www.w3.org/2000/svg"><path d="m18 42h-6c-1.1 0-2-.9-2-2v-32c0-1.1.9-2 2-2h16v6c0 2.2 1.8 4 4 4h6v6h2v-7l-11-11h-17c-2.2 0-4 1.8-4 4v32c0 2.2 1.8 4 4 4h6zm12-34.2 6.2 6.2h-4.2c-1.1 0-2-.9-2-2z" fill="#555"/><path d="m32 14h4.2l-6.2-6.2v4.2c0 1.1.9 2 2 2z" fill="#fff"/><path d="m18 24.6c0-1.4 1.2-2.6 2.6-2.6h17.4v-6h-6c-2.2 0-4-1.8-4-4v-6h-16c-1.1 0-2 .9-2 2v32c0 1.1.9 2 2 2h6z" fill="#fff"/><g fill="#555"><path d="m14 14h10v2h-10z"/><path d="m14 20h20v2h-20z"/><path d="m14 26h4v2h-4z"/><path d="m14 32h4v2h-4z"/></g><path d="m20 24h20v20h-20z" fill="#ff7043"/><path d="m36 34-10 6v-12z" fill="#fff"/></svg>