<svg height="48" viewBox="0 0 48 48" width="48" xmlns="http://www.w3.org/2000/svg"><path d="m34.5 27h7.5v-6h-7.5a10.66 10.66 0 0 1 .5 3.07 9.74 9.74 0 0 1 -.5 2.93z" fill="#999"/><path d="m13.5 21h-7.5v6h7.5a9.74 9.74 0 0 1 -.45-2.93 10.66 10.66 0 0 1 .45-3.07z" fill="#999"/><g fill="#d32f2f"><path d="m33.9 19.2 8.1-13.2-13.28 8.17a10.86 10.86 0 0 1 5.18 5.03z"/><path d="m33.9 28.88a10.9 10.9 0 0 1 -5 5l13.1 8.12z"/><path d="m19.35 14.25-13.35-8.25 8.25 13.35a10.88 10.88 0 0 1 5.1-5.1z"/><path d="m14.17 28.72-8.17 13.28 13.2-8.18a10.69 10.69 0 0 1 -5.03-5.1z"/><circle cx="24" cy="24" r="8"/></g></svg>