<svg height="48" viewBox="0 0 48 48" width="48" xmlns="http://www.w3.org/2000/svg"><path d="m33 14h-9a4 4 0 0 0 -4 4v20a4 4 0 0 0 4 4h14a4 4 0 0 0 4-4v-15zm5.17 8h-2.17a2 2 0 0 1 -2-2v-2.17zm1.83 16a2 2 0 0 1 -2 2h-14a2 2 0 0 1 -2-2v-20a2 2 0 0 1 2-2h8v4a4 4 0 0 0 4 4h4z" fill="#555"/><path d="m36 22h2.17l-4.17-4.17v2.17a2 2 0 0 0 2 2z" fill="#fff"/><path d="m36 24a4 4 0 0 1 -4-4v-4h-8a2 2 0 0 0 -2 2v20a2 2 0 0 0 2 2h14a2 2 0 0 0 2-2v-14z" fill="#fff"/><path d="m18 32h-8a2 2 0 0 1 -2-2v-20a2 2 0 0 1 2-2h8v4a4 4 0 0 0 1 2.65 6.17 6.17 0 0 1 1.39-1.45 2 2 0 0 1 -.39-1.2v-2.17l2.4 2.4a5.63 5.63 0 0 1 1.6-.23h1l-6-6h-9a4 4 0 0 0 -4 4v20a4 4 0 0 0 4 4h8z" fill="#555"/><g fill="#fff"><path d="m22.4 12.22-2.4-2.39v2.17a2 2 0 0 0 .41 1.2 6.17 6.17 0 0 1 1.99-.98z"/><path d="m18 18a6 6 0 0 1 1-3.35 4 4 0 0 1 -1-2.65v-4h-8a2 2 0 0 0 -2 2v20a2 2 0 0 0 2 2h8z"/></g></svg>