<svg height="48" viewBox="0 0 48 48" width="48" xmlns="http://www.w3.org/2000/svg"><path d="m35 8h-11a4 4 0 0 0 -4 4v24a4 4 0 0 0 4 4h16a4 4 0 0 0 4-4v-19zm5.17 8h-2.17a2 2 0 0 1 -2-2v-2.17zm1.83 20a2 2 0 0 1 -2 2h-16a2 2 0 0 1 -2-2v-24a2 2 0 0 1 2-2h10v4a4 4 0 0 0 4 4h4z" fill="#555"/><path d="m38 16h2.17l-4.17-4.17v2.17a2 2 0 0 0 2 2z" fill="#fff"/><path d="m38 18a4 4 0 0 1 -4-4v-4h-10a2 2 0 0 0 -2 2v24a2 2 0 0 0 2 2h16a2 2 0 0 0 2-2v-18z" fill="#fff"/><path d="m27 8h-11a4 4 0 0 0 -4 4v24a4 4 0 0 0 4 4h16a4 4 0 0 0 4-4v-19zm5.17 8h-2.17a2 2 0 0 1 -2-2v-2.17zm1.83 20a2 2 0 0 1 -2 2h-16a2 2 0 0 1 -2-2v-24a2 2 0 0 1 2-2h10v4a4 4 0 0 0 4 4h4z" fill="#555"/><path d="m30 16h2.17l-4.17-4.17v2.17a2 2 0 0 0 2 2z" fill="#fff"/><path d="m30 18a4 4 0 0 1 -4-4v-4h-10a2 2 0 0 0 -2 2v24a2 2 0 0 0 2 2h16a2 2 0 0 0 2-2v-18z" fill="#fff"/><path d="m19 8h-11a4 4 0 0 0 -4 4v24a4 4 0 0 0 4 4h16a4 4 0 0 0 4-4v-19zm5.17 8h-2.17a2 2 0 0 1 -2-2v-2.17zm1.83 20a2 2 0 0 1 -2 2h-16a2 2 0 0 1 -2-2v-24a2 2 0 0 1 2-2h10v4a4 4 0 0 0 4 4h4z" fill="#555"/><path d="m22 16h2.17l-4.17-4.17v2.17a2 2 0 0 0 2 2z" fill="#fff"/><path d="m22 18a4 4 0 0 1 -4-4v-4h-10a2 2 0 0 0 -2 2v24a2 2 0 0 0 2 2h16a2 2 0 0 0 2-2v-18z" fill="#fff"/><g fill="#ffa726"><path d="m10 8h6v32h-6z"/><path d="m4 24h40v6h-40z"/></g></svg>