<svg height="48" viewBox="0 0 48 48" width="48" xmlns="http://www.w3.org/2000/svg"><circle cx="24" cy="24" fill="#ffcc80" r="18"/><path d="m31 34.09h-13.62v-2.71l6.44-6.86a16.05 16.05 0 0 0 2-2.53 4.1 4.1 0 0 0 .64-2 3 3 0 0 0 -.67-2.08 2.4 2.4 0 0 0 -1.91-.76 2.62 2.62 0 0 0 -2.11.92 3.63 3.63 0 0 0 -.77 2.38h-4a6.51 6.51 0 0 1 .87-3.32 6.19 6.19 0 0 1 2.45-2.36 7.48 7.48 0 0 1 3.6-.85 7 7 0 0 1 4.78 1.48 5.21 5.21 0 0 1 1.7 4.17 6.73 6.73 0 0 1 -.77 3 16.81 16.81 0 0 1 -2.63 3.58l-4.53 4.77h8.53z" fill="#fff"/></svg>