<svg height="48" viewBox="0 0 48 48" width="48" xmlns="http://www.w3.org/2000/svg"><path d="m35 8h-11a4 4 0 0 0 -4 4v24a4 4 0 0 0 4 4h16a4 4 0 0 0 4-4v-19zm5.17 8h-2.17a2 2 0 0 1 -2-2v-2.17zm1.83 20a2 2 0 0 1 -2 2h-16a2 2 0 0 1 -2-2v-24a2 2 0 0 1 2-2h10v4a4 4 0 0 0 4 4h4z" fill="#555"/><path d="m38 16h2.17l-4.17-4.17v2.17a2 2 0 0 0 2 2z" fill="#fff"/><path d="m38 18a4 4 0 0 1 -4-4v-4h-10a2 2 0 0 0 -2 2v24a2 2 0 0 0 2 2h16a2 2 0 0 0 2-2v-18z" fill="#fff"/><path d="m27 8h-11a4 4 0 0 0 -4 4v24a4 4 0 0 0 4 4h16a4 4 0 0 0 4-4v-19zm5.17 8h-2.17a2 2 0 0 1 -2-2v-2.17zm1.83 20a2 2 0 0 1 -2 2h-16a2 2 0 0 1 -2-2v-24a2 2 0 0 1 2-2h10v4a4 4 0 0 0 4 4h4z" fill="#555"/><g fill="#fff"><path d="m30 16h2.17l-4.17-4.17v2.17a2 2 0 0 0 2 2z"/><path d="m30 18a4 4 0 0 1 -4-4v-4h-10a2 2 0 0 0 -2 2v24a2 2 0 0 0 2 2h16a2 2 0 0 0 2-2v-18z"/><path d="m22 16h2.17l-4.17-4.17v2.17a2 2 0 0 0 2 2z"/><path d="m22 18a4 4 0 0 1 -4-4v-4h-10a2 2 0 0 0 -2 2v24a2 2 0 0 0 2 2h16a2 2 0 0 0 2-2v-18z"/></g><path d="m12 28a6 6 0 0 1 6-6 5.82 5.82 0 0 1 4.3 1.8l1.4-1.4a8 8 0 0 0 -11.3-.1 8.23 8.23 0 0 0 -2.4 5.7h-3l4 4 4-4z" fill="#303f9f"/><path d="m25 24-4 4h3a6 6 0 0 1 -6 6 5.82 5.82 0 0 1 -4.3-1.8l-1.4 1.4a8 8 0 0 0 11.3.1 8.23 8.23 0 0 0 2.4-5.7h3z" fill="#303f9f"/><path d="m27.79 30a10.06 10.06 0 0 1 -1.79 4v2a2 2 0 0 1 -2 2h-16a2 2 0 0 1 -2-2v-24a2 2 0 0 1 2-2h10v4a4 4 0 0 0 4 4h4v4c.12.15.22.31.33.47l.09.07 1.58 1.61v-7.15l-9-9h-11a4 4 0 0 0 -4 4v24a4 4 0 0 0 4 4h16a4 4 0 0 0 4-4v-6zm-7.79-18.17 4.17 4.17h-2.17a2 2 0 0 1 -2-2z" fill="#555"/><path d="m6 28a9.92 9.92 0 0 1 .84-4h-2.84v6h2.2a10.2 10.2 0 0 1 -.2-2z" fill="#ffa726"/><path d="m16 18.2v-10.2h-6v14a10 10 0 0 1 6-3.8z" fill="#ffa726"/><path d="m29.16 24a9.92 9.92 0 0 1 .84 4 10.2 10.2 0 0 1 -.2 2h14.2v-6z" fill="#ffa726"/><path d="m10 34v6h6v-2.2a10 10 0 0 1 -6-3.8z" fill="#ffa726"/></svg>