<svg height="22" viewBox="0 0 22 22" width="22" xmlns="http://www.w3.org/2000/svg"><path d="m2 0h18c1.1 0 2 .9 2 2v18c0 1.1-.9 2-2 2h-18c-1.1 0-2-.9-2-2v-18c0-1.1.9-2 2-2z" fill="#aaa"/><path d="m20 21h-18c-.6 0-1-.4-1-1v-18c0-.6.4-1 1-1h18c.6 0 1 .4 1 1v18c0 .6-.4 1-1 1z" fill="#f7f7f7"/><path d="m15 18h-8c-1.1 0-2-.9-2-2v-10c0-1.1.9-2 2-2h6l4 4v8c0 1.1-.9 2-2 2z" fill="#555"/><g fill="#fff"><path d="m14 9c-1.1 0-2-.9-2-2v-2h-5c-.6 0-1 .4-1 1v10c0 .6.4 1 1 1h8c.6 0 1-.4 1-1v-7z"/><path d="m14 8h1.6l-2.6-2.6v1.6c0 .6.4 1 1 1z"/></g></svg>