<svg height="48" viewBox="0 0 48 48" width="48" xmlns="http://www.w3.org/2000/svg"><path d="m32 14h4.17l-6.17-6.17v4.17a2 2 0 0 0 2 2z" fill="#fff"/><path d="m32 16a4 4 0 0 1 -4-4v-6h-16a2 2 0 0 0 -2 2v32a2 2 0 0 0 2 2h24a2 2 0 0 0 2-2v-24z" fill="#fff"/><path d="m29 4h-17a4 4 0 0 0 -4 4v32a4 4 0 0 0 4 4h24a4 4 0 0 0 4-4v-25zm7.17 10h-4.17a2 2 0 0 1 -2-2v-4.17zm1.83 26a2 2 0 0 1 -2 2h-24a2 2 0 0 1 -2-2v-32a2 2 0 0 1 2-2h16v6a4 4 0 0 0 4 4h6z" fill="#555"/><path d="m8 20h32v14h-32z" fill="#555"/><g fill="#fff"><path d="m18.91 27.6h-3v1.91h3.58v1.49h-5.54v-8h5.52v1.49h-3.59v1.69h3v1.42z"/><path d="m24.23 25.66 1.19-2.66h2l-2 4 2.08 4h-2l-1.22-2.71-1.28 2.71h-2l2.08-4-2-4h2z"/><path d="m35 24.49h-2.48v6.51h-2v-6.51h-2.52v-1.49h7z"/></g></svg>