<svg height="48" viewBox="0 0 48 48" width="48" xmlns="http://www.w3.org/2000/svg"><path d="m32 33.69-6.58-8.46a2 2 0 0 1 1.58-3.23h7v-8h-4a4 4 0 0 1 -4-4v-4h-14a2 2 0 0 0 -2 2v28a2 2 0 0 0 2 2h20z" fill="#fff"/><path d="m14 12h6v2h-6z" fill="#555"/><path d="m14 18h16v2h-16z" fill="#555"/><path d="m34 46 4-4v-9l7-9h-18l7 9z" fill="#ffa726"/><g fill="#555"><path d="m29.13 30h-15.13v2h16v-.89z"/><path d="m25.42 25.23a2 2 0 0 1 -.42-1.23h-11v2h12z"/><path d="m32 38h-20a2 2 0 0 1 -2-2v-28a2 2 0 0 1 2-2h14v4a4 4 0 0 0 4 4h4v8h2v-9l-9-9h-15a4 4 0 0 0 -4 4v28a4 4 0 0 0 4 4h20zm-4-30.17 4.17 4.17h-2.17a2 2 0 0 1 -2-2z"/></g><path d="m30 12h2.17l-4.17-4.17v2.17a2 2 0 0 0 2 2z" fill="#fff"/></svg>