<svg height="48" viewBox="0 0 48 48" width="48" xmlns="http://www.w3.org/2000/svg"><path d="m18 16h12c2.2 0 4 1.8 4 4v6c0 2.2-1.8 4-4 4h-12c-2.2 0-4-1.8-4-4v-6c0-2.2 1.8-4 4-4z" fill="#ffcc80"/><g fill="#455a64"><path d="m7.4 6h31.8c1.4 0 2.3 1.3 1.9 2.6l-.7 2c-.3.8-1 1.4-1.9 1.4h-31.7c-1.4 0-2.3-1.3-1.9-2.6l.7-2c.2-.8 1-1.4 1.8-1.4z"/><path d="m7.4 34h23.8c1.4 0 2.3 1.3 1.9 2.6l-.7 2c-.3.8-1 1.4-1.9 1.4h-23.7c-1.4 0-2.3-1.3-1.9-2.6l.7-2c.2-.8 1-1.4 1.8-1.4z"/><path d="m7.4 20h6.6v6h-7.2c-1.4 0-2.3-1.3-1.9-2.6l.7-2c.2-.8 1-1.4 1.8-1.4z"/><path d="m34 20h7.2c1.4 0 2.3 1.3 1.9 2.6l-.7 2c-.3.8-1 1.4-1.9 1.4h-6.5z"/></g><path d="m18 20h12v6h-12z" fill="#f57c00"/></svg>