<svg height="48" viewBox="0 0 48 48" width="48" xmlns="http://www.w3.org/2000/svg"><path d="m35 27.1-3.7-9.1-3.6 9.1-9.4.8 7.1 6.5-2.1 9.6 8-5.1 8 5.1-2.1-9.6 7.1-6.5z" fill="#ffa726"/><g fill="#777"><path d="m29 18.3.4-1.1c.3-.8 1-1.3 1.9-1.3.8 0 1.5.5 1.9 1.2l3.2 7.9 7.6.7v-13.7c0-2.2-1.8-4-4-4h-24c-2.2 0-4 1.8-4 4v4h12.6c1.8 0 3.5.9 4.4 2.3z"/><path d="m17 29.4c-.6-.5-.8-1.4-.5-2.1.3-.8.9-1.3 1.7-1.4l8.1-.7 1.7-4.2c-.2-1.7-1.6-3-3.4-3h-17.2c-1.9 0-3.4 1.5-3.4 3.3v9.4c0 1.8 1.5 3.3 3.4 3.3h.6v7l7-7h7z"/></g></svg>