<svg height="48" viewBox="0 0 48 48" width="48" xmlns="http://www.w3.org/2000/svg"><path d="m4 36v-24c0-2.2 1.8-4 4-4h32c2.2 0 4 1.8 4 4v24c0 2.2-1.8 4-4 4h-32c-2.2 0-4-1.8-4-4z" fill="#555"/><path d="m6 36v-24c0-1.1.9-2 2-2h32c1.1 0 2 .9 2 2v24c0 1.1-.9 2-2 2h-32c-1.1 0-2-.9-2-2z" fill="#fff"/><path d="m8 12h6v2h-6z" fill="#555"/><path d="m8 14h12v4h-12z" fill="#ccc"/><path d="m24 12h4v2h-4z" fill="#555"/><path d="m24 14h16v4h-16z" fill="#ccc"/><path d="m8 20h10v2h-10z" fill="#555"/><path d="m8 22h18v4h-18z" fill="#ccc"/><path d="m30 20h6v2h-6z" fill="#555"/><path d="m30 22h10v4h-10z" fill="#ccc"/><path d="m8 28h8v2h-8z" fill="#555"/><path d="m8 30h32v6h-32z" fill="#ccc"/></svg>