<svg height="48" viewBox="0 0 48 48" width="48" xmlns="http://www.w3.org/2000/svg"><path d="m10 22c0-3.3 2.7-6 6-6h20v-4c0-2.2-1.8-4-4-4h-24c-2.2 0-4 1.8-4 4v14c0 2.2 1.8 4 4 4h2z" fill="#555"/><path d="m10 22c0-3.3 2.7-6 6-6h18v-4c0-1.1-.9-2-2-2h-24c-1.1 0-2 .9-2 2v14c0 1.1.9 2 2 2h2z" fill="#fff"/><g fill="#555"><path d="m8 12h6v2h-6z"/><path d="m24 12h4v2h-4z"/><path d="m12 36v-14c0-2.2 1.8-4 4-4h24c2.2 0 4 1.8 4 4v14c0 2.2-1.8 4-4 4h-24c-2.2 0-4-1.8-4-4z"/></g><path d="m14 36v-14c0-1.1.9-2 2-2h24c1.1 0 2 .9 2 2v14c0 1.1-.9 2-2 2h-24c-1.1 0-2-.9-2-2z" fill="#fff"/><path d="m16 30h4v2h-4z" fill="#555"/><path d="m16 32h10v4h-10z" fill="#ccc"/><path d="m28 30h8v2h-8z" fill="#555"/><path d="m28 32h12v4h-12z" fill="#ccc"/><path d="m16 22h6v2h-6z" fill="#555"/><path d="m16 24h14v4h-14z" fill="#ccc"/><path d="m32 22h4v2h-4z" fill="#555"/><path d="m32 24h8v4h-8z" fill="#ccc"/><path d="m16 16h6v-2h-14v4h3.5c1.1-1.2 2.7-2 4.5-2z" fill="#ccc"/><path d="m24 14h8v2h-8z" fill="#ccc"/><path d="m10.4 20h-2.4v2h2c0-.7.1-1.4.4-2z" fill="#555"/><path d="m8 22h2v4h-2z" fill="#ccc"/></svg>