<svg height="48" viewBox="0 0 48 48" width="48" xmlns="http://www.w3.org/2000/svg"><path d="m38 10h-4c0-2.209-1.791-4-4-4h-20c-2.209 0-4 1.791-4 4v24c0 2.209 1.791 4 4 4h4c0 2.209 1.791 4 4 4h20c2.209 0 4-1.791 4-4v-24c0-2.209-1.791-4-4-4z" fill="#555"/><path d="m30 8h-20c-1.105 0-2 .895-2 2v24c0 1.105.895 2 2 2h20c1.105 0 2-.895 2-2v-24c0-1.105-.895-2-2-2z" fill="#fff"/><path d="m38 12h-4v22c0 2.209-1.791 4-4 4h-14c0 1.105.895 2 2 2h20c1.105 0 2-.895 2-2v-24c0-1.105-.895-2-2-2z" fill="#fff"/><path d="m28 11-8 8-4-4-4 4v4h16z" fill="#1976d2"/><g fill="#555"><path d="m12 27h16v2h-16z"/><path d="m12 31h12v2h-12z"/></g></svg>