<svg height="48" viewBox="0 0 48 48" width="48" xmlns="http://www.w3.org/2000/svg"><path d="m44 22h-14.3c0-.1-.1-.2-.1-.3-.9-2.3-3.2-3.7-5.6-3.7-2.5 0-4.7 1.5-5.6 3.8 0 .1-.1.2-.1.3h-14.3v4h14.3c0 .1.1.2.1.3 1.2 3.1 4.7 4.6 7.8 3.4 1.6-.6 2.8-1.9 3.4-3.4 0-.1.1-.2.1-.3h14.3z" fill="#455a64"/><g fill="#ce93d8"><path d="m37.7 30h-7c-1.6 1.8-4 3-6.7 3s-5-1.2-6.7-3h-7c.2.5.4.9.7 1.4l-4 3.9 5.7 5.7 3.9-3.9c1.1.6 2.2 1.1 3.4 1.4v5.5h8v-5.6c1.2-.3 2.3-.8 3.4-1.4l3.9 3.9 5.7-5.7-4-3.8c.3-.5.5-.9.7-1.4z"/><path d="m10.3 18h7c1.6-1.8 4-3 6.7-3s5 1.2 6.7 3h7c-.2-.5-.4-.9-.7-1.4l3.9-3.9-5.6-5.7-3.9 4c-1.1-.6-2.2-1.1-3.4-1.4v-5.6h-8v5.6c-1.2.3-2.3.8-3.4 1.4l-3.9-4-5.7 5.7 3.9 3.9c-.2.5-.4.9-.6 1.4z"/></g></svg>