<svg height="48" viewBox="0 0 48 48" width="48" xmlns="http://www.w3.org/2000/svg"><path d="m29 4h-17a4 4 0 0 0 -4 4v32a4 4 0 0 0 4 4h24a4 4 0 0 0 4-4v-25zm7.17 10h-4.17a2 2 0 0 1 -2-2v-4.17zm1.83 26a2 2 0 0 1 -2 2h-24a2 2 0 0 1 -2-2v-32a2 2 0 0 1 2-2h16v6a4 4 0 0 0 4 4h6z" fill="#555"/><path d="m32 14h4.17l-6.17-6.17v4.17a2 2 0 0 0 2 2z" fill="#fff"/><path d="m32 16a4 4 0 0 1 -4-4v-6h-16a2 2 0 0 0 -2 2v32a2 2 0 0 0 2 2h24a2 2 0 0 0 2-2v-24z" fill="#fff"/><path d="m14 14h10v2h-10z" fill="#555"/><path d="m14 20h20v2h-20z" fill="#555"/><path d="m14 26h20v6h-20z" fill="#26a69a"/><path d="m14 36h20v2h-20z" fill="#555"/></svg>