<svg height="48" viewBox="0 0 48 48" width="48" xmlns="http://www.w3.org/2000/svg"><path d="m40.5 25.1v-2.2h-15l4.5-14.3a17.23 17.23 0 0 0 -2.1-.7l-4.5 14.2-8.1-5.9a4.47 4.47 0 1 0 -6 2 4.55 4.55 0 0 0 2 .5 5 5 0 0 0 2.6-.8l8.3 6.1-12.2 8.8a20.28 20.28 0 0 0 1.3 1.8l12-8.8 3.3 10.2a4.52 4.52 0 0 0 5.2 7.4 4.49 4.49 0 0 0 1.14-6.25v-.05a4.42 4.42 0 0 0 -3.7-1.9h-.54l-3.2-10.1z" fill="#1bb5b5"/><circle cx="24" cy="24" fill="#505050" r="6"/><circle cx="10.5" cy="34.5" fill="#0072c6" r="3.8"/><circle cx="29.3" cy="7.5" fill="#149ccc" r="3.8"/><circle cx="40.5" cy="24" fill="#0a87c9" r="3.8"/></svg>