<svg height="48" viewBox="0 0 48 48" width="48" xmlns="http://www.w3.org/2000/svg"><path d="m36.3 21.1-6.3 3.6-5.7-3.4c-.2-.1-.4-.2-.6-.2-2.7 0-6.7 11.6-5.4 16.1 1.3 4.8 11.7 4.8 11.7 4.8s10.4 0 11.8-4.8c1.2-4.6-3-16.2-5.2-16.2-.1 0-.2 0-.3.1z" fill="#4eb600"/><path d="m30 6c-3.9 0-7 3.1-7 7s3.1 7 7 7 7-3.1 7-7-3.1-7-7-7z" fill="#4eb600"/><g fill="#388e3c"><path d="m21.2 14.9c-.4-1.7-.3-3.5.4-5.1-1.2-3.1-4.7-4.6-7.8-3.4s-4.6 4.7-3.4 7.8 4.7 4.6 7.8 3.4c1.3-.5 2.3-1.5 3-2.7z"/><path d="m20.4 21.1c.5-.7 1.1-1.2 1.9-1.6-.2-.3-.5-.4-.8-.5-.1 0-.2 0-.3.1l-5.2 3.1-4.8-2.9c-.1-.1-.3-.2-.5-.2-2.2 0-5.6 10-4.5 13.8 1.1 4.1 9.8 4.1 9.8 4.1h.2c-.8-4.4 1.6-12.5 4.2-15.9z"/></g></svg>