<svg height="48" viewBox="0 0 48 48" width="48" xmlns="http://www.w3.org/2000/svg"><path d="m19.7 29.7c0-3.6 4.3-8.8 8.3-11.8l-1.1-1.4c-3.6 2-7.6 4.8-9 6.3-.6-1.5-1.4-2.9-2.3-4.2l-1.1.7c1.2 2.2 1.6 4.7 1.1 7.2-.4 1-.7 2-1 3-.8 3.3-.6 6.7.6 9.9.4.8.7 1.7 1 2.6h14.7c-.9-.5-1.7-1-2.5-1.7-4.3-2.3-8.7-5.9-8.7-10.6z" fill="#5d4037"/><g fill="#008000"><path d="m29.1 20.6c-.4.9 0 1.9.9 2.2.2.1.4.1.6.1l3.8.4c1.3.1 2.5-.7 2.8-2l3.1-12.8c.3-.9-.2-1.8-1.1-2.1-.2-.1-.5-.1-.7-.1l-13.3.6c-1.3.1-2.3 1.1-2.5 2.4l-.2 3.4c-.1.9.6 1.8 1.5 1.9h.6l5-.9c.6-.3 1.3 0 1.6.6.1.4.1.8-.1 1.1z"/><path d="m15.8 16.4c.8.5 1.8.2 2.3-.6.1-.2.2-.4.2-.6l.1-.4c.2-1.3-.5-2.5-1.7-3l-5.4-2c-.8-.4-1.8 0-2.2.9-.1.2-.1.4-.1.7l-.5 6c-.1 1.3.8 2.4 2.1 2.7h.1c.9.2 1.9-.4 2.1-1.3 0-.2.1-.4 0-.6v-1.2c-.2-.6.2-1.3.9-1.5.4-.1.8 0 1.1.2z"/></g></svg>