<svg height="32" viewBox="0 0 222 32" width="222" xmlns="http://www.w3.org/2000/svg"><g fill="#cc1c1c"><path d="m94.1 29.8h-2.5l2.9-15.1h2.5z"/><path d="m113.6 14.7-2.9 15.1h-2.2l-4.2-10.3-2 10.3h-2.5l2.9-15.1h2.1l4.3 10.5 2-10.5z"/><path d="m130 14.7-2.9 15.1h-2.2l-4.2-10.3-2 10.3h-2.5l2.9-15.1h2.1l4.3 10.5 2-10.5z"/><path d="m137.6 30c-3.4 0-5.2-2.3-4.3-6.8l.4-1.9c.9-4.8 3.4-6.8 7-6.8 3.4 0 5.2 2.3 4.3 6.8l-.4 1.9c-.9 4.8-3.3 6.8-7 6.8zm-1.8-6.8c-.6 3.3.2 4.6 2.2 4.6s3.4-1.3 4-4.6l.4-1.9c.6-3.3-.2-4.6-2.2-4.6s-3.4 1.3-4 4.6z"/><path d="m152 14.7 1.6 11.1 5.9-11.1h2.9l-8.3 15.1h-2.3l-2.4-15.1z"/><path d="m161 29.8 8.2-15.1h2.4l2.3 15.1h-2.6l-.4-3.1h-5.5l-1.6 3.1zm5.6-5.3h4l-.8-6.1z"/><path d="m189.8 14.7-.4 2.2h-4.4l-2.5 12.9h-2.5l2.5-12.9h-4.4l.4-2.2z"/><path d="m195.8 30c-3.4 0-5.2-2.3-4.3-6.8l.4-1.9c.9-4.8 3.4-6.8 7-6.8 3.4 0 5.2 2.3 4.3 6.8l-.4 1.9c-1 4.8-3.3 6.8-7 6.8zm-1.8-6.8c-.6 3.3.2 4.6 2.2 4.6s3.4-1.3 4-4.6l.4-1.9c.6-3.3-.2-4.6-2.2-4.6s-3.4 1.3-4 4.6z"/><path d="m214.9 29.8-1.7-6.1h-3l-1.2 6.1h-2.5l2.9-15.1h5.2c2.9 0 4.8 1.4 4.8 3.9a4.6 4.6 0 0 1 -3.6 4.7l2 6.5zm-1.9-8.3c2.6 0 3.7-.8 3.7-2.8 0-1.3-.9-1.8-2.8-1.8h-2.4l-.9 4.6z"/></g><path d="m3.8 9.2c.4-4.8 3.4-7.2 9.4-7.2 3.2 0 5.7.7 7.3 2.2s2.1 3.1 2.1 6.2v9.7c0 2.3.1 2.6.8 3.6h-6.4a8.45 8.45 0 0 1 -.5-1.7 8.4 8.4 0 0 1 -6.1 2.2c-4.7 0-7.8-2.6-7.8-6.6s2.5-6.1 8.4-7l3.4-.6c1.4-.2 1.9-.6 1.9-1.4 0-1.2-1.2-1.9-3.2-1.9-2.3 0-3.5.8-3.8 2.5zm12.8 4.5a16.33 16.33 0 0 1 -2.3.7l-2.3.4c-2.2.5-3.2 1.3-3.2 2.5 0 1.4 1.2 2.2 3.2 2.2a4.89 4.89 0 0 0 4.6-2.7z" fill="#5a5a5a"/><path d="m34.2 2.6-.2 3.8c1.3-3.5 2.9-4.4 7.4-4.4v5.9a9.74 9.74 0 0 0 -1.6-.1 5 5 0 0 0 -4.6 2.5c-.6 1.4-.8 3.4-.8 7.5v6h-6.2v-21.2z" fill="#5a5a5a"/><path d="m44.3 9.2c.4-4.8 3.4-7.2 9.4-7.2 3.2 0 5.7.7 7.3 2.2s2.1 3.1 2.1 6.2v9.7c0 2.3.1 2.6.8 3.6h-6.4a8.45 8.45 0 0 1 -.5-1.7 8.4 8.4 0 0 1 -6.1 2.2c-4.7 0-7.8-2.6-7.8-6.6s2.5-6.1 8.4-7l3.4-.6c1.4-.2 1.9-.6 1.9-1.4 0-1.2-1.2-1.9-3.2-1.9-2.3 0-3.5.8-3.8 2.5zm12.7 4.5a16.33 16.33 0 0 1 -2.3.7l-2.2.5c-2.2.5-3.2 1.3-3.2 2.5 0 1.4 1.2 2.2 3.2 2.2a4.89 4.89 0 0 0 4.6-2.7v-3.2z" fill="#5a5a5a"/><path d="m80.4 8.9q-.45-2.4-3.6-2.4c-1.8 0-3 .7-3 1.8 0 .8.6 1.2 2.6 1.6l3.9.8c2.6.5 3.9 1.1 4.8 2.1a6 6 0 0 1 1.6 4.3c0 4.5-3.6 7.3-9.5 7.3s-9.5-2.8-9.9-7.5h5.8c.4 2 1.7 2.9 4.2 2.9 2 0 3.2-.8 3.2-2.1 0-1-.7-1.5-2.4-1.9l-3.9-.9c-4.6-1-6.4-2.7-6.4-6.1 0-4.3 3.4-6.8 9-6.8 5.4 0 8.7 2.5 9.3 6.9z" fill="#5a5a5a"/><path d="m86.9 29.8h-51.6l.3-1.5h51.6z" fill="#cc1c1c"/><path d="m171.5 10.1h-78.7l.3-1.5h78.7z" fill="#cc1c1c"/></svg>