<svg height="48" viewBox="0 0 48 48" width="48" xmlns="http://www.w3.org/2000/svg"><path d="m3.76 34.57a2 2 0 0 0 1.7 2l20.28 3.12a4 4 0 0 0 3.7-1.42l14.34-17.56a2 2 0 0 0 -1.24-3.24l-.9-.14 2.14-2.62a2 2 0 0 0 -1.24-3.24l-20.28-3.12a4 4 0 0 0 -3.7 1.42l-14.34 17.52a1.92 1.92 0 0 0 -.45 1.24v6z" fill="#303f9f"/><g fill="#fff"><path d="m21.46 18.53 8.28 1.12a4 4 0 0 0 3.7-1.42l1.34-1.52a2 2 0 0 0 -1.24-3.24l-8.28-1.12a4 4 0 0 0 -3.7 1.42l-1.34 1.52a2 2 0 0 0 1.24 3.24z"/><path d="m29.45 32.23a4 4 0 0 1 -3.7 1.42l-19.75-3.03v4l19.74 3a4 4 0 0 0 3.7-1.42l13.56-16.53v-4z"/></g></svg>