<svg height="48" viewBox="0 0 48 48" width="48" xmlns="http://www.w3.org/2000/svg"><path d="m20.17 32.34a15.37 15.37 0 0 1 .9-5.8 15.24 15.24 0 0 1 3.57-4.75 27.93 27.93 0 0 0 3.36-3.68 6.42 6.42 0 0 0 1.09-3.6 5.5 5.5 0 0 0 -1.27-3.92 4.88 4.88 0 0 0 -3.73-1.35 5.38 5.38 0 0 0 -3.79 1.32 4.63 4.63 0 0 0 -1.44 3.58h-6.62a9.79 9.79 0 0 1 3.29-7.66 12.59 12.59 0 0 1 8.57-2.82q5.49 0 8.57 2.79a10 10 0 0 1 3.08 7.8q0 4.45-4.16 8.79l-3.36 3.31a9.06 9.06 0 0 0 -1.86 6h-6.2zm-.46 8.49a3.5 3.5 0 0 1 1-2.6 3.74 3.74 0 0 1 2.73-1 3.7 3.7 0 0 1 2.76 1 3.74 3.74 0 0 1 0 5.08 3.69 3.69 0 0 1 -2.79 1 3.7 3.7 0 0 1 -2.78-1 3.51 3.51 0 0 1 -.92-2.48z" fill="#303f9f"/></svg>