<svg height="48" viewBox="0 0 48 48" width="48" xmlns="http://www.w3.org/2000/svg"><g fill="#757575"><path d="m17.25 8.25v-4.5c-5.25 0-9 3-9 8.25 0 2.25.75 4.5.75 6.75s-1.95 3-5.25 3v4.5c3.3 0 5.25.75 5.25 3s-.75 4.5-.75 6.75c0 5.25 3.75 8.25 9 8.25v-4.5c-2.25 0-3.75-2.25-3.75-4.5s.75-3.75.75-6c0-3-2.25-5.25-6-5.25 3.75 0 6-2.25 6-5.25 0-2.25-.75-3.75-.75-6s1.5-4.5 3.75-4.5z"/><path d="m39 18.75c0-2.25.75-4.5.75-6.75 0-5.25-3.75-8.25-9-8.25v4.5c2.25 0 3.75 2.25 3.75 4.5s-.75 3.75-.75 6c0 3 2.25 5.25 6 5.25-3.75 0-6 2.25-6 5.25 0 2.25.75 3.75.75 6s-1.5 4.5-3.75 4.5v4.5c5.25 0 9-3 9-8.25 0-2.25-.75-4.5-.75-6.75s2-3 5.25-3v-4.5c-3.25 0-5.25-.75-5.25-3z"/><circle cx="24" cy="36" r="3.75"/></g></svg>