<svg height="48" viewBox="0 0 48 48" width="48" xmlns="http://www.w3.org/2000/svg"><path d="m6.06 6h35.87a.06.06 0 0 1 .07.05v3.95a.06.06 0 0 1 -.06.05h-35.88a.06.06 0 0 1 -.06-.1v-3.9a.06.06 0 0 1 .06-.05z" fill="#555"/><path d="m17 24-11 11v-22z" fill="#1976d2"/><g fill="#555"><path d="m20 14h22a0 0 0 0 1 0 0v4a0 0 0 0 1 0 0h-22a.05.05 0 0 1 0 0v-4a0 0 0 0 1 0 0z"/><path d="m20 22h22a0 0 0 0 1 0 0v4a0 0 0 0 1 0 0h-22a.05.05 0 0 1 0 0v-4a0 0 0 0 1 0 0z"/><path d="m6.06 38h35.87a.05.05 0 0 1 .07 0v4a.06.06 0 0 1 -.06 0h-35.88a.06.06 0 0 1 -.06 0v-4a.06.06 0 0 1 .06 0z"/><path d="m20 30h22a0 0 0 0 1 0 0v4a0 0 0 0 1 0 0h-22a.05.05 0 0 1 0 0v-4a0 0 0 0 1 0 0z"/></g></svg>