<svg height="48" viewBox="0 0 48 48" width="48" xmlns="http://www.w3.org/2000/svg"><path d="m37.5 42h-27c-2.5 0-4.5-2-4.5-4.5v-27c0-2.5 2-4.5 4.5-4.5h27c2.5 0 4.5 2 4.5 4.5v27c0 2.5-2 4.5-4.5 4.5z" fill="#cb2127"/><path d="m37.5 6h-27c-2.5 0-4.5 2-4.5 4.5v1c0-2.5 2-4.5 4.5-4.5h27c2.5 0 4.5 2 4.5 4.5v-1c0-2.5-2-4.5-4.5-4.5z" fill="#fff" opacity=".1"/><path d="m37.5 41h-27c-2.5 0-4.5-2-4.5-4.5v1c0 2.5 2 4.5 4.5 4.5h27c2.5 0 4.5-2 4.5-4.5v-1c0 2.5-2 4.5-4.5 4.5z" opacity=".1"/><path d="m38 19.2c-.1 0-.5.1-.7.2-.8.3-1.6.6-2.3.9-.3.1-.6.2-.8.3-1.1.6-2.2 1.1-3.3 1.5-.4.1-.8.2-1.1.6-.2.3-.5.4-.8.5s-.7.3-.9.6c0 0-.1.1-.2.1-.1-.4-.3-.8-.4-1.1 0-.1.1-.2.1-.2 1.2-.8 2.4-1.6 3.7-2.2.6-.3 1.2-.6 1.7-1 .1 0 .1-.1.1-.2 0 0-.1-.1-.2 0-.2.1-.5.1-.7.2-.6.3-1.2.5-1.8.8-.8.4-1.5.8-2.3 1.2-.2.1-.4.2-.6.3-.1.1-.2.1-.3.2 0-.3-.1-.6-.1-.8s0-.3.2-.4c.6-.3 1.3-.6 1.9-1 1.1-.8 2.3-1.4 3.6-2 .2-.1.6-.3.7-.4s0-.2-.1-.3c-.1 0-.5.1-.7.2-.6.3-1.3.5-1.9.8-.5.2-.9.5-1.3.7-.8.4-1.7.8-2.4 1.3 0 0-.1 0-.2 0-.1-.6-.2-1.3-.3-1.9s-.2-1.2-.6-1.7c0-.1 0-.3-.1-.4 0-.4-.2-.8-.2-1.2 0-.3 0-.4.1-.6.1-.6.1-.5.3-1 .1-.2.2-.5.1-.8-.2.4-.3.7-.6 1.2 0-.2 0-1.4-.1-1.7 0-.3-.1-.7 0-.9.2-.6.6-1.2.9-1.8.1-.3.3-.6.4-.9 0-.1.1-.3 0-.3s-1.5 2.6-2.3 3.9c0 0-.3.7-.3.8-.4 1-.8 1.9-1.1 3-.2.5-.2 1-.3 1.6-.2.9-.5 1.7-.7 2.6-.2.8-.4 1.5-.6 2.3-.1.6-.3 1.2-.4 1.8 0 .2-.4.5-.7.6 0 0 0 0 0-.1.2-1 .4-1.9.6-2.9.2-.7.4-1.4.6-2 .4-1 .6-2 .9-3 .2-.7.5-1.5.8-2.2.2-.6.5-1.2.7-1.8 0-.1.4-.9.4-1 .4-1 1-1.9 1.1-3 0-.1 0-.3 0-.4s0-.1-.1-.1-.3.2-.4.3c-.2.4-.4.9-.6 1.3-.4.8-.8 1.6-1.1 2.5-.3.6-.4 1.3-.7 2-.2.6-.5 1.3-.8 1.9 0 .1-.1.2-.1.3-.1.4-.2.9-.2 1.3-.1.4-.2.6-.4 1s-.2.5-.2.6c0 .3-.1.5-.2.7-.2.5-.5 1-.7 1.5-.1.2-.1.3-.1.5 0 .7-.1 1.3-.3 2-.1.3-.7 1.4-.9 1.6-.3.3-.7.7-1 1-.4.4-.8.7-1.1 1.1-.3.3-.6.6-.9.8-.2.2-.4.4-.6.6-.3.3-.4.7-.8.9-.2.2-.5.4-.7.6-.5.7-1.1 1.4-1.6 2-.4.5-.8 1-1.1 1.5-.5.7-.9 1.5-1.3 2.2-.1.2-.1.5-.1.7s.4.3.6.2c.2 0 .4-.1.6-.3.3-.4.6-.7.9-1l.9-.9c.3-.4.6-.8.9-1.1.7-.7 1.5-1.3 2.3-1.9.6-.5 1.3-.7 1.8-1.3 0 0 .2-.1.2-.2 0 .2-.1.3-.1.4-.1.8-.2 1.5-.3 2.3-.2 1-.3 1.3-.4 2.9.1 1.2 0 2.1 0 3 0 .2-.1.6 0 .6s.6-.1.7-.1.2-.1.2-.3c0-.6 0-1.2 0-1.8 0-1 .1-2 .2-3 .1-.5.2-.8.2-1.1.1-.8.3-1.6.4-2.5 0-.2 0-.5.1-.6.2-.2.5-.4.8-.6 0 .1-.3 1.9-.4 2.7-.1.7-.1 1.3-.1 2-.1.8-.1 1.5-.1 2.3-.1.7-.1 1.4-.2 2.1 0 .3.1.8.2.8s.3-.2.4-.2c.1-.1.1-.2.2-.3.1-.8.2-1.5.2-2.3.1-.9.1-1.8.2-2.6.1-.7.1-1.4.2-2.1s.3-1.5.4-2.2c0-.6.3-.9.7-1.2.1-.1.3-.2.3-.2 0 .2-.1.6-.1.8 0 .4-.1.9-.1 1.3-.1 1.3-.3 2.5-.4 3.8-.1.9-.1 1.7-.1 2.6s-.1 1.6-.1 2.5c0 .2-.1.7 0 .7s.3-.2.5-.2c.1-.1.2-.2.2-.3 0-.2 0-.5 0-.7.1-.6.1-1.1.2-1.7 0-.6 0-1.2.1-1.7 0-.7.1-1.5.2-2.2.1-.8.1-1.7.4-2.5.2-.6.2-1.3.3-1.9 0-.3 0-.7.1-1 0-.1.1-.2.1-.2.6-.3 1.1-.7 1.7-1 .4-.2.4-.2.5.2.2.8.4 1.6.7 2.4.2.8.5 1.7.7 2.5.2 1.1.6 2.2 1 3.3.3.9.7 1.9 1.1 2.8.1.2.1.4.2.5s.3-.2.3-.4c-.1-.5-.1-1.1-.2-1.6s-.3-1-.5-1.6c-.4-1.2-.8-2.4-1.2-3.6-.3-1.2-.6-2.3-.9-3.5-.2-.6-.3-1.2-.3-1.8 0-.1 0-.1 0-.1.2-.1.5-.3.8-.3.1.4.2.7.3 1.1.2.8.4 1.6.7 2.4.2.5.4 1.1.5 1.6.2.5.3 1 .4 1.5l.6 1.5c.3.7.5 1.5.8 2.2.2.6.7 1.7.8 1.7.1.1.4-.5.3-.9-.1-.3-.1-.4-.1-.6-.2-.6-.4-1.1-.6-1.7-.3-.7-.6-1.3-.8-2-.4-1.4-.8-2.7-1.2-4.1-.2-.9-.5-1.8-.7-2.6-.1-.2-.2-.4-.2-.6.2-.2.3-.1.4.1.3.9.5 1.7.8 2.6.3.8.6 1.6.8 2.4.2.6.4 1.3.6 1.9.4 1 .9 2 1.3 3 .3.7.6 1.3.9 2 0 .1.1.3.2.3s.1-.1.2-.2c.2-.3.2-.4 0-.7-.4-.9-.7-1.8-1.1-2.7-.2-.5-1.8-4.1-2-5.6 0-.4-.1-.8-.3-1.2-.4-.7-.6-1.4-.7-2.1 0-.1 0-.2.1-.3.4-.2.9-.5 1.3-.7 1.4-.8 2.8-1.6 4.2-2.3 1.2-.6 2.5-1.2 3.7-1.8.2-.1.4-.3.6-.4-.5 0-.4-.2-.5-.2zm-18.5 9c-.7.5-1.4 1-2.1 1.6-.4.3-.7.7-1 1-.1.1-.1.1-.1.1s-.1-.1 0-.1c.2-.2.4-.5.7-.7.9-.7 1.8-1.5 2.6-2.3.1 0 .1-.1.1-.1 0 .1 0 .3-.2.5zm.3-1.3c-1.2 1-2.3 2.1-3.5 3.2-.1.1-.2.2-.3.4l-.1.1s-.1 0-.1-.1c0 0 .2-.4.4-.5.8-.9 1.7-1.7 2.6-2.6.3-.3.6-.5.9-.7l.4-.4c0 .2-.1.3-.3.6zm.8.5c-.1-.4.1-.6.4-.8.1.5-.1.7-.4.8zm.2-1.2c0-.4 0-.8.4-1 .2.4 0 .7-.4 1zm4-8.4c.1.6.5 2.8.7 3.4.1.1 0 .3-.2.3-.1-.8-.3-1.5-.3-2.3 0-.2-.3-1.4-.2-1.4zm-.2-2.1s.3 1.2.2 1.2c0 .1-.1.4-.1.3-.1 0-.2-1.5-.1-1.5zm-.9 1.9c.1-.4.3-.7.4-1.1l.1-.2c0 .2.1.6.1.8s.1.5.1.7c0 .1-.1.3-.1.4-.1.3-.2.6-.4 1-.1-.1-.1-.1-.1-.1-.1-.4-.1-.7-.1-1-.1-.3-.1-.4 0-.5zm-.1 5.8c.1-.1.2-.1.4-.3.1-.1.1-.1.2.1 0 .1.1.4.1.5s0 .1-.1.1c-.3.2-.6.4-.9.6 0 0 0 0-.1 0 0-.3 0-.7.4-1zm-.2-.5c.1-.5.3-1.5.3-1.5s0-.1 0-.1c.1.1.1.4.1.6v.1c.2.5.1.6-.4.9zm-1.7 3.8c-.1-.7.1-1 .6-1.1.1.5-.1.8-.6 1.1zm.9-2c-.3.2-.4.4-.7.5 0-.1 0-.3.1-.4.1-.2.1-.4.2-.6 0-.1.1-.1.1-.1.1-.1.3-.1.4-.1 0 .3-.1.5-.1.7zm.3-1.5c0 .1-.1.1-.1.2-.1.1-.3.1-.4.2.1-.6.2-1.1.3-1.6s.3-1 .4-1.6c.1-.5.4-1.5.4-1.6s0-.1 0-.1c.1.4.2 1 .1 1.4-.1.2-.1.4-.1.6-.1.4-.2.9-.2 1.3-.2.4-.3.8-.4 1.2zm1.2 2.1c-.4.2-.7.4-1 .7-.1 0-.1.1-.1.1 0-.3 0-.5 0-.8 0-.1 0-.1.1-.1.3-.2.6-.4 1-.7.1-.1.2-.1.3.1 0 .2 0 .5-.3.7zm.3-3.1c0-.1 0-.3-.1-.4-.1-.6-.1-1.1-.3-1.7-.1-.3 0-.5.1-.7s.1-.4.2-.5l.1-.3c.1.2.1.7.1.9s.1.4.1.7c0 .5.1 1 .2 1.4s.1.4-.2.6c0-.2-.1-.1-.2 0zm.8 0c.1.2.1.4.1.7v.1c-.2.2-.4.4-.7.5-.2-.7 0-1 .6-1.3zm.3 2.4c-.2.1-.4.2-.7.3 0-.2-.1-.4-.1-.7 0 0 0-.1.1-.1.2-.1.4-.3.7-.4 0 .1.1.1.1.2.1.1.1.4.1.6-.1 0-.1.1-.2.1zm.3-1.8s-.1-.1-.1-.1c0-.1-.1-.5 0-.6l.1-.1.1.1c.1.2.1.4.1.6-.2-.1-.2.1-.2.1zm.3 1.4c-.1 0-.1-.1-.1-.1-.1-.2-.1-.5-.1-.8 0-.1.1-.1.1-.1.1.3.2.5.4.9-.1 0-.2.1-.3.1z" fill="#fff"/></svg>