<svg height="48" viewBox="0 0 48 48" width="48" xmlns="http://www.w3.org/2000/svg"><circle cx="24" cy="24" fill="#1976d2" r="18"/><g fill="#fff"><path d="m32 14v-2h-6v2h2v20h-2v2h6v-2h-2v-20z"/><path d="m22.63 30.46-.21-1.46h-.08a4.6 4.6 0 0 1 -3.71 1.72 3.77 3.77 0 0 1 -3.94-3.6q0-.13 0-.25c0-3.26 2.81-4.91 7.45-4.88v-.18c0-.85-.33-2.25-2.55-2.25a6.51 6.51 0 0 0 -3.38 1l-.62-2.16a8.88 8.88 0 0 1 4.54-1.14c4 0 5.18 2.63 5.18 5.44v4.67a21 21 0 0 0 .18 3.1h-2.86zm-.42-6.31c-2.24 0-4.38.45-4.38 2.41a1.69 1.69 0 0 0 1.51 1.86h.3a2.57 2.57 0 0 0 2.47-1.78 2.35 2.35 0 0 0 .1-.72z"/></g></svg>