<svg height="48" viewBox="0 0 48 48" width="48" xmlns="http://www.w3.org/2000/svg"><circle cx="24" cy="24" fill="#b0bec5" r="18"/><g fill="#fff"><path d="m32 14v-2h-6v2h2v20h-2v2h6v-2h-2v-20z"/><path d="m22.6 30.5-.2-1.5h-.1c-.9 1.1-2.3 1.8-3.7 1.7-2.1.1-3.8-1.5-3.9-3.6 0-.1 0-.2 0-.3 0-3.3 2.8-4.9 7.4-4.9v-.2c0-.9-.3-2.3-2.5-2.3-1.2 0-2.4.4-3.4 1l-.6-2.2c1.4-.8 3-1.2 4.5-1.1 4 0 5.2 2.6 5.2 5.4v4.7c0 1 0 2.1.2 3.1zm-.4-6.4c-2.2 0-4.4.5-4.4 2.4-.1.9.6 1.8 1.5 1.9h.3c1.1 0 2.1-.7 2.5-1.8.1-.2.1-.5.1-.7z"/></g></svg>