<svg id="Layer_1" data-name="Layer 1" xmlns="http://www.w3.org/2000/svg" width="48" height="48" viewBox="0 0 48 48">
  <defs>
    <style>
      .cls-1{fill:#303f9f}
    </style>
  </defs>
  <path class="cls-1" d="M39 11.9L27 5a6.43 6.43 0 0 0-3-.8 5.45 5.45 0 0 0-3 .8L9 11.9a6 6 0 0 0-3 5.2v13.8a6 6 0 0 0 3 5.2L21 43a6.43 6.43 0 0 0 3 .8 5.45 5.45 0 0 0 3-.8l12-6.9a6 6 0 0 0 3-5.2V17.1a6 6 0 0 0-3-5.2zm-3 19l-12 6.9-12-6.9V17.1l12-6.9 12 6.9z"/>
  <path class="cls-1" d="M24.9 24l.5.2 2.8 6.6a.73.73 0 0 1-.34 1h-.06c-.1 0-.2.1-.3.1h-7a.78.78 0 0 1-.8-.77.37.37 0 0 1 .1-.3l2.8-6.6.5-.2a3.85 3.85 0 0 1-2.9-4.6 4 4 0 0 1 4.7-2.9 3.85 3.85 0 0 1 2.9 4.6A3.9 3.9 0 0 1 24.9 24z"/>
</svg>
