<svg height="48" viewBox="0 0 48 48" width="48" xmlns="http://www.w3.org/2000/svg"><path d="m19.6 19.1c1.7-2.3 4.6-3.1 7.2-2 .5.2.9.4 1.3.7 1.4 1.1 2.2 2.7 2.4 4.4.2 0 .3-.1.5-.1.3 0 .7.1 1 .1-.1-2.2-1.1-4.3-3-5.8-.5-.4-1-.7-1.6-.9-3.2-1.3-6.9-.3-9 2.5-3.4 4.6-4.4 10.8-2.8 16.6.1.4.4.6.7.6h.2c.4-.1.6-.5.5-.9-1.4-5.4-.5-11.1 2.6-15.2z" fill="#555"/><path d="m10.8 13.3c-.2 0-.3 0-.4-.1-.3-.2-.4-.7-.2-1 4.9-6.5 13.5-8.9 21.1-5.8 1.3.6 2.6 1.3 3.8 2.1.3.2.4.7.2 1s-.7.4-1 .2c-1.1-.8-2.2-1.5-3.5-2-7-2.9-14.9-.7-19.3 5.3-.2.2-.4.3-.7.3z" fill="#555"/><path d="m31 28.5c1.2 0 2.2-1 2.2-2.2s-1-2.2-2.2-2.2-2.2 1-2.2 2.2 1 2.2 2.2 2.2zm8.8 6.9c-1.2 0-2.2 1-2.2 2.2s1 2.2 2.2 2.2 2.2-1 2.2-2.2-1-2.2-2.2-2.2zm-17.6 0c-1.2 0-2.2 1-2.2 2.2s1 2.2 2.2 2.2 2.2-1 2.2-2.2-1-2.2-2.2-2.2zm8.8 2.2c-1.2 0-2.2 1-2.2 2.2s1 2.2 2.2 2.2 2.2-1 2.2-2.2-1-2.2-2.2-2.2zm5.5-2.9 1.1-1.1-4.4-3.3zm-11 0 3.3-4.4-4.4 3.3zm4.4 1.1h2.2l-1.1-5.5z" fill="#4eb600"/><g fill="#555"><path d="m26.8 26.3c0-1.4.7-2.7 1.8-3.5 0-1.3-.5-2.6-1.6-3.4-.9-.7-2-1-3.1-.8-1.1.1-2 .7-2.7 1.6-2.8 3.7-3.6 8.8-2.3 13.6.1.4.1.8 0 1.2.4-.5.9-1 1.6-1.2 0-.1 0-.2-.1-.4-1.2-4.4-.5-9 2-12.3.4-.5 1-.9 1.7-1s1.4.1 2 .5c1.1.9 1.4 2.5.5 3.7-.7.9-1 2-.8 3.1.1.8.4 1.4.9 2l.9-.7c-.5-.7-.8-1.5-.8-2.4z"/><path d="m18 37.6c0-.4.1-.9.2-1.3-.3.3-.7.6-1.2.7-.6.2-1.2.1-1.7-.1-.7-.3-1.3-.9-1.5-1.7-1.8-6.4-.6-13.2 3.1-18.2 1.9-2.4 4.7-3.8 7.6-3.8 1.2 0 2.4.2 3.6.9.7.3 1.4.6 2 1.1 2.6 1.9 3.9 5 3.7 8.1.6.5 1 1.3 1.2 2.1 1-4.1-.4-8.7-4-11.4-.7-.5-1.5-1-2.3-1.3-4.7-1.9-10-.4-13 3.6-4 5.3-5.3 12.6-3.4 19.4.3 1.2 1.2 2.2 2.4 2.7.5.2 1.1.3 1.6.3.4 0 .8 0 1.2-.1.2 0 .4-.1.6-.2-.1-.3-.1-.6-.1-.8z"/><path d="m29.6 10.7c.9.4 1.9 1 2.7 1.6 5.3 4.1 6.7 11.6 3.1 17.2l1.1.8c4-6.3 2.5-14.7-3.5-19.2-.9-.7-1.9-1.2-3-1.7-6.1-2.5-13.1-.6-17 4.7-3.5 4.6-5.2 10.5-4.9 16.5 0 .4.4.7.8.7s.7-.4.7-.8c-.2-5.7 1.4-11.2 4.6-15.5 3.5-4.7 9.8-6.5 15.4-4.3z"/><path d="m22.4 33.4c.1-.6.4-1.1.8-1.4l.3-.2c-.7-3.2-.1-6.5 1.6-8.9.2-.3.1-.8-.2-1s-.8-.1-1 .2c-2.1 2.9-2.8 6.9-1.7 10.7.1.2.1.4.2.6z"/><path d="m18.8 40c-.3.1-.6.2-.9.3-.7.2-1.3.2-2 .2-.4-.1-.8.3-.8.7s.3.8.7.8c.9 0 1.7-.1 2.5-.3.6-.2 1.1-.4 1.6-.6-.5-.3-.8-.7-1.1-1.1z"/><path d="m28 42.7c-1.1-.5-2.1-1.1-3.1-1.9-.4.3-.8.6-1.3.8 1.2 1.1 2.5 1.9 3.9 2.5.1.1.2.1.3.1.3 0 .6-.1.6-.4.1-.2.1-.5 0-.7-.2-.2-.3-.3-.4-.4z"/></g></svg>