<svg height="48" viewBox="0 0 48 48" width="48" xmlns="http://www.w3.org/2000/svg"><path d="m40.2 30.9c1.2-2.4 1.8-5.1 1.8-7.8v-.1c0-10.6-8.6-19-19.1-19s-18.9 8.6-18.9 19.1 8.6 18.9 19.1 18.9c2.7 0 5.4-.6 7.8-1.8l12.6 3.3z" fill="#1976d2"/><path d="m23 8c-8.3 0-15 6.7-15 15s6.7 15 15 15 15-6.7 15-15-6.7-15-15-15zm12.9 14h-6c-.1-2-.3-3.9-.7-5.6 1.5-.3 2.9-.7 4.2-1.2 1.5 2 2.4 4.3 2.5 6.8zm-3.8-8.3c-.9.3-2 .6-3.3.8-.5-1.5-1.1-2.9-1.8-3.9 1.9.6 3.6 1.7 5.1 3.1zm-14.1 8.3c.1-2 .3-3.7.7-5.3 1.4.2 2.8.3 4.3.3s2.9-.1 4.3-.3c.4 1.5.6 3.3.7 5.3zm10 2c-.1 2-.3 3.7-.7 5.3-1.4-.2-2.8-.3-4.3-.3s-2.9.1-4.3.3c-.4-1.6-.6-3.3-.7-5.3zm-5-14c1.2 0 2.7 1.8 3.8 4.8-1.2.1-2.4.2-3.8.2s-2.6-.1-3.8-.2c1.1-3 2.6-4.8 3.8-4.8zm-3.9.6c-.7 1-1.3 2.4-1.8 3.9-1.3-.2-2.3-.5-3.3-.8 1.4-1.4 3.1-2.5 5.1-3.1zm-6.5 4.7c1.2.5 2.6.9 4.2 1.2-.5 1.6-.7 3.5-.8 5.5h-6c.2-2.5 1.1-4.8 2.6-6.7zm-2.5 8.7h6c.1 2 .3 3.9.7 5.6-1.5.3-2.9.7-4.2 1.2-1.5-2-2.4-4.3-2.5-6.8zm3.8 8.3c.9-.3 2-.6 3.3-.8.5 1.5 1.1 2.9 1.8 3.9-1.9-.6-3.6-1.7-5.1-3.1zm9.1 3.7c-1.2 0-2.7-1.8-3.8-4.8 1.1-.1 2.4-.2 3.8-.2s2.6.1 3.8.2c-1.1 3-2.6 4.8-3.8 4.8zm3.9-.6c.7-1 1.3-2.4 1.8-3.9 1.3.2 2.3.5 3.3.8-1.4 1.4-3.1 2.5-5.1 3.1zm6.5-4.7c-1.2-.5-2.6-.9-4.2-1.2.4-1.7.6-3.6.7-5.6h6c-.1 2.6-1 4.9-2.5 6.8z" fill="#fff"/></svg>