<svg height="48" viewBox="0 0 48 48" width="48" xmlns="http://www.w3.org/2000/svg"><g fill="#303f9f"><path d="m25 24a5.82 5.82 0 0 1 -5.6 6h-5.7a5.83 5.83 0 0 1 -5.7-6 5.82 5.82 0 0 1 5.6-6h4.9a12.48 12.48 0 0 1 3.2-3.7 8.49 8.49 0 0 0 -2.3-.3h-5.8a9.82 9.82 0 0 0 -9.6 10 9.82 9.82 0 0 0 9.6 10h5.8a9.82 9.82 0 0 0 9.6-10 11 11 0 0 0 -.8-4 4 4 0 0 0 -3.2 4z"/><path d="m23 24a5.82 5.82 0 0 1 5.6-6h5.7a5.83 5.83 0 0 1 5.7 6 5.82 5.82 0 0 1 -5.6 6h-4.9a12.48 12.48 0 0 1 -3.2 3.7 8.49 8.49 0 0 0 2.3.3h5.8a9.82 9.82 0 0 0 9.6-10 9.82 9.82 0 0 0 -9.6-10h-5.8a9.82 9.82 0 0 0 -9.6 10 11 11 0 0 0 .8 4 4 4 0 0 0 3.2-4z"/></g></svg>