<svg height="48" viewBox="0 0 48 48" width="48" xmlns="http://www.w3.org/2000/svg"><path d="m40 10h-32v30a4 4 0 0 0 4 4h24a4 4 0 0 0 4-4zm-2 30a2 2 0 0 1 -2 2h-24a2 2 0 0 1 -2-2v-30h28z" fill="#555"/><path d="m36 42h-24a2 2 0 0 1 -2-2v-30h28v30a2 2 0 0 1 -2 2z" fill="#fff"/><path d="m22 16h12v2h-12z" fill="#555"/><path d="m14 16h4v2h-4z" fill="#ffa726"/><path d="m22 24h12v2h-12z" fill="#555"/><path d="m14 24h4v2h-4z" fill="#ffa726"/><path d="m22 32h12v2h-12z" fill="#555"/><g fill="#ffa726"><path d="m14 32h4v2h-4z"/><path d="m40 10h-32v-2a4 4 0 0 1 4-4h24a4 4 0 0 1 4 4z"/></g></svg>