<svg height="48" viewBox="0 0 48 48" width="48" xmlns="http://www.w3.org/2000/svg"><path d="m36 42h-24a2 2 0 0 1 -2-2v-30a2 2 0 0 1 2-2h24a2 2 0 0 1 2 2v30a2 2 0 0 1 -2 2z" fill="#fff"/><g fill="#555"><path d="m12 44a4 4 0 0 1 -4-4v-30a4 4 0 0 1 4-4v-2h4v2h6v-2h4v2h6v-2h4v2a4 4 0 0 1 4 4v30a4 4 0 0 1 -4 4zm-2-34v30a2 2 0 0 0 2 2h24a2 2 0 0 0 2-2v-30a2 2 0 0 0 -2-2h-24a2 2 0 0 0 -2 2z"/><path d="m22 12h12v2h-12z"/><path d="m22 16h12v2h-12z"/></g><path d="m14 12h6v6h-6z" fill="#90caf9"/><path d="m22 22h12v2h-12z" fill="#555"/><path d="m22 26h12v2h-12z" fill="#555"/><path d="m14 22h6v6h-6z" fill="#90caf9"/><path d="m22 32h12v2h-12z" fill="#555"/><path d="m22 36h12v2h-12z" fill="#555"/><path d="m14 32h6v6h-6z" fill="#90caf9"/></svg>