<svg height="48" viewBox="0 0 48 48" width="48" xmlns="http://www.w3.org/2000/svg"><path d="m42 12v24a2 2 0 0 1 -2 2h-32a2 2 0 0 1 -2-2v-24a2 2 0 0 1 2-2h32a2 2 0 0 1 2 2z" fill="#fff"/><g fill="#555"><path d="m4 12v24a4 4 0 0 0 4 4h32a4 4 0 0 0 4-4v-24a4 4 0 0 0 -4-4h-32a4 4 0 0 0 -4 4zm36-2a2 2 0 0 1 2 2v24a2 2 0 0 1 -2 2h-32a2 2 0 0 1 -2-2v-24a2 2 0 0 1 2-2z"/><path d="m24 20h14v2h-14z"/><path d="m10 26h28v2h-28z"/><path d="m10 32h28v2h-28z"/></g><path d="m22.7 14-1.37-1.37-7.33 7.37-3.33-3.33-1.3 1.33 4.7 4.7z" fill="#f57c00"/></svg>