<svg height="48" viewBox="0 0 48 48" width="48" xmlns="http://www.w3.org/2000/svg"><path d="m22 6c-7.7 0-14 6.3-14 14s6.3 14 14 14 14-6.3 14-14-6.3-14-14-14z" fill="#1976d2"/><path d="m27.9 20.7-5.9 9.3-5.9-9.3c-.7-1.1-1.1-2.3-1.1-3.7 0-3.9 3.1-7 7-7s7 3.1 7 7c0 1.4-.4 2.6-1.1 3.7z" fill="#fff"/><g fill="#1976d2"><path d="m40 20c0-5-2-9.5-5.3-12.7l-1.4 1.4c2.9 2.9 4.7 6.9 4.7 11.3 0 8.8-7.2 16-16 16-4.4 0-8.4-1.8-11.3-4.7l-1.4 1.4c3 3.1 7.1 5 11.7 5.3v2h-5v2h12v-2h-5v-2.1c9.4-.5 17-8.3 17-17.9z"/><circle cx="22" cy="17" r="4"/></g></svg>