<svg height="48" viewBox="0 0 48 48" width="48" xmlns="http://www.w3.org/2000/svg"><path d="m30 12c-5 0-8 4-8 8s0 4 0 4h4v-4c0-1.6 1-4 4-4s4 2.4 4 4v4h4s0 0 0-4-3-8-8-8z" fill="#00796b"/><path d="m30 38v-2h12v-2h-12v-2h12v-2h-12v-2h12v-2c0-1.1-.9-2-2-2h-20c-1.1 0-2 .9-2 2v14c0 1.1.9 2 2 2h20c1.1 0 2-.9 2-2v-2z" fill="#26a69a"/><g fill="#00796b"><path d="m30 30 2 2h10v-2z"/><path d="m30 34 2 2h10v-2z"/><path d="m30 38 4 4h6c1.1 0 2-.9 2-2v-2z"/></g><path d="m16 26c0-2.2 1.8-4 4-4v-2c0-.7.1-1.3.2-2h-12.2c-1.1 0-2 .9-2 2v14c0 1.1.9 2 2 2h8z" fill="#ef5350"/><path d="m22 14c.9-1.2 2-2.2 3.5-2.9-1.1-2.9-3.8-5.1-7.5-5.1-5 0-8 4-8 8s0 4 0 4h4v-4c0-1.6 1-4 4-4s4 2.4 4 4z" fill="#d32f2f"/></svg>