<svg height="64" viewBox="0 0 64 64" width="64" xmlns="http://www.w3.org/2000/svg"><path d="m57 62h-50c-2.8 0-5-2.2-5-5v-50c0-2.8 2.2-5 5-5h50c2.8 0 5 2.2 5 5v50c0 2.8-2.2 5-5 5z" fill="#aaa"/><path d="m56 59h-48c-1.7 0-3-1.3-3-3v-48c0-1.7 1.3-3 3-3h48c1.7 0 3 1.3 3 3v48c0 1.7-1.3 3-3 3z" fill="#f7f7f7"/><path d="m43 51h-22c-3 0-5-2-5-5v-28c0-3 2-5 5-5h16l11 11v22c0 3-2 5-5 5z" fill="#555"/><g fill="#fff"><path d="m39 24h4.8l-6.8-6.8v4.8c0 1.4.6 2 2 2z"/><path d="m39 27c-3 0-5-2-5-5v-6h-13c-1.4 0-2 .6-2 2v28c0 1.4.6 2 2 2h22c1.4 0 2-.6 2-2v-19z"/></g></svg>