<svg height="48" viewBox="0 0 48 48" width="48" xmlns="http://www.w3.org/2000/svg"><path d="m44 28v-8h-5.6c-.3-1.2-.8-2.3-1.4-3.4l3.9-3.9-5.6-5.7-3.9 4c-1.1-.6-2.2-1.1-3.4-1.4v-5.6h-8v5.6c-1.2.3-2.3.8-3.4 1.4l-3.9-4-5.7 5.7 3.9 3.9c-.6 1.1-1.1 2.2-1.4 3.4h-5.5v8h5.6c.3 1.2.8 2.3 1.4 3.4l-4 3.9 5.7 5.7 3.9-3.9c1.1.6 2.2 1.1 3.4 1.4v5.5h8v-5.6c1.2-.3 2.3-.8 3.4-1.4l3.9 3.9 5.7-5.7-4-3.8c.6-1.1 1.1-2.2 1.4-3.4z" fill="#505060"/><g fill="#fff"><path d="m19 20.5v.5 11h-3l1-16h4l.2 2.9-1.8 1.3z"/><path d="m32 32h-12v-11l4-3v3l4-3v3l4-3z"/></g></svg>