<svg height="48" viewBox="0 0 48 48" width="48" xmlns="http://www.w3.org/2000/svg"><path d="m12 16-5 7h3v8h4v-8h3z" fill="#303f9f"/><path d="m24 16-5 7h3v8h4v-8h3z" fill="#303f9f"/><path d="m36 16-5 7h3v8h4v-8h3z" fill="#303f9f"/><g fill="#5c6bc0"><path d="m12 33c-2.5 0-4.5 2-4.5 4.5s2 4.5 4.5 4.5 4.5-2 4.5-4.5-2-4.5-4.5-4.5zm0 6.8c-1.2 0-2.3-1-2.3-2.3s1-2.3 2.3-2.3 2.3 1 2.3 2.3-1.1 2.3-2.3 2.3z"/><path d="m36 33c-2.5 0-4.5 2-4.5 4.5s2 4.5 4.5 4.5 4.5-2 4.5-4.5-2-4.5-4.5-4.5zm0 6.8c-1.2 0-2.3-1-2.3-2.3s1-2.3 2.3-2.3 2.3 1 2.3 2.3-1.1 2.3-2.3 2.3z"/><path d="m24 33c-2.5 0-4.5 2-4.5 4.5s2 4.5 4.5 4.5 4.5-2 4.5-4.5-2-4.5-4.5-4.5zm0 6.8c-1.2 0-2.3-1-2.3-2.3s1-2.3 2.3-2.3 2.3 1 2.3 2.3-1.1 2.3-2.3 2.3z"/><path d="m12 6c-2.5 0-4.5 2-4.5 4.5s2 4.5 4.5 4.5 4.5-2 4.5-4.5-2-4.5-4.5-4.5zm0 6.8c-1.2 0-2.3-1-2.3-2.3s1-2.3 2.3-2.3 2.3 1 2.3 2.3-1.1 2.3-2.3 2.3z"/><path d="m36 6c-2.5 0-4.5 2-4.5 4.5s2 4.5 4.5 4.5 4.5-2 4.5-4.5-2-4.5-4.5-4.5zm0 6.8c-1.2 0-2.3-1-2.3-2.3s1-2.3 2.3-2.3 2.3 1 2.3 2.3-1.1 2.3-2.3 2.3z"/><path d="m24 6c-2.5 0-4.5 2-4.5 4.5s2 4.5 4.5 4.5 4.5-2 4.5-4.5-2-4.5-4.5-4.5zm0 6.8c-1.2 0-2.3-1-2.3-2.3s1-2.3 2.3-2.3 2.3 1 2.3 2.3-1.1 2.3-2.3 2.3z"/></g></svg>