<svg height="48" viewBox="0 0 48 48" width="48" xmlns="http://www.w3.org/2000/svg"><path d="m38 26a5.93 5.93 0 0 0 -2.3.5l-3.7-6a6.11 6.11 0 0 0 2-4.5 6 6 0 0 0 -12 0 5.92 5.92 0 0 0 2.5 4.8l-2.7 5.4a11 11 0 0 0 -1.8-.2 5.93 5.93 0 0 0 -2.3.5l-3.7-6a6.11 6.11 0 0 0 2-4.5 6 6 0 1 0 -6 6 5.93 5.93 0 0 0 2.3-.5l3.7 6a6.11 6.11 0 0 0 -2 4.5 6 6 0 0 0 12 0 5.92 5.92 0 0 0 -2.5-4.8l2.7-5.4a5.23 5.23 0 0 0 1.8.3 5.93 5.93 0 0 0 2.3-.5l3.7 6a6.11 6.11 0 0 0 -2 4.5 6 6 0 0 0 12 0 6.1 6.1 0 0 0 -6-6.1z" fill="#1976d2"/></svg>