<svg height="48" viewBox="0 0 48 48" width="48" xmlns="http://www.w3.org/2000/svg"><path d="m39.3 28.1c-1.2-6.6-3.6-10.1-9.3-13.4 0-.3.1-.5.1-.8 0-3.3-2.7-6-6-6s-6 2.7-6 6c0 .3 0 .5.1.8-5.8 3.3-8.2 6.8-9.3 13.4-2.9.6-4.9 3-4.9 5.9 0 3.3 2.7 6 6 6s6-2.7 6-6c0-2.4-1.4-4.4-3.3-5.4.9-5.2 2.7-7.7 7.2-10.3.6.6 1.3 1 2.2 1.3v8.7c-2.3.8-4 3-4 5.7 0 3.3 2.7 6 6 6s6-2.7 6-6c0-2.6-1.7-4.8-4-5.7v-8.7c.8-.3 1.5-.7 2.2-1.3 4.5 2.6 6.3 5.2 7.2 10.3-2 1-3.3 3-3.3 5.4 0 3.3 2.7 6 6 6s6-2.7 6-6c-.2-2.9-2.2-5.3-4.9-5.9z" fill="#00796b"/></svg>