<svg enable-background="new 0 0 48 48" height="48" viewBox="0 0 48 48" width="48" xmlns="http://www.w3.org/2000/svg"><path d="m18 32c0-7.72 6.28-14 14-14 2.149 0 4.178.501 6 1.37v-4.475c0-1.438-.772-2.766-2.022-3.477l-11.902-6.77c-1.238-.704-2.758-.697-3.989.02l-12.099 7.039c-1.231.716-1.988 2.033-1.988 3.457v13.94c0 1.438.772 2.766 2.022 3.477l11.902 6.77c.085.048.173.085.26.126-1.375-2.166-2.184-4.726-2.184-7.477z" fill="#f57c00"/><path d="m22 19.691 10.112-5.838-10.056-5.72-9.998 5.817z" fill="#fff"/><path d="m32 20c-6.6 0-12 5.4-12 12s5.4 12 12 12 12-5.4 12-12-5.4-12-12-12z" fill="#d32f2f"/><g fill="#fff"><path d="m40 34h-16v-4h16z"/><path d="m18 32c0-2.624.739-5.073 2-7.174v-1.671l-10-5.773v11.692l8.112 4.614c-.067-.555-.112-1.116-.112-1.688z"/></g></svg>