<svg height="48" viewBox="0 0 48 48" width="48" xmlns="http://www.w3.org/2000/svg"><circle cx="30" cy="8" fill="#455a64" r="4"/><circle cx="41" cy="24" fill="#5c6bc0" r="4"/><circle cx="30" cy="40" fill="#455a64" r="4"/><circle cx="10" cy="34" fill="#455a64" r="4"/><circle cx="10" cy="14" fill="#5c6bc0" r="4"/><path d="m18.1 18.6-7.5-5.4-1.2 1.6 7.5 5.4c.4-.6.8-1.1 1.2-1.6z" fill="#5c6bc0"/><g fill="#455a64"><path d="m27.7 16.9 3.2-8.6-1.9-.7-3.2 8.6c.7.2 1.3.4 1.9.7z"/><path d="m17 27.8-7.5 5.4 1.2 1.6 7.5-5.4c-.5-.5-.9-1-1.2-1.6z"/><path d="m25.8 31.8 3.2 8.6 1.9-.7-3.2-8.6c-.6.3-1.2.5-1.9.7z"/></g><path d="m31.9 23c0 .3.1.7.1 1s0 .7-.1 1h8.1v-2z" fill="#5c6bc0"/><circle cx="24" cy="24" fill="#303f9f" r="6"/></svg>