<svg height="48" viewBox="0 0 48 48" width="48" xmlns="http://www.w3.org/2000/svg"><path d="m24 4c-.453 0-.907.194-1.221.583l-3.63 4.49-5.576-1.499c-.138-.037-.275-.055-.41-.055-.81 0-1.521.634-1.565 1.489l-.297 5.766-5.391 2.065c-.933.357-1.299 1.484-.754 2.322l3.149 4.839-3.149 4.839c-.545.838-.179 1.964.754 2.322l5.392 2.064.297 5.766c.044.856.755 1.489 1.565 1.489.135 0 .272-.018.41-.055l5.576-1.499 3.63 4.49c.313.39.767.584 1.22.584s.907-.194 1.221-.583l3.63-4.49 5.576 1.499c.138.037.275.055.41.055.81 0 1.521-.634 1.565-1.489l.297-5.766 5.392-2.064c.933-.357 1.299-1.484.754-2.322l-3.15-4.84 3.149-4.839c.545-.838.179-1.964-.754-2.322l-5.392-2.064-.297-5.766c-.044-.856-.755-1.489-1.565-1.489-.135 0-.272.018-.41.055l-5.576 1.498-3.63-4.49c-.313-.389-.767-.583-1.22-.583z" fill="#303f9f"/><path d="m24 7.845 3.744 4.632 5.752-1.547.306 5.948 5.562 2.13-3.248 4.992 3.248 4.992-5.562 2.13-.306 5.948-5.752-1.547-3.744 4.632-3.744-4.632-5.752 1.547-.306-5.948-5.562-2.13 3.248-4.992-3.248-4.992 5.562-2.13.306-5.948 5.752 1.547z" fill="#e8eaf6"/></svg>