<svg height="48" viewBox="0 0 48 48" width="48" xmlns="http://www.w3.org/2000/svg"><path d="m32 20c-6.6 0-12 5.4-12 12s5.4 12 12 12 12-5.4 12-12-5.4-12-12-12z" fill="#388e3c"/><path d="m32 18c2.971 0 5.727.945 8 2.539v-8.539h-32v16h10.593c1.733-5.766 7.096-10 13.407-10z" fill="#ddd"/><path d="m40 34h-6v6h-4v-6h-6v-4h6v-6h4v6h6z" fill="#fff"/><path d="m8.2 29.8c-1.1 0-2-.9-2-2v-15.6c0-1.1.9-2 2-2h31.5c1.1 0 2 .9 2 2v9.742c.89.859 1.66 1.835 2.3 2.9v-12.842c0-2.2-1.8-4-4-4h-32c-2.2 0-4 1.8-4 4v16c0 2.2 1.8 4 4 4h10c0-.75.077-1.481.192-2.2z" fill="#455a64"/></svg>