<svg height="48" viewBox="0 0 48 48" width="48" xmlns="http://www.w3.org/2000/svg"><path d="m13.5 34.1 2-3.5-1-.6c-.3-.2-.5-.5-.5-.9v-10.3c0-.4.2-.7.5-.9l9-5.2c.3-.2.7-.2 1 0l1 .6 2-3.5-1.2-.7c-.7-.4-1.5-.6-2.3-.6s-1.6.2-2.3.6l-9.3 5.4c-1.4.8-2.3 2.3-2.3 4v10.7c0 1.7.9 3.3 2.3 4z" fill="#ccc"/><path d="m35.7 14.6-1.2-.7-2 3.5 1 .6c.3.2.5.5.5.9v10.3c0 .4-.2.7-.5.9l-9 5.2c-.3.2-.7.2-1 0l-1-.6-2 3.5 1.2.7c.7.4 1.5.6 2.3.6s1.6-.2 2.3-.6l9.3-5.4c1.4-.8 2.3-2.3 2.3-4v-10.9c.1-1.7-.8-3.2-2.2-4z" fill="#ccc"/><path d="m7 22h34v4h-34z" fill="#d32f2f" transform="matrix(.5 -.866 .866 .5 -8.7846 32.7846)"/><g fill="#303f9f"><path d="m29.3 36.3 5.3 3.1c.4.2.9.4 1.3.3.5 0 .9-.1 1.3-.3l5.3-3.1c.8-.4 1.3-1.3 1.3-2.3v-6.1c0-1-.5-1.9-1.3-2.3l-5.3-3.1c-.4-.2-.9-.4-1.3-.3-.5 0-.9.1-1.3.3l-5.3 3.1c-.8.4-1.3 1.3-1.3 2.2v6.2c0 .9.5 1.8 1.3 2.3z"/><path d="m5.3 22.5 5.3 3.1c.4.2.9.4 1.3.3.5 0 .9-.1 1.3-.3l5.3-3.1c.8-.4 1.3-1.3 1.3-2.3v-6.2c0-1-.5-1.9-1.3-2.3l-5.3-3.1c-.4-.2-.9-.4-1.3-.3-.5 0-.9.1-1.3.3l-5.3 3.1c-.8.5-1.3 1.4-1.3 2.3v6.1c0 1 .5 1.9 1.3 2.4z"/></g></svg>