<svg height="48" viewBox="0 0 48 48" width="48" xmlns="http://www.w3.org/2000/svg"><circle cx="12" cy="8" fill="#ffa726" r="4"/><g fill="#7b1fa2"><circle cx="12" cy="40" r="4"/><circle cx="24" cy="40" r="4"/><circle cx="36" cy="40" r="4"/></g><path d="m44 10.2-40 23.6v4l40-23.6z" fill="#d40014"/><path d="m34 22.4v11.6h4v-13c0-.3 0-.6-.1-.9z" fill="#999"/><path d="m14 25.6v-7.6h8v2.9l4-2.4v-.5h.8l6.2-3.7c-.6-.2-1.3-.3-2-.3h-21v13.9z" fill="#999"/><path d="m22 29.5v4.5h4v-6.9z" fill="#999"/><path d="m44 10.2-40 23.6v4l40-23.6z" fill="#d40014"/></svg>