<svg height="48" viewBox="0 0 48 48" width="48" xmlns="http://www.w3.org/2000/svg"><path d="m39 11.9-12-6.9c-.9-.5-2-.8-3-.8s-2.1.2-3 .8l-12 6.9c-1.8 1-3 3-3 5.2v13.8c0 2.2 1.2 4.2 3 5.2l12 6.9c.9.5 2 .8 3 .8s2.1-.2 3-.8l12-6.9c1.8-1 3-3 3-5.2v-13.8c0-2.2-1.2-4.2-3-5.2z" fill="#e8eaf6"/><g fill="#303f9f"><path d="m19.117 9.543 3.378-1.942.086-.049.083-.055c.282-.189.769-.297 1.336-.297.475 0 1.081.166 1.505.401l3.378 1.942 1.5-2.598-3.383-1.945c-.9-.5-2-.8-3-.8s-2.1.2-3 .8l-3.383 1.945z"/><path d="m9 21v-3.9c0-1.074.572-2.086 1.495-2.599l3.421-1.967-1.5-2.598-3.416 1.964c-1.8 1-3 3-3 5.2v3.9z"/><path d="m34.084 12.534 3.459 1.989c.885.491 1.457 1.503 1.457 2.577v3.9h3v-3.9c0-2.2-1.2-4.2-3-5.2l-3.416-1.964z"/><path d="m13.916 35.466-3.459-1.989c-.885-.491-1.457-1.503-1.457-2.577v-3.9h-3v3.9c0 2.2 1.2 4.2 3 5.2l3.416 1.964z"/><path d="m28.883 38.457-3.378 1.942-.086.049-.083.055c-.282.189-.769.297-1.336.297-.475 0-1.081-.166-1.505-.401l-3.378-1.942-1.5 2.598 3.383 1.945c.9.5 2 .8 3 .8s2.1-.2 3-.8l3.383-1.945z"/><path d="m39 27v3.9c0 1.074-.572 2.086-1.495 2.599l-3.421 1.967 1.5 2.598 3.416-1.964c1.8-1 3-3 3-5.2v-3.9z"/></g></svg>