<svg height="48" viewBox="0 0 48 48" width="48" xmlns="http://www.w3.org/2000/svg"><g fill="#555"><path d="m20 10h22v2h-22z"/><path d="m20 14h22v2h-22z"/><path d="m20 30h22v2h-22z"/><path d="m20 34h22v2h-22z"/></g><path d="m14 20h-2v-10.28l-3 1.07v-1.93l4.74-1.86h.26z" fill="#1976d2"/><path d="m17 40h-9v-1.77l4.15-4.53a10.42 10.42 0 0 0 1.28-1.7 2.77 2.77 0 0 0 .38-1.35 2.1 2.1 0 0 0 -.5-1.44 1.69 1.69 0 0 0 -1.31-.52 2 2 0 0 0 -1.57.62 2.47 2.47 0 0 0 -.6 1.69h-2.07a4.06 4.06 0 0 1 .52-2 3.61 3.61 0 0 1 1.48-1.42 4.63 4.63 0 0 1 2.24-.58 4.18 4.18 0 0 1 2.86.91 3.17 3.17 0 0 1 1.05 2.52 4.31 4.31 0 0 1 -.53 1.95 11.44 11.44 0 0 1 -1.72 2.32l-3.07 3.3h6.41z" fill="#1976d2"/></svg>