<svg height="48" viewBox="0 0 48 48" width="48" xmlns="http://www.w3.org/2000/svg"><path d="m31 38a4 4 0 0 1 -4 4h-3a4 4 0 0 1 0-8h2.08a8.18 8.18 0 0 1 1.6-2c-.22 0-.45 0-.68 0h-3a6 6 0 0 0 0 12h3a6 6 0 0 0 6-6 5.75 5.75 0 0 0 -.34-2 2 2 0 0 0 -1.66 2z" fill="#303f9f"/><path d="m29 38a4 4 0 0 1 4-4h3a4 4 0 0 1 0 8h-2.08a8.18 8.18 0 0 1 -1.6 2h.68 3a6 6 0 0 0 0-12h-3a6 6 0 0 0 -6 6 5.75 5.75 0 0 0 .34 2 2 2 0 0 0 1.66-2z" fill="#303f9f"/><path d="m17.08 42h-5.08a2 2 0 0 1 -2-2v-32a2 2 0 0 1 2-2h16v6a4 4 0 0 0 4 4h6v14.26a8.1 8.1 0 0 1 2 .82v-16.08l-11-11h-17a4 4 0 0 0 -4 4v32a4 4 0 0 0 4 4h6.73a8.16 8.16 0 0 1 -1.65-2zm12.92-34.17 6.17 6.17h-4.17a2 2 0 0 1 -2-2z" fill="#555"/><path d="m16 38a8 8 0 0 1 8-8h3c.29 0 .59 0 .91.05l2.72.31a8 8 0 0 1 2.37-.36h3a8 8 0 0 1 2 .26v-14.26h-6a4 4 0 0 1 -4-4v-6h-16a2 2 0 0 0 -2 2v32a2 2 0 0 0 2 2h5.08a7.9 7.9 0 0 1 -1.08-4z" fill="#fff"/><path d="m32 14h4.17l-6.17-6.17v4.17a2 2 0 0 0 2 2z" fill="#fff"/><g fill="#555"><path d="m14 14h10v2h-10z"/><path d="m14 20h20v2h-20z"/><path d="m14 26h20v2h-20z"/><path d="m18.73 32h-4.73v2h3.08a8.16 8.16 0 0 1 1.65-2z"/></g></svg>