<svg height="48" viewBox="0 0 48 48" width="48" xmlns="http://www.w3.org/2000/svg"><g fill="#ffa726"><circle cx="41.25" cy="20.25" r="2.25"/><circle cx="38.25" cy="13.5" r="2.25"/><circle cx="30" cy="18" r="2.25"/><circle cx="24" cy="29.25" r="2.25"/><circle cx="28.5" cy="33.75" r="2.25"/><circle cx="19.5" cy="33.75" r="2.25"/><circle cx="30" cy="25.5" r="2.25"/><circle cx="6" cy="20.25" r="2.25"/><circle cx="9.75" cy="13.5" r="2.25"/><circle cx="16.5" cy="9.75" r="2.25"/><circle cx="18" cy="25.5" r="2.25"/><circle cx="18" cy="18" r="2.25"/><circle cx="31.5" cy="9.75" r="2.25"/><circle cx="24" cy="21.75" r="2.25"/><circle cx="24" cy="14.25" r="2.25"/><circle cx="24" cy="6.75" r="2.25"/></g><path d="m32.79 40h-17.58l-5.21-21.77 2-.46 4.79 20.23h14.42l4.79-20.23 1.94.46z" fill="#555"/></svg>