<svg height="48" viewBox="0 0 48 48" width="48" xmlns="http://www.w3.org/2000/svg"><path d="m17.2 6-3.2 2 1.1 8 3.6 1.2z" fill="#8a9aea"/><path d="m18.9 17.3.3.1z" fill="#8a9aea"/><path d="m24 42-15-5v-18l15 5z" fill="#f57c00"/><path d="m35.6 10.9-.8 6.7 4.2 1.4 3-6z" fill="#ffcc80"/><path d="m39 19-4.2-1.4-.4 2.9z" fill="#f57c00"/><path d="m32.4 6-2.6 16.1 4.6-1.6 1.6-12.5z" fill="#303f9f"/><path d="m29.8 22.1 2.6-16.1-6.5.7-2.9 15.3 1 2z" fill="#8a9aea"/><path d="m21 18 2 4 1.8-9.5-.9-5.9-6.7-.6 1.5 11.2z" fill="#303f9f"/><g fill="#ffa726"><path d="m9 19 15 5-3-6-15-5z"/><path d="m24 42 15-5v-18l-15 5z"/></g></svg>