<svg height="48" viewBox="0 0 48 48" width="48" xmlns="http://www.w3.org/2000/svg"><path d="m16 38c0-4.4 3.6-8 8-8v-12l-18-6v24l10.1 3.4c-.1-.5-.1-.9-.1-1.4z" fill="#f57c00"/><path d="m42 32.7v-20.7l-18 6v12h12c2.4 0 4.5 1.1 6 2.7z" fill="#ffa726"/><path d="m6 12 18-6 18 6-18 6z" fill="#ffcc80"/><path d="m12 10 6-2 18 6-6 2z" fill="#eee"/><path d="m30 26 3-3 3 1v-10l-6 2z" fill="#eee"/><g fill="#303f9f"><path d="m31 38c0 2.2-1.8 4-4 4h-3c-2.2 0-4-1.8-4-4s1.8-4 4-4h2.1c.4-.7 1-1.4 1.6-2-.2 0-.5 0-.7 0h-3c-3.3 0-6 2.7-6 6s2.7 6 6 6h3c3.3 0 6-2.7 6-6 0-.7-.1-1.4-.3-2-1 .2-1.7 1-1.7 2z"/><path d="m29 38c0-2.2 1.8-4 4-4h3c2.2 0 4 1.8 4 4s-1.8 4-4 4h-2.1c-.4.7-1 1.4-1.6 2h.7 3c3.3 0 6-2.7 6-6s-2.7-6-6-6h-3c-3.3 0-6 2.7-6 6 0 .7.1 1.4.3 2 1-.2 1.7-1 1.7-2z"/></g></svg>