<svg height="48" viewBox="0 0 48 48" width="48" xmlns="http://www.w3.org/2000/svg"><path d="m24 4a4 4 0 0 0 -4 4v.54a4 4 0 0 0 -5.46 1.46 4 4 0 0 0 -.54 2v12.84l-1.83-1.84a4 4 0 0 0 -5.66 5.66l10 10a13 13 0 0 0 23.26-5.39 3.76 3.76 0 0 0 .23-1.27v-18a4 4 0 0 0 -4-4 4.06 4.06 0 0 0 -2 .54v-.54a4 4 0 0 0 -6.22-3.32 4 4 0 0 0 -3.78-2.68z" fill="#555"/><path d="m24 6a2 2 0 0 1 2 2v15a1 1 0 0 0 2 0v-13a2 2 0 0 1 4 0v15a1 1 0 0 0 2 0v-11a2 2 0 0 1 4 0v18a2.07 2.07 0 0 1 -.15.77 11 11 0 0 1 -19.8 4.61l-10.12-10.12a2 2 0 0 1 0-2.83 2 2 0 0 1 2.82 0l5.25 5.24v-17.67a2 2 0 0 1 4 0v11a1 1 0 0 0 2 0v-15a2 2 0 0 1 2-2" fill="#fff"/></svg>