<svg height="48" viewBox="0 0 48 48" width="48" xmlns="http://www.w3.org/2000/svg"><path d="m12 42c-1.1 0-2-.9-2-2v-32c0-1.1.9-2 2-2 1.1 0 2 .9 2 2v32c0 1.1-.9 2-2 2z" fill="#303f9f"/><circle cx="12" cy="24" fill="#303f9f" r="5"/><circle cx="12" cy="24" fill="#fff" r="3"/><g fill="#303f9f"><path d="m24 42c-1.1 0-2-.9-2-2v-32c0-1.1.9-2 2-2 1.1 0 2 .9 2 2v32c0 1.1-.9 2-2 2z"/><path d="m36 42c-1.1 0-2-.9-2-2v-32c0-1.1.9-2 2-2 1.1 0 2 .9 2 2v32c0 1.1-.9 2-2 2z"/><circle cx="24" cy="32" r="5"/></g><circle cx="24" cy="32" fill="#fff" r="3"/><circle cx="36" cy="16" fill="#303f9f" r="5"/><circle cx="36" cy="16" fill="#fff" r="3"/></svg>