<svg height="48" viewBox="0 0 48 48" width="48" xmlns="http://www.w3.org/2000/svg"><path d="m28 8c-4.4 0-8 3.6-8 8s3.6 8 8 8 8-3.6 8-8-3.6-8-8-8zm0 13c-2.8 0-5-2.3-5-5s2.3-5 5-5 5 2.3 5 5-2.2 5-5 5z" fill="#0097a7"/><path d="m35.4 18.4h4.2v14.2h-4.2z" fill="#0097a7" transform="matrix(.7071 -.7071 .7071 .7071 -7.0479 33.9849)"/><g fill="#7b1fa2"><path d="m28 19c.9 0 1.7-.4 2.2-1l-4.2-4.2c-.6.5-1 1.3-1 2.2 0 1.7 1.3 3 3 3z"/><path d="m26.8 25.9c-4.6-.6-8.2-4.2-8.7-8.7-1.3-.7-2.7-1.2-4.1-1.6v-7.6h-10v7.7 5.3 3.1c1.5-.7 3.2-1.1 5-1.1 6.6 0 12 5.4 12 12 0 1.8-.4 3.5-1.1 5h3.1 5.3 7.7v-10h-7.7c-.3-1.4-.8-2.8-1.5-4.1z"/></g></svg>