<svg height="48" viewBox="0 0 48 48" width="48" xmlns="http://www.w3.org/2000/svg"><path d="m36 44h-24c-2.2 0-4-1.8-4-4v-32c0-2.2 1.8-4 4-4h24c2.2 0 4 1.8 4 4v32c0 2.2-1.8 4-4 4z" fill="#555"/><path d="m36 42h-24c-1.1 0-2-.9-2-2v-32c0-1.1.9-2 2-2h24c1.1 0 2 .9 2 2v32c0 1.1-.9 2-2 2z" fill="#fff"/><path d="m38.2 44.8-4.6-11.1-2.6 1.1-2.5-1.1-4.6 11.1 3.7 1.5 3.4-8.3 3.4 8.3z" fill="#d32f2f"/><circle cx="31" cy="33" fill="#ffa726" r="4"/><path d="m34 20v-4h-2.8c-.1-.6-.4-1.1-.7-1.7l2-1.9-2.8-2.9-1.9 2c-.6-.3-1.1-.6-1.7-.7v-2.8h-4v2.8c-.6.2-1.1.4-1.7.7l-2-2-2.9 2.9 2 1.9c-.3.6-.6 1.1-.7 1.7h-2.8v4h2.8c.1.6.4 1.1.7 1.7l-2 1.9 2.9 2.9 2-2c.5.3 1.1.5 1.7.7v2.8h4v-2.8c.6-.1 1.1-.4 1.7-.7l1.9 2 2.9-2.9-2-1.9c.3-.6.5-1.1.7-1.7zm-10 2.5c-2.5 0-4.5-2-4.5-4.5s2-4.5 4.5-4.5 4.5 2 4.5 4.5-2 4.5-4.5 4.5z" fill="#7b1fa2"/></svg>