<svg height="48" viewBox="0 0 48 48" width="48" xmlns="http://www.w3.org/2000/svg"><path d="m16 6h9v3h-9z" fill="#757575"/><path d="m20 38v-18a6 6 0 0 1 6-6h7a2 2 0 0 1 1.41.59l1.59 1.58v-8.17h-9v3h-13v-3h-8v32h14.35a5.93 5.93 0 0 1 -.35-2z" fill="#ffcc80"/><path d="m33 16h-7a4 4 0 0 0 -4 4v18a4 4 0 0 0 4 4h12a4 4 0 0 0 4-4v-13zm5.17 8h-2.17a2 2 0 0 1 -2-2v-2.17zm1.83 14a2 2 0 0 1 -2 2h-12a2 2 0 0 1 -2-2v-18a2 2 0 0 1 2-2h6v4a4 4 0 0 0 4 4h4z" fill="#555"/><g fill="#fff"><path d="m36 24h2.17l-4.17-4.17v2.17a2 2 0 0 0 2 2z"/><path d="m36 26a4 4 0 0 1 -4-4v-4h-6a2 2 0 0 0 -2 2v18a2 2 0 0 0 2 2h12a2 2 0 0 0 2-2v-12z"/></g></svg>