<svg height="48" viewBox="0 0 48 48" width="48" xmlns="http://www.w3.org/2000/svg"><path d="m29 4h-17a4 4 0 0 0 -4 4v32a4 4 0 0 0 4 4h24a4 4 0 0 0 4-4v-25zm7.17 10h-4.17a2 2 0 0 1 -2-2v-4.17zm1.83 26a2 2 0 0 1 -2 2h-24a2 2 0 0 1 -2-2v-32a2 2 0 0 1 2-2h16v6a4 4 0 0 0 4 4h6z" fill="#555"/><path d="m32 14h4.17l-6.17-6.17v4.17a2 2 0 0 0 2 2z" fill="#fff"/><path d="m32 16a4 4 0 0 1 -4-4v-6h-16a2 2 0 0 0 -2 2v32a2 2 0 0 0 2 2h24a2 2 0 0 0 2-2v-24z" fill="#fff"/><path d="m8 20h32v14h-32z" fill="#ef5350"/><g fill="#fff"><path d="m15 28.37v2.89h-2v-8.53h3.4a4 4 0 0 1 1.73.36 2.71 2.71 0 0 1 1.17 1 2.77 2.77 0 0 1 .41 1.51 2.48 2.48 0 0 1 -.89 2 3.66 3.66 0 0 1 -2.45.75h-1.37zm0-1.59h1.35a1.26 1.26 0 0 0 .91-.3 1.09 1.09 0 0 0 .31-.84 1.4 1.4 0 0 0 -.32-1 1.13 1.13 0 0 0 -.88-.36h-1.37z"/><path d="m21.51 31.27v-8.53h2.75a4.11 4.11 0 0 1 2 .51 3.58 3.58 0 0 1 1.44 1.45 4.34 4.34 0 0 1 .51 2.09v.39a4.39 4.39 0 0 1 -.5 2.1 3.59 3.59 0 0 1 -1.39 1.45 3.93 3.93 0 0 1 -2 .53h-2.8zm2.06-6.95v5.36h.71a1.6 1.6 0 0 0 1.36-.63 3.08 3.08 0 0 0 .47-1.87v-.37a3.12 3.12 0 0 0 -.47-1.81 1.64 1.64 0 0 0 -1.38-.63z"/><path d="m35.36 27.87h-3.36v3.4h-2v-8.53h5.71v1.59h-3.71v2h3.32z"/></g></svg>