<svg height="48" viewBox="0 0 48 48" width="48" xmlns="http://www.w3.org/2000/svg"><g fill="#fff"><path d="m36 4h-24a4 4 0 0 0 -4 4v32a4 4 0 0 0 4 4h24a4 4 0 0 0 4-4v-32a4 4 0 0 0 -4-4zm2 36a2 2 0 0 1 -2 2h-24a2 2 0 0 1 -2-2v-32a2 2 0 0 1 2-2h24a2 2 0 0 1 2 2z"/><path d="m14 16h20v2h-20z"/><path d="m14 10h20v2h-20z"/><path d="m14 22h8v2h-8z"/><path d="m14 28h8v2h-8z"/><path d="m14 34h20v2h-20z"/><path d="m33.2 22h-6.4a.92.92 0 0 0 -.8 1v6a.92.92 0 0 0 .8 1h6.4a.92.92 0 0 0 .8-1v-6a.92.92 0 0 0 -.8-1z"/></g></svg>