<svg height="48" viewBox="0 0 48 48" width="48" xmlns="http://www.w3.org/2000/svg"><path d="m44 28v-8h-5.6c-.3-1.2-.8-2.3-1.4-3.4l3.9-3.9-5.6-5.7-3.9 4c-1.1-.6-2.2-1.1-3.4-1.4v-5.6h-8v5.6c-1.2.3-2.3.8-3.4 1.4l-3.9-4-5.7 5.7 3.9 3.9c-.6 1.1-1.1 2.2-1.4 3.4h-5.5v8h5.6c.3 1.2.8 2.3 1.4 3.4l-4 3.9 5.7 5.7 3.9-3.9c1.1.6 2.2 1.1 3.4 1.4v5.5h8v-5.6c1.2-.3 2.3-.8 3.4-1.4l3.9 3.9 5.7-5.7-4-3.8c.6-1.1 1.1-2.2 1.4-3.4zm-20 3c-3.9 0-7-3.1-7-7s3.1-7 7-7 7 3.1 7 7-3.1 7-7 7z" fill="#ce93d8"/><path d="m36.8 22-.4-1.5c-.2-.9-.6-1.8-1.2-2.9l-.7-1.3 1.1-1.1 2.5-2.5-2.8-2.8-2.5 2.5-1.1 1.1-1.3-.7c-1.1-.6-2-1-2.9-1.2l-1.5-.4v-1.6-3.6h-4v3.6 1.6l-1.5.4c-.9.2-1.8.6-2.9 1.2l-1.3.7-1.1-1.1-2.5-2.5-2.9 2.9 2.5 2.5 1.1 1.1-.7 1.3c-.6 1.1-1 2-1.2 2.9l-.4 1.4h-1.6-3.5v4h3.6 1.6l.4 1.5c.2.9.6 1.8 1.2 2.9l.7 1.3-1.1 1.1-2.5 2.5 2.9 2.9 2.5-2.5 1.1-1.1 1.3.7c1.1.6 2 1 2.9 1.2l1.5.4v1.6 3.5h4v-3.6-1.6l1.5-.4c.9-.2 1.8-.6 2.9-1.2l1.3-.7 1.1 1.1 2.5 2.5 2.8-2.8-2.5-2.4-1.1-1.1.7-1.3c.6-1.1 1-2 1.2-2.9l.4-1.5h1.6 3.5v-4h-3.6-1.6zm-12.8 11c-5 0-9-4-9-9s4-9 9-9 9 4 9 9-4 9-9 9z" fill="#f3e5f5"/></svg>