<svg height="48" viewBox="0 0 48 48" width="48" xmlns="http://www.w3.org/2000/svg"><g fill="#303f9f"><path d="m39 11.8-12-6.8c-1.8-1-4.1-1.1-6 0l-12 6.9c-1.8 1-3 3-3 5.2v13.9c0 2 1.1 4 3 5.1l12 6.9c1.8 1 4.1 1.1 6 0l12-6.9c1.8-1 3-3 3-5.2v-13.9c0-2.1-1.1-4.1-3-5.2zm-2 20.9-12 6.9c-.6.4-1.4.3-2 0l-12-6.9c-.6-.4-1-1-1-1.7v-13.9c0-.7.4-1.4 1-1.7l12-6.9c.6-.4 1.4-.3 2 0l12 6.9c.6.4 1 1 1 1.7v13.9c0 .7-.4 1.3-1 1.7z"/><path d="m20 18.2v3.5l-3 1.7-3-1.7v-3.5l3-1.8zm-8-1.1v5.8l5 2.9 5-2.9v-5.9l-5-2.8z"/><path d="m34 18.2v3.5l-3 1.7-3-1.7v-3.5l3-1.8zm-8-1.1v5.8l5 2.9 5-2.9v-5.9l-5-2.8z"/><path d="m27 30.2v3.5l-3 1.7-3-1.7v-3.5l3-1.8zm-8-1.1v5.8l5 2.9 5-2.9v-5.9l-5-2.8z"/></g></svg>