<svg height="48" viewBox="0 0 48 48" width="48" xmlns="http://www.w3.org/2000/svg"><path d="m20 24h20v20h-20z" fill="#1976d2"/><path d="m12 42a2 2 0 0 1 -2-2v-32a2 2 0 0 1 2-2h24a2 2 0 0 1 2 2v14h2v-14a4 4 0 0 0 -4-4h-24a4 4 0 0 0 -4 4v32a4 4 0 0 0 4 4h6v-2z" fill="#555"/><g fill="#fff"><path d="m18 24a2 2 0 0 1 2-2h18v-14a2 2 0 0 0 -2-2h-24a2 2 0 0 0 -2 2v32a2 2 0 0 0 2 2h6z"/><path d="m30 37.3a2.46 2.46 0 0 1 1.5.5 1.64 1.64 0 0 1 .6 1.3 1.75 1.75 0 0 1 -.6 1.3 2.46 2.46 0 0 1 -1.5.5 2 2 0 0 1 -1.4-.5 2.17 2.17 0 0 1 -.6-1.4 1.75 1.75 0 0 1 .6-1.3 2 2 0 0 1 1.4-.4z"/><path d="m31.6 35h-3.2l-.4-7h4z"/></g></svg>