<svg height="48" viewBox="0 0 48 48" width="48" xmlns="http://www.w3.org/2000/svg"><g fill="#78909c"><path d="m40 26h-18c-1.1 0-2-.9-2-2 0-1.1.9-2 2-2h18c1.1 0 2 .9 2 2 0 1.1-.9 2-2 2z"/><path d="m40 14h-4c-1.1 0-2-.9-2-2 0-1.1.9-2 2-2h4c1.1 0 2 .9 2 2 0 1.1-.9 2-2 2z"/><path d="m40 38h-10c-1.1 0-2-.9-2-2 0-1.1.9-2 2-2h10c1.1 0 2 .9 2 2 0 1.1-.9 2-2 2z"/></g><path d="m22 34h-14c-1.1 0-2 .9-2 2s.9 2 2 2h14z" fill="#26a69a"/><path d="m24.5 42h-1c-.8 0-1.5-.7-1.5-1.5v-9c0-.8.7-1.5 1.5-1.5h1c.8 0 1.5.7 1.5 1.5v9c0 .8-.7 1.5-1.5 1.5z" fill="#455a64"/><path d="m14 22h-6c-1.1 0-2 .9-2 2s.9 2 2 2h6z" fill="#26a69a"/><path d="m16.5 30h-1c-.8 0-1.5-.7-1.5-1.5v-9c0-.8.7-1.5 1.5-1.5h1c.8 0 1.5.7 1.5 1.5v9c0 .8-.7 1.5-1.5 1.5z" fill="#455a64"/><path d="m28 10h-20c-1.1 0-2 .9-2 2s.9 2 2 2h20z" fill="#26a69a"/><path d="m30.5 18h-1c-.8 0-1.5-.7-1.5-1.5v-9c0-.8.7-1.5 1.5-1.5h1c.8 0 1.5.7 1.5 1.5v9c0 .8-.7 1.5-1.5 1.5z" fill="#455a64"/></svg>