<svg height="48" viewBox="0 0 48 48" width="48" xmlns="http://www.w3.org/2000/svg"><path d="m14 6v8h2v-6h16v6h2v-8z" fill="#555"/><path d="m14 14h20v4h-20z" fill="#1976d2"/><path d="m16 8h16v6h-16z" fill="#fff"/><path d="m34 20a10 10 0 0 0 -10 10 9.33 9.33 0 0 0 1.5 5.2l-5.5 5.4 3.3 3.3 5.4-5.4a9.39 9.39 0 0 0 5.3 1.5 10 10 0 0 0 0-20zm0 16.7a6.7 6.7 0 1 1 6.7-6.7 6.7 6.7 0 0 1 -6.7 6.7z" fill="#ffcc80"/><path d="m18.6 39.17 4.4-4.34a11.33 11.33 0 0 1 -1-4.83h-6v10h2.1a2.08 2.08 0 0 1 .5-.83z" fill="#fff"/><path d="m18 40.59a2 2 0 0 1 .1-.59h-2.1v-10h-2v12h4.57a2.05 2.05 0 0 1 -.57-1.41z" fill="#555"/><path d="m21.83 36h-3.83v2h1.79z" fill="#1976d2"/><path d="m22.17 32h-4.17v2h4.69a11.53 11.53 0 0 1 -.52-2z" fill="#1976d2"/><g fill="#757575"><path d="m41.65 20.76v-8.76h-6v6.13a11.93 11.93 0 0 1 6 2.63z"/><path d="m22 30a12 12 0 0 1 5.41-10h-15.76v-7h-6v17z"/></g></svg>