<svg height="48" viewBox="0 0 48 48" width="48" xmlns="http://www.w3.org/2000/svg"><circle cx="32" cy="32" fill="#1976d2" r="12"/><path d="m18 32c0-4.5 2.2-8.7 5.8-11.4l-6-12.6h-12.7l7.7 16-7.7 16h12.7l1.3-2.7c-.7-1.7-1.1-3.5-1.1-5.3z" fill="#00796b"/><path d="m32 23 2.6 5.3 5.8.8-4.2 4.1 1 5.8-5.2-2.8-5.2 2.8 1-5.8-4.2-4.1 5.8-.8z" fill="#fff"/><path d="m30.1 18.1h.2l.6-.1c.4 0 .8-.1 1.1-.1.5 0 1 0 1.5.1.2 0 .4.1.6.1s.6.1.9.1.5.1.7.2.5.1.8.2l.6.2c.3.1.5.2.8.4l.5.3c.4.2.8.4 1.2.7l.1.1c.4.3.9.6 1.3 1 .8.7 1.5 1.5 2.2 2.3l-7.7-15.6h-12.3l5.2 10.5c.5-.2 1.1-.3 1.7-.4z" fill="#00796b"/></svg>