<svg height="48" viewBox="0 0 48 48" width="48" xmlns="http://www.w3.org/2000/svg"><path d="m4 12v24c0 2.2 1.8 4 4 4h32c2.2 0 4-1.8 4-4v-24c0-2.2-1.8-4-4-4h-32c-2.2 0-4 1.8-4 4z" fill="#555"/><path d="m8 10h32c1.1 0 2 .9 2 2v24c0 1.1-.9 2-2 2h-32c-1.1 0-2-.9-2-2v-24c0-1.1.9-2 2-2z" fill="#fff"/><path d="m16 14h22v4h-22z" fill="#ffa726"/><circle cx="12" cy="16" fill="#ffa726" r="2"/><g fill="#7b1fa2"><path d="m16 22h22v4h-22z"/><circle cx="12" cy="24" r="2"/><path d="m16 30h22v4h-22z"/><circle cx="12" cy="32" r="2"/></g></svg>