<svg height="48" viewBox="0 0 48 48" width="48" xmlns="http://www.w3.org/2000/svg"><path d="m44 24c0-.7 0-1.3-.1-2h-15.2c-.9-2.4-3.1-4-5.7-4s-4.8 1.6-5.7 4h-13.2c0 .7-.1 1.3-.1 2s0 1.3.1 2h13.2c.9 2.4 3.1 4 5.7 4s4.8-1.6 5.7-4h15.2c0-.7.1-1.3.1-2z" fill="#455a64"/><g fill="#4eb600"><path d="m16 20v-6.4c0-2.1 1.4-2.9 3.2-1.8l13.9 8.2h10.4c-2.2-10.8-12.7-17.8-23.5-15.6-7.9 1.6-14 7.7-15.6 15.6z"/><path d="m33.1 28-13.9 8.3c-1.8 1-3.2.2-3.2-1.8v-6.5h-11.6c2.2 10.8 12.8 17.8 23.6 15.6 7.9-1.6 14-7.7 15.6-15.6z"/></g></svg>