<svg height="48" viewBox="0 0 48 48" width="48" xmlns="http://www.w3.org/2000/svg"><path d="m20 20h8v8h-8z" fill="#1976d2"/><path d="m44 28v-8h-5.6c-.3-1.2-.8-2.3-1.4-3.4l3.9-3.9-5.6-5.7-3.9 4c-1.1-.6-2.2-1.1-3.4-1.4v-5.6h-8v5.6c-1.2.3-2.3.8-3.4 1.4l-3.9-4-5.7 5.7 3.9 3.9c-.6 1.1-1.1 2.2-1.4 3.4h-5.5v8h5.6c.3 1.2.8 2.3 1.4 3.4l-4 3.9 5.7 5.7 3.9-3.9c1.1.6 2.2 1.1 3.4 1.4v5.5h8v-5.6c1.2-.3 2.3-.8 3.4-1.4l3.9 3.9 5.7-5.7-4-3.8c.6-1.1 1.1-2.2 1.4-3.4zm-12 0c0 2.2-1.8 4-4 4h-8c-2.2 0-4-1.8-4-4v-8c0-2.2 1.8-4 4-4h8c2.2 0 4 1.8 4 4z" fill="#ce93d8"/></svg>