<svg height="48" viewBox="0 0 48 48" width="48" xmlns="http://www.w3.org/2000/svg"><path d="m39 11.9-12-6.9c-.9-.5-2-.8-3-.8s-2.1.2-3 .8l-12 6.9c-1.8 1-3 3-3 5.2v13.8c0 2.2 1.2 4.2 3 5.2l12 6.9c.9.5 2 .8 3 .8s2.1-.2 3-.8l12-6.9c1.8-1 3-3 3-5.2v-13.8c0-2.2-1.2-4.2-3-5.2z" fill="#7b1fa2"/><path d="m38 26.8v-5.6h-3.9c-.2-.8-.6-1.6-1-2.4l2.7-2.7-3.9-4-2.7 2.8c-.8-.4-1.5-.8-2.4-1v-3.9h-5.6v3.9c-.8.2-1.6.6-2.4 1l-2.7-2.8-4 4 2.7 2.7c-.4.8-.8 1.5-1 2.4h-3.8v5.6h3.9c.2.8.6 1.6 1 2.4l-2.8 2.7 4 4 2.7-2.7c.8.4 1.5.8 2.4 1v3.8h5.6v-3.9c.8-.2 1.6-.6 2.4-1l2.7 2.7 4-4-2.8-2.7c.4-.8.8-1.5 1-2.4h3.9zm-14 3.5c-3.5 0-6.3-2.8-6.3-6.3s2.8-6.3 6.3-6.3 6.3 2.8 6.3 6.3-2.8 6.3-6.3 6.3z" fill="#fff"/></svg>