<svg height="48" viewBox="0 0 48 48" width="48" xmlns="http://www.w3.org/2000/svg"><path d="m37 6c-2.8 0-5 2.2-5 5s2.2 5 5 5 5-2.2 5-5-2.2-5-5-5zm0 8c-1.7 0-3-1.3-3-3s1.3-3 3-3 3 1.3 3 3-1.3 3-3 3z" fill="#5c6bc0"/><path d="m13 32c-2.8 0-5 2.2-5 5s2.2 5 5 5 5-2.2 5-5-2.2-5-5-5zm0 8c-1.7 0-3-1.3-3-3s1.3-3 3-3 3 1.3 3 3-1.3 3-3 3z" fill="#5c6bc0"/><path d="m19 6.2.6 4c-6.1 1.7-10.1 4.7-12 8.8-1.6 3.6-1.5 8 .4 13.1 1.2-1.2 2.8-2 4.5-2.1-1.3-3.7-1.4-6.7-.4-9 1.2-2.6 3.9-4.6 8.1-5.8l.6 3.9 10.2-8.1z" fill="#303f9f"/></svg>