<svg height="48" viewBox="0 0 48 48" width="48" xmlns="http://www.w3.org/2000/svg"><g fill="#388e3c"><path d="m24.59 7.08a8 8 0 0 0 -7.1-3.37c-3.2 0-5.59 1.15-7.15 3.46s-2.34 5.77-2.34 10.38v5.55q.06 6.72 2.44 10.15a8.1 8.1 0 0 0 7.08 3.43 8 8 0 0 0 7.13-3.51c1.57-2.34 2.35-5.83 2.35-10.44v-5.55q-.06-6.73-2.41-10.1zm-2.5 16.84a13.79 13.79 0 0 1 -1.16 6.27 3.6 3.6 0 0 1 -3.39 2 3.7 3.7 0 0 1 -3.54-2.19 14.87 14.87 0 0 1 -1.12-6.59v-7.13a13.42 13.42 0 0 1 1.16-6.12 3.66 3.66 0 0 1 3.43-2 3.68 3.68 0 0 1 3.53 2.11 14.51 14.51 0 0 1 1.09 6.51z"/><path d="m40 36h-5v-25.35l-6 1.64v-4.71l10.33-3.58h.67z"/><path d="m8 38h32v4h-32z"/></g></svg>