<svg height="48" viewBox="0 0 48 48" width="48" xmlns="http://www.w3.org/2000/svg"><path d="m4 36v-24a4 4 0 0 1 4-4h32a4 4 0 0 1 4 4v24a4 4 0 0 1 -4 4h-32a4 4 0 0 1 -4-4z" fill="#555"/><path d="m6 36v-24a2 2 0 0 1 2-2h32a2 2 0 0 1 2 2v24a2 2 0 0 1 -2 2h-32a2 2 0 0 1 -2-2z" fill="#fff"/><g fill="#555"><path d="m10 14h6v2h-6z"/><path d="m20 14h18v2h-18z"/><path d="m10 20h6v2h-6z"/><path d="m20 20h18v2h-18z"/><path d="m10 26h6v2h-6z"/><path d="m20 26h18v2h-18z"/><path d="m10 32h6v2h-6z"/><path d="m20 32h18v2h-18z"/></g></svg>