<svg height="48" viewBox="0 0 48 48" width="48" xmlns="http://www.w3.org/2000/svg"><path d="m14 6v8h2v-6h16v6h2v-8z" fill="#555"/><path d="m14 14h20v4h-20z" fill="#1976d2"/><path d="m40.8 26h-6.9l3.9 8-3.9 8h6.9l3.9-8z" fill="#00796b"/><path d="m24.8 26 3.9 8-3.9 8h6.9l3.9-8-3.9-8z" fill="#00796b"/><path d="m26.5 34-1.9-4h-8.6v10h7.6z" fill="#fff"/><path d="m25.6 36h-7.6v2h6.6z" fill="#1976d2"/><path d="m25.6 32h-7.6v2h8.5z" fill="#1976d2"/><path d="m23.6 40h-7.6v-10h-2v12h8.6z" fill="#555"/><path d="m21.6 24h20.4v-12h-6v8h-24v-8h-6v18h18.6z" fill="#757575"/><path d="m16 8h16v6h-16z" fill="#fff"/></svg>