<svg height="48" viewBox="0 0 48 48" width="48" xmlns="http://www.w3.org/2000/svg"><path d="m29.3 16.7c-4-2.9-9.7-2-12.6 2s-2 9.7 2 12.6 9.6 2 12.5-2c3-4 2.1-9.6-1.9-12.6zm-1.8 12.2-3.5-1.9-3.5 1.9.7-4-2.8-2.6 3.9-.6 1.7-3.7 1.7 3.6 3.9.6-2.8 2.7z" fill="#1976d2"/><path d="m27.5 28.9-3.5-1.9-3.5 1.9.7-4-2.8-2.6 3.9-.6 1.7-3.7 1.7 3.6 3.9.6-2.8 2.7z" fill="#fff"/><g clip-rule="evenodd" fill="#555" fill-rule="evenodd"><path d="m4 8v32h40v-32zm38 10h-8.8c.4.6.8 1.3 1 2h7.8v8h-7.8c-.3.7-.6 1.4-1 2h8.8v8h-36v-18h7.8c.3-.7.6-1.4 1-2h-8.8v-8h10v6.5c.6-.6 1.3-1.2 2-1.7v-4.8h24z"/><path d="m17.5 32.9c-.5-.4-1-.9-1.5-1.4v6.5h2v-4.8c-.2-.1-.3-.2-.5-.3z"/></g></svg>