<svg height="48" viewBox="0 0 48 48" width="48" xmlns="http://www.w3.org/2000/svg"><path d="m14 6v8h2v-6h16v6h2v-8z" fill="#555"/><path d="m14 14h20v4h-20z" fill="#0072c6"/><path d="m32 44c-6.6 0-12-5.4-12-12s5.4-12 12-12 12 5.4 12 12-5.4 12-12 12z" fill="#1976d2"/><path d="m39.9 29.4-3.9 3.8.9 5.6-4.9-2.6-4.9 2.6.9-5.6-3.9-3.7 5.4-.8 2.5-5 2.4 4.9z" fill="#fff"/><path d="m16 8h16v6h-16z" fill="#fff"/><path d="m24.8 20h-12.8v-7h-6v17h12.2c.6-4.2 3-7.8 6.6-10z" fill="#757575"/><path d="m42 22.2v-10.2h-6v6.6c2.3.7 4.3 1.9 6 3.6z" fill="#757575"/><path d="m20.5 40h-4.5v-10h-2v12h8.2c-.6-.6-1.2-1.3-1.7-2z" fill="#555"/><path d="m18 32c0-.7.1-1.3.2-2h-2.2v10h4.5c-1.6-2.3-2.5-5.1-2.5-8z" fill="#fff"/></svg>