<svg height="48" viewBox="0 0 48 48" width="48" xmlns="http://www.w3.org/2000/svg"><g fill="#1f6d42"><path d="m32 18c.4 0 .7 0 1.1.1-.4-.1-.7-.1-1.1-.1z"/><path d="m39.3 20.1c-.1-.1-.2-.1-.3-.2.1.1.2.1.3.2z"/><path d="m34 14h4v2h-4z"/></g><path d="m32 18c2.9 0 5.7.9 8 2.5v-8.5h-20v12.8c2.5-4.2 7.1-6.8 12-6.8zm2-4h4v2h-4zm-6 0h4v2h-4z" fill="#fff"/><path d="m30 10v-4l-24 3.8v28.5l15 2.3c-3.3-4.1-3.9-9.7-1.7-14.5 0-.1.1-.1.1-.2 2-4.2 6-7.1 10.6-7.7v-2.2h2v-2h-2v-2h10v8.5c.7.5 1.4 1.1 2 1.7v-12.2z" fill="#1f6d42"/><path d="m32 44c-6.6 0-12-5.4-12-12s5.4-12 12-12 12 5.4 12 12-5.4 12-12 12z" fill="#1976d2"/><path d="m18.9 27.1c.3-.8.6-1.5 1-2.2l-.6-.9 5.7-8.7h-2.4l-3.3 5.3c-.5.6-.9 1.2-1.3 1.9-.3-.5-.7-1.1-1.3-2l-3-4.2h-2.6l5.6 7.8-6.2 7.9h2.6l4.1-5c.3-.4.6-.8.8-1.2.2.4.4.7.7 1.1z" fill="#fff"/><path d="m39.9 29.4-3.9 3.8.9 5.6-4.9-2.6-4.9 2.6.9-5.6-3.9-3.7 5.4-.8 2.5-5 2.4 4.9z" fill="#fff"/></svg>