<svg height="48" viewBox="0 0 48 48" width="48" xmlns="http://www.w3.org/2000/svg"><g fill="#fff"><path d="m29.3 16.7a9 9 0 1 0 2 12.6 9 9 0 0 0 -2-12.6zm-1.8 12.2-3.5-1.9-3.5 1.9.7-4-2.8-2.6 3.9-.6 1.7-3.7 1.7 3.6 3.9.6-2.8 2.7z"/><g fill-rule="evenodd"><path d="m4 8v32h40v-32zm38 10h-8.8a7.5 7.5 0 0 1 1 2h7.8v8h-7.8a12.45 12.45 0 0 1 -1 2h8.8v8h-36v-18h7.8a12.45 12.45 0 0 1 1-2h-8.8v-8h10v6.5a16.19 16.19 0 0 1 2-1.7v-4.8h24z"/><path d="m17.5 32.9a19.87 19.87 0 0 1 -1.5-1.4v6.5h2v-4.8c-.2-.1-.3-.2-.5-.3z"/></g></g></svg>