<svg height="48" viewBox="0 0 48 48" width="48" xmlns="http://www.w3.org/2000/svg"><g fill="#fff"><path d="m24 16c-5.5 0-10 4.5-10 10 0 1.8.5 3.6 1.4 5.1l-7.7 7.7 3.5 3.5 7.7-7.7c1.5.9 3.3 1.4 5.1 1.4 5.5 0 10-4.5 10-10s-4.5-10-10-10zm0 17c-3.9 0-7-3.2-7-7s3.2-7 7-7 7 3.2 7 7c0 3.9-3.1 7-7 7z"/><path d="m10.2 33.5c-.8-.4-1.5-.8-2.2-1.3v3.4z"/><path d="m31.5 35.4c-2.1 1.7-4.8 2.6-7.5 2.6-1.6 0-3.2-.3-4.7-1l-5.8 5.8c3.4.8 7 1.2 10.5 1.2 8.8 0 16-2.2 16-5v-6.8c-2.6 1.7-5.5 2.7-8.5 3.2z"/><path d="m11.5 32.1 1.5-1.5c-.6-1.5-1-3.1-1-4.7 0-.6.1-1.2.1-1.7-1.5-.4-2.9-1.1-4.1-2v6.8c0 1.2 1.3 2.3 3.5 3.1z"/><path d="m35.9 24.3c.1.6.1 1.1.1 1.7 0 2.5-.8 5-2.2 7 3.8-.9 6.2-2.3 6.2-4v-6.8c-1.3.9-2.6 1.6-4.1 2.1z"/><path d="m12.5 22.5c.9-2.9 2.9-5.4 5.5-6.9-4.4-.6-7.9-1.8-10-3.4v6.8c0 1.4 1.7 2.6 4.5 3.5z"/><path d="m30 15.6c2.6 1.5 4.6 4 5.5 6.9 2.8-.9 4.5-2.1 4.5-3.5v-6.8c-2.1 1.6-5.7 2.8-10 3.4z"/><ellipse cx="24" cy="9" rx="16" ry="5"/><circle cx="24" cy="26" r="5"/></g></svg>