<svg height="48" viewBox="0 0 48 48" width="48" xmlns="http://www.w3.org/2000/svg"><circle cx="24" cy="24" fill="#d7e1fe" r="18"/><g fill="#fff"><path d="m15.94 30.45a1.51 1.51 0 0 1 -1.29-.45 1.47 1.47 0 0 1 .26-1.34l2.8-4.85 2 1.06-.43-6.11-5.8 2.73 2.09 1.13-2.85 4.75a3.88 3.88 0 0 0 -.26 3.92 3.89 3.89 0 0 0 3.48 1.71h1.83v-2.58z"/><path d="m30.31 18.69-3-5.27a3.88 3.88 0 0 0 -3.31-2.18 3.86 3.86 0 0 0 -3.26 2.18l-1.58 2.58 2.25 1.25 1.59-2.54c.32-.56.71-.89 1-.89s.71.33 1 .89l3.1 5.29-2.1 1.29 5.84 2.71.2-6.37z"/><path d="m35.33 27.38-.76-1.38-2.26 1.2.79 1.48a1.53 1.53 0 0 1 .26 1.32c-.16.28-.64.45-1.29.45h-5.78v-2.26l-5.36 3.67 5.38 3.42v-2.23h5.78a3.87 3.87 0 0 0 3.52-1.74 3.9 3.9 0 0 0 -.28-3.93z"/></g></svg>