<svg height="48" viewBox="0 0 48 48" width="48" xmlns="http://www.w3.org/2000/svg"><g fill="#d7e1fe"><path d="m12.59 34.19a2.13 2.13 0 0 1 -1.82-.63 2.11 2.11 0 0 1 .36-1.89l4-6.87 2.77 1.51-.61-8.65-8.24 3.86 2.95 1.6-4 6.73a5.5 5.5 0 0 0 -.36 5.54 5.5 5.5 0 0 0 5 2.46h2.6v-3.65z"/><path d="m32.93 17.54-4.31-7.46a5.47 5.47 0 0 0 -4.62-3.08 5.47 5.47 0 0 0 -4.62 3.08l-2.25 3.7 3.19 1.77 2.22-3.65c.46-.79 1-1.26 1.46-1.26s1 .47 1.46 1.26l4.33 7.5-3 1.82 8.33 3.88.28-9z"/><path d="m40 29.84-1.07-2-3.2 1.7 1.11 2.09a2.07 2.07 0 0 1 .36 1.89c-.23.4-.91.63-1.82.63h-8.15v-3.15l-7.59 5.19 7.6 4.81v-3.16h8.16a5.5 5.5 0 0 0 5-2.46 5.46 5.46 0 0 0 -.4-5.54z"/></g></svg>