<svg height="48" viewBox="0 0 48 48" width="48" xmlns="http://www.w3.org/2000/svg"><path d="m36 42h-24a2 2 0 0 1 -2-2v-32a2 2 0 0 1 2-2h24a2 2 0 0 1 2 2v32a2 2 0 0 1 -2 2z" fill="#fff"/><path d="m36 4h-24a4 4 0 0 0 -4 4v32a4 4 0 0 0 4 4h24a4 4 0 0 0 4-4v-32a4 4 0 0 0 -4-4zm2 36a2 2 0 0 1 -2 2h-24a2 2 0 0 1 -2-2v-32a2 2 0 0 1 2-2h24a2 2 0 0 1 2 2z" fill="#555"/><g fill="#d32f2f"><path d="m14 11h20v2h-20z"/><path d="m14 17h20v2h-20z"/><path d="m14 23h20v2h-20z"/><path d="m14 29h20v2h-20z"/><path d="m14 35h20v2h-20z"/></g></svg>