<svg height="48" viewBox="0 0 48 48" width="48" xmlns="http://www.w3.org/2000/svg"><g fill="#d32f2f"><path d="m4 22h40v6h-40z"/><path d="m9.42 20a12.31 12.31 0 0 1 1.28-5.84 4.12 4.12 0 0 1 3.79-2 4.14 4.14 0 0 1 3.86 2.07 12.21 12.21 0 0 1 1.2 5.77h5.45c-.18-3.9-1-6.88-2.62-8.92-1.76-2.25-4.38-3.38-7.89-3.37s-6.17 1.15-7.9 3.46c-1.53 2-2.38 5-2.55 8.83z"/><path d="m19.46 30a10 10 0 0 1 -1.17 4.19 4.06 4.06 0 0 1 -3.75 2 4.15 4.15 0 0 1 -3.88-2.19 13.77 13.77 0 0 1 -1.13-4h-5.36a14.14 14.14 0 0 0 2.53 7.25c1.76 2.28 4.37 3.43 7.83 3.43s6.15-1.17 7.88-3.51a14.74 14.74 0 0 0 2.43-7.17z"/><path d="m39 20h5v-12h-.67l-12.33 4.58v4.71l8-2.64z"/><path d="m39 30h5v10h-5z"/></g></svg>