<svg height="48" viewBox="0 0 48 48" width="48" xmlns="http://www.w3.org/2000/svg"><path d="m36 14h4.2l-6.2-6.2v4.2a2 2 0 0 0 2 2z" fill="#bdbdbd"/><path d="m36 16a4 4 0 0 1 -4-4v-6h-14a2 2 0 0 0 -2 2v4h4v6a4 4 0 0 0 4 4h6v2h8a2 2 0 0 1 2 2v12a2 2 0 0 0 2-2v-20z" fill="#bdbdbd"/><path d="m18 40h-8a2 2 0 0 1 -2-2v-24a2 2 0 0 1 2-2h10v6a4 4 0 0 0 4 4h6v2h2v-3l-11-11h-11a4 4 0 0 0 -4 4v24a4 4 0 0 0 4 4h8zm4-26.2 6.2 6.2h-4.2a2 2 0 0 1 -2-2z" fill="#555"/><path d="m18 26a2 2 0 0 1 2-2h10v-2h-6a4 4 0 0 1 -4-4v-6h-10a2 2 0 0 0 -2 2v24a2 2 0 0 0 2 2h8z" fill="#fff"/><path d="m24 20h4.2l-6.2-6.2v4.2a2 2 0 0 0 2 2z" fill="#fff"/><path d="m38 44-3 3-3-3-3 3-3-3-3 3-3-3v-18h18z" fill="#1976d2"/><path d="m36 43-1 1-3-3-3 3-3-3-3 3-1-1v-15h14z" fill="#d7e1fe"/><g fill="#1976d2"><path d="m24 30h6v2h-6z"/><path d="m24 34h10v2h-10z"/><path d="m24 38h10v2h-10z"/></g></svg>