<svg height="48" viewBox="0 0 48 48" width="48" xmlns="http://www.w3.org/2000/svg"><path d="m30 26a9.93 9.93 0 0 1 7.12 3 1.87 1.87 0 0 1 .55 1.13 2.1 2.1 0 0 1 .74.46l3.59 3.58v-18.17h-6a4 4 0 0 1 -4-4v-6h-14a2 2 0 0 0 -2 2v4h4v6a4 4 0 0 0 4 4h6z" fill="#bdbdbd"/><path d="m36 14h4.2l-6.2-6.2v4.2a2 2 0 0 0 2 2z" fill="#bdbdbd"/><path d="m24 36a6 6 0 0 1 6-6 5.82 5.82 0 0 1 4.3 1.8l1.4-1.4a8 8 0 0 0 -11.3-.1 8.25 8.25 0 0 0 -2.4 5.7h-3l4 4 4-4z" fill="#303f9f"/><path d="m37 32-4 4h3a6 6 0 0 1 -6 6 5.82 5.82 0 0 1 -4.3-1.8l-1.4 1.4a8 8 0 0 0 11.3.1 8.25 8.25 0 0 0 2.4-5.7h3z" fill="#303f9f"/><path d="m22.3 41.9a1.15 1.15 0 0 1 -.7-.5l-1.4-1.4h-10.2a2 2 0 0 1 -2-2v-24a2 2 0 0 1 2-2h10v6a4 4 0 0 0 4 4h6v4a13.42 13.42 0 0 1 2 .2v-5.2l-11-11h-11a4 4 0 0 0 -4 4v24a4 4 0 0 0 4 4h12.4zm-.3-28.1 6.2 6.2h-4.2a2 2 0 0 1 -2-2z" fill="#555"/><g fill="#fff"><path d="m24 20h4.2l-6.2-6.2v4.2a2 2 0 0 0 2 2z"/><path d="m17.6 37.4a2 2 0 0 1 1.4-3.4h1.2a10.42 10.42 0 0 1 2.8-5.1 9.82 9.82 0 0 1 7-2.9v-4h-6a4 4 0 0 1 -4-4v-6h-10a2 2 0 0 0 -2 2v24a2 2 0 0 0 2 2h10.2z"/></g></svg>