<svg height="48" viewBox="0 0 48 48" width="48" xmlns="http://www.w3.org/2000/svg"><path d="m7.73 15.56-2.9-.51a4.38 4.38 0 0 1 1.69-2.53 6.22 6.22 0 0 1 3.55-.82 7.88 7.88 0 0 1 3.19.49 3.14 3.14 0 0 1 1.47 1.25 6.32 6.32 0 0 1 .43 2.79v3.63a12.59 12.59 0 0 0 .15 2.29 6.35 6.35 0 0 0 .57 1.58h-3.2c-.08-.21-.19-.51-.31-.92 0-.18-.09-.31-.11-.37a5.87 5.87 0 0 1 -1.75 1.16 5.23 5.23 0 0 1 -2 .39 4.16 4.16 0 0 1 -2.94-1 3.31 3.31 0 0 1 -.29-4.67 3.23 3.23 0 0 1 1.07-.8 10.78 10.78 0 0 1 2.55-.73 18.33 18.33 0 0 0 3.1-.79v-.31a1.55 1.55 0 0 0 -.46-1.28 2.8 2.8 0 0 0 -1.72-.38 2.3 2.3 0 0 0 -1.33.33 2.38 2.38 0 0 0 -.78 1.16zm4.27 2.53q-.62.19-1.95.48a6 6 0 0 0 -1.74.54 1.28 1.28 0 0 0 -.63 1.1 1.52 1.52 0 0 0 .5 1.13 1.8 1.8 0 0 0 1.27.48 2.89 2.89 0 0 0 1.65-.55 2 2 0 0 0 .76-1 6 6 0 0 0 .14-1.55z" fill="#555"/><path d="m18.19 23.74v-16.23h3.2v5.85a4.58 4.58 0 0 1 3.51-1.64 4.73 4.73 0 0 1 3.65 1.56 6.32 6.32 0 0 1 1.45 4.47 6.73 6.73 0 0 1 -1.47 4.64 4.64 4.64 0 0 1 -5.63 1.13 4.91 4.91 0 0 1 -1.74-1.52v1.73zm3.18-6.14a4.89 4.89 0 0 0 .63 2.7 2.52 2.52 0 0 0 2.21 1.24 2.27 2.27 0 0 0 1.79-.88 4.26 4.26 0 0 0 .74-2.77 4.53 4.53 0 0 0 -.74-2.89 2.53 2.53 0 0 0 -3.57-.29 2.29 2.29 0 0 0 -.27.27 4 4 0 0 0 -.76 2.64z" fill="#bdbdbd"/><path d="m23.41 32.26-2.84-.5a4.24 4.24 0 0 1 1.65-2.46 6.23 6.23 0 0 1 3.48-.8 7.56 7.56 0 0 1 3.12.48 3 3 0 0 1 1.44 1.22 6 6 0 0 1 .42 2.72v3.55a12 12 0 0 0 .15 2.23 6.61 6.61 0 0 0 .56 1.54h-3.1q-.12-.3-.3-.9c-.05-.18-.09-.3-.11-.36a6.07 6.07 0 0 1 -1.72 1.14 5.21 5.21 0 0 1 -1.95.38 4.13 4.13 0 0 1 -2.88-1 3.21 3.21 0 0 1 .77-5.33 10.27 10.27 0 0 1 2.49-.71 17.76 17.76 0 0 0 3-.75v-.3a1.53 1.53 0 0 0 -.45-1.25 2.74 2.74 0 0 0 -1.68-.37 1.88 1.88 0 0 0 -2.06 1.43zm4.19 2.47c-.4.13-1 .28-1.91.46a5.7 5.7 0 0 0 -1.7.53 1.23 1.23 0 0 0 -.61 1.07 1.48 1.48 0 0 0 .49 1.1 1.8 1.8 0 0 0 1.25.47 2.86 2.86 0 0 0 1.62-.54 1.87 1.87 0 0 0 .75-1 6.17 6.17 0 0 0 .12-1.48v-.61z" fill="#555"/><g fill="#1976d2"><path d="m44.09 32.16-3.09.54a2.09 2.09 0 0 0 -.71-1.35 2.24 2.24 0 0 0 -1.43-.45 2.37 2.37 0 0 0 -1.87.78 3.88 3.88 0 0 0 -.7 2.62 4.61 4.61 0 0 0 .71 2.89 2.35 2.35 0 0 0 1.9.84 2.15 2.15 0 0 0 1.46-.49 2.88 2.88 0 0 0 .8-1.69l3.08.51a5.27 5.27 0 0 1 -1.84 3.1 5.82 5.82 0 0 1 -3.64 1 5.56 5.56 0 0 1 -4.14-1.59 7.08 7.08 0 0 1 0-8.83 5.58 5.58 0 0 1 4.19-1.58 5.89 5.89 0 0 1 3.44.9 5 5 0 0 1 1.84 2.8z"/><path d="m16 36h-10v-10h2v8h8z"/><path d="m18 35-6 6v-12z"/></g></svg>