<svg height="48" viewBox="0 0 48 48" width="48" xmlns="http://www.w3.org/2000/svg"><g fill="#bdbdbd"><path d="m36 14h4.2l-6.2-6.2v4.2a2 2 0 0 0 2 2z"/><path d="m30 22c.4-.6.8-1.21 1.17-1.83.63-1.07 1.25-2.17 1.92-3.17.12-.19.25-.38.38-.56s.7-.87.83-.81a4 4 0 0 1 -2.3-3.63v-6h-14a2 2 0 0 0 -2 2v4h4v6a4 4 0 0 0 4 4z"/><path d="m37.31 38h2.69a2 2 0 0 0 2-2v-5.3z"/></g><path d="m24 20h4.2l-6.2-6.2v4.2a2 2 0 0 0 2 2z" fill="#fff"/><path d="m35 17.64 9 5.86s1.75-2.57-2.62-5.59-6.38-.27-6.38-.27z" fill="#7e57c2"/><path d="m34.5 18.5 9 6-1 1.5-9-6z" fill="#555"/><path d="m24 35 3 1 4-2v4l2 3 9-14-9-6z" fill="#7e57c2"/><path d="m25.5 40 1.5 1h6l-9 3v-9z" fill="#555"/><path d="m22 35s0-.18 0-.21a1.77 1.77 0 0 1 .08-.4s0 0 0-.08a1.53 1.53 0 0 1 .21-.4s0 0 0 0l7.71-11.91h-6a4 4 0 0 1 -4-4v-6h-10a2 2 0 0 0 -2 2v24a2 2 0 0 0 2 2h12z" fill="#fff"/><path d="m22 40h-12a2 2 0 0 1 -2-2v-24a2 2 0 0 1 2-2h10v6a4 4 0 0 0 4 4h6l1.18-1.84-10.18-10.16h-11a4 4 0 0 0 -4 4v24a4 4 0 0 0 4 4h12zm0-26.2 6.2 6.2h-4.2a2 2 0 0 1 -2-2z" fill="#555"/></svg>