<svg height="48" viewBox="0 0 48 48" width="48" xmlns="http://www.w3.org/2000/svg"><path d="m8 4h20v20h-20z" fill="#bf360c"/><path d="m36 6c1.1 0 2 .9 2 2v32c0 1.1-.9 2-2 2h-24c-1.1 0-2-.9-2-2v-14h-2v14c0 2.2 1.8 4 4 4h24c2.2 0 4-1.8 4-4v-32c0-2.2-1.8-4-4-4h-6v2z" fill="#555"/><path d="m30 24c0 1.1-.9 2-2 2h-18v14c0 1.1.9 2 2 2h24c1.1 0 2-.9 2-2v-32c0-1.1-.9-2-2-2h-6z" fill="#fff"/><path d="m30 10h4v2h-4z" fill="#e64a19"/><path d="m14 34h20v2h-20z" fill="#e64a19"/><path d="m14 28h20v2h-20z" fill="#e64a19"/><path d="m30 22h4v2h-4z" fill="#e64a19"/><path d="m30 16h4v2h-4z" fill="#e64a19"/><g fill="#fff"><path d="m18 8c-3.3 0-6 2.7-6 6s2.7 6 6 6 6-2.7 6-6-2.7-6-6-6zm0 10c-2.2 0-4-1.8-4-4s1.8-4 4-4 4 1.8 4 4-1.8 4-4 4z"/><path d="m20 6v4h-4v-4z"/><path d="m20 18v4h-4v-4z"/><path d="m26 16h-4v-4h4z"/><path d="m14 16h-4v-4h4z"/><circle cx="18" cy="14" r="2"/></g></svg>