<svg height="48" viewBox="0 0 48 48" width="48" xmlns="http://www.w3.org/2000/svg"><g fill="#757575"><path d="m16 6h6v2h-6z"/><path d="m26 6h6v2h-6z"/><path d="m40 40h-4v2h6v-6h-2z"/><path d="m40 26h2v6h-2z"/><path d="m40 6h-4v2h4v4h2v-6z"/><path d="m40 16h2v6h-2z"/><path d="m8 36h-2v6h6v-2h-4z"/><path d="m6 26h2v6h-2z"/><path d="m8 8h4v-2h-6v6h2z"/><path d="m6 16h2v6h-2z"/><path d="m16 40h6v2h-6z"/><path d="m26 40h6v2h-6z"/><path d="m36 36v-12h-9.24l-8.38-8.38 3.62-3.62h-10v10l3.62-3.62 8.38 8.38v9.24z"/></g></svg>