<svg height="48" viewBox="0 0 48 48" width="48" xmlns="http://www.w3.org/2000/svg"><g fill="#303f9f"><path d="m13.22 16.08h-4.62l-.88 2.64h-2.8l4.76-12.8h2.44l4.79 12.8h-2.8zm-3.91-2.14h3.2l-1.61-4.79z"/><path d="m20.11 30.71v-12.8h4.48a5.93 5.93 0 0 1 3.53.89 3.05 3.05 0 0 1 1.2 2.61 3 3 0 0 1 -.48 1.66 2.73 2.73 0 0 1 -1.34 1.05 2.72 2.72 0 0 1 1.55 1 2.93 2.93 0 0 1 .57 1.83 3.35 3.35 0 0 1 -1.18 2.79 5.3 5.3 0 0 1 -3.36 1h-5zm2.64-7.43h1.95c1.33 0 2-.55 2-1.59a1.43 1.43 0 0 0 -.51-1.25 2.72 2.72 0 0 0 -1.6-.38h-1.85v3.22zm0 1.86v3.45h2.25a2.17 2.17 0 0 0 1.45-.44 1.55 1.55 0 0 0 .55-1.23 1.59 1.59 0 0 0 -1.39-1.78 1.55 1.55 0 0 0 -.43 0z"/><path d="m41.64 37.45a4.54 4.54 0 0 1 -1.52 3.25 5.36 5.36 0 0 1 -3.63 1.19 4.81 4.81 0 0 1 -3.87-1.66 6.84 6.84 0 0 1 -1.41-4.55v-.78a7.71 7.71 0 0 1 .65-3.25 4.88 4.88 0 0 1 1.86-2.16 5.81 5.81 0 0 1 6.38.44 4.82 4.82 0 0 1 1.56 3.33h-2.66a2.19 2.19 0 0 0 -2.5-2.36 2.22 2.22 0 0 0 -2 .94 5.35 5.35 0 0 0 -.67 2.93v1a5.59 5.59 0 0 0 .63 3 2.2 2.2 0 0 0 2 1 2.59 2.59 0 0 0 1.82-.56 2.54 2.54 0 0 0 .72-1.77h2.64z"/></g></svg>