<svg enable-background="new 0 0 48 48" height="48" viewBox="0 0 48 48" width="48" xmlns="http://www.w3.org/2000/svg"><path d="m24 6-18 6 18 6 18-6z" fill="#e0f7fa"/><path d="m32 20c-6.6 0-12 5.4-12 12s5.4 12 12 12 12-5.4 12-12-5.4-12-12-12z" fill="#388e3c"/><path d="m40 34h-6v6h-4v-6h-6v-4h6v-6h4v6h6z" fill="#fff"/><path d="m18 32c0-4.294 1.947-8.138 5-10.708v-1.122l-17-5.67v21.5l15.422 5.144c-2.126-2.456-3.422-5.648-3.422-9.144z" fill="#e0f7fa"/><path d="m32 18c3.916 0 7.457 1.621 10 4.221v-7.721l-10.582 3.529c.194-.008.385-.029.582-.029z" fill="#e0f7fa"/><path d="m19.571 38.417-11.571-3.857v-19.39l15 5v1.122c2.297-1.934 5.223-3.131 8.422-3.262l8.578-2.86v5.357c.719.503 1.389 1.068 2 1.693v-10.22l-18-6-18 6v24l15.419 5.14c-.718-.83-1.339-1.741-1.848-2.723zm4.429-30.307 14.84 4.95-14.84 4.94-14.84-4.95z" fill="#0097a7"/></svg>