<svg enable-background="new 0 0 48 48" height="48" viewBox="0 0 48 48" width="48" xmlns="http://www.w3.org/2000/svg"><path d="m24 6-18 6 18 6 18-6z" fill="#e0f7fa"/><path d="m30.966 18.648-4.026 8.121-8.94 1.297 6.483 6.346-1.501 8.94 7.984-4.231 8.052 4.231-1.501-8.94 6.483-6.346-8.94-1.297z" fill="#5d4037"/><path d="m30.966 21.719 2.798 5.664.341.614.682.136 6.21.887-4.504 4.367-.546.478.136.682 1.092 6.21-5.596-2.934-.614-.273-.614.341-5.596 2.934 1.092-6.21.136-.682-.546-.478-4.504-4.367 6.21-.887.682-.136.341-.614z" fill="#ffa726"/><g fill="#e0f7fa"><path d="m32.752 17.748 3.626 7.191 5.622.816v-11.255l-9.34 3.115c.028.047.067.084.092.133z"/><path d="m25.614 24.94 2.955-5.961-3.569 1.191v4.859z"/><path d="m22.338 35.111-5.737-5.616c-.544-.532-.738-1.326-.502-2.049s.862-1.25 1.614-1.359l5.287-.768v-5.149l-17-5.67v21.5l15.33 5.113z"/></g><path d="m21.665 39.115-13.665-4.555v-19.39l15 5v5.149l2-.29v-4.859l3.569-1.19.605-1.22c.337-.679 1.028-1.109 1.785-1.112h.007c.701 0 1.334.377 1.695.968l7.339-2.446v10.295l2 .29v-13.755l-18-6-18 6v24l15.33 5.11zm2.335-31.005 14.84 4.95-14.84 4.94-14.84-4.95z" fill="#0097a7"/><path d="m39.662 35.111.266 1.58 2.072-.691v-3.178z" fill="#0097a7"/></svg>