<svg height="48" viewBox="0 0 48 48" width="48" xmlns="http://www.w3.org/2000/svg"><path d="m4 8h40v32h-40z" fill="#0072c6"/><path d="m6 16h8v6h-8z" fill="#fff"/><path d="m16 16h7v6h-7z" fill="#fff"/><path d="m25 16h7v6h-7z" fill="#fff"/><path d="m34 16h8v6h-8z" fill="#fff"/><path d="m6 24h8v6h-8z" fill="#fff"/><path d="m16 24h7v6h-7z" fill="#ffa726"/><g fill="#fff"><path d="m25 24h7v6h-7z"/><path d="m34 24h8v6h-8z"/><path d="m6 32h8v6h-8z"/><path d="m16 32h7v6h-7z"/><path d="m25 32h7v6h-7z"/><path d="m34 32h8v6h-8z"/></g></svg>