<svg id="Search" xmlns="http://www.w3.org/2000/svg" width="48" height="48" viewBox="0 0 48 48">
  <defs>
    <style>
      .cls-1{fill:#555}
    </style>
  </defs>
  <path class="cls-1" d="M40 22H30a4 4 0 0 0-4 4v14h-4a4 4 0 0 0 4 4h10a4 4 0 0 0 4-4V26h4a4 4 0 0 0-4-4z"/>
  <path d="M38 24v16a2 2 0 0 1-2 2h-8V26a2 2 0 0 1 2-2h8" fill="#fff"/>
  <path d="M24 31a10 10 0 1 1 11-11h5a15 15 0 0 0-30 1 14.72 14.72 0 0 0 2.2 7.8L4 37l5 5 8.2-8.2A14.85 14.85 0 0 0 24 36z" fill="#f57c00"/>
  <path class="cls-1" d="M30 28h6v2h-6zM30 32h6v2h-6zM30 36h6v2h-6z"/>
</svg>
