<svg height="48" viewBox="0 0 48 48" width="48" xmlns="http://www.w3.org/2000/svg"><path d="m34 20a10 10 0 0 0 -10 10 9.33 9.33 0 0 0 1.5 5.2l-5.5 5.4 3.3 3.3 5.4-5.4a9.39 9.39 0 0 0 5.3 1.5 10 10 0 0 0 0-20zm0 16.7a6.7 6.7 0 1 1 6.7-6.7 6.7 6.7 0 0 1 -6.7 6.7z" fill="#f57c00"/><path d="m34 12.4-.3-.4a15.49 15.49 0 1 0 -12.9 25l2-2c-.4 0-.9.1-1.3.1a13.58 13.58 0 0 1 -10.6-5.1h11a13.42 13.42 0 0 1 .2-2h-12.5a13.53 13.53 0 0 1 -1.6-6h17.1a13.7 13.7 0 0 1 2.3-2h-19.4a12.86 12.86 0 0 1 2.2-6h22.6a14.28 14.28 0 0 1 1.8 4 7.46 7.46 0 0 1 2.1.3 15.18 15.18 0 0 0 -2.7-5.9zm-22.2-.4a13.52 13.52 0 0 1 19.4 0z" fill="#0072c6"/></svg>