<svg height="48" viewBox="0 0 48 48" width="48" xmlns="http://www.w3.org/2000/svg"><path d="m42 39-9.6-9.6a10 10 0 1 0 -3 3l9.6 9.6zm-25-15a7 7 0 1 1 0 .09z" fill="#bdbdbd"/><path d="m29 34.9a12.51 12.51 0 0 1 -5 1.1 12 12 0 1 1 10-18.6v-5.4a4 4 0 0 0 -4-4h-18a4 4 0 0 0 -4 4v24a4 4 0 0 0 4 4h18a4 4 0 0 0 2.9-1.3z" fill="#fff"/><path d="m33.7 10.6a3.24 3.24 0 0 1 .3 1.4v5.4a11.68 11.68 0 0 1 2 6.6v-9.6a4.25 4.25 0 0 0 -2.3-3.8z" fill="#555"/><path d="m32.9 38.7a4 4 0 0 1 -2.9 1.3h-18a4 4 0 0 1 -4-4v-24a3.24 3.24 0 0 1 .3-1.4 4.25 4.25 0 0 0 -2.3 3.8v23.2a4.44 4.44 0 0 0 4.4 4.4h21.2a4.28 4.28 0 0 0 3.2-1.4z" fill="#555"/><path d="m24 12v-2a2 2 0 0 1 2-2h-12a2 2 0 0 0 -2 2v14a12 12 0 0 1 12-12z" fill="#fff"/><path d="m19.1 23.1 4.9 4.9v-9a5 5 0 0 0 -4.9 4.1z" fill="#fff"/><g fill="#555"><path d="m24 10v2a11.9 11.9 0 0 1 8 3.1v-5.1a4 4 0 0 0 -4-4h-18a4 4 0 0 0 -4 4v24a4 4 0 0 0 4 4h18a4 4 0 0 0 2.9-1.3l-1.9-1.8a12.51 12.51 0 0 1 -5 1.1 12 12 0 0 1 -12-12v-14a2 2 0 0 1 2-2h12a2 2 0 0 0 -2 2z"/><path d="m24 19v9l-4.9-4.9a2.74 2.74 0 0 0 -.1.9 5 5 0 1 0 5-5z"/></g></svg>