<svg height="48" viewBox="0 0 48 48" width="48" xmlns="http://www.w3.org/2000/svg"><path d="m39.6 30.3c-1.1.6-2.3.9-3.6 1.1v-.8c1.2-1.5 2-5.6 2-5.6h1v-4h-3v4h1c0 1.7-.6 3.3-1.6 4.6l-2.6-2.6h-5.5l-2.4 2.5c-1-1.1-1.6-4.5-1.6-4.5h.7v-4h-3v4h.9c0 2.1.7 4.1 2.1 5.6v.8c-1.3-.2-2.5-.6-3.6-1.2l.5-.3-1.9-3.4-2.4 1.5 1.8 3.5.9-.7c1.4.9 3 1.5 4.7 1.6v1.8c-1 1.1-1.6 2.4-1.9 3.8h-1v4h3v-4h-.7c.3-1 .8-2 1.5-2.8l2.3 2.8h5.7l2.3-2.8c.7.8 1.2 1.8 1.5 2.8h-.7v4h3v-4h-1.4s-1.1-2.7-2.6-3.7v-1.8c1.9-.2 3.8-.7 5.6-1.6l1 .7 2-3.4-2.6-1.5-1.9 3.3z" fill="#4eb600"/><path d="m14 27.2 2.2-1.4c-.8-1.5-1.2-3.1-1.2-4.8 0-5.5 4.5-10 10-10 4.8 0 8.9 3.3 9.8 8h5.1c-1.1-8.2-8.7-13.9-16.9-12.8s-13.9 8.7-12.8 16.9c.3 2 1 4 2 5.7l-8.1 8.1 5 4.9 8.1-8.1c.1.1.2.2.4.2z" fill="#f57c00"/></svg>