<svg height="48" viewBox="0 0 48 48" width="48" xmlns="http://www.w3.org/2000/svg"><g fill="#bdbdbd"><path d="m42 22h2v20h-2z"/><path d="m34 22h2v22h-2z"/><path d="m26 22h2v22h-2z"/></g><circle cx="43" cy="41.04" fill="#1976d2" r="3"/><circle cx="35" cy="29.04" fill="#1976d2" r="3"/><circle cx="27" cy="37.04" fill="#1976d2" r="3"/><path d="m25 11a9.91 9.91 0 0 1 9.9 9h4.9a14.75 14.75 0 0 0 -14.8-14 15 15 0 0 0 -12.8 22.8l-8.1 8.1 4.9 4.9 8.1-8.1a16.49 16.49 0 0 0 5.1 2 5 5 0 0 1 1.8-2.7v-2.1a10 10 0 0 1 1-19.9z" fill="#f57c00"/></svg>