<svg height="48" viewBox="0 0 48 48" width="48" xmlns="http://www.w3.org/2000/svg"><circle cx="36" cy="25" fill="#ab47bc" r="2"/><circle cx="43" cy="25" fill="#ce93d8" r="1.5"/><path d="m24 30h6v14h-6z" fill="#7b1fa2"/><path d="m34 29h4v11h-4z" fill="#ab47bc"/><path d="m42 28h2v8h-2z" fill="#ce93d8"/><circle cx="27" cy="25" fill="#7b1fa2" r="3"/><path d="m22 30.5c-5.3-1.7-8.2-7.3-6.5-12.5s7.3-8.2 12.5-6.5c4.2 1.3 7 5.2 7 9.6v.2c.3-.1.7-.1 1-.1 1.7 0 3.2 1.1 3.7 2.7.2-.9.3-1.8.3-2.7 0-8.3-6.7-15-15-15s-15 6.7-15 15c0 2.8.8 5.5 2.2 7.8l-8.1 8 4.9 4.8 8.1-8.1c1.5.9 3.2 1.6 4.9 1.9z" fill="#f57c00"/></svg>