<svg id="Search" xmlns="http://www.w3.org/2000/svg" width="48" height="48" viewBox="0 0 48 48">
  <defs>
    <style>
      .cls-1{fill:#1976d2}
    </style>
  </defs>
  <path class="cls-1" d="M33 22a11 11 0 1 0 11 11 11 11 0 0 0-11-11zm0 19.8a8.8 8.8 0 1 1 8.8-8.8 8.83 8.83 0 0 1-8.8 8.8z"/>
  <circle class="cls-1" cx="33" cy="28.05" r="1.65"/>
  <path class="cls-1" d="M33 30.8a1.61 1.61 0 0 0-1.65 1.65V38a1.65 1.65 0 0 0 3.3 0v-5.5A1.61 1.61 0 0 0 33 30.8z"/>
  <path d="M20 33a13.05 13.05 0 0 1 .4-3.14 10 10 0 1 1 14.6-9.7A13.1 13.1 0 0 1 40 22v-1a15 15 0 0 0-30 0 14.72 14.72 0 0 0 2.2 7.8L4 37l5 5 8.2-8.2a15.47 15.47 0 0 0 3 1.41A13.45 13.45 0 0 1 20 33z" fill="#f57c00"/>
</svg>
