<svg height="48" viewBox="0 0 48 48" width="48" xmlns="http://www.w3.org/2000/svg"><path d="m17 30c0-7.7 6.3-13 14-13 2.971 0 8.171 1 9.002 3.536.718.504 1.387 1.074 1.998 1.7v-10.236c0-3.314-2.686-6-6-6h-24c-3.314 0-6 2.686-6 6v22c0 3.314 2.686 6 6 6h8.539c-.442-.63-.834-1.297-1.17-1.996-2.223-.784-2.369-5.857-2.369-8.004z" fill="#1a237e"/><path d="m18 32c0-7.7 6.3-14 14-14 2.971 0 5.727.945 8 2.539v-2.539c0-2.209-1.791-4-4-4h-24c-2.209 0-4 1.791-4 4v16c0 2.209 1.791 4 4 4h7.377c-.873-1.823-1.377-3.853-1.377-6z" fill="#fff"/><path d="m32 20c-6.6 0-12 5.4-12 12s5.4 12 12 12 12-5.4 12-12-5.4-12-12-12z" fill="#388e3c"/><path d="m40 34h-6v6h-4v-6h-6v-4h6v-6h4v6h6z" fill="#fff"/><g fill="#5c6bc0"><path d="m32 18h-18c-1.105 0-2 .895-2 2s.895 2 2 2h8.236c2.528-2.469 5.974-4 9.764-4z"/><path d="m20.539 24h-6.539c-1.105 0-2 .895-2 2s.895 2 2 2h4.593c.434-1.445 1.098-2.79 1.946-4z"/><path d="m18 32c0-.68.066-1.345.161-2h-4.161c-1.105 0-2 .895-2 2s.895 2 2 2h4.161c-.095-.655-.161-1.32-.161-2z"/></g></svg>