<svg height="48" viewBox="0 0 48 48" width="48" xmlns="http://www.w3.org/2000/svg"><path d="m12 14h18v2h-18z" fill="#1976d2"/><path d="m12 20h18v2h-18z" fill="#1976d2"/><path d="m12 26h18v2h-18z" fill="#1976d2"/><g fill="#757575"><path d="m14 6h6v2h-6z"/><path d="m22 6h6v2h-6z"/><path d="m38 34v-4h-4v4h-4v4h4v4h4v-4h4v-4z"/><path d="m34 22h2v6h-2z"/><path d="m30 6v2h4v4h2v-6z"/><path d="m34 14h2v6h-2z"/><path d="m8 30h-2v6h6v-2h-4z"/><path d="m6 22h2v6h-2z"/><path d="m6 6v6h2v-4h4v-2z"/><path d="m6 14h2v6h-2z"/><path d="m14 34h6v2h-6z"/><path d="m22 34h6v2h-6z"/></g></svg>