<svg height="48" viewBox="0 0 48 48" width="48" xmlns="http://www.w3.org/2000/svg"><g fill="#555"><path d="m16 24h4v8h-4z"/><path d="m22 20h4v12h-4z"/><path d="m28 16h4v16h-4z"/></g><path d="m10.2 22a13.79 13.79 0 0 1 11.8-11.8v-6.1a20 20 0 0 0 -17.9 17.9z" fill="#388e3c" fill-rule="evenodd"/><path d="m38 24a13.91 13.91 0 0 1 -2.8 8.4l4.3 4.3a20.32 20.32 0 0 0 4.5-12.7 20 20 0 0 0 -18-19.9v6.1a13.85 13.85 0 0 1 12 13.8z" fill="#f57c00" fill-rule="evenodd"/><path d="m32.4 35.2a14 14 0 0 1 -22.2-9.2h-6.1a20 20 0 0 0 19.9 18 20.32 20.32 0 0 0 12.7-4.5z" fill="#555" fill-rule="evenodd"/></svg>