<svg height="48" viewBox="0 0 48 48" width="48" xmlns="http://www.w3.org/2000/svg"><path d="m45.5 35-7.5-7v4h-14v6h14v4z" fill="#1976d2"/><path d="m22 34h-14.5l10.6-10.6.4.4a4.83 4.83 0 0 0 3.5 1.5 5 5 0 0 0 3.5-1.5l.4-.4 6.6 6.6h2.9l-8-8 10.6-10.6v14.6a2 2 0 0 1 1.36.54l.64.59v-15.13a4 4 0 0 0 -4-4h-28a4 4 0 0 0 -4 4v20a4 4 0 0 0 4 4h14zm14.5-24-12.4 12.4-.1.1a2.9 2.9 0 0 1 -4.1-.1l-12.4-12.4zm-30.5 1.4 10.6 10.6-10.6 10.7z" fill="#505050"/><g fill="#fff"><path d="m24.1 22.4 12.4-12.4h-29l12.4 12.4a2.9 2.9 0 0 0 4.1.1z"/><path d="m36 30v-2a2 2 0 0 1 2-2v-14.6l-10.6 10.6 8 8z"/><path d="m22 32a2 2 0 0 1 2-2h8.5l-6.6-6.6-.4.4a5 5 0 0 1 -3.5 1.5 4.83 4.83 0 0 1 -3.5-1.5l-.4-.4-10.6 10.6h14.5z"/><path d="m6 11.4v21.3l10.6-10.7z"/></g></svg>