<svg height="48" viewBox="0 0 48 48" width="48" xmlns="http://www.w3.org/2000/svg"><path d="m12.17 33.89h-3.95v-15.23l-4.72 1.46v-3.21l8.24-2.91h.42v19.89z" fill="#ffa726"/><path d="m29.28 33.89h-13.64v-2.71l6.44-6.86a16 16 0 0 0 2-2.53 4.12 4.12 0 0 0 .64-2.05 3 3 0 0 0 -.72-2.08 2.37 2.37 0 0 0 -1.91-.76 2.59 2.59 0 0 0 -2.11.92 3.61 3.61 0 0 0 -.77 2.43h-4a6.56 6.56 0 0 1 .87-3.32 6.18 6.18 0 0 1 2.45-2.36 7.52 7.52 0 0 1 3.6-.85 7 7 0 0 1 4.87 1.48 5.21 5.21 0 0 1 1.7 4.17 6.72 6.72 0 0 1 -.77 3 17.05 17.05 0 0 1 -2.67 3.63l-4.53 4.77h8.56v3.17z" fill="#ef5350"/><path d="m35.72 22.19h2.11a3 3 0 0 0 2.23-.75 2.72 2.72 0 0 0 .72-2 2.42 2.42 0 0 0 -.72-1.87 2.81 2.81 0 0 0 -2-.67 3 3 0 0 0 -1.9.62 2 2 0 0 0 -.77 1.62h-3.93a4.9 4.9 0 0 1 .84-2.8 5.53 5.53 0 0 1 2.35-1.93 8 8 0 0 1 3.33-.7 7.41 7.41 0 0 1 5 1.51 5.2 5.2 0 0 1 1.79 4.16 4.23 4.23 0 0 1 -.83 2.52 5.37 5.37 0 0 1 -2.19 1.76 4.63 4.63 0 0 1 3.25 4.64 5.25 5.25 0 0 1 -1.93 4.25 7.8 7.8 0 0 1 -5.07 1.6 7.33 7.33 0 0 1 -4.87-1.57 5.1 5.1 0 0 1 -1.89-4.16h3.95a2.27 2.27 0 0 0 .81 1.83 3.5 3.5 0 0 0 4.28 0 2.59 2.59 0 0 0 .8-2q0-3-3.28-3h-2.07v-3.06z" fill="#1976d2"/></svg>