<svg height="48" viewBox="0 0 48 48" width="48" xmlns="http://www.w3.org/2000/svg"><g fill="#9fa8da"><path d="m15 24.6 3.7-2.1c.8-.4 1.3-1.3 1.3-2.3v-4.2l-5 2.9z"/><path d="m9 18.6c0-2.1 1.1-3.9 2.8-4.9l5.1-3-3.7-2.1c-.4-.2-.9-.4-1.3-.3-.5 0-.9.1-1.3.3l-5.3 3.1c-.8.5-1.3 1.4-1.3 2.3v6.1c0 1 .5 1.9 1.3 2.3l3.7 2.2z"/><path d="m33 23.4-3.7 2.1c-.8.5-1.3 1.4-1.3 2.3v4.2l5-2.9z"/><path d="m42.7 25.5-3.7-2.1v6c0 2.1-1.1 3.9-2.8 4.9l-5.1 3 3.7 2.1c.4.2.9.4 1.3.3.5 0 .9-.1 1.3-.3l5.3-3.1c.8-.4 1.3-1.3 1.3-2.3v-6.1c0-1-.5-1.9-1.3-2.4z"/></g><path d="m40 20h-4v-5l-9 9-3-3 9-9h-5v-4h12z" fill="#555"/><path d="m34 22v7.2c0 .4-.2.7-.5.9l-9 5.2c-.3.2-.7.2-1 0l-9-5.2c-.3-.2-.5-.5-.5-.9v-10.4c0-.4.2-.7.5-.9l9-5.2c.3-.2.7-.2 1 0l1.5.9v-4.5c-.6-.3-1.3-.5-2-.4-.8 0-1.6.2-2.3.6l-9.3 5.4c-1.4.8-2.3 2.3-2.3 4v10.7c0 1.7.9 3.3 2.3 4l9.3 5.4c.7.4 1.5.6 2.3.6s1.6-.2 2.3-.6l9.3-5.4c1.4-.8 2.3-2.3 2.3-4v-7.4z" fill="#42a5f5"/></svg>