<svg height="48" viewBox="0 0 48 48" width="48" xmlns="http://www.w3.org/2000/svg"><path d="m31 14a17.7 17.7 0 0 0 -2.3.2 13.9 13.9 0 0 1 -6.7 18.47 14.47 14.47 0 0 1 -2.28.83 13 13 0 1 0 11.28-19.5z" fill="#ffe4c0"/><path d="m16 27a14.88 14.88 0 0 1 9.7-14 12 12 0 1 0 -9.7 19h.9a14.22 14.22 0 0 1 -.9-5z" fill="#bde5e1"/><path d="m18 27a11.9 11.9 0 0 0 .9 4.6 12 12 0 0 0 9.1-11.6 13.31 13.31 0 0 0 -1.2-5.3 13.09 13.09 0 0 0 -8.8 12.3z" fill="#d32f2f"/><g fill="#fff"><path d="m14 24h-2v-7.3l-2 .7v-1.9l3.8-1.5h.2z"/><path d="m38 33h-7v-1.8l3.1-3.3q.6-.75.9-1.2a2 2 0 0 0 .3-1 1.5 1.5 0 0 0 -.3-1 1.27 1.27 0 0 0 -.9-.4 1.16 1.16 0 0 0 -1 .4 2.16 2.16 0 0 0 -.4 1.2h-1.9a3 3 0 0 1 .4-1.6 2.56 2.56 0 0 1 1.2-1.1 3.36 3.36 0 0 1 1.7-.4 3.34 3.34 0 0 1 2.3.7 2.63 2.63 0 0 1 .8 2 2.32 2.32 0 0 1 -.4 1.4 6 6 0 0 1 -1.3 1.7l-2.1 2.4h4.6z"/></g></svg>