<svg height="48" viewBox="0 0 48 48" width="48" xmlns="http://www.w3.org/2000/svg"><g fill="#ffa726"><path d="m26.69 9.21-.16 2.5-2.44 2.55.78.79 4.78-1v-3.49l4.61-5.83z"/><path d="m19 11.61 1.47-.61.27 2.42h1.61l.91-5.11-1.76.3-1.68-5.61z"/><path d="m27.35 20.7.07-2.4h-1.71l-.84-1.62h5.89v2.41l4.24 2.42z"/><path d="m18.18 23.92-.91-2.4.86-2.43-.84-.82-5.89 2.43 1.68 1.6-4.23 4z"/><path d="m11.39 16.74 4.21-2.52 1.69 1.72.9-1.66-2.57-4.81-3.42 2.42-4.2-4.03z"/></g><path d="m35 27.45-1.41-2.14-2.14.69-1.45-2.13-2.86 1.46-1.41-2.15-2.19 1.66-.67-8.65-1.42-.67-1.45.74v13l-4-3-1.5 1.5 3 9.75 4.5 5.24v1.25h11v-1.25l2-2.25z" fill="#555"/></svg>