<svg height="48" viewBox="0 0 48 48" width="48" xmlns="http://www.w3.org/2000/svg"><path d="m6 38 20 4v-36l-20 4z" fill="#1976d2"/><path d="m37.21 19a14.58 14.58 0 0 0 -1.8-3.7 5 5 0 0 0 -7.41-6.3v8a4.91 4.91 0 0 0 6.07-.06 13.74 13.74 0 0 1 1.15 2.42 5 5 0 0 0 0 9.33 11.93 11.93 0 0 1 -1.15 2.42 4.91 4.91 0 0 0 -6.07-.11v8a5 5 0 0 0 7.4-6.3 14.58 14.58 0 0 0 1.8-3.7 5 5 0 0 0 0-9.95z" fill="#1976d2"/><path d="m19.6 29.19a2.09 2.09 0 0 0 -.82-1.78 11 11 0 0 0 -3-1.31 20.58 20.58 0 0 1 -3.38-1.36q-3.34-1.83-3.34-4.94a4.81 4.81 0 0 1 .94-2.88 6 6 0 0 1 2.61-2 9.78 9.78 0 0 1 3.82-.71 9 9 0 0 1 3.8.77 6.1 6.1 0 0 1 2.59 2.18 5.68 5.68 0 0 1 .92 3.2h-4.1a2.72 2.72 0 0 0 -.86-2.13 3.48 3.48 0 0 0 -2.42-.76 3.74 3.74 0 0 0 -2.34.64 2 2 0 0 0 -.83 1.67 1.93 1.93 0 0 0 1 1.63 10.93 10.93 0 0 0 2.81 1.25 12.46 12.46 0 0 1 5.1 2.61 5.16 5.16 0 0 1 1.6 3.88 4.78 4.78 0 0 1 -2 4.05 8.55 8.55 0 0 1 -5.26 1.47 10.18 10.18 0 0 1 -4.18-.84 6.69 6.69 0 0 1 -2.88-2.3 5.92 5.92 0 0 1 -1-3.39h4.12c0 2.2 1.31 3.29 3.94 3.29a3.83 3.83 0 0 0 2.28-.59 1.89 1.89 0 0 0 .88-1.65z" fill="#fff"/></svg>