<svg height="48" viewBox="0 0 48 48" width="48" xmlns="http://www.w3.org/2000/svg"><path d="m42 22h-13.74c-.8-.3-1.63-.59-2.53-.86a19.65 19.65 0 0 1 -5.14-2.2 3.44 3.44 0 0 1 -1.75-2.94 3.57 3.57 0 0 1 1.49-3 6.71 6.71 0 0 1 4.17-1.1 6.29 6.29 0 0 1 4.32 1.35 4.82 4.82 0 0 1 1.54 3.8h7.32a10.14 10.14 0 0 0 -1.68-5.71 10.82 10.82 0 0 0 -4.6-3.89 16 16 0 0 0 -6.79-1.38 17.32 17.32 0 0 0 -6.82 1.27 10.51 10.51 0 0 0 -4.66 3.53 8.62 8.62 0 0 0 -1.62 5.13 8.7 8.7 0 0 0 2.32 6h-7.83v4h14.11c1 .42 2.19.84 3.49 1.26a19.16 19.16 0 0 1 5.27 2.34 3.77 3.77 0 0 1 1.46 3.19 3.46 3.46 0 0 1 -1.46 3 6.89 6.89 0 0 1 -4.08 1.06q-7 0-7-5.88h-7.38a10.58 10.58 0 0 0 1.77 6.03 11.76 11.76 0 0 0 5.14 4.11 18.27 18.27 0 0 0 7.47 1.5q5.91 0 9.4-2.63a8.53 8.53 0 0 0 3.49-7.24 9.3 9.3 0 0 0 -2.68-6.74h7z" fill="#555"/></svg>