<svg height="48" viewBox="0 0 48 48" width="48" xmlns="http://www.w3.org/2000/svg"><g fill="#555"><path d="m17.84 17.5 7.16-11.5h4.63l-9.43 14.88 9.66 15.12h-4.68l-7.34-11.7-7.38 11.7h-4.65l9.68-15.12-9.49-14.88h4.61z"/><path d="m41.65 42h-11.91v-2.58l5.48-5.77c1.35-1.54 2-2.76 2-3.67a2.59 2.59 0 0 0 -.48-1.68 1.67 1.67 0 0 0 -1.39-.57 1.72 1.72 0 0 0 -1.46.77 3.2 3.2 0 0 0 -.56 1.92h-4a5.61 5.61 0 0 1 3-5 6.39 6.39 0 0 1 3.12-.75 6.39 6.39 0 0 1 4.3 1.33 4.55 4.55 0 0 1 1.49 3.67 5.26 5.26 0 0 1 -.38 2 8.52 8.52 0 0 1 -1.17 2 29.51 29.51 0 0 1 -2.55 2.81l-2.2 2.52h6.71z"/></g></svg>