<svg enable-background="new 0 0 48 48" height="48" viewBox="0 0 48 48" width="48" xmlns="http://www.w3.org/2000/svg"><path d="m41.076 25.559c-1.012-.828-2.52-.651-3.445.274l-5.184 5.184c-.24 2.064-1.867 3.691-3.931 3.931l-.052.052h-5.464c-.552 0-1-.448-1-1s.448-1 1-1h4.857c1.308 0 2.499-.941 2.63-2.242.15-1.497-1.021-2.758-2.487-2.758h-8s-5.5-2.5-10 2-6 6-6 6l8 8 3-3h12.05c1.591 0 3.117-.632 4.243-1.757l9.975-9.975c1.036-1.037.972-2.757-.192-3.709z" fill="#555"/><path d="m24 6c-5.523 0-10 4.477-10 10s4.477 10 10 10 10-4.477 10-10-4.477-10-10-10z" fill="#303f9f"/><g fill="#fff"><path d="m25.143 22.553c-.336.298-.754.447-1.256.447s-.921-.149-1.256-.447c-.336-.298-.503-.679-.503-1.143s.167-.845.503-1.143c.335-.298.754-.447 1.256-.447.501 0 .92.149 1.256.447.335.298.503.679.503 1.143.001.464-.168.845-.503 1.143z"/><path d="m28.121 14.146c-.207.427-.54.863-.998 1.308l-1.081 1.006c-.308.295-.521.598-.64.908-.12.31-.185.654-.197 1.131h-2.691c0-.916.104-1.589.311-2.119s.543-.989 1.007-1.378.817-.745 1.059-1.068c.241-.323.362-.679.362-1.068 0-.947-.407-1.421-1.223-1.421-.377 0-.681.138-.913.414s-.355.669-.367 1.14h-3.18c.012-1.254.407-2.252 1.185-2.951.777-.698 1.868-1.048 3.274-1.048 1.398 0 2.482.323 3.25.969s1.152 1.565 1.152 2.757c0 .521-.103.994-.31 1.42z"/></g></svg>