<svg height="48" viewBox="0 0 48 48" width="48" xmlns="http://www.w3.org/2000/svg"><path d="m34 22.2v-6.2h-28v14a2 2 0 0 0 2 2h18a10 10 0 0 1 8-9.8z" fill="#fff"/><path d="m32 8h-24a4 4 0 0 0 -4 4v18a4 4 0 0 0 4 4h18.2a12.21 12.21 0 0 1 -.2-2h-18a2 2 0 0 1 -2-2v-14h28v6.2a12.21 12.21 0 0 1 2-.2v-10a4 4 0 0 0 -4-4z" fill="#555"/><path d="m10 20h20v2h-20z" fill="#26a69a"/><path d="m44 32a8 8 0 1 1 -8-8 8 8 0 0 1 8 8z" fill="#1976d2"/><path d="m28 26h-18v2h16.8a13.08 13.08 0 0 1 1.2-2z" fill="#26a69a"/></svg>