<svg height="48" viewBox="0 0 48 48" width="48" xmlns="http://www.w3.org/2000/svg"><path d="m36.5 37-9.2-5.9-3.3 12.9-3.8-12.9-9.7 5.9 5.6-10.5-12.1-2.5 12.1-3.3-6.1-9.7 10 5 4-12 3 12 8.5-5-4.1 9.5 12.6 3.5-12.5 3.3z" fill="#e64a19"/><path d="m32 32.5-6-3.5-2 9-3-9-7 4 4.7-7.3-8.7-1.7 8-2-3-6.5 6 2.5 3-8 2 8 6-3-3 7 10 2-10 2.5z" fill="#f57c00"/><path d="m29 29.5-4-2.5-1 6-1.6-6-4.4 2.5 2.5-4.4-5.5-1.1 5.4-1.5-2-3.5 3.9 1.6 1.6-6.1 1 6.1 3.5-2.1-1.4 4 6 1.5-6.1 1.1z" fill="#ffcc80"/><path d="m18 26h26v18h-26z" fill="#555"/><path d="m20 28h22v14h-22z" fill="#fff"/><g fill="#555"><path d="m26.1 39.2c-.1-.2-.1-.4-.2-.6-.4.5-.9.7-1.5.7s-1.1-.2-1.5-.5c-.8-.7-.9-1.9-.2-2.6.1-.1.2-.2.3-.3.7-.4 1.4-.6 2.2-.5h.6v-.4c0-.6-.3-.9-.8-.9-.3 0-.6.2-.7.5v.2h-2c0-.6.3-1.2.8-1.5.6-.4 1.3-.6 2-.6s1.4.2 1.9.6.7 1 .7 1.6v2.8c0 .5.1.9.3 1.3v.1zm-1.2-1.3c.2 0 .4 0 .6-.2.1-.1.3-.2.4-.4v-1h-.6c-.7 0-1 .3-1 .9 0 .2.1.3.2.4.1.2.2.3.4.3z"/><path d="m36 36.1c.1.8-.2 1.7-.6 2.4-.4.6-1.1.9-1.8.8-.6 0-1.2-.3-1.5-.8l-.1.7h-1.8v-9h2v3.2c.4-.4.9-.6 1.4-.6.7 0 1.4.3 1.8.8.5.7.7 1.5.6 2.5zm-2-.2c0-.4-.1-.9-.2-1.3-.2-.3-.4-.4-.8-.4s-.7.2-.9.5v2.5c.2.3.6.5.9.5.4 0 .8-.3.9-.7.1-.3.1-.7.1-1.1z"/><path d="m38 29h2v12h-2z"/></g></svg>