<svg height="48" viewBox="0 0 48 48" width="48" xmlns="http://www.w3.org/2000/svg"><path d="m22 35c.1-.7.4-1.3.8-1.8 3.3-5.1 6.5-10.1 9.7-15.2l3-6.9-8.5 4.9-3-12-4 12-10-5 6.1 9.7-12.1 3.3 12.1 2.5-5.6 10.5 9.8-5.9 1.8 6z" fill="#e64a19"/><path d="m22.8 33.2c2.4-3.7 4.7-7.3 7.1-11l-.9-.2 3-7-6 3-2-8-3 8-6-2.5 3 6.5-8 2 8.7 1.7-4.7 7.3 7-4 1.5 4.6c.1-.2.2-.3.3-.4z" fill="#f57c00"/><path d="m35 17.6 9 5.9s1.8-2.6-2.6-5.6-6.4-.3-6.4-.3z" fill="#ab47bc"/><path d="m34.5 18.5 9 6-1 1.5-9-6z" fill="#555"/><path d="m24 35 3 1 4-2v4l2 3 9-14-9-6z" fill="#ab47bc"/><path d="m25.5 40 1.5 1h6l-9 3v-9z" fill="#555"/><path d="m22.4 27 1.3 4.8.7-1.1.6-3.7 1.3.8 1.1-1.7-.5-1 1.2-.2 1.2-1.9-2.2-.5 1.4-4-3.5 2.1-1-6.1-1.6 6.1-3.9-1.6 2 3.5-5.5 1.5 5.4 1.1-2.4 4.4z" fill="#ffcc80"/></svg>