<svg height="48" viewBox="0 0 48 48" width="48" xmlns="http://www.w3.org/2000/svg"><path d="m4.5 16.75h39v23h-39z" fill="#ccc"/><path d="m4.5 17v-8h14.25v8z" fill="#90caf9"/><path d="m18.75 16.75v-8.5h-14.25v31.5h39v-23z" opacity="0"/><path d="m44 40h-40v-32h16v8h24zm-38-2h36v-20h-24v-8h-12z" fill="#555"/><path d="m19.87 11.95h10.42v4.24h-10.42z" fill="#fff"/><path d="m32 16.75h-13v-6.75h13zm-12.25-.75h10.38v-4h-10.38z" fill="#555"/><path d="m31.79 11.95h10.42v4.24h-10.42z" fill="#fff"/><path d="m44 16.75h-13.87v-6.75h13.87zm-12-.75h10v-4h-10z" fill="#555"/></svg>