<svg height="48" viewBox="0 0 48 48" width="48" xmlns="http://www.w3.org/2000/svg"><path d="m4.5 8.25h39v31.5h-39z" fill="#fff"/><path d="m4 8v32h40v-32zm19 12v8h-8v-8zm-8-2v-8h8v8zm8 12v8h-8v-8zm2 0h8v8h-8zm0-2v-8h8v8zm0-10v-8h8v8zm-19-8h7v8h-7zm0 10h7v8h-7zm0 10h7v8h-7zm36 8h-7v-8h7zm0-10h-7v-8h7zm0-10h-7v-8h7z" fill="#555"/><path d="m14 18.75h10v10.5h-10z" fill="#9fa8da"/><g fill="#303f9f"><path d="m23 28h-8v-8h8m1-2h-10v12h10z"/><path d="m13 18h2v12h-2z"/><path d="m23 18h2v12h-2z"/></g></svg>