<svg height="48" viewBox="0 0 48 48" width="48" xmlns="http://www.w3.org/2000/svg"><path d="m8 4h20v20h-20z" fill="#5d4037"/><path d="m36 6a2 2 0 0 1 2 2v32a2 2 0 0 1 -2 2h-24a2 2 0 0 1 -2-2v-14h-2v14a4 4 0 0 0 4 4h24a4 4 0 0 0 4-4v-32a4 4 0 0 0 -4-4h-6v2z" fill="#555"/><path d="m30 24a2 2 0 0 1 -2 2h-18v14a2 2 0 0 0 2 2h24a2 2 0 0 0 2-2v-32a2 2 0 0 0 -2-2h-6z" fill="#fff"/><path d="m12 8v4h4v8h4v-8h4v-4z" fill="#fff"/><g fill="#8d6e63"><path d="m30 10h4v2h-4z"/><path d="m14 34h20v2h-20z"/><path d="m14 28h20v2h-20z"/><path d="m30 22h4v2h-4z"/><path d="m30 16h4v2h-4z"/></g></svg>