<svg height="48" viewBox="0 0 48 48" width="48" xmlns="http://www.w3.org/2000/svg"><g fill="#555"><path d="m38 8v12.1l2-2v-10.1c0-2.2-1.8-4-4-4h-6v2h6c1.1 0 2 .9 2 2z"/><path d="m38 35.8v4.2c0 1.1-.9 2-2 2h-4.2l-.6.6.1.1-1.4 1.3h6.1c2.2 0 4-1.8 4-4v-6.2z"/><path d="m20 42h-8c-1.1 0-2-.9-2-2v-14h-2v14c0 2.2 1.8 4 4 4h8z"/></g><path d="m20 38.1 18-18v-12.1c0-1.1-.9-2-2-2h-6v18c0 1.1-.9 2-2 2h-18v14c0 1.1.9 2 2 2h8z" fill="#fff"/><path d="m31.8 42h4.2c1.1 0 2-.9 2-2v-4.2z" fill="#fff"/><path d="m8 4h20v20h-20z" fill="#5d4037"/><path d="m12 8v4h4v8h4v-8h4v-4z" fill="#fff"/><path d="m30 10h4v2h-4z" fill="#8d6e63"/><path d="m30 22h4v2h-4z" fill="#8d6e63"/><path d="m30 16h4v2h-4z" fill="#8d6e63"/><path d="m22 44v-5.1l1.3-1.3 5.1 5.1-1.3 1.3z" fill="#424242"/><path d="m38.4 22.5 2.5-2.5 5.1 5.1-2.5 2.5z" fill="#ef5350"/><path d="m24.5 36.4 12.7-12.7 5 5-12.6 12.7z" fill="#f57c00"/><path d="m24.1 34h-10.1v2h8.1z" fill="#8d6e63"/><path d="m30.1 28h-16.1v2h14.1z" fill="#8d6e63"/></svg>