<svg height="48" viewBox="0 0 48 48" width="48" xmlns="http://www.w3.org/2000/svg"><path d="m22.4 27c.8-3.1 2.8-5.7 5.5-7.3.1-.5.1-1.1.1-1.7 0-1.4-.3-2.7-.8-4-1.9.4-3.2 2.1-3.2 4 .1 3.2-2.4 5.9-5.6 6h-4.7c-3.2-.1-5.8-2.7-5.7-6-.1-3.2 2.4-5.9 5.6-6h3.9c.8-1.4 1.9-2.7 3.2-3.7-.7-.2-1.5-.3-2.3-.3h-4.8c-5.4.1-9.7 4.6-9.6 10-.1 5.4 4.2 9.9 9.6 10h4.8c1.4 0 2.7-.4 4-1z" fill="#303f9f"/><path d="m22 18c-.1-3.2 2.4-5.9 5.6-6h4.7c3.2.1 5.8 2.7 5.7 6v.7c1.3.5 2.6 1.2 3.7 2.1.2-.9.4-1.8.3-2.8.1-5.4-4.2-9.9-9.6-10h-4.8c-5.4.1-9.7 4.6-9.6 10 0 1.4.3 2.7.8 4 1.9-.4 3.2-2.1 3.2-4z" fill="#303f9f"/><path d="m34 20c-5.5 0-10 4.5-10 10s4.5 10 10 10 10-4.5 10-10-4.5-10-10-10zm-2 17-2-2 5-5-5-5 2-2 7 7z" fill="#ff7043"/></svg>