<svg height="48" viewBox="0 0 48 48" width="48" xmlns="http://www.w3.org/2000/svg"><path d="m7.15 7.25h33.65v33.65h-33.65z" fill="#fff"/><g fill="#505050"><path d="m40 8v32h-32v-32zm2-2h-36v36h36z"/><path d="m38.25 38h-10.59v-1.23c1.82-.09 2.73-.62 2.73-1.61a7.73 7.73 0 0 0 -.8-2.7l-1.59-3.46h-10.41l-1.82 3.83a6.62 6.62 0 0 0 -.67 2.3c0 1 1 1.52 3.1 1.65v1.22h-8.45v-1.22a4.43 4.43 0 0 0 2.17-.78 12 12 0 0 0 2.24-3.79l9.44-21.71h.69l9.34 22a12.32 12.32 0 0 0 1.62 3 4.15 4.15 0 0 0 3 1.34zm-10.83-10.78-4.56-10.67-4.67 10.67z"/></g></svg>