<svg height="48" viewBox="0 0 48 48" width="48" xmlns="http://www.w3.org/2000/svg"><path d="m4 8h40v32h-40z" fill="#555"/><path d="m6 10h36v28h-36z" fill="#fff"/><path d="m32 10h10v28h-10z" fill="#bdbdbd"/><g fill="#555"><path d="m37 12 3 3h-6z"/><path d="m37 36-3-3h6z"/><path d="m15.1 34.58a4.25 4.25 0 0 1 -.28-1.22 4.43 4.43 0 0 1 -3.31 1.44 4.08 4.08 0 0 1 -2.82-1 3.14 3.14 0 0 1 -1.1-2.46 3.29 3.29 0 0 1 1.41-2.79 6.55 6.55 0 0 1 3.88-1h1.93v-.91a2.28 2.28 0 0 0 -.65-1.64 2.53 2.53 0 0 0 -1.84-.62 2.9 2.9 0 0 0 -1.78.54 1.59 1.59 0 0 0 -.72 1.3h-2a2.74 2.74 0 0 1 .62-1.68 4.15 4.15 0 0 1 1.68-1.28 5.68 5.68 0 0 1 2.33-.47 4.6 4.6 0 0 1 3.15 1 3.6 3.6 0 0 1 1.18 2.77v5.35a6.69 6.69 0 0 0 .41 2.55v.17h-2.09zm-3.3-1.51a3.56 3.56 0 0 0 1.77-.48 2.84 2.84 0 0 0 1.21-1.26v-2.33h-1.56c-2.44 0-3.65.71-3.65 2.14a1.81 1.81 0 0 0 .62 1.46 2.47 2.47 0 0 0 1.61.47z"/><path d="m29.73 28.9a6.93 6.93 0 0 1 -1.22 4.28 3.91 3.91 0 0 1 -3.29 1.62 4 4 0 0 1 -3.4-1.56l-.1 1.34h-1.83v-16.5h2v6.16a4 4 0 0 1 3.32-1.49 3.94 3.94 0 0 1 3.32 1.6 7.11 7.11 0 0 1 1.21 4.38zm-2-.23a5.35 5.35 0 0 0 -.73-3.14 2.58 2.58 0 0 0 -2.26-1.11 2.91 2.91 0 0 0 -2.82 1.83v5a3 3 0 0 0 2.85 1.83 2.58 2.58 0 0 0 2.17-1.08 5.71 5.71 0 0 0 .8-3.33z"/></g></svg>