<svg height="48" viewBox="0 0 48 48" width="48" xmlns="http://www.w3.org/2000/svg"><path d="m6 10h36v28h-36z" fill="#fff"/><g fill="#555"><path d="m42 10v28h-36v-28zm2-2h-40v32h40z"/><path d="m36 12h2v24h-2z"/><path d="m17.05 34.44a4.4 4.4 0 0 1 -.32-1.39 5 5 0 0 1 -3.73 1.64 4.66 4.66 0 0 1 -3.2-1.1 3.62 3.62 0 0 1 -1.25-2.8 3.7 3.7 0 0 1 1.57-3.2 7.45 7.45 0 0 1 4.41-1.14h2.2v-1a2.56 2.56 0 0 0 -.73-1.93 2.81 2.81 0 0 0 -2.09-.7 3.27 3.27 0 0 0 -2 .61 1.81 1.81 0 0 0 -.82 1.48h-2.3a3.09 3.09 0 0 1 .7-1.91 4.79 4.79 0 0 1 1.9-1.46 6.31 6.31 0 0 1 2.61-.54 5.27 5.27 0 0 1 3.58 1.14 4.11 4.11 0 0 1 1.42 3.14v6.08a7.49 7.49 0 0 0 .46 2.89v.2h-2.41zm-3.75-1.72a3.94 3.94 0 0 0 2-.55 3.46 3.46 0 0 0 1.38-1.43v-2.74h-1.76q-4.15 0-4.15 2.43a2.06 2.06 0 0 0 .71 1.66 2.72 2.72 0 0 0 1.82.63z"/><path d="m33.68 28a7.79 7.79 0 0 1 -1.39 4.86 4.49 4.49 0 0 1 -3.74 1.84 4.59 4.59 0 0 1 -3.87-1.77l-.11 1.53h-2.07v-18.77h2.26v7a4.59 4.59 0 0 1 3.77-1.69 4.52 4.52 0 0 1 3.78 1.82 8.06 8.06 0 0 1 1.37 5zm-2.26-.26a6 6 0 0 0 -.89-3.56 3 3 0 0 0 -2.53-1.28 3.31 3.31 0 0 0 -3.24 2.1v5.71a3.41 3.41 0 0 0 3.24 2.06 3 3 0 0 0 2.53-1.26 6.53 6.53 0 0 0 .89-3.79z"/></g></svg>