<svg height="20" viewBox="0 0 18 20" width="18" xmlns="http://www.w3.org/2000/svg"><path d="m6 0h6a2 2 0 0 1 2 2v14a2 2 0 0 1 -2 2h-6a2 2 0 0 1 -2-2v-14a2 2 0 0 1 2-2z" fill="#3869b2" opacity=".61"/><path d="m6 2h6a2 2 0 0 1 2 2v14a2 2 0 0 1 -2 2h-6a2 2 0 0 1 -2-2v-14a2 2 0 0 1 2-2z" fill="#d7e1fe"/><path d="m6 2h6a2 2 0 0 1 2 2v2a2 2 0 0 1 -2 2h-6a2 2 0 0 1 -2-2v-2a2 2 0 0 1 2-2z" fill="#303f9f"/><path d="m6 0h6a2 2 0 0 1 2 2v3a2 2 0 0 1 -2 2h-6a2 2 0 0 1 -2-2v-3a2 2 0 0 1 2-2z" fill="#5c6bc0"/><g fill="#e2e6f3" opacity=".5"><path d="m6.5 2h5v1h-5z"/><path d="m6.5 4h5v1h-5z"/></g></svg>