<svg height="48" viewBox="0 0 48 48" width="48" xmlns="http://www.w3.org/2000/svg"><circle cx="24" cy="23.8" fill="#b0bec5" r="20"/><g fill="#fff"><path d="m27.4 23.6c-1.3.5-2.7-.2-3.2-1.4-.1-.3-.2-.6-.2-.9 0-.2 0-.5.1-.7-.1 0-.2 0-.3 0-1.9.1-3.3 1.7-3.2 3.6s1.7 3.3 3.6 3.2c1.7-.1 3.1-1.5 3.2-3.2 0-.1 0-.3 0-.4z"/><path d="m38.8 23.3c-3.3-4.9-8.8-8-14.8-8.2-5.9.2-11.4 3.3-14.8 8.2-.3.4-.3 1 0 1.4 3.3 5 8.8 8 14.8 8.3 5.9-.2 11.4-3.3 14.8-8.2.3-.5.3-1.1 0-1.5zm-14.4 7c-3.5.2-6.5-2.4-6.7-5.9s2.4-6.5 5.9-6.7 6.5 2.4 6.7 5.9v.8c-.2 3.2-2.7 5.7-5.9 5.9z"/></g></svg>