<svg height="48" viewBox="0 0 48 48" width="48" xmlns="http://www.w3.org/2000/svg"><circle cx="24" cy="24" fill="#1976d2" r="20"/><g fill="#fff"><path d="m27.37 23.83a2.36 2.36 0 0 1 -.87.17 2.5 2.5 0 0 1 -2.5-2.5 2.69 2.69 0 0 1 .11-.69c-.11 0-.21 0-.32 0a3.4 3.4 0 1 0 3.61 3.6 3.09 3.09 0 0 0 0-.43z"/><path d="m38.76 23.49a18.73 18.73 0 0 0 -14.76-8.24 18.72 18.72 0 0 0 -14.78 8.23 1.2 1.2 0 0 0 0 1.42 18.73 18.73 0 0 0 14.78 8.24 18.72 18.72 0 0 0 14.77-8.23 1.17 1.17 0 0 0 -.01-1.42zm-14.35 7a6.31 6.31 0 1 1 5.89-6.71 5.47 5.47 0 0 1 0 .81 6.31 6.31 0 0 1 -5.89 5.91z"/></g></svg>