<svg height="20" viewBox="0 0 18 20" width="18" xmlns="http://www.w3.org/2000/svg"><path d="m6 0h6a2 2 0 0 1 2 2v14a2 2 0 0 1 -2 2h-6a2 2 0 0 1 -2-2v-14a2 2 0 0 1 2-2z" fill="#ccc"/><path d="m6 1h6a2 2 0 0 1 2 2v14a2 2 0 0 1 -2 2h-6a2 2 0 0 1 -2-2v-14a2 2 0 0 1 2-2z" fill="#ddd"/><path d="m6 14h6a2 2 0 0 1 2 2v2a2 2 0 0 1 -2 2h-6a2 2 0 0 1 -2-2v-2a2 2 0 0 1 2-2z" fill="#999"/><path d="m6 12h6a2 2 0 0 1 2 2v3a2 2 0 0 1 -2 2h-6a2 2 0 0 1 -2-2v-3a2 2 0 0 1 2-2z" fill="#bdbdbd"/><g fill="#fff" opacity=".5"><path d="m6.5 14h5v1h-5z"/><path d="m6.5 16h5v1h-5z"/></g></svg>