<svg height="48" viewBox="0 0 48 48" width="48" xmlns="http://www.w3.org/2000/svg"><path d="m23.89 28.54 4.54 4.83v5.2l2.81 3h3.51l.7-.74-3.51-3.72 3.51-3.72 3.55 3.69.7-.74v-3.72l-2.81-3h-4.95l-4.57-4.77z" fill="#aaa"/><path d="m21.79 19-4.56-4.84v-5.16l-2.81-3h-3.51l-.7.74 3.51 3.7-3.51 3.7-3.51-3.7-.7.74v3.7l2.81 3h4.91l4.59 4.81z" fill="#aaa"/><g fill="#777"><path d="m41.59 16.39a1.43 1.43 0 0 1 .11 1.88l-3.71 4a1.15 1.15 0 0 1 -1.63 0 .44.44 0 0 1 -.09-.11l-1.67-1.84a1.42 1.42 0 0 1 -.12-1.88l3.71-4a1.17 1.17 0 0 1 1.64 0l.09.11z"/><path d="m23.05 8.57a6.72 6.72 0 0 1 6.05-2.14c2.32.61 3 2.27 5 2.48a6 6 0 0 1 2.68 2.71c.52 2.38 1.22 2.63 1.58 2.62.73 0-3.53 5.53-3.7 4.42s-.25-1.59-1.18-1.67c-.45 0-1.68 1.16-1.68 1.16l-3.51-3.7a2.49 2.49 0 0 0 .61-1.07c.12-.52.18-1.31-1.53-3.24a5.51 5.51 0 0 0 -4.32-1.57z"/><path d="m27.05 15.63-20.05 20.22c-2.09 1.39 2.66 6.65 4.24 5.15l19.31-21.67z"/></g></svg>