<svg height="48" viewBox="0 0 48 48" width="48" xmlns="http://www.w3.org/2000/svg"><path d="m4 35.74v-24a3.79 3.79 0 0 1 3.84-3.74h32.23a3.71 3.71 0 0 1 3.93 3.51v.23 24a4.15 4.15 0 0 1 -3.93 4.26h-32.07a4.26 4.26 0 0 1 -4-4.26z" fill="#555"/><path d="m6 35.74v-24a1.8 1.8 0 0 1 1.85-1.74h32.15a1.8 1.8 0 0 1 2 1.59.76.76 0 0 1 0 .15v24c0 1.1-.64 2.25-1.74 2.25h-32a2.46 2.46 0 0 1 -2.26-2.25z" fill="#fff"/><path d="m8 12.01h9.95v23.99h-9.95z" fill="#ffcc80"/><g fill="#555"><path d="m20 12.01h1.96v23.99h-1.96z"/><path d="m10 32h6v2h-6z"/><path d="m10 26h6v2h-6z"/><path d="m10 20h6v2h-6z"/><path d="m10 14h6v2h-6z"/></g></svg>