<svg height="48" viewBox="0 0 48 48" width="48" xmlns="http://www.w3.org/2000/svg"><path d="m8 8h32c2.2 0 4 1.8 4 4v24c0 2.2-1.8 4-4 4h-32c-2.2 0-4-1.8-4-4v-24c0-2.2 1.8-4 4-4z" fill="#bf360c"/><path d="m40 38h-32c-1.1 0-2-.9-2-2v-24c0-1.1.9-2 2-2h32c1.1 0 2 .9 2 2v24c0 1.1-.9 2-2 2z" fill="#fff"/><path d="m8 14h14v4h-14z" fill="#e64a19"/><path d="m12 22h10v4h-10z" fill="#4eb600"/><path d="m16 30h6v4h-6z" fill="#1976d2"/><g fill="#aaa"><path d="m28 14h12v4h-12z"/><path d="m28 22h12v4h-12z"/><path d="m28 30h12v4h-12z"/></g><path d="m24 12h2v24h-2z" fill="#555"/></svg>