<svg height="48" viewBox="0 0 48 48" width="48" xmlns="http://www.w3.org/2000/svg"><path d="m18.75 34.74a15.34 15.34 0 0 1 11.45-18.42 13.58 13.58 0 0 1 7 0 2.22 2.22 0 0 0 2.85-1.32 2.24 2.24 0 0 0 .1-.37 2.63 2.63 0 0 0 -2-3 17 17 0 0 0 -16.78 28.77 15.41 15.41 0 0 1 -2.62-5.66z" fill="#d32f2f"/><g fill="#aaa"><path d="m34 34.74a2.19 2.19 0 0 1 -1.33-.44l-2.67-2a2.25 2.25 0 1 1 2.68-3.62l2.71 2a2.25 2.25 0 0 1 .47 3.15 2.28 2.28 0 0 1 -1.86.91z"/><path d="m41.67 40.41a2.19 2.19 0 0 1 -1.33-.41l-1.81-1.34a2.25 2.25 0 0 1 2.68-3.66l1.79 1.35a2.25 2.25 0 0 1 .47 3.15 2.28 2.28 0 0 1 -1.8.91z"/><path d="m23.06 25.05a10.68 10.68 0 0 0 -.91 1.48l.12.1 1.81 1.37a2.19 2.19 0 0 0 1.33.44 2.26 2.26 0 0 0 2.25-2.26 2.28 2.28 0 0 0 -.92-1.81l-1.8-1.37a14.61 14.61 0 0 0 -1.88 2.05z"/></g><path d="m7 8.17a2.25 2.25 0 1 0 -2.85 3.48l.07.06 10.41 8.15a20.15 20.15 0 0 1 2.47-3.78z" fill="#555"/></svg>