<svg height="48" viewBox="0 0 48 48" width="48" xmlns="http://www.w3.org/2000/svg"><g fill="#505050"><path d="m6 6h26v4h-26z"/><path d="m34 6h8v4h-8z"/><path d="m6 38h36v4h-36z"/></g><path d="m44 15.3-3.3-3.3-6.7 6.7-6.7-6.7-3.3 3.3 6.7 6.7-6.7 6.7 3.3 3.3 6.7-6.7 6.7 6.7 3.3-3.3-6.7-6.7z" fill="#d32f2f"/><path d="m35.9 30h-3.7l-3.4 3.4a2 2 0 0 1 -1.4.6h13.4a2 2 0 0 1 -1.4-.6z" fill="#505050"/><path d="m22.6 30.1-.1-.1h-16.5v4h21.3a2 2 0 0 1 -1.4-.6z" fill="#505050"/><path d="m27.9 22h-21.9v4h17.9z" fill="#1976d2"/><path d="m22.6 16.7a2 2 0 0 1 -.1-2.7h-16.5v4h17.9z" fill="#1976d2"/></svg>