<svg height="48" viewBox="0 0 48 48" width="48" xmlns="http://www.w3.org/2000/svg"><path d="m41.94 42h-35.87s-.07 0-.07 0v-3.9a.06.06 0 0 1 .06 0h35.88a.06.06 0 0 1 .06 0v3.9a.06.06 0 0 1 -.06 0z" fill="#555"/><path d="m31 24 11-11v22z" fill="#d32f2f"/><g fill="#555"><path d="m28 34h-22s0 0 0 0v-4s0 0 0 0h22s0 0 0 0v4s0 0 0 0z"/><path d="m28 26h-22s0 0 0 0v-4s0 0 0 0h22s0 0 0 0z"/><path d="m41.94 10h-35.87s-.07 0-.07 0v-3.95a.06.06 0 0 1 .06 0h35.88a.06.06 0 0 1 .06 0v3.95a.06.06 0 0 1 -.06 0z"/><path d="m28 18h-22s0 0 0 0v-4s0 0 0 0h22s0 0 0 0z"/></g></svg>