<svg height="48" viewBox="0 0 48 48" width="48" xmlns="http://www.w3.org/2000/svg"><path d="m16 33.78c6.39-8.92 17.33-11.73 26 0-8.8 13.87-21.56 7.61-26 0z" fill="#424242"/><path d="m29 28a6 6 0 1 0 6 6 6 6 0 0 0 -6-6zm0 9a3 3 0 0 1 0-6 3.17 3.17 0 0 1 .76.1 2.76 2.76 0 0 0 -.1.62 2.23 2.23 0 0 0 2.23 2.28h.11a0 0 0 0 1 0 0 3 3 0 0 1 -3 3z" fill="#fff"/><g fill="#303f9f"><path d="m14.27 34.79a2 2 0 0 1 .1-2.17c3.17-4.43 7.29-7.33 11.61-8.28-1-2.23-2.06-3.67-2.79-3.22l-5.91 3.62-5.36-3.34c-2.44-2.19-6.92 11-5.71 15.8s11.07 4.8 11.07 4.8a25.69 25.69 0 0 0 3.87-.36 19.86 19.86 0 0 1 -6.88-6.85z"/><circle cx="17" cy="13" r="7"/></g></svg>