<svg height="48" viewBox="0 0 48 48" width="48" xmlns="http://www.w3.org/2000/svg"><path d="m38 40c-2.8 0-5-2.2-5-5s2.2-5 5-5h2v-12h-2c-2.8 0-5-2.2-5-5s2.2-5 5-5h1.4c-.7-1.2-2-2-3.4-2h-26c-2.2 0-4 1.8-4 4v28c0 2.2 1.8 4 4 4h26c1.5 0 2.8-.8 3.4-2z" fill="#e64a19"/><circle cx="22" cy="24" fill="#fff" r="12"/><g fill="#bf360c"><path d="m38 10h4v6h-4c-1.7 0-3-1.3-3-3s1.3-3 3-3z"/><path d="m38 32h4v6h-4c-1.7 0-3-1.3-3-3s1.3-3 3-3z"/><path d="m31.8 26c-.3 1.3-.8 2.4-1.5 3.5l-2.7-2.7-2.8 2.8 2.7 2.7c-1.1.7-2.3 1.2-3.5 1.5v-3.8h-4v3.8c-1.3-.3-2.4-.8-3.5-1.5l2.7-2.7-2.8-2.8-2.7 2.7c-.7-1.1-1.2-2.3-1.5-3.5h3.8v-4h-3.8c.3-1.3.8-2.4 1.5-3.5l2.7 2.7 2.8-2.8-2.7-2.7c1.1-.7 2.3-1.2 3.5-1.5v3.8h4v-3.8c1.3.3 2.4.8 3.5 1.5l-2.7 2.7 2.8 2.8 2.7-2.7c.7 1.1 1.2 2.3 1.5 3.5h-3.8v4z"/></g><circle cx="22" cy="24" fill="#fff" r="4"/></svg>