<svg height="48" viewBox="0 0 48 48" width="48" xmlns="http://www.w3.org/2000/svg"><path d="m4 39.6c-1.4-4.7 3.6-20.4 6.2-18.2l5.9 3.3 6.5-3.5c.9-.5 2.2 1.6 3.3 4.6l7.8-1s.4 1.3-1.2 3.5c-1.2 1.6-3.7 2.1-5 2.2.9 3.6 1.4 7.2.8 9.1-1.4 4.7-12.1 4.7-12.1 4.7s-10.9 0-12.2-4.7zm5.4-25.8c0-3.7 3-6.7 6.7-6.8 3.7 0 6.8 3 6.8 6.8s-3 6.8-6.8 6.8-6.7-3-6.7-6.8z" fill="#26a69a"/><path d="m44 14.8v-3.6h-2.5c-.1-.5-.4-1-.6-1.5l1.8-1.8-2.5-2.6-1.8 1.8c-.5-.3-1-.5-1.5-.6v-2.5h-3.6v2.5c-.5.1-1 .4-1.5.6l-1.8-1.8-2.6 2.6 1.8 1.8c-.3.5-.5 1-.6 1.5h-2.6v3.6h2.5c.1.5.4 1 .6 1.5l-1.8 1.8 2.6 2.6 1.8-1.8c.5.3 1 .5 1.5.6v2.5h3.6v-2.5c.5-.1 1-.4 1.5-.6l1.8 1.8 2.6-2.6-1.8-1.7c.3-.5.5-1 .6-1.5zm-9 2.3c-2.3 0-4.1-1.8-4.1-4.1s1.8-4.1 4.1-4.1 4 1.8 4 4.1-1.7 4.1-4 4.1z" fill="#7b1fa2"/></svg>