<svg height="48" viewBox="0 0 48 48" width="48" xmlns="http://www.w3.org/2000/svg"><path d="m29 10.5-11-6.5v4a12 12 0 0 0 -12 12 12.33 12.33 0 0 0 1.2 5.3l3.5-2a7.51 7.51 0 0 1 -.7-3.3 8 8 0 0 1 8-8v5z" fill="#1976d2"/><path d="m19.1 33.8c6.3-10 17.1-13.2 25.7 0-8.7 15.6-21.3 8.5-25.7 0z" fill="#555"/><path d="m38 20a8.11 8.11 0 0 1 -.6 3l-3.4-2v2.2a16.05 16.05 0 0 1 9.3 5.3l1.7-1-4.1-2.4a12.08 12.08 0 0 0 -5.9-16 11.35 11.35 0 0 0 -4-1.1v4a8.16 8.16 0 0 1 7 8z" fill="#66bb6a"/><path d="m17.4 34.7a2 2 0 0 1 .1-2c.4-.6.7-1.1 1.1-1.6l-8.6-5.1v13l4-2.4a11.79 11.79 0 0 0 9.7 5.3 19.43 19.43 0 0 1 -6.3-7.2z" fill="#ffcc80"/><path d="m39 34a7 7 0 1 1 0-.09z" fill="#fff"/><path d="m36 34a4 4 0 1 1 -4-4 4 4 0 0 1 4 4z" fill="#555"/><path d="m36 32a2 2 0 1 1 -2-2 2 2 0 0 1 2 2z" fill="#fff"/></svg>