<svg height="48" viewBox="0 0 48 48" width="48" xmlns="http://www.w3.org/2000/svg"><path d="m19.14 34.76c6.3-10 17.13-13.19 25.71 0-8.71 15.6-21.32 8.54-25.71 0z" fill="#555"/><path d="m39 35a7 7 0 1 1 -7-7 7 7 0 0 1 7 7z" fill="#fff"/><path d="m36 35a4 4 0 1 1 -4-4 4 4 0 0 1 4 4z" fill="#555"/><path d="m36 33a2 2 0 1 1 -2-2 2 2 0 0 1 2 2z" fill="#fff"/><g fill="#ffa726"><path d="m22.39 42a21.3 21.3 0 0 1 -5-6.33 2 2 0 0 1 .09-2c3.84-6.14 9.18-9.67 14.6-9.67a12.35 12.35 0 0 1 2.78.32 4.29 4.29 0 0 1 5-.53 15 15 0 0 1 1.43 1.21h.71v-11h-11v-.77a16.39 16.39 0 0 0 1.21-1.54 5 5 0 0 0 .46-3.39 4.27 4.27 0 0 0 -8.46 1.08 4.88 4.88 0 0 0 .8 2.7c.19.27 1 1.15 1 1.15v.77h-12.01v12h-.71a13.66 13.66 0 0 0 -1.43-1.21 4.28 4.28 0 1 0 .35 7.2c.26-.19 1.08-1 1.08-1h.71v11.01z"/><path d="m41.85 42h.15v-.14z"/></g></svg>