<svg height="48" viewBox="0 0 48 48" width="48" xmlns="http://www.w3.org/2000/svg"><path d="m19.1 33.8c6.3-10 17.1-13.2 25.7 0-8.7 15.6-21.3 8.5-25.7 0z" fill="#555"/><path d="m14 34v-20h20v9.2a8.15 8.15 0 0 1 2 .5v-11.7h-24v24z" fill="#505050"/><path d="m17.4 34.7a2 2 0 0 1 .1-2 18.24 18.24 0 0 1 2.6-3.4v-1.3h-14.1v14h14v-3.4a17.57 17.57 0 0 1 -2.6-3.9z" fill="#f57c00"/><path d="m39 34a7 7 0 1 1 0-.09z" fill="#fff"/><path d="m36 34a4 4 0 1 1 -4-4 4 4 0 0 1 4 4z" fill="#555"/><path d="m36 32a2 2 0 1 1 -2-2 2 2 0 0 1 2 2z" fill="#fff"/><path d="m20 6h-14v14h14z" fill="#388e3c"/><path d="m42 6h-14v14h14z" fill="#d32f2f"/></svg>