<svg height="48" viewBox="0 0 48 48" width="48" xmlns="http://www.w3.org/2000/svg"><path d="m37 25h7v12h-7z" fill="#4a148c"/><path d="m20.5 17.3c-2.5 0-5.8 1.3-9 2.9-1.8.9-7.5 8-7.5 10.5s1.3 2.8 2.1 2.6c1.2-.3 3.7-4 7-8 2.3-2.8 4.8-5.5 7.4-8z" fill="#ffcc80"/><path d="m29.3 20.3c.5.3 4.4 3.8 5.7 5.1v10.6c-.4.3-6.7-.9-11-.8-3.5.2-7 1.2-10.1 2.9-1.6.6-3.7-.6-3.6-1.8.2-2.2 3.3-3 5.1-3.9 1.2-.6 4.8-2.1 6.2-3.5 2.2-2.3 7.7-8.6 7.7-8.6z" fill="#ffcc80"/><path d="m9.9 38.4c-.3-.4-1.1-2.3-.4-3.5s2.5-2.3 5.5-3.6c2-1 4-2 5.9-3.2l13.9-15.7c.3-.4.7-1.3-1.1-3.1s-3.2-1.3-3.6-.9l-19.2 21.7c-.4.4-5.8 8.7-4.7 9.8.8.6 3.7-1.5 3.7-1.5z" fill="#1976d2"/></svg>