<svg height="48" viewBox="0 0 48 48" width="48" xmlns="http://www.w3.org/2000/svg"><path d="m34 24h2v5.9h-2z" fill="#ccc"/><path d="m34 38h2v6h-2z" fill="#999"/><path d="m45 33v2h-5.9v-2z" fill="#aaa"/><path d="m31 33v2h-6v-2z" fill="#424242"/><path d="m41.4 26.3 1.4 1.4-4.2 4.2-1.4-1.4z" fill="#bdbdbd"/><path d="m31.5 36.1 1.4 1.4-4.2 4.2-1.4-1.4z" fill="#777"/><path d="m42.7 40.4-1.4 1.4-4.2-4.2 1.4-1.4z" fill="#aaa"/><path d="m32.9 30.5-1.4 1.4-4.2-4.2 1.4-1.4z" fill="#333"/><path d="m23.7 38h-11.7a2 2 0 0 1 -2-2v-28a2 2 0 0 1 2-2h12v6a4 4 0 0 0 4 4h6v6.05c.33 0 .66-.05 1-.05s.67 0 1 .05v-7.05l-11-11h-13a4 4 0 0 0 -4 4v28a4 4 0 0 0 4 4h12.62a11 11 0 0 1 -.92-2zm2.3-30.17 6.17 6.17h-4.17a2 2 0 0 1 -2-2z" fill="#555"/><path d="m28 14h4.17l-6.17-6.17v4.17a2 2 0 0 0 2 2z" fill="#fff"/><path d="m23 34a12 12 0 0 1 11-11.95v-6.05h-6a4 4 0 0 1 -4-4v-6h-12a2 2 0 0 0 -2 2v28a2 2 0 0 0 2 2h11.7a11.86 11.86 0 0 1 -.7-4z" fill="#fff"/><path d="m22.7 16-1.37-1.37-5.33 5.37-3.33-3.33-1.3 1.33 4.7 4.7z" fill="#d32f2f"/></svg>