<svg height="48" viewBox="0 0 48 48" width="48" xmlns="http://www.w3.org/2000/svg"><path d="m25 4h-13a4 4 0 0 0 -4 4v28a4 4 0 0 0 4 4h20a4 4 0 0 0 4-4v-21zm7.17 10h-4.17a2 2 0 0 1 -2-2v-4.17zm1.83 22a2 2 0 0 1 -2 2h-20a2 2 0 0 1 -2-2v-28a2 2 0 0 1 2-2h12v6a4 4 0 0 0 4 4h6z" fill="#555"/><path d="m28 14h4.17l-6.17-6.17v4.17a2 2 0 0 0 2 2z" fill="#fff"/><path d="m28 16a4 4 0 0 1 -4-4v-6h-12a2 2 0 0 0 -2 2v28a2 2 0 0 0 2 2h20a2 2 0 0 0 2-2v-20z" fill="#fff"/><path d="m22.7 16-1.37-1.37-5.33 5.37-3.33-3.33-1.3 1.33 4.7 4.7z" fill="#d32f2f"/><path d="m31.5 32a2 2 0 0 0 -.79.16l-10.5 4.5a2 2 0 0 0 0 3.68l10.5 4.5a2.06 2.06 0 0 0 1.58 0l10.5-4.5a2 2 0 0 0 0-3.68l-10.5-4.5a2 2 0 0 0 -.79-.16z" fill="#555"/><path d="m31.5 34 10.5 4.5-10.5 4.5-10.5-4.5z" fill="#ffcc80"/><path d="m31.5 26a2 2 0 0 0 -.79.16l-10.5 4.5a2 2 0 0 0 0 3.68l10.5 4.5a2.06 2.06 0 0 0 1.58 0l10.5-4.5a2 2 0 0 0 0-3.68l-10.5-4.5a2 2 0 0 0 -.79-.16z" fill="#555"/><path d="m31.5 28 10.5 4.5-10.5 4.5-10.5-4.5z" fill="#ffcc80"/><path d="m31.5 20a2 2 0 0 0 -.79.16l-10.5 4.5a2 2 0 0 0 0 3.68l10.5 4.5a2.06 2.06 0 0 0 1.58 0l10.5-4.5a2 2 0 0 0 0-3.68l-10.5-4.5a2 2 0 0 0 -.79-.16z" fill="#555"/><path d="m31.5 22 10.5 4.5-10.5 4.5-10.5-4.5z" fill="#ffcc80"/></svg>