<svg height="48" viewBox="0 0 48 48" width="48" xmlns="http://www.w3.org/2000/svg"><path d="m24 38h-12a2 2 0 0 1 -2-2v-28a2 2 0 0 1 2-2h12v6a4 4 0 0 0 4 4h6v10h2v-11l-11-11h-13a4 4 0 0 0 -4 4v28a4 4 0 0 0 4 4h12zm2-30.17 6.17 6.17h-4.17a2 2 0 0 1 -2-2z" fill="#555"/><path d="m28 14h4.17l-6.17-6.17v4.17a2 2 0 0 0 2 2z" fill="#fff"/><path d="m34 16h-6a4 4 0 0 1 -4-4v-6h-12a2 2 0 0 0 -2 2v28a2 2 0 0 0 2 2h22z" fill="#fff"/><path d="m40 42-3 3-3-3-3 3-3-3-3 3-3-3v-18h18z" fill="#1976d2"/><path d="m38 41-1 1-3-3-3 3-3-3-3 3-1-1v-15h14z" fill="#d7e1fe"/><g fill="#1976d2"><path d="m26 28h6v2h-6z"/><path d="m26 32h10v2h-10z"/><path d="m26 36h10v2h-10z"/></g><path d="m22.7 16-1.37-1.37-5.33 5.37-3.33-3.33-1.3 1.33 4.7 4.7z" fill="#d32f2f"/></svg>