<svg height="48" viewBox="0 0 48 48" width="48" xmlns="http://www.w3.org/2000/svg"><path d="m41.33 24a17.4 17.4 0 0 1 -34.79 0 17.4 17.4 0 0 1 34.79 0z" fill="#1976d2"/><path d="m39.72 21.8c1.49-4.44.26-7.3.19-7.46l-1.23.55a8.77 8.77 0 0 1 .14 5.16 35.89 35.89 0 0 0 -8.12-10.05h1.07l.14-1.33a17 17 0 0 0 -2.86.09 17.58 17.58 0 0 0 -2.05-1.29c-3.25-1.47-6-1.87-8.28-1.06a6.17 6.17 0 0 0 -3.43 2.94l1.22.56a4.85 4.85 0 0 1 2.66-2.24c1.92-.67 4.34-.34 7.19 1 .23.1.44.24.66.36a17.41 17.41 0 0 0 -10.11 6.7 31.44 31.44 0 0 0 -3.4 5.75 12.46 12.46 0 0 0 -1.81-.05 19 19 0 0 1 .85-8.56l-1.25-.48a19.57 19.57 0 0 0 -1 9.22 7.32 7.32 0 0 0 -4.3 2.39l1.06.8a6.06 6.06 0 0 1 3.54-1.8 15.17 15.17 0 0 0 1.2 3.35 20.39 20.39 0 0 0 -.51 9.22 10.1 10.1 0 0 1 -3.36-3l-1.06.8a11.32 11.32 0 0 0 5 4 6.37 6.37 0 0 0 .44.82c2.4 3.66 5.46 3.91 6.25 3.91a.55.55 0 0 0 .18 0l-.1-1.33c-.13 0-2.65.14-4.83-2.77a11.16 11.16 0 0 0 2.78.24h.18a16 16 0 0 0 3.84-.79c2.31 1.8 6.39 4.24 10 4.24a11.9 11.9 0 0 0 1.33-.1 5.89 5.89 0 0 0 4.26-3.25l-1.2-.74a4.56 4.56 0 0 1 -3.33 2.55c-3.18.58-7.18-1.65-9.54-3.33a40 40 0 0 0 9.9-5.05c2.92 1.92 5.43 3.74 7.17 5h.05l.79-1.08h-.06c-1.67-1.21-4-2.92-6.82-4.77a20.49 20.49 0 0 0 3.71-3.8 21.07 21.07 0 0 0 2.13-3.58c1.17 2.69 1.78 5.09 1.63 6.56l1.33.13c.22-2.02-.64-5.12-2.24-8.43zm-27.72.99h1c-.2.5-.38 1-.55 1.5a15.25 15.25 0 0 1 -.45-1.5zm4.75 14h-.09a9.91 9.91 0 0 1 -3.72-.54 15.47 15.47 0 0 1 -.18-8.25c2.61 4.46 3.63 5.64 6.58 8.24a11.88 11.88 0 0 1 -2.64.55zm4.16-1a.73.73 0 0 1 -.16-.14c-3.3-2.88-4.12-3.68-7.32-9.27l-.14-.27a29.12 29.12 0 0 1 1.05-3.11 17.63 17.63 0 0 1 3.58 1 79.91 79.91 0 0 1 12.94 7 39.62 39.62 0 0 1 -10 4.82zm15-9.49a19.31 19.31 0 0 1 -3.91 3.84 83.15 83.15 0 0 0 -13.59-7.38 19.18 19.18 0 0 0 -3.52-1.05 29.35 29.35 0 0 1 3.11-5.15 16.3 16.3 0 0 1 10.74-6.44c4 2.83 7.4 7.51 9.54 11.8a19 19 0 0 1 -2.47 4.41z" fill="#90caf9"/><path d="m22.3 36.68a1.62 1.62 0 1 1 -1.81-1.41h.2a1.52 1.52 0 0 1 1.61 1.41z" fill="#fff"/><path d="m20.69 38.77a2.1 2.1 0 1 1 2.31-2.09 2.21 2.21 0 0 1 -2.31 2.09zm0-2.85a.86.86 0 0 0 -.93.76 1 1 0 1 0 1.88.4 1 1 0 0 0 -.74-1.08.76.76 0 0 0 -.21-.08z" fill="#90caf9"/><path d="m14.77 23.55a2.13 2.13 0 1 1 -2.37-1.86h.25a2 2 0 0 1 2.12 1.86z" fill="#fff"/><path d="m12.66 26.09a2.55 2.55 0 1 1 2.78-2.54 2.67 2.67 0 0 1 -2.78 2.54zm0-3.75a1.23 1.23 0 1 0 .44 2.42 1.24 1.24 0 0 0 1-1.21 1.35 1.35 0 0 0 -1.45-1.21z" fill="#90caf9"/><path d="m30.55 9.55a2.13 2.13 0 1 1 -2.37-1.86h.26a2 2 0 0 1 2.11 1.86z" fill="#fff"/><path d="m28.44 12.09a2.55 2.55 0 1 1 2.78-2.54 2.67 2.67 0 0 1 -2.78 2.54zm0-3.75a1.23 1.23 0 1 0 1.45 1.21 1.37 1.37 0 0 0 -1.45-1.21z" fill="#90caf9"/><path d="m40.6 22.18a1.62 1.62 0 1 1 -1.81-1.41h.2a1.53 1.53 0 0 1 1.61 1.41z" fill="#fff"/><path d="m39 24.27a2.1 2.1 0 1 1 2.27-2.09 2.2 2.2 0 0 1 -2.27 2.09zm0-2.85a.78.78 0 1 0 .94.76.87.87 0 0 0 -.94-.76z" fill="#90caf9"/><path d="m33.49 31a1.62 1.62 0 1 1 -1.8-1.41h.19a1.52 1.52 0 0 1 1.61 1.41z" fill="#fff"/><path d="m31.88 33.12a2.1 2.1 0 1 1 2.28-2.12 2.21 2.21 0 0 1 -2.28 2.12zm0-2.86a.77.77 0 1 0 .95.75.88.88 0 0 0 -.95-.75z" fill="#90caf9"/><path d="m13.72 36.51a1.62 1.62 0 1 1 -1.81-1.41h.2a1.52 1.52 0 0 1 1.61 1.41z" fill="#fff"/><path d="m12.11 38.6a2.1 2.1 0 1 1 2.27-2.09 2.2 2.2 0 0 1 -2.27 2.09zm0-2.85a.88.88 0 0 0 -.95.76 1 1 0 0 0 1.88 0 .84.84 0 0 0 -.93-.76z" fill="#90caf9"/></svg>