<svg height="48" viewBox="0 0 48 48" width="48" xmlns="http://www.w3.org/2000/svg"><path d="m40.62 23.69a2.19 2.19 0 0 0 .72-1.53 2.1 2.1 0 0 0 -1.12-1.86 10.15 10.15 0 0 0 -.23-6l-1.22.55a8.93 8.93 0 0 1 .12 5.2 36.12 36.12 0 0 0 -7.76-9.84 2.63 2.63 0 0 0 .09-.31h.64l.14-1.31h-.9a2.56 2.56 0 0 0 -4-1.07l-.1-.07c-3.18-1.53-5.95-1.9-8.21-1.08a6.19 6.19 0 0 0 -3.42 3l1.21.56a4.81 4.81 0 0 1 2.66-2.25c1.89-.68 4.27-.35 7.07 1a2.54 2.54 0 0 0 -.16.67 17.31 17.31 0 0 0 -9.15 6.4 30.53 30.53 0 0 0 -3.22 5.38 2.45 2.45 0 0 0 -2 .15 19.16 19.16 0 0 1 .86-8.44l-1.25-.48a19.67 19.67 0 0 0 -.95 9.27 7.29 7.29 0 0 0 -4.35 2.37l1.07.81a5.85 5.85 0 0 1 3.3-1.81 2.43 2.43 0 0 0 1.14 2.73c.09.2.2.4.3.59a21.41 21.41 0 0 0 -.66 8.46 2.12 2.12 0 0 0 -.49.43 10 10 0 0 1 -2.75-2.67l-1 .8a11.26 11.26 0 0 0 3.31 3.12 2.1 2.1 0 0 0 1.93 2.19 2.19 2.19 0 0 0 .51 0 7.48 7.48 0 0 0 5.9 3.46h.2l-.11-1.33c-.11 0-2.64.13-4.82-2.78a11.27 11.27 0 0 0 2.75.24h.19a11.07 11.07 0 0 0 2.3-.37 2.1 2.1 0 0 0 1.64 1 2.18 2.18 0 0 0 1.34-.41c2.35 1.58 5.6 3.2 8.56 3.2a5.72 5.72 0 0 0 1.3-.17 5.88 5.88 0 0 0 4.26-3.26l-1.18-.62a4.57 4.57 0 0 1 -3.33 2.57c-2.88.53-6.43-1.26-8.82-2.86a2.18 2.18 0 0 0 .07-.6s0-.09 0-.14a40.93 40.93 0 0 0 7.78-3.88 2.1 2.1 0 0 0 1.13.44 2.18 2.18 0 0 0 1.45-.49c2.37 1.61 4.41 3.08 5.88 4.15h.05l.78-1.08h-.05c-1.49-1.08-3.54-2.57-5.93-4.18a2.19 2.19 0 0 0 .09-.5 2.1 2.1 0 0 0 -.16-.79 19.37 19.37 0 0 0 2.98-3.11 22 22 0 0 0 1.81-2.93 2.08 2.08 0 0 0 .28.05 2.18 2.18 0 0 0 .32 0 14 14 0 0 1 1.33 5.88l1.26.12a15.15 15.15 0 0 0 -1.38-6.57zm-12.12-15.41a1.35 1.35 0 0 1 1.5 1.21 1.23 1.23 0 1 1 -1.5-1.21zm-16.76 15.48a1.23 1.23 0 0 1 1-1.43 1.35 1.35 0 0 1 1.45 1.21 1.23 1.23 0 0 1 -2.45.22zm1.39 13.19a1 1 0 1 1 -1.88-.4.87.87 0 0 1 .95-.76h.19a1 1 0 0 1 .74 1.16zm5.72-.46a9.66 9.66 0 0 1 -2.05.36h-.1a10 10 0 0 1 -2.24-.17s0-.08 0-.13a2.11 2.11 0 0 0 -1.94-2.1 18.78 18.78 0 0 1 .34-6.37c2.45 4.23 3.51 5.5 6.13 7.86a2.09 2.09 0 0 0 -.14.54zm2.85.41a.78.78 0 0 1 -.93.59.78.78 0 1 1 0-1.52.78.78 0 0 1 .93.92zm.82-1.56a2.1 2.1 0 0 0 -2.63-.43c-2.58-2.3-3.53-3.46-6.42-8.51l-.12-.23v-.11a2.67 2.67 0 0 0 2.14-2.5 2.54 2.54 0 0 0 0-.36 18.67 18.67 0 0 1 2.51.8 77.22 77.22 0 0 1 12.1 6.47 2.11 2.11 0 0 0 -.07.41 2.09 2.09 0 0 0 .08.72 39.5 39.5 0 0 1 -7.6 3.73zm9.63-3.55a1 1 0 0 1 -1.15-.79.87.87 0 0 1 1-.72.85.85 0 0 1 .93.76 1 1 0 0 1 -.79.74zm5.47-8.25a20.41 20.41 0 0 1 -1.72 2.82 18.07 18.07 0 0 1 -2.68 2.9 2.06 2.06 0 0 0 -2.37.12 79.12 79.12 0 0 0 -12.35-6.6 18.94 18.94 0 0 0 -3.49-1 29.13 29.13 0 0 1 3.08-5.17 16.22 16.22 0 0 1 8.34-5.92 2.55 2.55 0 0 0 2.07 1.31 2.67 2.67 0 0 0 1.91-.7 34.2 34.2 0 0 1 7.29 9.36 2.09 2.09 0 0 0 -.08 2.87zm2.38-1.22a.77.77 0 0 1 -.92.6.87.87 0 0 1 -.93-.76.86.86 0 0 1 .93-.76.77.77 0 0 1 .92.92z" fill="#fff"/></svg>