<svg height="48" viewBox="0 0 48 48" width="48" xmlns="http://www.w3.org/2000/svg"><path d="m24 4.5a19.49 19.49 0 0 0 -19.5 19.5 19.49 19.49 0 0 0 19.5 19.5h.64.36a19.5 19.5 0 0 0 18.5-19.5 19.49 19.49 0 0 0 -19.5-19.5zm14.1 26.29a21.13 21.13 0 0 1 -1.89 1.37 30.52 30.52 0 0 0 -.08-4.78 19.59 19.59 0 0 0 5.12-3.38 17.41 17.41 0 0 1 -.32 3.3 10.07 10.07 0 0 1 -2.83 3.49zm-7.29 9.06a16.41 16.41 0 0 1 -1.93.69c-.26-.8-.56-1.7-.87-2.69a33.6 33.6 0 0 0 5.19-1.63 7 7 0 0 1 -2.39 3.63zm-20.47-26.36a16.08 16.08 0 0 0 2.72.82 32.21 32.21 0 0 0 -.37 6.36c-2.29-.76-4-2-4.54-3.46a16.76 16.76 0 0 1 2.19-3.72zm16.9-6.43a17 17 0 0 1 4.29 1.42 19.9 19.9 0 0 1 -1.93 1.18 18.17 18.17 0 0 0 -2.36-2.6zm.27 3.57a25.92 25.92 0 0 1 -4.65 1.37l-.92.16c-.33-2-.59-3.75-.77-5.19.44-.07.89-.14 1.34-.17 1.49.37 3.3 1.69 5 3.83zm7.4 10.22c-.19-.7-.41-1.38-.63-2.05a12 12 0 0 0 3.87-4.66 17.14 17.14 0 0 1 2.78 6.53 9.4 9.4 0 0 1 -3.64 3.52c-.46.29-.95.56-1.46.83a42.48 42.48 0 0 0 -.92-4.17zm-2.17.6a35.5 35.5 0 0 1 .95 4.55 40.84 40.84 0 0 1 -8.38 2.44c-.39-1.49-.75-3-1.08-4.47-.06-.25-.11-.5-.17-.76a26.13 26.13 0 0 0 8.27-3.11c.15.46.29.9.41 1.35zm-17.46 3.78c-.09-.57-.16-1.13-.22-1.69a23.59 23.59 0 0 0 3.46.25 30.66 30.66 0 0 0 3.32-.21c.06.3.13.59.19.89.33 1.49.67 2.94 1 4.35a42.69 42.69 0 0 1 -5.65.4h-1.28a38.32 38.32 0 0 1 -.82-3.99zm.06-10.56q1.21.12 2.43.12c.77 0 1.56 0 2.36-.11.34 2.1.76 4.35 1.24 6.69a24.77 24.77 0 0 1 -2.85.17 22 22 0 0 1 -3.62-.3 30.14 30.14 0 0 1 .44-6.57zm2.06 16.79a45.94 45.94 0 0 0 6.2-.46c.47 1.81.94 3.52 1.41 5.11a29.83 29.83 0 0 1 -4.33.32c-.55 0-1.1 0-1.64 0a26.68 26.68 0 0 1 -2.25-5c.21.03.4.03.61.03zm6.21-10.46c-.47-2.25-.9-4.51-1.27-6.62l1-.17a28.22 28.22 0 0 0 5.54-1.72 30.76 30.76 0 0 1 2.7 5.51 24 24 0 0 1 -7.97 3zm-3.83-8.57c-.68.06-1.35.09-2 .09s-1.29 0-1.9-.08a10.27 10.27 0 0 1 2.65-4.8c.22-.07.43-.15.65-.21.13 1.57.33 3.2.6 5.02zm-6.24-.33c-.57-.12-1.11-.27-1.62-.43a16.87 16.87 0 0 1 2.5-2 19.6 19.6 0 0 0 -.88 2.45zm-.78 10.94c.07.83.17 1.66.3 2.51.18 1.19.41 2.34.68 3.45-3.31-.36-5.53-1.2-6.73-2.09a17 17 0 0 1 -.26-2.91 17.63 17.63 0 0 1 .49-4 11.55 11.55 0 0 0 5.52 3.06zm1.62 8.28a31.19 31.19 0 0 0 1.95 4.84c-2.81-.37-5.16-1.14-6.46-2.36a17.37 17.37 0 0 1 -2-3.94 22.21 22.21 0 0 0 6.51 1.48zm3.33 7.2a18.62 18.62 0 0 0 1.6 2.06 17.26 17.26 0 0 1 -5.79-2.91 21.48 21.48 0 0 0 4.19.87zm2.93.16a32.08 32.08 0 0 0 5-.4c.31 1 .62 1.9.92 2.75a18.63 18.63 0 0 1 -2.24.19 6.53 6.53 0 0 1 -3.68-2.52zm6.71-3c-.48-1.58-1-3.29-1.46-5a42.41 42.41 0 0 0 8.11-2.34 25.33 25.33 0 0 1 -.14 5.15 30.58 30.58 0 0 1 -6.51 2.2zm9-23.68a7.66 7.66 0 0 1 -2.94 4.56 33 33 0 0 0 -2.57-5.06 21 21 0 0 0 2.82-1.8 18.85 18.85 0 0 1 2.73 2.3zm-1.02 25a15.76 15.76 0 0 0 .52-2 23.63 23.63 0 0 0 2.66-1.66 17.19 17.19 0 0 1 -3.18 3.66z" fill="#1976d2"/></svg>