<svg height="48" viewBox="0 0 48 48" width="48" xmlns="http://www.w3.org/2000/svg"><path d="m8.25 43.5v-39h20.69l10.81 10.81v28.19z" fill="#fff"/><path d="m29 4h-17a4 4 0 0 0 -4 4v32a4 4 0 0 0 4 4h24a4 4 0 0 0 4-4v-25zm7.17 10h-4.17a2 2 0 0 1 -2-2v-4.17zm1.83 26a2 2 0 0 1 -2 2h-24a2 2 0 0 1 -2-2v-32a2 2 0 0 1 2-2h16v6a4 4 0 0 0 4 4h6z" fill="#555"/><path d="m32 14h4.17l-6.17-6.17v4.17a2 2 0 0 0 2 2z" fill="#fff"/><path d="m32 16a4 4 0 0 1 -4-4v-6h-16a2 2 0 0 0 -2 2v32a2 2 0 0 0 2 2h24a2 2 0 0 0 2-2v-24z" fill="#fff"/><path d="m8 20h32v14h-32z" fill="#303f9f"/><g fill="#fff"><path d="m15.94 25.54 1.6-2.94h2l-2.48 4.23 2.55 4.3h-2l-1.64-3-1.64 3h-2l2.55-4.3-2.54-4.23h2z"/><path d="m22.81 22.59 2.19 6.19 2.18-6.19h2.31v8.53h-1.76v-2.33l.18-4-2.3 6.36h-1.21l-2.3-6.35.18 4v2.33h-1.76v-8.54z"/><path d="m32.78 29.71h3.73v1.41h-5.51v-8.53h1.76z"/></g></svg>