<svg height="48" viewBox="0 0 48 48" width="48" xmlns="http://www.w3.org/2000/svg"><path d="m4 35.74v-24a3.77 3.77 0 0 1 3.85-3.74h32.15a3.71 3.71 0 0 1 4 3.51v.23 24a4.16 4.16 0 0 1 -4 4.26h-32a4.23 4.23 0 0 1 -4-4.26z" fill="#555"/><path d="m6 35.71v-24a1.8 1.8 0 0 1 1.85-1.71h32.15a1.8 1.8 0 0 1 2 1.59.76.76 0 0 1 0 .15v24c0 1.1-.64 2.25-1.74 2.26h-32a2.48 2.48 0 0 1 -2.26-2.29z" fill="#fff"/><path d="m8 12h9.96v24h-9.96z" fill="#26a69a"/><g fill="#555"><path d="m20 12h1.96v24h-1.96z"/><path d="m24.68 35 13-23 2.31.92-13.19 23.34z"/><path d="m35.76 35.26-1.48-1.48 2.72-2.78-2.76-2.76 1.48-1.48 4.28 4.24z"/><path d="m28.24 21.74-4.24-4.24 4.24-4.24 1.48 1.48-2.72 2.76 2.76 2.76z"/></g><path d="m10 32h6v2h-6z" fill="#fff"/><path d="m10 26h6v2h-6z" fill="#fff"/><path d="m10 20h6v2h-6z" fill="#fff"/><path d="m10 14h6v2h-6z" fill="#fff"/></svg>