<svg height="48" viewBox="0 0 48 48" width="48" xmlns="http://www.w3.org/2000/svg"><path d="m4 14h40v26h-40z" fill="#fff"/><path d="m4 8h40v32h-40z" fill="#555"/><path d="m44 8v6h-40v-6z" fill="#26a69a"/><circle cx="41" cy="11" fill="#d32f2f" r="2"/><circle cx="31" cy="11" fill="#ffcc80" r="2"/><circle cx="36" cy="11" fill="#90caf9" r="2"/><path d="m6 14h36v24h-36z" fill="#fff"/><g fill="#555"><path d="m14.72 23.45 1.76-3.45h2.22l-2.7 5 2.8 5h-2.27l-1.8-3.5-1.8 3.5h-2.24l2.8-5-2.73-5h2.24z"/><path d="m22.27 20 2.41 7.25 2.4-7.25h2.54v10h-1.93v-2.74l.2-4.72-2.53 7.46h-1.36l-2.5-7.45.2 4.71v2.74h-1.93v-10z"/><path d="m33.23 28.34h4.1v1.66h-6v-10h1.93z"/></g></svg>