<svg height="48" viewBox="0 0 48 48" width="48" xmlns="http://www.w3.org/2000/svg"><g fill="#555"><path d="m10.8 13.3c-.2 0-.3 0-.4-.1-.3-.2-.4-.7-.2-1 4.9-6.5 13.5-8.9 21.1-5.8 1.3.6 2.6 1.3 3.8 2.1.3.2.4.7.2 1s-.7.4-1 .2c-1.1-.8-2.2-1.5-3.5-2-7-2.9-14.9-.7-19.3 5.3-.2.2-.4.3-.7.3z"/><path d="m26.8 17.1c.5.2.9.4 1.3.7 2 1.5 2.8 4.2 2.2 6.5.3.1.5.2.7.3.3-.5.6-.9 1-1.3.3-2.6-.8-5.2-3-6.8-.5-.4-1-.7-1.6-.9-3.2-1.3-6.9-.3-9 2.5-3.4 4.5-4.4 10.7-2.8 16.5.1.4.4.6.7.6h.2c.4-.1.6-.5.5-.9-1.4-5.4-.5-11.1 2.6-15.2 1.7-2.3 4.6-3.1 7.2-2z"/><path d="m22.4 21.1c.4-.5 1-.9 1.7-1s1.4.1 2 .5c.8.7 1.2 1.7 1 2.7.5.1 1 .2 1.5.4.4-1.6-.2-3.3-1.5-4.3-.9-.7-2-1-3.1-.8-1.1.1-2 .7-2.7 1.6-2.8 3.7-3.6 8.8-2.3 13.6.1.7.1 1.4-.3 2-.3.6-.9 1-1.6 1.2-.6.2-1.2.1-1.7-.1-.7-.3-1.3-.9-1.5-1.7-1.9-6.4-.7-13.2 3-18.2 1.9-2.4 4.7-3.8 7.6-3.8 1.2 0 2.4.2 3.6.9.7.3 1.4.6 2 1.1 2 1.5 3.2 3.7 3.6 6 .4-.5.9-.9 1.3-1.3-.6-2.3-2-4.4-4-6-.7-.5-1.5-1-2.3-1.3-4.7-1.9-10-.4-13 3.6-4 5.3-5.3 12.6-3.4 19.4.3 1.2 1.2 2.2 2.4 2.7.5.2 1.1.3 1.6.3.4 0 .8 0 1.2-.1 1.1-.2 2-.9 2.5-1.9.6-1 .7-2.1.4-3.2-1.2-4.4-.5-9 2-12.3z"/><path d="m25 23.1c0-.1.1-.1.1-.2.2-.3.1-.8-.2-1s-.8-.1-1 .2c-.3.5-.6 1-.9 1.5.5-.3 1.1-.5 2-.5z"/><path d="m25.1 35.7c-.7-1-1.2-2.2-1.5-3.4-.2-.9-.4-1.8-.4-2.6-.7-.8-1.1-1.5-1.4-2.2-.2 1.7-.1 3.6.4 5.4s1.3 3.4 2.3 4.8c.2-.7.4-1.3.6-2z"/><path d="m29.6 10.7c.9.4 1.9 1 2.7 1.6 2.2 1.7 3.6 3.8 4.4 6.3.4-.2.9-.4 1.3-.5-.9-2.7-2.6-5.2-5-7-.9-.7-1.9-1.2-3-1.7-6.1-2.5-13.1-.6-17 4.7-3.5 4.6-5.2 10.5-4.9 16.5 0 .4.4.7.8.7s.7-.4.7-.8c-.2-5.7 1.4-11.2 4.6-15.5 3.5-4.7 9.8-6.5 15.4-4.3z"/></g><path d="m36.6 30c2.5-5 3.6-9.2 2.4-9.9s-4.3 2.4-7.3 7.1c-4-2-7.4-2.7-8-1.5-.7 1.2 1.6 3.8 5.3 6.3-2.5 5-3.6 9.2-2.4 9.9s4.3-2.4 7.3-7c4 2 7.4 2.7 8.1 1.5.6-1.2-1.7-3.8-5.4-6.4z" fill="#4eb600"/><path d="m24.1 40c-.6-.6-1.2-1.3-1.7-2-.1-.2-.4-.3-.6-.3s-.5.1-.6.3c-.8 1.1-1.9 1.9-3.3 2.3-.7.2-1.3.2-2 .2-.4-.1-.8.3-.8.7s.3.8.7.8c.9 0 1.7-.1 2.5-.3 1.4-.4 2.6-1.1 3.5-2.1.5.7 1.2 1.3 1.8 1.9.2.2.5.4.7.6-.2-.6-.3-1.3-.2-2.1z" fill="#555"/></svg>