<svg height="48" viewBox="0 0 48 48" width="48" xmlns="http://www.w3.org/2000/svg"><path d="m38 42h-28a4 4 0 0 1 -4-4v-28a4 4 0 0 1 4-4h28a4 4 0 0 1 4 4v28a4 4 0 0 1 -4 4z" fill="#fff"/><path d="m8 12v-2a2 2 0 0 1 2-2h2v-2h-2a4 4 0 0 0 -4 4v2z" fill="#555"/><path d="m40 36v2a2 2 0 0 1 -2 2h-2v2h2a4 4 0 0 0 4-4v-2z" fill="#555"/><path d="m26 12 3.5 3.5-6.5 6.5-1 1-6.5 6.5-3.5-3.5v10h10l-3.5-3.5 6.5-6.5 1-1 6.5-6.5 3.5 3.5v-10z" fill="#1976d2"/><g fill="#555"><path d="m36 8h2a2 2 0 0 1 2 2v2h2v-2a4 4 0 0 0 -4-4h-2z"/><path d="m12 40h-2a2 2 0 0 1 -2-2v-2h-2v2a4 4 0 0 0 4 4h2z"/><path d="m26 6h6v2h-6z"/><path d="m16 6h6v2h-6z"/><path d="m16 40h6v2h-6z"/><path d="m26 40h6v2h-6z"/><path d="m6 16h2v6h-2z"/><path d="m6 26h2v6h-2z"/><path d="m40 16h2v6h-2z"/><path d="m40 26h2v6h-2z"/></g></svg>