<svg height="48" viewBox="0 0 48 48" width="48" xmlns="http://www.w3.org/2000/svg"><path d="m35.7 14.6-9.3-5.4c-.7-.4-1.5-.6-2.3-.6s-1.6.2-2.3.6l-9.3 5.4c-1.4.8-2.3 2.3-2.3 4v.8l2 1.2 2-1.2v-.6c0-.4.2-.7.5-.9l9-5.2c.3-.2.7-.2 1 0l9 5.2c.3.2.5.5.5.9v1.7c.6-.3 1.3-.5 2-.5h.1c.7 0 1.3.2 2 .5v-1.9c-.3-1.7-1.2-3.2-2.6-4z" fill="#42a5f5"/><path d="m34 28.6v.6c0 .4-.2.7-.5.9l-9 5.2c-.3.2-.7.2-1 0l-9-5.2c-.3-.2-.5-.5-.5-.9v-1.7c-.6.3-1.3.5-2 .5 0 0 0 0-.1 0-.7 0-1.3-.2-2-.5v1.9c0 1.7.9 3.3 2.3 4l9.3 5.4c.7.4 1.5.6 2.3.6s1.6-.2 2.3-.6l9.3-5.4c1.4-.8 2.3-2.3 2.3-4v-.8l-2-1.2z" fill="#42a5f5"/><g fill="#303f9f"><path d="m17 18.8v1.2l-5 2.9-5-2.9v-5.8l5-2.9 1 .6 3-1.7-2.7-1.5c-.4-.2-.9-.4-1.3-.3-.5 0-.9.1-1.3.3l-5.3 3.1c-.9.4-1.4 1.3-1.4 2.2v6.1c0 1 .5 1.9 1.3 2.3l5.3 3.1c.4.2.9.4 1.3.3.5 0 .9-.1 1.3-.3l5.3-3.1c.8-.4 1.3-1.3 1.3-2.3v-3.1z"/><path d="m42.7 25.5-5.3-3.1c-.4-.2-.9-.4-1.3-.3-.5 0-.9.1-1.3.3l-5.3 3.1c-1 .5-1.5 1.4-1.5 2.3v3.1l3-1.7v-1.2l5-2.9 5 2.9v5.8l-5 2.9-1-.6-3 1.7 2.7 1.5c.4.2.9.4 1.3.3.5 0 .9-.1 1.3-.3l5.3-3.1c.8-.4 1.3-1.3 1.3-2.3v-6.1c.1-.9-.4-1.8-1.2-2.3z"/></g></svg>